<svg width="22" height="12" viewBox="0 0 22 12" fill="none" xmlns="http://www.w3.org/2000/svg">
<path d="M6.867 9.39C7.05367 9.39 7.20067 9.44367 7.308 9.551C7.42 9.65367 7.476 9.79133 7.476 9.964V11H0.532V10.426C0.532 10.3093 0.555333 10.188 0.602 10.062C0.653333 9.93133 0.732667 9.81467 0.84 9.712L3.913 6.632C4.16967 6.37067 4.39833 6.121 4.599 5.883C4.80433 5.645 4.97467 5.40933 5.11 5.176C5.24533 4.94267 5.348 4.707 5.418 4.469C5.49267 4.22633 5.53 3.972 5.53 3.706C5.53 3.46333 5.495 3.251 5.425 3.069C5.355 2.88233 5.25467 2.726 5.124 2.6C4.998 2.474 4.844 2.38067 4.662 2.32C4.48467 2.25467 4.284 2.222 4.06 2.222C3.85467 2.222 3.66333 2.25233 3.486 2.313C3.31333 2.369 3.15933 2.45067 3.024 2.558C2.88867 2.66067 2.77433 2.782 2.681 2.922C2.58767 3.062 2.51767 3.216 2.471 3.384C2.39167 3.59867 2.289 3.741 2.163 3.811C2.037 3.881 1.855 3.89733 1.617 3.86L0.707 3.699C0.777 3.21367 0.912333 2.789 1.113 2.425C1.31367 2.05633 1.56333 1.75067 1.862 1.508C2.16533 1.26067 2.51067 1.07633 2.898 0.955C3.29 0.829 3.71 0.766 4.158 0.766C4.62467 0.766 5.05167 0.836 5.439 0.976C5.82633 1.11133 6.15767 1.305 6.433 1.557C6.70833 1.809 6.923 2.11233 7.077 2.467C7.231 2.82167 7.308 3.216 7.308 3.65C7.308 4.02333 7.252 4.36867 7.14 4.686C7.03267 5.00333 6.88567 5.30667 6.699 5.596C6.517 5.88533 6.30233 6.16533 6.055 6.436C5.80767 6.70667 5.54867 6.982 5.278 7.262L2.996 9.593C3.21533 9.52767 3.43233 9.47867 3.647 9.446C3.86633 9.40867 4.074 9.39 4.27 9.39H6.867ZM12.1811 9.761C12.4658 9.761 12.7154 9.72133 12.9301 9.642C13.1448 9.558 13.3244 9.44367 13.4691 9.299C13.6184 9.15433 13.7304 8.98167 13.8051 8.781C13.8798 8.58033 13.9171 8.36333 13.9171 8.13C13.9171 7.57467 13.7631 7.15467 13.4551 6.87C13.1471 6.58533 12.7224 6.443 12.1811 6.443C11.6398 6.443 11.2151 6.58533 10.9071 6.87C10.5991 7.15467 10.4451 7.57467 10.4451 8.13C10.4451 8.36333 10.4824 8.58033 10.5571 8.781C10.6318 8.98167 10.7414 9.15433 10.8861 9.299C11.0354 9.44367 11.2174 9.558 11.4321 9.642C11.6468 9.72133 11.8964 9.761 12.1811 9.761ZM12.1811 2.068C11.9244 2.068 11.7028 2.10767 11.5161 2.187C11.3294 2.26633 11.1731 2.37367 11.0471 2.509C10.9258 2.63967 10.8348 2.79133 10.7741 2.964C10.7181 3.13667 10.6901 3.31867 10.6901 3.51C10.6901 3.71067 10.7134 3.90667 10.7601 4.098C10.8114 4.28467 10.8954 4.45267 11.0121 4.602C11.1288 4.74667 11.2828 4.86333 11.4741 4.952C11.6654 5.04067 11.9011 5.085 12.1811 5.085C12.4611 5.085 12.6968 5.04067 12.8881 4.952C13.0794 4.86333 13.2334 4.74667 13.3501 4.602C13.4668 4.45267 13.5484 4.28467 13.5951 4.098C13.6464 3.90667 13.6721 3.71067 13.6721 3.51C13.6721 3.31867 13.6418 3.13667 13.5811 2.964C13.5204 2.79133 13.4294 2.63967 13.3081 2.509C13.1868 2.37367 13.0328 2.26633 12.8461 2.187C12.6594 2.10767 12.4378 2.068 12.1811 2.068ZM13.8891 5.722C14.5051 5.92267 14.9601 6.23067 15.2541 6.646C15.5481 7.05667 15.6951 7.56067 15.6951 8.158C15.6951 8.606 15.6088 9.012 15.4361 9.376C15.2681 9.74 15.0301 10.0503 14.7221 10.307C14.4141 10.5637 14.0431 10.762 13.6091 10.902C13.1798 11.042 12.7038 11.112 12.1811 11.112C11.6584 11.112 11.1801 11.042 10.7461 10.902C10.3168 10.762 9.94809 10.5637 9.64009 10.307C9.33209 10.0503 9.09176 9.74 8.91909 9.376C8.75109 9.012 8.66709 8.606 8.66709 8.158C8.66709 7.56067 8.81409 7.05667 9.10809 6.646C9.40209 6.23067 9.85709 5.92267 10.4731 5.722C9.98309 5.51667 9.61443 5.225 9.36709 4.847C9.12443 4.469 9.00309 4.014 9.00309 3.482C9.00309 3.09933 9.08009 2.74233 9.23409 2.411C9.39276 2.07967 9.61209 1.79267 9.89209 1.55C10.1721 1.30267 10.5058 1.11133 10.8931 0.976C11.2851 0.836 11.7144 0.766 12.1811 0.766C12.6478 0.766 13.0748 0.836 13.4621 0.976C13.8541 1.11133 14.1901 1.30267 14.4701 1.55C14.7501 1.79267 14.9671 2.07967 15.1211 2.411C15.2798 2.74233 15.3591 3.09933 15.3591 3.482C15.3591 4.014 15.2354 4.469 14.9881 4.847C14.7454 5.225 14.3791 5.51667 13.8891 5.722ZM16.7252 3.139C16.7252 2.80767 16.7859 2.49733 16.9072 2.208C17.0332 1.914 17.2035 1.65967 17.4182 1.445C17.6375 1.23033 17.8942 1.06233 18.1882 0.941C18.4869 0.814999 18.8065 0.751999 19.1472 0.751999C19.4879 0.751999 19.8052 0.814999 20.0992 0.941C20.3979 1.06233 20.6545 1.23033 20.8692 1.445C21.0885 1.65967 21.2612 1.914 21.3872 2.208C21.5132 2.49733 21.5762 2.80767 21.5762 3.139C21.5762 3.461 21.5132 3.76667 21.3872 4.056C21.2612 4.34533 21.0885 4.59967 20.8692 4.819C20.6545 5.03367 20.3979 5.204 20.0992 5.33C19.8052 5.456 19.4879 5.519 19.1472 5.519C18.8065 5.519 18.4869 5.456 18.1882 5.33C17.8942 5.204 17.6375 5.03367 17.4182 4.819C17.2035 4.59967 17.0332 4.34533 16.9072 4.056C16.7859 3.76667 16.7252 3.461 16.7252 3.139ZM17.9292 3.153C17.9292 3.32567 17.9595 3.48667 18.0202 3.636C18.0809 3.78533 18.1649 3.916 18.2722 4.028C18.3842 4.13533 18.5125 4.22167 18.6572 4.287C18.8065 4.34767 18.9699 4.378 19.1472 4.378C19.3199 4.378 19.4785 4.34767 19.6232 4.287C19.7725 4.22167 19.9009 4.13533 20.0082 4.028C20.1202 3.916 20.2065 3.78533 20.2672 3.636C20.3279 3.48667 20.3582 3.32567 20.3582 3.153C20.3582 2.97567 20.3279 2.81233 20.2672 2.663C20.2065 2.509 20.1202 2.376 20.0082 2.264C19.9009 2.152 19.7725 2.06333 19.6232 1.998C19.4785 1.93267 19.3199 1.9 19.1472 1.9C18.9699 1.9 18.8065 1.93267 18.6572 1.998C18.5125 2.06333 18.3842 2.152 18.2722 2.264C18.1649 2.376 18.0809 2.509 18.0202 2.663C17.9595 2.81233 17.9292 2.97567 17.9292 3.153Z" fill="#005327"/>
</svg>
