<svg width="24" height="16" viewBox="0 0 24 16" fill="none" xmlns="http://www.w3.org/2000/svg">
<path d="M6.29959 4.56244C6.19083 4.928 5.58157 5.4426 4.62084 5.48288C3.59164 5.55035 2.79305 5.26636 2.79305 4.10121C2.79305 3.03172 3.38922 2.5574 4.51309 2.5574C5.89476 2.5574 6.5443 3.70846 6.3006 4.56143M4.4718 0.5C1.72255 0.5 0.490931 2.15156 0.530206 4.16969C0.597679 6.75579 2.05991 7.48691 3.83434 7.48691C4.57955 7.48691 5.10725 7.36506 5.4728 7.21601C5.68932 7.13444 5.86555 7.03978 6.0146 6.94512C5.73061 7.70342 4.89073 8.96324 1.84441 8.96324L1.62789 10.9804C1.79002 10.9804 2.3862 10.9532 2.71147 10.9532C4.39023 10.8585 5.7578 10.3842 6.8011 9.46375C7.97935 8.42145 8.71047 6.83635 8.71047 4.92699C8.71047 2.50403 7.70845 0.5 4.4718 0.5Z" fill="#005327"/>
<path d="M13.0395 0.634949H9.14019L8.89648 2.74774H10.5893H10.6165V10.791H13.0395V0.634949Z" fill="#005327"/>
<path d="M22.2196 0.547302H15.0021L14.7715 2.60571H19.4432C17.9135 4.504 16.8702 6.48285 16.1793 8.05788C15.7866 8.96523 15.4613 9.8474 15.2045 10.7024H17.9538C18.5358 8.2331 19.6053 6.04881 20.5399 4.51608C21.0817 3.60672 21.6365 2.78094 22.2186 2.03572V0.547302H22.2196Z" fill="#005327"/>
<path fill-rule="evenodd" clip-rule="evenodd" d="M14.234 9.7981C13.9419 10.1979 13.6781 10.5987 13.4404 10.9914H14.7375C14.8553 10.5997 14.9873 10.2019 15.1343 9.7981H14.234Z" fill="#005327"/>
<path fill-rule="evenodd" clip-rule="evenodd" d="M1.34961 15.5V11.5584H23.4694V15.499H6.09281V15.5H1.34961ZM12.4171 14.8575H13.2962V14.7346H12.8662V12.4366L13.4926 13.8887L13.8571 14.7346H14.0847L15.1401 12.4325V14.7346H14.7111V14.8575H16.0304V14.7346H15.7877V12.3207H16.0304V12.1979H15.0666L14.2076 14.0891L13.3808 12.1979H12.4171V12.3207H12.6608V14.7346H12.4171V14.8575ZM12.0515 13.8505H12.2207V14.8565H9.34255V14.7336H9.67084V12.3197H9.42815V12.1969H12.1724V13.077H12.0032C11.8582 12.7306 11.7454 12.5131 11.6638 12.4235C11.6004 12.355 11.5007 12.3197 11.3667 12.3197H10.3123V13.2925H10.7152C10.842 13.2925 10.9387 13.2593 11.0062 13.1928C11.0837 13.1163 11.1502 12.9753 11.2026 12.7699H11.3718V13.9391H11.2026C11.1985 13.9219 11.1945 13.9048 11.1895 13.8887C11.1391 13.7115 11.0807 13.5896 11.0122 13.5242C10.9417 13.4527 10.842 13.4164 10.7152 13.4164H10.3123V14.7346H11.2509C11.4382 14.7346 11.5782 14.6863 11.6698 14.5886C11.7625 14.4919 11.8994 14.22 12.0515 13.8505ZM7.21364 12.3197C7.09783 12.3197 7.01425 12.352 6.9649 12.4164H6.9639C6.90045 12.501 6.81385 12.7185 6.70408 13.07H6.53489V12.1979H9.18545V13.07H9.01626C8.90649 12.7185 8.81989 12.501 8.75644 12.4164C8.7071 12.352 8.62452 12.3197 8.5077 12.3197H8.18444V14.7336H8.59229V14.8565H7.12905V14.7336H7.53691V12.3197H7.21364ZM19.3516 12.5222C19.0304 12.787 18.8692 13.1224 18.8692 13.5272C18.8692 13.932 19.0304 14.2674 19.3516 14.5322C19.6588 14.785 20.0334 14.9109 20.4704 14.9109C20.9075 14.9109 21.2811 14.785 21.5883 14.5322C21.9095 14.2674 22.0706 13.932 22.0706 13.5272C22.0706 13.1224 21.9095 12.787 21.5883 12.5222C21.2811 12.2694 20.9095 12.1435 20.4704 12.1435C20.0314 12.1435 19.6588 12.2704 19.3516 12.5222ZM19.8189 14.5282C19.6739 14.3379 19.6014 14.0035 19.6014 13.5272C19.6014 13.0509 19.6739 12.7175 19.8189 12.5262C19.9498 12.353 20.1683 12.2664 20.4714 12.2664C20.7746 12.2664 20.9921 12.353 21.123 12.5262C21.268 12.7175 21.3405 13.0509 21.3405 13.5272C21.3405 14.0035 21.268 14.3379 21.123 14.5282C20.9921 14.7014 20.7756 14.788 20.4714 14.788C20.1673 14.788 19.9498 14.7014 19.8189 14.5282ZM16.1844 14.8565H17.5732V14.7336H17.0696V13.5846H17.4573C17.8984 13.5846 18.2378 13.5222 18.4745 13.3963C18.7011 13.2784 18.8138 13.1113 18.8138 12.9008C18.8138 12.6903 18.698 12.5211 18.4644 12.3932C18.2177 12.2623 17.8793 12.1969 17.4523 12.1969H16.1844V12.3197H16.4281V14.7336H16.1844V14.8565ZM17.3143 13.4607H17.0696V12.3197H17.3617C17.8813 12.3197 18.1411 12.5131 18.1411 12.8998C18.1411 13.1153 18.0767 13.2623 17.9498 13.3419C17.8229 13.4214 17.6114 13.4607 17.3143 13.4607ZM3.20257 12.5222C2.88132 12.787 2.72019 13.1224 2.72019 13.5272C2.72019 13.932 2.88132 14.2674 3.20257 14.5322C3.51072 14.785 3.88333 14.9109 4.3214 14.9109C4.75946 14.9109 5.13308 14.785 5.44023 14.5322C5.76148 14.2674 5.92261 13.932 5.92261 13.5272C5.92261 13.1224 5.76148 12.787 5.44023 12.5222C5.13207 12.2694 4.75946 12.1435 4.3214 12.1435C3.88333 12.1435 3.50972 12.2704 3.20257 12.5222ZM3.66883 14.5282C3.52381 14.3379 3.45131 14.0035 3.45131 13.5272C3.45131 13.0509 3.52381 12.7175 3.66883 12.5262C3.79874 12.353 4.01727 12.2664 4.32039 12.2664C4.62351 12.2664 4.84104 12.353 4.97195 12.5262C5.11697 12.7175 5.18947 13.0509 5.18947 13.5272C5.18947 14.0035 5.11697 14.3379 4.97195 14.5282C4.84104 14.7014 4.62351 14.788 4.32039 14.788C4.01727 14.788 3.79975 14.7014 3.66883 14.5282Z" fill="#005327"/>
<path d="M22.8518 8.71045L22.1892 9.77994L21.5266 8.71045H21.0986V10.791H21.4994V9.41236L22.1237 10.4204H22.2577L22.879 9.41236V10.791H23.2828V8.71045H22.8518ZM20.7713 9.08507V8.71045H19.5527V10.791H19.9566V9.97329H20.6847V9.59867H19.9566V9.08406H20.7713V9.08507Z" fill="#005327"/>
</svg>
