<svg width="25" height="15" viewBox="0 0 25 15" fill="none" xmlns="http://www.w3.org/2000/svg">
<path fill-rule="evenodd" clip-rule="evenodd" d="M12.4601 7.00002H1C0.447715 7.00002 0 7.44773 0 8.00002C0 8.5523 0.447715 9.00002 1 9.00002H13.2013C12.8543 8.3791 12.6026 7.70451 12.4601 7.00002ZM14.1203 1.00002C13.5943 1.57663 13.161 2.24917 12.8507 3.00002H1C0.447715 3.00002 0 2.5523 0 2.00002C0 1.44773 0.447715 1.00002 1 1.00002H14.1203ZM1 13C0.447715 13 0 13.4477 0 14C0 14.5523 0.447715 15 1 15H19C19.5523 15 20 14.5523 20 14C20 13.4477 19.5523 13 19 13H1Z" fill="#FAFAFA"/>
<path fill-rule="evenodd" clip-rule="evenodd" d="M19.9624 2.84873C18.4213 2.43579 16.8372 3.35036 16.4242 4.89149C16.0113 6.43261 16.9259 8.0167 18.467 8.42964C20.0081 8.84258 21.5922 7.92801 22.0052 6.38689C22.4181 4.84576 21.5035 3.26168 19.9624 2.84873ZM14.4924 4.37385C15.1912 1.76579 17.872 0.218056 20.48 0.916883C23.0881 1.61571 24.6358 4.29647 23.937 6.90452C23.6812 7.85915 23.1599 8.67171 22.4738 9.28404L24.4019 12.6237C24.6781 13.102 24.5142 13.7136 24.0359 13.9898C23.5576 14.2659 22.946 14.102 22.6699 13.6237L20.7418 10.2841C19.8684 10.5721 18.904 10.6173 17.9494 10.3615C15.3413 9.66266 13.7936 6.98191 14.4924 4.37385Z" fill="#FAFAFA"/>
</svg>
