<svg width="24" height="24" viewBox="0 0 24 24" fill="none" xmlns="http://www.w3.org/2000/svg">
<path fill-rule="evenodd" clip-rule="evenodd" d="M7.43769 21.9313C7.11271 21.9161 6.29488 21.7647 5.46695 21.5337C4.64533 21.3084 4.0837 21.0081 4.0837 21.0081C3.77449 20.844 3.66217 20.5853 3.61862 20.3183C3.63188 20.3234 3.51387 19.479 3.51387 17.8446C3.51387 16.604 3.57761 15.9395 3.60663 15.73C3.63756 15.5092 3.74294 15.328 4.02375 15.3419C4.30457 15.3558 4.68572 15.3489 5.58306 15.5148C6.65268 15.7174 7.17707 15.8884 7.43138 15.978C7.66171 16.0619 7.90403 16.2456 7.95073 16.5901C7.95073 16.5901 8.07442 17.4944 8.07252 18.8663C8.07442 19.9763 7.99617 21.0762 7.9602 21.4321C7.92675 21.7615 7.76331 21.9471 7.43832 21.9319L7.43769 21.9313ZM12.2809 18.1166C12.2809 17.9204 12.2027 17.7374 12.0519 17.5929L9.28034 14.8743C8.96229 14.5405 8.58367 14.3329 8.12364 14.2357C8.12364 14.2357 7.078 13.9776 5.52185 13.7164C3.96507 13.4551 3.55868 13.4848 3.55868 13.4848C2.17858 13.4848 2.12873 14.957 2.11485 15.1053C2.08077 15.4606 2 16.4021 2 17.7128C2 19.2594 2.06563 20.3316 2.14514 20.9866C2.26567 21.9868 3.03365 22.455 3.38703 22.633C3.47664 22.6778 4.43519 23.0842 5.40763 23.3839C6.06265 23.5865 7.11271 23.8825 7.60492 23.9601C7.76647 23.9859 8.71682 24.1494 9.16549 23.5543L12.1106 19.7346C12.2324 19.5579 12.2816 19.486 12.2816 19.2146V18.116L12.2809 18.1166ZM18.7176 12.5445C18.2998 12.5022 17.8796 12.4928 17.4605 12.5174L10.8371 13.1377C10.8371 13.1377 10.3979 13.2046 10.148 13.5384C9.95429 13.7965 9.9139 14.0123 9.9139 14.0123C10.0016 14.0994 10.037 14.1354 10.0855 14.1795L12.7012 16.8482C12.9934 17.1354 13.1631 17.4149 13.1631 17.8333V19.3364C13.1631 19.604 13.1398 19.828 12.9915 20.0299L11.5887 21.9363L12.9997 22.4841C13.5355 22.6608 14.0327 22.6557 14.5918 22.5705L20.6675 21.1753C20.6675 21.1753 21.763 20.8837 21.763 19.8425V16.1389C21.763 16.0676 21.7213 16.0058 21.6469 16.0209L17.7672 16.7839C17.6227 16.8135 17.5319 16.9372 17.5319 17.0767V18.8707C17.5319 18.978 17.6562 19.0644 17.7672 19.0392L18.9826 18.7552C19.0457 18.7376 19.0949 18.7843 19.0968 18.8707V19.4494C19.0912 19.5687 18.9978 19.6507 18.8659 19.681L17.4902 19.9763C17.4915 19.9719 16.567 20.2117 16.567 19.2235V16.9353C16.567 15.937 17.2908 15.8354 17.2908 15.8354L21.5623 15.0113C21.6734 14.9904 21.763 14.8914 21.763 14.7847V13.8527C21.7592 12.8234 20.7659 12.7597 20.7659 12.7597L18.7176 12.5445ZM10.7784 2.83593C12.3674 2.90345 13.5714 4.4129 13.4888 6.24861C13.3973 8.07863 12.0203 9.53886 10.4894 9.47576C8.90108 9.40824 7.75006 7.88427 7.8321 6.04856C7.9236 4.21854 9.24752 2.77282 10.7784 2.83593ZM17.1785 7.12954C17.2435 5.87818 18.1364 4.88871 19.1896 4.9291C20.1911 4.9739 20.9912 6.03658 20.9376 7.24755C20.8732 8.50269 19.9664 9.4543 18.9151 9.42086C17.9105 9.36911 17.1255 8.34493 17.1785 7.13017V7.12954ZM22.5045 7.29298C22.5019 4.82308 20.6643 2.83656 18.4033 2.83656C17.0832 2.83656 15.8861 3.53575 15.1112 4.57256C14.5155 1.93543 12.3157 -0.00755045 9.68105 2.20579e-05C6.53783 0.00885665 4.0105 2.72613 4.0206 6.07696C4.03133 9.46187 6.5719 12.212 9.68105 12.2025C9.86027 12.2006 18.4273 11.6245 18.4033 11.6245C20.8726 11.4112 22.5171 9.70546 22.5045 7.29235V7.29298Z" fill="#FF7705"/>
</svg>
