<svg width="126" height="18" viewBox="0 0 126 18" fill="none" xmlns="http://www.w3.org/2000/svg">
<path d="M68.7843 17.6488H63.0631V16.8479H64.6453V1.14818H63.0631V0.351162H69.3327L74.7106 12.6497L80.2977 0.351162H86.5673V1.14818H84.9851V16.8479H86.5673V17.6488H77.9895V16.8479H80.783V1.87418L73.9176 16.8479H72.434L70.0627 11.3477L65.9868 1.9018V16.8479H68.7803V17.6488H68.7843ZM61.7926 11.0991H60.6878C59.7014 13.5059 58.8058 15.2696 58.206 15.9009C57.6102 16.5322 56.7028 16.8479 55.4836 16.8479H49.3836V8.274H52.0035C52.8321 8.274 53.4752 8.5068 53.9329 8.97633C54.3748 9.40246 54.7575 10.1955 55.085 11.3477C55.1166 11.4542 55.1442 11.5607 55.1718 11.6751H56.2766V4.07584H55.1718C54.8286 5.40947 54.4025 6.32486 53.8974 6.82595C53.4594 7.25997 52.8281 7.47698 52.0035 7.47698H49.3836V1.14818H56.2411C57.1131 1.14818 57.7562 1.37308 58.1705 1.82289C58.6992 2.40684 59.4331 3.82332 60.3761 6.07234H61.4809V0.347216H43.6348V1.14424H45.2131V16.8439H43.0745V17.6449H61.7926V11.0951V11.0991ZM27.6076 1.77554C27.9312 1.3573 28.4717 1.14818 29.2293 1.14818H31.3323V16.8479H28.6769V17.6488H38.1898V16.8479H35.5344V1.14818H37.6374C38.395 1.14818 38.9355 1.3573 39.2551 1.77554C39.6694 2.32793 40.2337 3.74046 40.9439 6.02499H42.0487V0.351162H24.8141V6.02499H25.9189C26.6291 3.74441 27.1933 2.32793 27.6076 1.77554ZM105.025 9C105.025 6.36431 106.071 4.18632 108.162 2.46208C110.162 0.820693 112.585 0 115.438 0C118.29 0 120.709 0.820693 122.709 2.46208C124.801 4.18632 125.846 6.36431 125.846 9C125.846 11.6357 124.801 13.8137 122.709 15.5379C120.709 17.1793 118.286 18 115.438 18C112.589 18 110.162 17.1793 108.162 15.5379C106.071 13.8137 105.025 11.6357 105.025 9ZM109.783 9.00395C109.783 12.1052 110.253 14.2753 111.196 15.5142C112.048 16.6427 113.461 17.2069 115.438 17.2069C117.414 17.2069 118.827 16.6427 119.675 15.5142C120.618 14.2753 121.088 12.1013 121.088 9.00395C121.088 5.90662 120.614 3.73652 119.675 2.49364C118.823 1.36519 117.41 0.800965 115.438 0.800965C113.465 0.800965 112.048 1.36519 111.196 2.49364C110.253 3.73652 109.783 5.90662 109.783 9.00395ZM96.5971 17.6449H87.5655V16.8439H89.1517V1.14818H87.5655V0.351162H95.8119C98.5936 0.351162 100.787 0.777291 102.393 1.6256C103.908 2.45813 104.67 3.55897 104.67 4.92416C104.67 6.28935 103.936 7.38229 102.464 8.15169C100.922 8.96844 98.7198 9.37484 95.8474 9.37484H93.3262V16.8479H96.601V17.6488L96.5971 17.6449ZM93.3222 8.56598H94.9163C96.8457 8.56598 98.2266 8.30951 99.0513 7.79263C99.8799 7.27576 100.294 6.31697 100.294 4.91627C100.294 2.39895 98.6054 1.14029 95.228 1.14029H93.3262V8.56598H93.3222ZM0 9C0 6.36431 1.04559 4.18632 3.13678 2.46208C5.13722 0.820693 7.55984 0 10.4125 0C13.2652 0 15.6839 0.820693 17.6843 2.46208C19.7755 4.18632 20.8211 6.36431 20.8211 9C20.8211 11.6357 19.7755 13.8137 17.6843 15.5379C15.6839 17.1793 13.2613 18 10.4125 18C7.56379 18 5.13722 17.1793 3.13678 15.5379C1.04559 13.8137 0 11.6357 0 9ZM4.75844 9.00395C4.75844 12.1052 5.22797 14.2753 6.17098 15.5142C7.01929 16.6427 8.43577 17.2069 10.4086 17.2069C12.3814 17.2069 13.7979 16.6427 14.6502 15.5142C15.5932 14.2714 16.0627 12.1013 16.0627 9.00395C16.0627 5.90662 15.5892 3.73652 14.6502 2.49364C13.7979 1.36519 12.3854 0.800965 10.4086 0.800965C8.43183 0.800965 7.01929 1.36519 6.17098 2.49364C5.22797 3.73652 4.75844 5.90662 4.75844 9.00395Z" fill="#00542B"/>
</svg>
