<svg width="18" height="18" viewBox="0 0 18 18" fill="none" xmlns="http://www.w3.org/2000/svg">
<path fill-rule="evenodd" clip-rule="evenodd" d="M18 9C18 13.9706 13.9706 18 9 18C4.02944 18 0 13.9706 0 9C0 4.02944 4.02944 0 9 0C13.9706 0 18 4.02944 18 9ZM8.2535 6.3C8.2535 5.74772 7.80579 5.3 7.2535 5.3C6.70122 5.3 6.2535 5.74772 6.2535 6.3V11.7C6.2535 12.2523 6.70122 12.7 7.2535 12.7C7.80579 12.7 8.2535 12.2523 8.2535 11.7V6.3ZM11.8535 6.3C11.8535 5.74772 11.4058 5.3 10.8535 5.3C10.3012 5.3 9.8535 5.74772 9.8535 6.3V11.7C9.8535 12.2523 10.3012 12.7 10.8535 12.7C11.4058 12.7 11.8535 12.2523 11.8535 11.7V6.3Z" fill="#005327"/>
</svg>
