<svg width="154" height="22" viewBox="0 0 154 22" fill="none" xmlns="http://www.w3.org/2000/svg">
<path d="M84.0697 21.5708H77.0771V20.5918H79.0109V1.40333H77.0771V0.429198H84.74L91.313 15.4608L98.1416 0.429198H105.804V1.40333H103.871V20.5918H105.804V21.5708H95.3205V20.5918H98.7347V2.29066L90.3437 20.5918H88.5305L85.6322 13.8694L80.6506 2.32442V20.5918H84.0649V21.5708H84.0697ZM75.5243 13.5655H74.174C72.9684 16.5072 71.8737 18.6629 71.1407 19.4345C70.4125 20.2061 69.3034 20.5918 67.8132 20.5918H60.3577V10.1127H63.5598C64.5725 10.1127 65.3586 10.3972 65.918 10.9711C66.4581 11.4919 66.9259 12.4612 67.3262 13.8694C67.3647 13.9996 67.3985 14.1298 67.4323 14.2696H68.7825V4.98159H67.4323C67.0127 6.61157 66.4919 7.73038 65.8746 8.34283C65.3393 8.8733 64.5677 9.13854 63.5598 9.13854H60.3577V1.40333H68.7391C69.8049 1.40333 70.591 1.67821 71.0973 2.22797C71.7435 2.94169 72.6405 4.67295 73.7931 7.42175H75.1434V0.424375H53.3314V1.39851H55.2604V20.587H52.6466V21.566H75.5243V13.5607V13.5655ZM33.7427 2.1701C34.1381 1.65892 34.7988 1.40333 35.7247 1.40333H38.295V20.5918H35.0495V21.5708H46.6765V20.5918H43.4309V1.40333H46.0013C46.9272 1.40333 47.5879 1.65892 47.9785 2.1701C48.4849 2.84524 49.1745 4.57168 50.0425 7.36388H51.3928V0.429198H30.3284V7.36388H31.6786C32.5467 4.5765 33.2363 2.84524 33.7427 2.1701ZM128.364 11C128.364 7.77861 129.642 5.11662 132.198 3.00921C134.643 1.00307 137.604 0 141.09 0C144.577 0 147.533 1.00307 149.978 3.00921C152.534 5.11662 153.812 7.77861 153.812 11C153.812 14.2214 152.534 16.8834 149.978 18.9908C147.533 20.9969 144.572 22 141.09 22C137.608 22 134.643 20.9969 132.198 18.9908C129.642 16.8834 128.364 14.2214 128.364 11ZM134.18 11.0048C134.18 14.7953 134.754 17.4476 135.906 18.9619C136.948 20.3411 138.674 21.0307 141.09 21.0307C143.506 21.0307 145.233 20.3411 146.27 18.9619C147.422 17.4476 147.996 14.7904 147.996 11.0048C147.996 7.2192 147.417 4.56686 146.27 3.04779C145.228 1.66857 143.502 0.978957 141.09 0.978957C138.679 0.978957 136.948 1.66857 135.906 3.04779C134.754 4.56686 134.18 7.2192 134.18 11.0048ZM118.063 21.566H107.025V20.587H108.963V1.40333H107.025V0.429198H117.103C120.503 0.429198 123.185 0.950022 125.147 1.98685C126.999 3.00438 127.93 4.34985 127.93 6.01841C127.93 7.68698 127.033 9.0228 125.234 9.96317C123.349 10.9614 120.658 11.4581 117.147 11.4581H114.065V20.5918H118.068V21.5708L118.063 21.566ZM114.06 10.4695H116.009C118.367 10.4695 120.055 10.1561 121.063 9.52433C122.075 8.89259 122.582 7.72074 122.582 6.00877C122.582 2.93205 120.518 1.39369 116.39 1.39369H114.065V10.4695H114.06ZM0 11C0 7.77861 1.27795 5.11662 3.83384 3.00921C6.27882 1.00307 9.23981 0 12.7264 0C16.2131 0 19.1692 1.00307 21.6142 3.00921C24.1701 5.11662 25.448 7.77861 25.448 11C25.448 14.2214 24.1701 16.8834 21.6142 18.9908C19.1692 20.9969 16.2082 22 12.7264 22C9.24463 22 6.27882 20.9969 3.83384 18.9908C1.27795 16.8834 0 14.2214 0 11ZM5.81587 11.0048C5.81587 14.7953 6.38974 17.4476 7.5423 18.9619C8.57913 20.3411 10.3104 21.0307 12.7216 21.0307C15.1328 21.0307 16.8641 20.3411 17.9057 18.9619C19.0583 17.4428 19.6322 14.7904 19.6322 11.0048C19.6322 7.2192 19.0535 4.56686 17.9057 3.04779C16.8641 1.66857 15.1377 0.978957 12.7216 0.978957C10.3056 0.978957 8.57913 1.66857 7.5423 3.04779C6.38974 4.56686 5.81587 7.2192 5.81587 11.0048Z" fill="white"/>
</svg>
