<svg width="19" height="18" viewBox="0 0 19 18" fill="none" xmlns="http://www.w3.org/2000/svg">
<path fill-rule="evenodd" clip-rule="evenodd" d="M18.9406 9C18.9406 13.9706 14.9111 18 9.94055 18C4.96999 18 0.940552 13.9706 0.940552 9C0.940552 4.02944 4.96999 0 9.94055 0C14.9111 0 18.9406 4.02944 18.9406 9ZM9.19406 6.3C9.19406 5.74772 8.74634 5.3 8.19406 5.3C7.64177 5.3 7.19406 5.74772 7.19406 6.3V11.7C7.19406 12.2523 7.64177 12.7 8.19406 12.7C8.74634 12.7 9.19406 12.2523 9.19406 11.7V6.3ZM12.7941 6.3C12.7941 5.74772 12.3463 5.3 11.7941 5.3C11.2418 5.3 10.7941 5.74772 10.7941 6.3V11.7C10.7941 12.2523 11.2418 12.7 11.7941 12.7C12.3463 12.7 12.7941 12.2523 12.7941 11.7V6.3Z" fill="#FAFAFA"/>
</svg>
