<svg width="329" height="18" viewBox="0 0 329 18" fill="none" xmlns="http://www.w3.org/2000/svg">
<path d="M3.75 3.74213C3.75 3.01376 3.75 2.64958 3.90187 2.44882C4.03417 2.27393 4.23639 2.1657 4.4553 2.15263C4.70658 2.13763 5.0096 2.33964 5.61564 2.74367L13.5023 8.00145C14.0031 8.3353 14.2535 8.50222 14.3407 8.71261C14.417 8.89655 14.417 9.10328 14.3407 9.28722C14.2535 9.49761 14.0031 9.66453 13.5023 9.99837L5.61564 15.2562C5.0096 15.6602 4.70658 15.8622 4.4553 15.8472C4.23639 15.8341 4.03417 15.7259 3.90187 15.551C3.75 15.3503 3.75 14.9861 3.75 14.2577V3.74213Z" stroke="#FAFAFA" stroke-width="2" stroke-linecap="round" stroke-linejoin="round"/>
<rect x="34" y="6" width="200" height="6" rx="3" fill="#C4C4C4"/>
<rect x="34.0605" y="6" width="150" height="6" rx="3" fill="#FAFAFA"/>
<g clip-path="url(#clip0_5771_202269)">
<circle cx="256" cy="9" r="6" fill="#F04438"/>
<path d="M276.881 10.178L275.649 6.811C275.589 6.66167 275.526 6.48433 275.46 6.279C275.395 6.07367 275.33 5.852 275.264 5.614C275.204 5.852 275.141 6.076 275.075 6.286C275.01 6.49133 274.947 6.671 274.886 6.825L273.661 10.178H276.881ZM280.206 14H278.75C278.587 14 278.454 13.9603 278.351 13.881C278.249 13.797 278.172 13.6943 278.12 13.573L277.364 11.508H273.171L272.415 13.573C272.378 13.6803 272.306 13.7783 272.198 13.867C272.091 13.9557 271.958 14 271.799 14H270.329L274.312 3.878H276.23L280.206 14ZM290.606 8.939C290.606 9.681 290.483 10.3693 290.235 11.004C289.993 11.634 289.647 12.18 289.199 12.642C288.751 13.104 288.212 13.4657 287.582 13.727C286.952 13.9837 286.252 14.112 285.482 14.112C284.717 14.112 284.019 13.9837 283.389 13.727C282.759 13.4657 282.218 13.104 281.765 12.642C281.317 12.18 280.97 11.634 280.722 11.004C280.475 10.3693 280.351 9.681 280.351 8.939C280.351 8.197 280.475 7.511 280.722 6.881C280.97 6.24633 281.317 5.698 281.765 5.236C282.218 4.774 282.759 4.41467 283.389 4.158C284.019 3.89667 284.717 3.766 285.482 3.766C285.996 3.766 286.479 3.82667 286.931 3.948C287.384 4.06467 287.799 4.23267 288.177 4.452C288.555 4.66667 288.894 4.93033 289.192 5.243C289.496 5.551 289.752 5.89633 289.962 6.279C290.172 6.66167 290.331 7.077 290.438 7.525C290.55 7.973 290.606 8.44433 290.606 8.939ZM288.681 8.939C288.681 8.38367 288.607 7.88667 288.457 7.448C288.308 7.00467 288.096 6.629 287.82 6.321C287.545 6.013 287.209 5.77733 286.812 5.614C286.42 5.45067 285.977 5.369 285.482 5.369C284.988 5.369 284.542 5.45067 284.145 5.614C283.753 5.77733 283.417 6.013 283.137 6.321C282.862 6.629 282.65 7.00467 282.5 7.448C282.351 7.88667 282.276 8.38367 282.276 8.939C282.276 9.49433 282.351 9.99367 282.5 10.437C282.65 10.8757 282.862 11.249 283.137 11.557C283.417 11.8603 283.753 12.0937 284.145 12.257C284.542 12.4203 284.988 12.502 285.482 12.502C285.977 12.502 286.42 12.4203 286.812 12.257C287.209 12.0937 287.545 11.8603 287.82 11.557C288.096 11.249 288.308 10.8757 288.457 10.437C288.607 9.99367 288.681 9.49433 288.681 8.939ZM303.818 3.878L299.73 14H298.029L293.941 3.878H295.453C295.616 3.878 295.749 3.91767 295.852 3.997C295.954 4.07633 296.031 4.179 296.083 4.305L298.47 10.479C298.549 10.6797 298.624 10.9013 298.694 11.144C298.768 11.382 298.838 11.6317 298.904 11.893C298.96 11.6317 299.02 11.382 299.086 11.144C299.151 10.9013 299.223 10.6797 299.303 10.479L301.676 4.305C301.713 4.19767 301.785 4.09967 301.893 4.011C302.005 3.92233 302.14 3.878 302.299 3.878H303.818ZM306.755 14H304.865V3.878H306.755V14ZM317.695 3.878L313.607 14H311.906L307.818 3.878H309.33C309.493 3.878 309.626 3.91767 309.729 3.997C309.831 4.07633 309.908 4.179 309.96 4.305L312.347 10.479C312.426 10.6797 312.501 10.9013 312.571 11.144C312.645 11.382 312.715 11.6317 312.781 11.893C312.837 11.6317 312.897 11.382 312.963 11.144C313.028 10.9013 313.1 10.6797 313.18 10.479L315.553 4.305C315.59 4.19767 315.662 4.09967 315.77 4.011C315.882 3.92233 316.017 3.878 316.176 3.878H317.695ZM328.067 8.939C328.067 9.681 327.943 10.3693 327.696 11.004C327.453 11.634 327.108 12.18 326.66 12.642C326.212 13.104 325.673 13.4657 325.043 13.727C324.413 13.9837 323.713 14.112 322.943 14.112C322.178 14.112 321.48 13.9837 320.85 13.727C320.22 13.4657 319.679 13.104 319.226 12.642C318.778 12.18 318.43 11.634 318.183 11.004C317.936 10.3693 317.812 9.681 317.812 8.939C317.812 8.197 317.936 7.511 318.183 6.881C318.43 6.24633 318.778 5.698 319.226 5.236C319.679 4.774 320.22 4.41467 320.85 4.158C321.48 3.89667 322.178 3.766 322.943 3.766C323.456 3.766 323.939 3.82667 324.392 3.948C324.845 4.06467 325.26 4.23267 325.638 4.452C326.016 4.66667 326.354 4.93033 326.653 5.243C326.956 5.551 327.213 5.89633 327.423 6.279C327.633 6.66167 327.792 7.077 327.899 7.525C328.011 7.973 328.067 8.44433 328.067 8.939ZM326.142 8.939C326.142 8.38367 326.067 7.88667 325.918 7.448C325.769 7.00467 325.556 6.629 325.281 6.321C325.006 6.013 324.67 5.77733 324.273 5.614C323.881 5.45067 323.438 5.369 322.943 5.369C322.448 5.369 322.003 5.45067 321.606 5.614C321.214 5.77733 320.878 6.013 320.598 6.321C320.323 6.629 320.11 7.00467 319.961 7.448C319.812 7.88667 319.737 8.38367 319.737 8.939C319.737 9.49433 319.812 9.99367 319.961 10.437C320.11 10.8757 320.323 11.249 320.598 11.557C320.878 11.8603 321.214 12.0937 321.606 12.257C322.003 12.4203 322.448 12.502 322.943 12.502C323.438 12.502 323.881 12.4203 324.273 12.257C324.67 12.0937 325.006 11.8603 325.281 11.557C325.556 11.249 325.769 10.8757 325.918 10.437C326.067 9.99367 326.142 9.49433 326.142 8.939Z" fill="#FAFAFA"/>
</g>
<defs>
<clipPath id="clip0_5771_202269">
<rect x="250" width="79" height="18" rx="4" fill="white"/>
</clipPath>
</defs>
</svg>
