<svg width="16" height="16" viewBox="0 0 16 16" fill="none" xmlns="http://www.w3.org/2000/svg">
<path fill-rule="evenodd" clip-rule="evenodd" d="M15.9406 8C15.9406 12.1421 12.5827 15.5 8.44058 15.5C4.29845 15.5 0.940582 12.1421 0.940582 8C0.940582 3.85786 4.29845 0.5 8.44058 0.5C12.5827 0.5 15.9406 3.85786 15.9406 8ZM7.00775 5.63456C6.94058 5.72428 6.94058 5.88499 6.94058 6.2064V10.2936C6.94058 10.615 6.94058 10.7757 7.00775 10.8654C7.06628 10.9436 7.15588 10.9925 7.2533 10.9995C7.36509 11.0075 7.50028 10.9206 7.77064 10.7468L10.9496 8.70317C11.1842 8.55235 11.3015 8.47694 11.342 8.38105C11.3774 8.29727 11.3774 8.20273 11.342 8.11895C11.3015 8.02306 11.1842 7.94765 10.9496 7.79683L7.77064 5.75323C7.50028 5.57942 7.36509 5.49252 7.2533 5.5005C7.15588 5.50746 7.06628 5.55638 7.00775 5.63456Z" fill="#FAFAFA"/>
</svg>
