<svg width="16" height="16" viewBox="0 0 16 16" fill="none" xmlns="http://www.w3.org/2000/svg">
<path fill-rule="evenodd" clip-rule="evenodd" d="M15.9404 8C15.9404 12.1421 12.5826 15.5 8.44043 15.5C4.29829 15.5 0.94043 12.1421 0.94043 8C0.94043 3.85786 4.29829 0.5 8.44043 0.5C12.5826 0.5 15.9404 3.85786 15.9404 8ZM7.0076 5.63456C6.94043 5.72428 6.94043 5.88499 6.94043 6.2064V10.2936C6.94043 10.615 6.94043 10.7757 7.0076 10.8654C7.06613 10.9436 7.15573 10.9925 7.25315 10.9995C7.36494 11.0075 7.50012 10.9206 7.77049 10.7468L10.9494 8.70317C11.184 8.55235 11.3013 8.47694 11.3419 8.38105C11.3773 8.29727 11.3773 8.20273 11.3419 8.11895C11.3013 8.02306 11.184 7.94765 10.9494 7.79683L7.77049 5.75323C7.50012 5.57942 7.36494 5.49252 7.25315 5.5005C7.15573 5.50746 7.06613 5.55638 7.0076 5.63456Z" fill="#005327"/>
</svg>
