<svg width="23" height="16" viewBox="0 0 23 16" fill="none" xmlns="http://www.w3.org/2000/svg">
<path d="M5.77029 4.56244C5.66153 4.928 5.05227 5.4426 4.09154 5.48288C3.06234 5.55035 2.26375 5.26636 2.26375 4.10121C2.26375 3.03172 2.85992 2.5574 3.98379 2.5574C5.36546 2.5574 6.01501 3.70846 5.7713 4.56143M3.9425 0.5C1.19326 0.5 -0.0383655 2.15156 0.000909386 4.16969C0.0683817 6.75579 1.53062 7.48691 3.30504 7.48691C4.05025 7.48691 4.57795 7.36506 4.94351 7.21601C5.16002 7.13444 5.33626 7.03978 5.4853 6.94512C5.20131 7.70342 4.36143 8.96324 1.31511 8.96324L1.09859 10.9804C1.26073 10.9804 1.8569 10.9532 2.18218 10.9532C3.86093 10.8585 5.2285 10.3842 6.27181 9.46375C7.45005 8.42145 8.18117 6.83635 8.18117 4.92699C8.18117 2.50403 7.17916 0.5 3.9425 0.5Z" fill="white"/>
<path d="M12.5105 0.634949H8.61117L8.36746 2.74774H10.0603H10.0875V10.791H12.5105V0.634949Z" fill="white"/>
<path d="M21.6907 0.547302H14.4732L14.2426 2.60571H18.9143C17.3846 4.504 16.3413 6.48285 15.6504 8.05788C15.2577 8.96523 14.9324 9.8474 14.6756 10.7024H17.4248C18.0069 8.2331 19.0764 6.04881 20.0109 4.51608C20.5527 3.60672 21.1076 2.78094 21.6897 2.03572V0.547302H21.6907Z" fill="white"/>
<path fill-rule="evenodd" clip-rule="evenodd" d="M13.7048 9.7981C13.4128 10.1979 13.1489 10.5987 12.9113 10.9914H14.2084C14.3262 10.5997 14.4581 10.2019 14.6051 9.7981H13.7048Z" fill="white"/>
<path fill-rule="evenodd" clip-rule="evenodd" d="M0.820637 15.5V11.5584H22.9405V15.499H5.56384V15.5H0.820637ZM11.8881 14.8575H12.7672V14.7346H12.3372V12.4366L12.9636 13.8887L13.3282 14.7346H13.5558L14.6112 12.4325V14.7346H14.1822V14.8575H15.5014V14.7346H15.2587V12.3207H15.5014V12.1979H14.5376L13.6786 14.0891L12.8518 12.1979H11.8881V12.3207H12.1318V14.7346H11.8881V14.8575ZM11.5225 13.8505H11.6917V14.8565H8.81357V14.7336H9.14187V12.3197H8.89917V12.1969H11.6434V13.077H11.4742C11.3292 12.7306 11.2164 12.5131 11.1348 12.4235C11.0714 12.355 10.9717 12.3197 10.8377 12.3197H9.78336V13.2925H10.1862C10.3131 13.2925 10.4097 13.2593 10.4772 13.1928C10.5548 13.1163 10.6212 12.9753 10.6736 12.7699H10.8428V13.9391H10.6736C10.6696 13.9219 10.6655 13.9048 10.6605 13.8887C10.6101 13.7115 10.5517 13.5896 10.4833 13.5242C10.4128 13.4527 10.3131 13.4164 10.1862 13.4164H9.78336V14.7346H10.7219C10.9092 14.7346 11.0492 14.6863 11.1409 14.5886C11.2335 14.4919 11.3705 14.22 11.5225 13.8505ZM6.68467 12.3197C6.56886 12.3197 6.48528 12.352 6.43593 12.4164H6.43492C6.37148 12.501 6.28487 12.7185 6.1751 13.07H6.00592V12.1979H8.65647V13.07H8.48729C8.37752 12.7185 8.29092 12.501 8.22747 12.4164C8.17813 12.352 8.09555 12.3197 7.97873 12.3197H7.65547V14.7336H8.06332V14.8565H6.60008V14.7336H7.00793V12.3197H6.68467ZM18.8226 12.5222C18.5014 12.787 18.3403 13.1224 18.3403 13.5272C18.3403 13.932 18.5014 14.2674 18.8226 14.5322C19.1298 14.785 19.5044 14.9109 19.9415 14.9109C20.3785 14.9109 20.7521 14.785 21.0593 14.5322C21.3805 14.2674 21.5417 13.932 21.5417 13.5272C21.5417 13.1224 21.3805 12.787 21.0593 12.5222C20.7521 12.2694 20.3805 12.1435 19.9415 12.1435C19.5024 12.1435 19.1298 12.2704 18.8226 12.5222ZM19.2899 14.5282C19.1449 14.3379 19.0724 14.0035 19.0724 13.5272C19.0724 13.0509 19.1449 12.7175 19.2899 12.5262C19.4208 12.353 19.6394 12.2664 19.9425 12.2664C20.2456 12.2664 20.4631 12.353 20.594 12.5262C20.7391 12.7175 20.8116 13.0509 20.8116 13.5272C20.8116 14.0035 20.7391 14.3379 20.594 14.5282C20.4631 14.7014 20.2466 14.788 19.9425 14.788C19.6383 14.788 19.4208 14.7014 19.2899 14.5282ZM15.6555 14.8565H17.0442V14.7336H16.5407V13.5846H16.9284C17.3695 13.5846 17.7088 13.5222 17.9455 13.3963C18.1721 13.2784 18.2849 13.1113 18.2849 12.9008C18.2849 12.6903 18.1691 12.5211 17.9354 12.3932C17.6887 12.2623 17.3503 12.1969 16.9233 12.1969H15.6555V12.3197H15.8992V14.7336H15.6555V14.8565ZM16.7854 13.4607H16.5407V12.3197H16.8327C17.3523 12.3197 17.6122 12.5131 17.6122 12.8998C17.6122 13.1153 17.5477 13.2623 17.4208 13.3419C17.2939 13.4214 17.0825 13.4607 16.7854 13.4607ZM2.67359 12.5222C2.35234 12.787 2.19122 13.1224 2.19122 13.5272C2.19122 13.932 2.35234 14.2674 2.67359 14.5322C2.98175 14.785 3.35436 14.9109 3.79243 14.9109C4.23049 14.9109 4.60411 14.785 4.91126 14.5322C5.23251 14.2674 5.39363 13.932 5.39363 13.5272C5.39363 13.1224 5.23251 12.787 4.91126 12.5222C4.6031 12.2694 4.23049 12.1435 3.79243 12.1435C3.35436 12.1435 2.98074 12.2704 2.67359 12.5222ZM3.13986 14.5282C2.99484 14.3379 2.92233 14.0035 2.92233 13.5272C2.92233 13.0509 2.99484 12.7175 3.13986 12.5262C3.26977 12.353 3.4883 12.2664 3.79142 12.2664C4.09454 12.2664 4.31206 12.353 4.44298 12.5262C4.58799 12.7175 4.6605 13.0509 4.6605 13.5272C4.6605 14.0035 4.58799 14.3379 4.44298 14.5282C4.31206 14.7014 4.09454 14.788 3.79142 14.788C3.4883 14.788 3.27077 14.7014 3.13986 14.5282Z" fill="white"/>
<path d="M22.3221 8.71045L21.6595 9.77994L20.9969 8.71045H20.5689V10.791H20.9697V9.41236L21.5941 10.4204H21.728L22.3493 9.41236V10.791H22.7532V8.71045H22.3221ZM20.2416 9.08507V8.71045H19.0231V10.791H19.4269V9.97329H20.155V9.59867H19.4269V9.08406H20.2416V9.08507Z" fill="white"/>
</svg>
