<svg width="18" height="18" viewBox="0 0 18 18" fill="none" xmlns="http://www.w3.org/2000/svg">
<path fill-rule="evenodd" clip-rule="evenodd" d="M3.88977 4.35635C4.52541 1.99097 6.68375 0.249878 9.25 0.249878C11.8163 0.249878 13.9746 1.99097 14.6102 4.35635C16.5509 4.79379 18 6.52724 18 8.59988C18 10.1088 17.2311 11.4378 16.0672 12.2169C15.723 12.4473 15.2572 12.3551 15.0267 12.0109C14.7963 11.6666 14.8886 11.2008 15.2328 10.9704C15.9985 10.4579 16.5 9.5873 16.5 8.59988C16.5 7.11604 15.3655 5.89632 13.917 5.76218C13.5772 5.73071 13.3015 5.47379 13.2461 5.13704C12.9303 3.21574 11.2606 1.74988 9.25 1.74988C7.2394 1.74988 5.56971 3.21574 5.25386 5.13704C5.1985 5.47379 4.92277 5.73071 4.58296 5.76218C3.13454 5.89632 2 7.11604 2 8.59988C2 9.5873 2.50151 10.4579 3.26719 10.9704C3.61141 11.2008 3.70367 11.6666 3.47326 12.0109C3.24285 12.3551 2.77702 12.4473 2.43281 12.2169C1.26891 11.4378 0.5 10.1088 0.5 8.59988C0.5 6.52724 1.94907 4.79379 3.88977 4.35635ZM7.16854 9.10352C7.55313 9.25736 7.74019 9.69383 7.58636 10.0784L5.34636 15.6784C5.19252 16.063 4.75604 16.2501 4.37146 16.0962C3.98687 15.9424 3.79981 15.5059 3.95364 15.1213L6.19364 9.52133C6.34748 9.13675 6.78396 8.94969 7.16854 9.10352ZM13.5685 9.10352C13.9531 9.25736 14.1402 9.69383 13.9864 10.0784L11.7464 15.6784C11.5925 16.063 11.156 16.2501 10.7715 16.0962C10.3869 15.9424 10.1998 15.5059 10.3536 15.1213L12.5936 9.52134C12.7475 9.13675 13.184 8.94969 13.5685 9.10352ZM9.72851 10.7035C10.1131 10.8574 10.3002 11.2938 10.1463 11.6784L7.90632 17.2784C7.75248 17.663 7.31601 17.8501 6.93142 17.6962C6.54683 17.5424 6.35977 17.1059 6.5136 16.7213L8.7536 11.1213C8.90744 10.7367 9.34392 10.5497 9.72851 10.7035Z" fill="#005327"/>
</svg>
