<svg width="60" height="34" viewBox="0 0 60 34" fill="none" xmlns="http://www.w3.org/2000/svg">
<path d="M6 27C3.79086 27 2 25.2091 2 23C2 20.7909 3.79086 19 6 19C6.46419 19 6.90991 19.0791 7.32442 19.2245C8.04061 17.3396 9.86387 16 12 16C14.1361 16 15.9594 17.3396 16.6756 19.2245C17.0901 19.0791 17.5358 19 18 19C20.2091 19 22 20.7909 22 23C22 25.2091 20.2091 27 18 27C13.3597 27 9.87921 27 6 27Z" stroke="#78B3DA" stroke-width="2" stroke-linecap="round" stroke-linejoin="round"/>
<path d="M10.5 6.5V8.1M3.6 15H2M5.4512 9.95137L4.31982 8.82M15.5498 9.95137L16.6812 8.82M19 15H17.4M6.50007 15.0001C6.50007 12.7909 8.29093 11.0001 10.5001 11.0001C12.0061 11.0001 13.3177 11.8324 14.0001 13.0621" stroke="#F5BF60" stroke-width="2" stroke-linecap="round" stroke-linejoin="round"/>
<path d="M33.544 5.836C33.5 5.908 33.454 5.962 33.406 5.998C33.358 6.03 33.298 6.046 33.226 6.046C33.15 6.046 33.064 6.014 32.968 5.95C32.876 5.886 32.76 5.816 32.62 5.74C32.484 5.66 32.322 5.588 32.134 5.524C31.946 5.456 31.722 5.422 31.462 5.422C31.222 5.422 31.01 5.452 30.826 5.512C30.646 5.572 30.494 5.656 30.37 5.764C30.246 5.872 30.152 6 30.088 6.148C30.028 6.292 29.998 6.45 29.998 6.622C29.998 6.842 30.056 7.026 30.172 7.174C30.288 7.318 30.44 7.442 30.628 7.546C30.82 7.65 31.038 7.742 31.282 7.822C31.526 7.898 31.774 7.98 32.026 8.068C32.282 8.156 32.532 8.256 32.776 8.368C33.02 8.48 33.236 8.622 33.424 8.794C33.616 8.966 33.77 9.176 33.886 9.424C34.002 9.672 34.06 9.974 34.06 10.33C34.06 10.714 33.994 11.074 33.862 11.41C33.73 11.746 33.538 12.04 33.286 12.292C33.038 12.54 32.73 12.736 32.362 12.88C31.998 13.024 31.582 13.096 31.114 13.096C30.838 13.096 30.568 13.068 30.304 13.012C30.044 12.96 29.794 12.886 29.554 12.79C29.318 12.69 29.096 12.57 28.888 12.43C28.68 12.29 28.494 12.134 28.33 11.962L28.738 11.29C28.774 11.234 28.82 11.19 28.876 11.158C28.932 11.126 28.994 11.11 29.062 11.11C29.154 11.11 29.256 11.154 29.368 11.242C29.48 11.326 29.614 11.42 29.77 11.524C29.93 11.624 30.122 11.718 30.346 11.806C30.57 11.89 30.838 11.932 31.15 11.932C31.658 11.932 32.05 11.808 32.326 11.56C32.606 11.312 32.746 10.97 32.746 10.534C32.746 10.29 32.688 10.092 32.572 9.94C32.456 9.784 32.302 9.654 32.11 9.55C31.922 9.446 31.706 9.358 31.462 9.286C31.218 9.214 30.97 9.138 30.718 9.058C30.466 8.974 30.218 8.878 29.974 8.77C29.73 8.658 29.512 8.514 29.32 8.338C29.132 8.158 28.98 7.938 28.864 7.678C28.748 7.414 28.69 7.086 28.69 6.694C28.69 6.382 28.75 6.08 28.87 5.788C28.994 5.496 29.172 5.238 29.404 5.014C29.64 4.786 29.93 4.604 30.274 4.468C30.618 4.332 31.01 4.264 31.45 4.264C31.946 4.264 32.4 4.342 32.812 4.498C33.228 4.654 33.586 4.876 33.886 5.164L33.544 5.836ZM39.3273 9.25C39.3273 9.034 39.2953 8.834 39.2313 8.65C39.1713 8.462 39.0813 8.3 38.9613 8.164C38.8413 8.024 38.6913 7.916 38.5113 7.84C38.3353 7.76 38.1313 7.72 37.8993 7.72C37.4313 7.72 37.0633 7.854 36.7953 8.122C36.5273 8.39 36.3573 8.766 36.2853 9.25H39.3273ZM36.2493 10.042C36.2653 10.39 36.3193 10.692 36.4113 10.948C36.5033 11.2 36.6253 11.41 36.7773 11.578C36.9333 11.746 37.1173 11.872 37.3293 11.956C37.5453 12.036 37.7853 12.076 38.0493 12.076C38.3013 12.076 38.5193 12.048 38.7033 11.992C38.8873 11.932 39.0473 11.868 39.1833 11.8C39.3193 11.728 39.4353 11.664 39.5313 11.608C39.6273 11.548 39.7153 11.518 39.7953 11.518C39.8993 11.518 39.9793 11.558 40.0353 11.638L40.4013 12.112C40.2493 12.292 40.0773 12.444 39.8853 12.568C39.6933 12.692 39.4893 12.794 39.2733 12.874C39.0573 12.95 38.8353 13.004 38.6073 13.036C38.3793 13.072 38.1573 13.09 37.9413 13.09C37.5173 13.09 37.1233 13.02 36.7593 12.88C36.3993 12.736 36.0853 12.526 35.8173 12.25C35.5533 11.974 35.3453 11.632 35.1933 11.224C35.0453 10.816 34.9713 10.346 34.9713 9.814C34.9713 9.39 35.0373 8.994 35.1693 8.626C35.3053 8.258 35.4973 7.938 35.7453 7.666C35.9973 7.394 36.3013 7.18 36.6573 7.024C37.0173 6.864 37.4233 6.784 37.8753 6.784C38.2513 6.784 38.5993 6.846 38.9193 6.97C39.2393 7.09 39.5153 7.268 39.7473 7.504C39.9793 7.74 40.1593 8.03 40.2873 8.374C40.4193 8.714 40.4853 9.102 40.4853 9.538C40.4853 9.738 40.4633 9.872 40.4193 9.94C40.3753 10.008 40.2953 10.042 40.1793 10.042H36.2493ZM43.8723 9.886C44.2723 9.886 44.5723 9.784 44.7723 9.58C44.9723 9.376 45.0723 9.11 45.0723 8.782C45.0723 8.446 44.9723 8.18 44.7723 7.984C44.5723 7.788 44.2723 7.69 43.8723 7.69C43.4763 7.69 43.1763 7.788 42.9723 7.984C42.7723 8.18 42.6723 8.446 42.6723 8.782C42.6723 8.942 42.6983 9.09 42.7503 9.226C42.8023 9.362 42.8783 9.48 42.9783 9.58C43.0783 9.676 43.2023 9.752 43.3503 9.808C43.5023 9.86 43.6763 9.886 43.8723 9.886ZM45.6663 13.3C45.6663 13.164 45.6263 13.056 45.5463 12.976C45.4703 12.892 45.3663 12.828 45.2343 12.784C45.1023 12.736 44.9483 12.702 44.7723 12.682C44.5963 12.658 44.4083 12.642 44.2083 12.634C44.0123 12.622 43.8103 12.612 43.6023 12.604C43.3983 12.592 43.2003 12.572 43.0083 12.544C42.8163 12.644 42.6583 12.764 42.5343 12.904C42.4143 13.044 42.3543 13.206 42.3543 13.39C42.3543 13.51 42.3843 13.622 42.4443 13.726C42.5083 13.83 42.6043 13.92 42.7323 13.996C42.8643 14.072 43.0303 14.132 43.2303 14.176C43.4343 14.22 43.6783 14.242 43.9623 14.242C44.5303 14.242 44.9563 14.154 45.2403 13.978C45.5243 13.802 45.6663 13.576 45.6663 13.3ZM46.9623 7.102V7.582C46.9623 7.742 46.8663 7.84 46.6743 7.876L46.0623 7.978C46.1663 8.21 46.2183 8.468 46.2183 8.752C46.2183 9.052 46.1583 9.324 46.0383 9.568C45.9223 9.812 45.7603 10.02 45.5523 10.192C45.3443 10.364 45.0963 10.496 44.8083 10.588C44.5203 10.68 44.2083 10.726 43.8723 10.726C43.7443 10.726 43.6183 10.72 43.4943 10.708C43.3743 10.692 43.2563 10.672 43.1403 10.648C43.0243 10.716 42.9383 10.788 42.8823 10.864C42.8263 10.94 42.7983 11.018 42.7983 11.098C42.7983 11.23 42.8563 11.328 42.9723 11.392C43.0883 11.456 43.2403 11.502 43.4283 11.53C43.6203 11.558 43.8383 11.576 44.0823 11.584C44.3263 11.592 44.5743 11.606 44.8263 11.626C45.0783 11.646 45.3263 11.68 45.5703 11.728C45.8143 11.772 46.0303 11.848 46.2183 11.956C46.4103 12.06 46.5643 12.202 46.6803 12.382C46.7963 12.562 46.8543 12.796 46.8543 13.084C46.8543 13.348 46.7883 13.606 46.6563 13.858C46.5243 14.11 46.3323 14.334 46.0803 14.53C45.8323 14.726 45.5283 14.882 45.1683 14.998C44.8083 15.118 44.3983 15.178 43.9383 15.178C43.4823 15.178 43.0843 15.134 42.7443 15.046C42.4083 14.958 42.1263 14.838 41.8983 14.686C41.6743 14.538 41.5063 14.366 41.3943 14.17C41.2863 13.974 41.2323 13.77 41.2323 13.558C41.2323 13.27 41.3223 13.024 41.5023 12.82C41.6863 12.616 41.9343 12.456 42.2463 12.34C42.0783 12.26 41.9423 12.15 41.8383 12.01C41.7383 11.87 41.6883 11.686 41.6883 11.458C41.6883 11.278 41.7543 11.09 41.8863 10.894C42.0183 10.698 42.2163 10.532 42.4803 10.396C42.1763 10.228 41.9363 10.006 41.7603 9.73C41.5843 9.45 41.4963 9.124 41.4963 8.752C41.4963 8.448 41.5543 8.174 41.6703 7.93C41.7903 7.686 41.9563 7.478 42.1683 7.306C42.3803 7.134 42.6303 7.002 42.9183 6.91C43.2103 6.818 43.5283 6.772 43.8723 6.772C44.4003 6.772 44.8603 6.882 45.2523 7.102H46.9623Z" fill="#555555"/>
<path d="M34.867 28.39C35.0537 28.39 35.2007 28.4437 35.308 28.551C35.42 28.6537 35.476 28.7913 35.476 28.964V30H28.532V29.426C28.532 29.3093 28.5553 29.188 28.602 29.062C28.6533 28.9313 28.7327 28.8147 28.84 28.712L31.913 25.632C32.1697 25.3707 32.3983 25.121 32.599 24.883C32.8043 24.645 32.9747 24.4093 33.11 24.176C33.2453 23.9427 33.348 23.707 33.418 23.469C33.4927 23.2263 33.53 22.972 33.53 22.706C33.53 22.4633 33.495 22.251 33.425 22.069C33.355 21.8823 33.2547 21.726 33.124 21.6C32.998 21.474 32.844 21.3807 32.662 21.32C32.4847 21.2547 32.284 21.222 32.06 21.222C31.8547 21.222 31.6633 21.2523 31.486 21.313C31.3133 21.369 31.1593 21.4507 31.024 21.558C30.8887 21.6607 30.7743 21.782 30.681 21.922C30.5877 22.062 30.5177 22.216 30.471 22.384C30.3917 22.5987 30.289 22.741 30.163 22.811C30.037 22.881 29.855 22.8973 29.617 22.86L28.707 22.699C28.777 22.2137 28.9123 21.789 29.113 21.425C29.3137 21.0563 29.5633 20.7507 29.862 20.508C30.1653 20.2607 30.5107 20.0763 30.898 19.955C31.29 19.829 31.71 19.766 32.158 19.766C32.6247 19.766 33.0517 19.836 33.439 19.976C33.8263 20.1113 34.1577 20.305 34.433 20.557C34.7083 20.809 34.923 21.1123 35.077 21.467C35.231 21.8217 35.308 22.216 35.308 22.65C35.308 23.0233 35.252 23.3687 35.14 23.686C35.0327 24.0033 34.8857 24.3067 34.699 24.596C34.517 24.8853 34.3023 25.1653 34.055 25.436C33.8077 25.7067 33.5487 25.982 33.278 26.262L30.996 28.593C31.2153 28.5277 31.4323 28.4787 31.647 28.446C31.8663 28.4087 32.074 28.39 32.27 28.39H34.867ZM41.1051 26.185V22.874C41.1051 22.5613 41.1261 22.216 41.1681 21.838L38.0251 26.185H41.1051ZM43.8841 26.185V27.186C43.8841 27.2793 43.8538 27.361 43.7931 27.431C43.7324 27.4963 43.6461 27.529 43.5341 27.529H42.6101V30H41.1051V27.529H36.8351C36.7184 27.529 36.6158 27.494 36.5271 27.424C36.4384 27.3493 36.3824 27.2583 36.3591 27.151L36.1771 26.276L40.9721 19.871H42.6101V26.185H43.8841ZM44.7252 22.139C44.7252 21.8077 44.7859 21.4973 44.9072 21.208C45.0332 20.914 45.2035 20.6597 45.4182 20.445C45.6375 20.2303 45.8942 20.0623 46.1882 19.941C46.4869 19.815 46.8065 19.752 47.1472 19.752C47.4879 19.752 47.8052 19.815 48.0992 19.941C48.3979 20.0623 48.6545 20.2303 48.8692 20.445C49.0885 20.6597 49.2612 20.914 49.3872 21.208C49.5132 21.4973 49.5762 21.8077 49.5762 22.139C49.5762 22.461 49.5132 22.7667 49.3872 23.056C49.2612 23.3453 49.0885 23.5997 48.8692 23.819C48.6545 24.0337 48.3979 24.204 48.0992 24.33C47.8052 24.456 47.4879 24.519 47.1472 24.519C46.8065 24.519 46.4869 24.456 46.1882 24.33C45.8942 24.204 45.6375 24.0337 45.4182 23.819C45.2035 23.5997 45.0332 23.3453 44.9072 23.056C44.7859 22.7667 44.7252 22.461 44.7252 22.139ZM45.9292 22.153C45.9292 22.3257 45.9595 22.4867 46.0202 22.636C46.0809 22.7853 46.1649 22.916 46.2722 23.028C46.3842 23.1353 46.5125 23.2217 46.6572 23.287C46.8065 23.3477 46.9699 23.378 47.1472 23.378C47.3199 23.378 47.4785 23.3477 47.6232 23.287C47.7725 23.2217 47.9009 23.1353 48.0082 23.028C48.1202 22.916 48.2065 22.7853 48.2672 22.636C48.3279 22.4867 48.3582 22.3257 48.3582 22.153C48.3582 21.9757 48.3279 21.8123 48.2672 21.663C48.2065 21.509 48.1202 21.376 48.0082 21.264C47.9009 21.152 47.7725 21.0633 47.6232 20.998C47.4785 20.9327 47.3199 20.9 47.1472 20.9C46.9699 20.9 46.8065 20.9327 46.6572 20.998C46.5125 21.0633 46.3842 21.152 46.2722 21.264C46.1649 21.376 46.0809 21.509 46.0202 21.663C45.9595 21.8123 45.9292 21.9757 45.9292 22.153ZM58.1307 27.613C58.2334 27.613 58.3244 27.6527 58.4037 27.732L59.1457 28.537C58.7351 29.0457 58.2287 29.4353 57.6267 29.706C57.0294 29.9767 56.3107 30.112 55.4707 30.112C54.7194 30.112 54.0427 29.9837 53.4407 29.727C52.8434 29.4703 52.3324 29.1133 51.9077 28.656C51.4831 28.1987 51.1564 27.6527 50.9277 27.018C50.7037 26.3833 50.5917 25.6903 50.5917 24.939C50.5917 24.1783 50.7131 23.483 50.9557 22.853C51.1984 22.2183 51.5391 21.6723 51.9777 21.215C52.4211 20.7577 52.9484 20.403 53.5597 20.151C54.1711 19.8943 54.8477 19.766 55.5897 19.766C56.3271 19.766 56.9804 19.8873 57.5497 20.13C58.1237 20.3727 58.6114 20.69 59.0127 21.082L58.3827 21.957C58.3454 22.013 58.2964 22.062 58.2357 22.104C58.1797 22.146 58.1004 22.167 57.9977 22.167C57.9277 22.167 57.8554 22.1483 57.7807 22.111C57.7061 22.069 57.6244 22.02 57.5357 21.964C57.4471 21.9033 57.3444 21.838 57.2277 21.768C57.1111 21.698 56.9757 21.635 56.8217 21.579C56.6677 21.5183 56.4881 21.4693 56.2827 21.432C56.0821 21.39 55.8487 21.369 55.5827 21.369C55.1301 21.369 54.7147 21.4507 54.3367 21.614C53.9634 21.7727 53.6414 22.006 53.3707 22.314C53.1001 22.6173 52.8901 22.9907 52.7407 23.434C52.5914 23.8727 52.5167 24.3743 52.5167 24.939C52.5167 25.5083 52.5961 26.0147 52.7547 26.458C52.9181 26.9013 53.1374 27.2747 53.4127 27.578C53.6881 27.8813 54.0124 28.1147 54.3857 28.278C54.7591 28.4367 55.1604 28.516 55.5897 28.516C55.8464 28.516 56.0774 28.502 56.2827 28.474C56.4927 28.446 56.6841 28.4017 56.8567 28.341C57.0341 28.2803 57.1997 28.2033 57.3537 28.11C57.5124 28.012 57.6687 27.893 57.8227 27.753C57.8694 27.711 57.9184 27.6783 57.9697 27.655C58.0211 27.627 58.0747 27.613 58.1307 27.613Z" fill="#212121"/>
</svg>
