<svg width="60" height="34" viewBox="0 0 60 34" fill="none" xmlns="http://www.w3.org/2000/svg">
<path d="M13 15L9 21H15L11 27" stroke="#C4C4C4" stroke-width="2" stroke-linecap="round" stroke-linejoin="round"/>
<path d="M19 20.7439C20.7478 20.1262 22 18.4593 22 16.5C22 14.1564 20.2085 12.2313 17.9203 12.0194C17.4522 9.17213 14.9798 7 12 7C9.02024 7 6.54781 9.17213 6.07974 12.0194C3.79151 12.2313 2 14.1564 2 16.5C2 18.4593 3.25221 20.1262 5 20.7439" stroke="#02609D" stroke-width="2" stroke-linecap="round" stroke-linejoin="round"/>
<path d="M29.938 8.68C29.938 9.18 30.006 9.628 30.142 10.024C30.278 10.42 30.472 10.756 30.724 11.032C30.976 11.304 31.28 11.514 31.636 11.662C31.992 11.806 32.39 11.878 32.83 11.878C33.274 11.878 33.674 11.806 34.03 11.662C34.386 11.514 34.688 11.304 34.936 11.032C35.188 10.756 35.38 10.42 35.512 10.024C35.648 9.628 35.716 9.18 35.716 8.68C35.716 8.184 35.648 7.738 35.512 7.342C35.38 6.946 35.188 6.61 34.936 6.334C34.688 6.058 34.386 5.846 34.03 5.698C33.674 5.55 33.274 5.476 32.83 5.476C32.39 5.476 31.992 5.55 31.636 5.698C31.28 5.846 30.976 6.058 30.724 6.334C30.472 6.61 30.278 6.946 30.142 7.342C30.006 7.738 29.938 8.184 29.938 8.68ZM37.576 14.728H36.424C36.252 14.728 36.1 14.704 35.968 14.656C35.836 14.612 35.714 14.53 35.602 14.41L34.222 12.892C33.79 13.024 33.326 13.09 32.83 13.09C32.186 13.09 31.598 12.98 31.066 12.76C30.538 12.54 30.084 12.236 29.704 11.848C29.324 11.456 29.03 10.99 28.822 10.45C28.614 9.91 28.51 9.32 28.51 8.68C28.51 8.04 28.614 7.45 28.822 6.91C29.03 6.37 29.324 5.904 29.704 5.512C30.084 5.12 30.538 4.814 31.066 4.594C31.598 4.374 32.186 4.264 32.83 4.264C33.478 4.264 34.066 4.374 34.594 4.594C35.126 4.814 35.58 5.12 35.956 5.512C36.336 5.904 36.63 6.37 36.838 6.91C37.046 7.45 37.15 8.04 37.15 8.68C37.15 9.076 37.11 9.454 37.03 9.814C36.95 10.17 36.834 10.504 36.682 10.816C36.53 11.124 36.344 11.408 36.124 11.668C35.904 11.924 35.654 12.148 35.374 12.34L37.576 14.728ZM43.5202 6.88V13H42.7402C42.5682 13 42.4582 12.918 42.4102 12.754L42.3142 12.184C42.1862 12.32 42.0502 12.444 41.9062 12.556C41.7662 12.668 41.6162 12.764 41.4562 12.844C41.2962 12.924 41.1242 12.986 40.9402 13.03C40.7602 13.074 40.5662 13.096 40.3582 13.096C40.0222 13.096 39.7262 13.04 39.4702 12.928C39.2142 12.816 38.9982 12.658 38.8222 12.454C38.6502 12.25 38.5202 12.006 38.4322 11.722C38.3442 11.434 38.3002 11.118 38.3002 10.774V6.88H39.5902V10.774C39.5902 11.186 39.6842 11.506 39.8722 11.734C40.0642 11.962 40.3542 12.076 40.7422 12.076C41.0262 12.076 41.2902 12.012 41.5342 11.884C41.7822 11.752 42.0142 11.572 42.2302 11.344V6.88H43.5202ZM48.3568 10.324C47.8968 10.34 47.5088 10.378 47.1928 10.438C46.8768 10.494 46.6208 10.568 46.4248 10.66C46.2288 10.748 46.0868 10.854 45.9988 10.978C45.9148 11.102 45.8728 11.238 45.8728 11.386C45.8728 11.53 45.8948 11.654 45.9388 11.758C45.9868 11.858 46.0508 11.942 46.1308 12.01C46.2148 12.074 46.3108 12.122 46.4188 12.154C46.5308 12.182 46.6528 12.196 46.7848 12.196C47.1208 12.196 47.4088 12.134 47.6488 12.01C47.8928 11.882 48.1288 11.698 48.3568 11.458V10.324ZM44.9368 7.732C45.6288 7.088 46.4528 6.766 47.4088 6.766C47.7608 6.766 48.0728 6.824 48.3448 6.94C48.6208 7.052 48.8508 7.212 49.0348 7.42C49.2228 7.628 49.3648 7.876 49.4608 8.164C49.5608 8.448 49.6108 8.764 49.6108 9.112V13H49.0348C48.9108 13 48.8168 12.982 48.7528 12.946C48.6888 12.906 48.6348 12.828 48.5908 12.712L48.4648 12.214C48.3088 12.354 48.1548 12.48 48.0028 12.592C47.8508 12.7 47.6928 12.792 47.5288 12.868C47.3688 12.944 47.1948 13 47.0068 13.036C46.8228 13.076 46.6188 13.096 46.3948 13.096C46.1468 13.096 45.9148 13.062 45.6988 12.994C45.4868 12.926 45.3028 12.824 45.1468 12.688C44.9908 12.548 44.8668 12.376 44.7748 12.172C44.6868 11.968 44.6428 11.728 44.6428 11.452C44.6428 11.216 44.7048 10.986 44.8288 10.762C44.9568 10.538 45.1648 10.338 45.4528 10.162C45.7448 9.982 46.1268 9.834 46.5988 9.718C47.0748 9.602 47.6608 9.536 48.3568 9.52V9.112C48.3568 8.672 48.2628 8.344 48.0748 8.128C47.8868 7.912 47.6108 7.804 47.2468 7.804C46.9988 7.804 46.7908 7.836 46.6228 7.9C46.4548 7.96 46.3088 8.026 46.1848 8.098C46.0608 8.17 45.9508 8.238 45.8548 8.302C45.7588 8.362 45.6568 8.392 45.5488 8.392C45.4608 8.392 45.3848 8.37 45.3208 8.326C45.2608 8.278 45.2108 8.22 45.1708 8.152L44.9368 7.732Z" fill="#555555"/>
<path d="M34.867 28.39C35.0537 28.39 35.2007 28.4437 35.308 28.551C35.42 28.6537 35.476 28.7913 35.476 28.964V30H28.532V29.426C28.532 29.3093 28.5553 29.188 28.602 29.062C28.6533 28.9313 28.7327 28.8147 28.84 28.712L31.913 25.632C32.1697 25.3707 32.3983 25.121 32.599 24.883C32.8043 24.645 32.9747 24.4093 33.11 24.176C33.2453 23.9427 33.348 23.707 33.418 23.469C33.4927 23.2263 33.53 22.972 33.53 22.706C33.53 22.4633 33.495 22.251 33.425 22.069C33.355 21.8823 33.2547 21.726 33.124 21.6C32.998 21.474 32.844 21.3807 32.662 21.32C32.4847 21.2547 32.284 21.222 32.06 21.222C31.8547 21.222 31.6633 21.2523 31.486 21.313C31.3133 21.369 31.1593 21.4507 31.024 21.558C30.8887 21.6607 30.7743 21.782 30.681 21.922C30.5877 22.062 30.5177 22.216 30.471 22.384C30.3917 22.5987 30.289 22.741 30.163 22.811C30.037 22.881 29.855 22.8973 29.617 22.86L28.707 22.699C28.777 22.2137 28.9123 21.789 29.113 21.425C29.3137 21.0563 29.5633 20.7507 29.862 20.508C30.1653 20.2607 30.5107 20.0763 30.898 19.955C31.29 19.829 31.71 19.766 32.158 19.766C32.6247 19.766 33.0517 19.836 33.439 19.976C33.8263 20.1113 34.1577 20.305 34.433 20.557C34.7083 20.809 34.923 21.1123 35.077 21.467C35.231 21.8217 35.308 22.216 35.308 22.65C35.308 23.0233 35.252 23.3687 35.14 23.686C35.0327 24.0033 34.8857 24.3067 34.699 24.596C34.517 24.8853 34.3023 25.1653 34.055 25.436C33.8077 25.7067 33.5487 25.982 33.278 26.262L30.996 28.593C31.2153 28.5277 31.4323 28.4787 31.647 28.446C31.8663 28.4087 32.074 28.39 32.27 28.39H34.867ZM36.8771 22.699C36.9471 22.2137 37.0824 21.789 37.2831 21.425C37.4838 21.0563 37.7334 20.7507 38.0321 20.508C38.3354 20.2607 38.6808 20.0763 39.0681 19.955C39.4601 19.829 39.8801 19.766 40.3281 19.766C40.7948 19.766 41.2148 19.8337 41.5881 19.969C41.9661 20.0997 42.2881 20.284 42.5541 20.522C42.8201 20.7553 43.0231 21.0307 43.1631 21.348C43.3078 21.6653 43.3801 22.0083 43.3801 22.377C43.3801 22.699 43.3428 22.9837 43.2681 23.231C43.1981 23.4737 43.0954 23.686 42.9601 23.868C42.8248 24.05 42.6568 24.204 42.4561 24.33C42.2554 24.456 42.0291 24.561 41.7771 24.645C42.3838 24.8363 42.8364 25.128 43.1351 25.52C43.4338 25.912 43.5831 26.4043 43.5831 26.997C43.5831 27.501 43.4898 27.9467 43.3031 28.334C43.1164 28.7213 42.8644 29.048 42.5471 29.314C42.2298 29.5753 41.8611 29.7737 41.4411 29.909C41.0258 30.0443 40.5848 30.112 40.1181 30.112C39.6094 30.112 39.1661 30.0537 38.7881 29.937C38.4101 29.8203 38.0811 29.6477 37.8011 29.419C37.5211 29.1903 37.2831 28.9103 37.0871 28.579C36.8911 28.2477 36.7231 27.865 36.5831 27.431L37.3461 27.116C37.5468 27.032 37.7334 27.011 37.9061 27.053C38.0834 27.0903 38.2118 27.1837 38.2911 27.333C38.3751 27.4963 38.4661 27.6573 38.5641 27.816C38.6668 27.9747 38.7881 28.117 38.9281 28.243C39.0681 28.3643 39.2314 28.4647 39.4181 28.544C39.6094 28.6187 39.8358 28.656 40.0971 28.656C40.3911 28.656 40.6478 28.6093 40.8671 28.516C41.0864 28.418 41.2684 28.292 41.4131 28.138C41.5624 27.984 41.6721 27.8137 41.7421 27.627C41.8168 27.4357 41.8541 27.2443 41.8541 27.053C41.8541 26.8103 41.8284 26.591 41.7771 26.395C41.7258 26.1943 41.6184 26.024 41.4551 25.884C41.2918 25.744 41.0561 25.6343 40.7481 25.555C40.4448 25.4757 40.0364 25.436 39.5231 25.436V24.204C39.9478 24.1993 40.3001 24.1597 40.5801 24.085C40.8601 24.0103 41.0818 23.9077 41.2451 23.777C41.4131 23.6417 41.5298 23.4807 41.5951 23.294C41.6604 23.1073 41.6931 22.902 41.6931 22.678C41.6931 22.202 41.5601 21.8403 41.2941 21.593C41.0281 21.3457 40.6734 21.222 40.2301 21.222C40.0248 21.222 39.8358 21.2523 39.6631 21.313C39.4904 21.369 39.3341 21.4507 39.1941 21.558C39.0588 21.6607 38.9444 21.782 38.8511 21.922C38.7578 22.062 38.6878 22.216 38.6411 22.384C38.5618 22.5987 38.4568 22.741 38.3261 22.811C38.2001 22.881 38.0204 22.8973 37.7871 22.86L36.8771 22.699ZM44.7252 22.139C44.7252 21.8077 44.7859 21.4973 44.9072 21.208C45.0332 20.914 45.2035 20.6597 45.4182 20.445C45.6375 20.2303 45.8942 20.0623 46.1882 19.941C46.4869 19.815 46.8065 19.752 47.1472 19.752C47.4879 19.752 47.8052 19.815 48.0992 19.941C48.3979 20.0623 48.6545 20.2303 48.8692 20.445C49.0885 20.6597 49.2612 20.914 49.3872 21.208C49.5132 21.4973 49.5762 21.8077 49.5762 22.139C49.5762 22.461 49.5132 22.7667 49.3872 23.056C49.2612 23.3453 49.0885 23.5997 48.8692 23.819C48.6545 24.0337 48.3979 24.204 48.0992 24.33C47.8052 24.456 47.4879 24.519 47.1472 24.519C46.8065 24.519 46.4869 24.456 46.1882 24.33C45.8942 24.204 45.6375 24.0337 45.4182 23.819C45.2035 23.5997 45.0332 23.3453 44.9072 23.056C44.7859 22.7667 44.7252 22.461 44.7252 22.139ZM45.9292 22.153C45.9292 22.3257 45.9595 22.4867 46.0202 22.636C46.0809 22.7853 46.1649 22.916 46.2722 23.028C46.3842 23.1353 46.5125 23.2217 46.6572 23.287C46.8065 23.3477 46.9699 23.378 47.1472 23.378C47.3199 23.378 47.4785 23.3477 47.6232 23.287C47.7725 23.2217 47.9009 23.1353 48.0082 23.028C48.1202 22.916 48.2065 22.7853 48.2672 22.636C48.3279 22.4867 48.3582 22.3257 48.3582 22.153C48.3582 21.9757 48.3279 21.8123 48.2672 21.663C48.2065 21.509 48.1202 21.376 48.0082 21.264C47.9009 21.152 47.7725 21.0633 47.6232 20.998C47.4785 20.9327 47.3199 20.9 47.1472 20.9C46.9699 20.9 46.8065 20.9327 46.6572 20.998C46.5125 21.0633 46.3842 21.152 46.2722 21.264C46.1649 21.376 46.0809 21.509 46.0202 21.663C45.9595 21.8123 45.9292 21.9757 45.9292 22.153ZM58.1307 27.613C58.2334 27.613 58.3244 27.6527 58.4037 27.732L59.1457 28.537C58.7351 29.0457 58.2287 29.4353 57.6267 29.706C57.0294 29.9767 56.3107 30.112 55.4707 30.112C54.7194 30.112 54.0427 29.9837 53.4407 29.727C52.8434 29.4703 52.3324 29.1133 51.9077 28.656C51.4831 28.1987 51.1564 27.6527 50.9277 27.018C50.7037 26.3833 50.5917 25.6903 50.5917 24.939C50.5917 24.1783 50.7131 23.483 50.9557 22.853C51.1984 22.2183 51.5391 21.6723 51.9777 21.215C52.4211 20.7577 52.9484 20.403 53.5597 20.151C54.1711 19.8943 54.8477 19.766 55.5897 19.766C56.3271 19.766 56.9804 19.8873 57.5497 20.13C58.1237 20.3727 58.6114 20.69 59.0127 21.082L58.3827 21.957C58.3454 22.013 58.2964 22.062 58.2357 22.104C58.1797 22.146 58.1004 22.167 57.9977 22.167C57.9277 22.167 57.8554 22.1483 57.7807 22.111C57.7061 22.069 57.6244 22.02 57.5357 21.964C57.4471 21.9033 57.3444 21.838 57.2277 21.768C57.1111 21.698 56.9757 21.635 56.8217 21.579C56.6677 21.5183 56.4881 21.4693 56.2827 21.432C56.0821 21.39 55.8487 21.369 55.5827 21.369C55.1301 21.369 54.7147 21.4507 54.3367 21.614C53.9634 21.7727 53.6414 22.006 53.3707 22.314C53.1001 22.6173 52.8901 22.9907 52.7407 23.434C52.5914 23.8727 52.5167 24.3743 52.5167 24.939C52.5167 25.5083 52.5961 26.0147 52.7547 26.458C52.9181 26.9013 53.1374 27.2747 53.4127 27.578C53.6881 27.8813 54.0124 28.1147 54.3857 28.278C54.7591 28.4367 55.1604 28.516 55.5897 28.516C55.8464 28.516 56.0774 28.502 56.2827 28.474C56.4927 28.446 56.6841 28.4017 56.8567 28.341C57.0341 28.2803 57.1997 28.2033 57.3537 28.11C57.5124 28.012 57.6687 27.893 57.8227 27.753C57.8694 27.711 57.9184 27.6783 57.9697 27.655C58.0211 27.627 58.0747 27.613 58.1307 27.613Z" fill="#212121"/>
</svg>
