<svg width="60" height="34" viewBox="0 0 60 34" fill="none" xmlns="http://www.w3.org/2000/svg">
<path d="M6 27C3.79086 27 2 25.2091 2 23C2 20.7909 3.79086 19 6 19C6.46419 19 6.90991 19.0791 7.32442 19.2245C8.04061 17.3396 9.86387 16 12 16C14.1361 16 15.9594 17.3396 16.6756 19.2245C17.0901 19.0791 17.5358 19 18 19C20.2091 19 22 20.7909 22 23C22 25.2091 20.2091 27 18 27C13.3597 27 9.87921 27 6 27Z" stroke="#78B3DA" stroke-width="2" stroke-linecap="round" stroke-linejoin="round"/>
<path d="M10.5 6.5V8.1M3.6 15H2M5.4512 9.95137L4.31982 8.82M15.5498 9.95137L16.6812 8.82M19 15H17.4M6.50007 15.0001C6.50007 12.7909 8.29093 11.0001 10.5001 11.0001C12.0061 11.0001 13.3177 11.8324 14.0001 13.0621" stroke="#F5BF60" stroke-width="2" stroke-linecap="round" stroke-linejoin="round"/>
<path d="M34.972 5.53H32.278V13H30.88V5.53H28.18V4.36H34.972V5.53ZM38.4953 9.25C38.4953 9.034 38.4633 8.834 38.3993 8.65C38.3393 8.462 38.2493 8.3 38.1293 8.164C38.0093 8.024 37.8593 7.916 37.6793 7.84C37.5033 7.76 37.2993 7.72 37.0673 7.72C36.5993 7.72 36.2313 7.854 35.9633 8.122C35.6953 8.39 35.5253 8.766 35.4533 9.25H38.4953ZM35.4173 10.042C35.4333 10.39 35.4873 10.692 35.5793 10.948C35.6713 11.2 35.7933 11.41 35.9453 11.578C36.1013 11.746 36.2853 11.872 36.4973 11.956C36.7133 12.036 36.9533 12.076 37.2173 12.076C37.4693 12.076 37.6873 12.048 37.8713 11.992C38.0553 11.932 38.2153 11.868 38.3513 11.8C38.4873 11.728 38.6033 11.664 38.6993 11.608C38.7953 11.548 38.8833 11.518 38.9633 11.518C39.0673 11.518 39.1473 11.558 39.2033 11.638L39.5693 12.112C39.4173 12.292 39.2453 12.444 39.0533 12.568C38.8613 12.692 38.6573 12.794 38.4413 12.874C38.2253 12.95 38.0033 13.004 37.7753 13.036C37.5473 13.072 37.3253 13.09 37.1093 13.09C36.6853 13.09 36.2913 13.02 35.9273 12.88C35.5673 12.736 35.2533 12.526 34.9853 12.25C34.7213 11.974 34.5133 11.632 34.3613 11.224C34.2133 10.816 34.1393 10.346 34.1393 9.814C34.1393 9.39 34.2053 8.994 34.3373 8.626C34.4733 8.258 34.6653 7.938 34.9133 7.666C35.1653 7.394 35.4693 7.18 35.8253 7.024C36.1853 6.864 36.5913 6.784 37.0433 6.784C37.4193 6.784 37.7673 6.846 38.0873 6.97C38.4073 7.09 38.6833 7.268 38.9153 7.504C39.1473 7.74 39.3273 8.03 39.4553 8.374C39.5873 8.714 39.6533 9.102 39.6533 9.538C39.6533 9.738 39.6313 9.872 39.5873 9.94C39.5433 10.008 39.4633 10.042 39.3473 10.042H35.4173ZM42.0743 8.014C42.2663 7.626 42.4983 7.322 42.7703 7.102C43.0423 6.878 43.3683 6.766 43.7483 6.766C43.8803 6.766 44.0043 6.782 44.1203 6.814C44.2363 6.842 44.3403 6.886 44.4323 6.946L44.3423 7.918C44.3263 7.986 44.3003 8.034 44.2643 8.062C44.2323 8.086 44.1883 8.098 44.1323 8.098C44.0723 8.098 43.9863 8.088 43.8743 8.068C43.7623 8.044 43.6443 8.032 43.5203 8.032C43.3403 8.032 43.1803 8.058 43.0403 8.11C42.9043 8.162 42.7803 8.238 42.6683 8.338C42.5603 8.438 42.4643 8.56 42.3803 8.704C42.2963 8.848 42.2183 9.012 42.1463 9.196V13H40.8563V6.88H41.6063C41.7423 6.88 41.8363 6.906 41.8883 6.958C41.9403 7.006 41.9763 7.092 41.9963 7.216L42.0743 8.014Z" fill="#555555"/>
<path d="M34.867 28.39C35.0537 28.39 35.2007 28.4437 35.308 28.551C35.42 28.6537 35.476 28.7913 35.476 28.964V30H28.532V29.426C28.532 29.3093 28.5553 29.188 28.602 29.062C28.6533 28.9313 28.7327 28.8147 28.84 28.712L31.913 25.632C32.1697 25.3707 32.3983 25.121 32.599 24.883C32.8043 24.645 32.9747 24.4093 33.11 24.176C33.2453 23.9427 33.348 23.707 33.418 23.469C33.4927 23.2263 33.53 22.972 33.53 22.706C33.53 22.4633 33.495 22.251 33.425 22.069C33.355 21.8823 33.2547 21.726 33.124 21.6C32.998 21.474 32.844 21.3807 32.662 21.32C32.4847 21.2547 32.284 21.222 32.06 21.222C31.8547 21.222 31.6633 21.2523 31.486 21.313C31.3133 21.369 31.1593 21.4507 31.024 21.558C30.8887 21.6607 30.7743 21.782 30.681 21.922C30.5877 22.062 30.5177 22.216 30.471 22.384C30.3917 22.5987 30.289 22.741 30.163 22.811C30.037 22.881 29.855 22.8973 29.617 22.86L28.707 22.699C28.777 22.2137 28.9123 21.789 29.113 21.425C29.3137 21.0563 29.5633 20.7507 29.862 20.508C30.1653 20.2607 30.5107 20.0763 30.898 19.955C31.29 19.829 31.71 19.766 32.158 19.766C32.6247 19.766 33.0517 19.836 33.439 19.976C33.8263 20.1113 34.1577 20.305 34.433 20.557C34.7083 20.809 34.923 21.1123 35.077 21.467C35.231 21.8217 35.308 22.216 35.308 22.65C35.308 23.0233 35.252 23.3687 35.14 23.686C35.0327 24.0033 34.8857 24.3067 34.699 24.596C34.517 24.8853 34.3023 25.1653 34.055 25.436C33.8077 25.7067 33.5487 25.982 33.278 26.262L30.996 28.593C31.2153 28.5277 31.4323 28.4787 31.647 28.446C31.8663 28.4087 32.074 28.39 32.27 28.39H34.867ZM41.1051 26.185V22.874C41.1051 22.5613 41.1261 22.216 41.1681 21.838L38.0251 26.185H41.1051ZM43.8841 26.185V27.186C43.8841 27.2793 43.8538 27.361 43.7931 27.431C43.7324 27.4963 43.6461 27.529 43.5341 27.529H42.6101V30H41.1051V27.529H36.8351C36.7184 27.529 36.6158 27.494 36.5271 27.424C36.4384 27.3493 36.3824 27.2583 36.3591 27.151L36.1771 26.276L40.9721 19.871H42.6101V26.185H43.8841ZM44.7252 22.139C44.7252 21.8077 44.7859 21.4973 44.9072 21.208C45.0332 20.914 45.2035 20.6597 45.4182 20.445C45.6375 20.2303 45.8942 20.0623 46.1882 19.941C46.4869 19.815 46.8065 19.752 47.1472 19.752C47.4879 19.752 47.8052 19.815 48.0992 19.941C48.3979 20.0623 48.6545 20.2303 48.8692 20.445C49.0885 20.6597 49.2612 20.914 49.3872 21.208C49.5132 21.4973 49.5762 21.8077 49.5762 22.139C49.5762 22.461 49.5132 22.7667 49.3872 23.056C49.2612 23.3453 49.0885 23.5997 48.8692 23.819C48.6545 24.0337 48.3979 24.204 48.0992 24.33C47.8052 24.456 47.4879 24.519 47.1472 24.519C46.8065 24.519 46.4869 24.456 46.1882 24.33C45.8942 24.204 45.6375 24.0337 45.4182 23.819C45.2035 23.5997 45.0332 23.3453 44.9072 23.056C44.7859 22.7667 44.7252 22.461 44.7252 22.139ZM45.9292 22.153C45.9292 22.3257 45.9595 22.4867 46.0202 22.636C46.0809 22.7853 46.1649 22.916 46.2722 23.028C46.3842 23.1353 46.5125 23.2217 46.6572 23.287C46.8065 23.3477 46.9699 23.378 47.1472 23.378C47.3199 23.378 47.4785 23.3477 47.6232 23.287C47.7725 23.2217 47.9009 23.1353 48.0082 23.028C48.1202 22.916 48.2065 22.7853 48.2672 22.636C48.3279 22.4867 48.3582 22.3257 48.3582 22.153C48.3582 21.9757 48.3279 21.8123 48.2672 21.663C48.2065 21.509 48.1202 21.376 48.0082 21.264C47.9009 21.152 47.7725 21.0633 47.6232 20.998C47.4785 20.9327 47.3199 20.9 47.1472 20.9C46.9699 20.9 46.8065 20.9327 46.6572 20.998C46.5125 21.0633 46.3842 21.152 46.2722 21.264C46.1649 21.376 46.0809 21.509 46.0202 21.663C45.9595 21.8123 45.9292 21.9757 45.9292 22.153ZM58.1307 27.613C58.2334 27.613 58.3244 27.6527 58.4037 27.732L59.1457 28.537C58.7351 29.0457 58.2287 29.4353 57.6267 29.706C57.0294 29.9767 56.3107 30.112 55.4707 30.112C54.7194 30.112 54.0427 29.9837 53.4407 29.727C52.8434 29.4703 52.3324 29.1133 51.9077 28.656C51.4831 28.1987 51.1564 27.6527 50.9277 27.018C50.7037 26.3833 50.5917 25.6903 50.5917 24.939C50.5917 24.1783 50.7131 23.483 50.9557 22.853C51.1984 22.2183 51.5391 21.6723 51.9777 21.215C52.4211 20.7577 52.9484 20.403 53.5597 20.151C54.1711 19.8943 54.8477 19.766 55.5897 19.766C56.3271 19.766 56.9804 19.8873 57.5497 20.13C58.1237 20.3727 58.6114 20.69 59.0127 21.082L58.3827 21.957C58.3454 22.013 58.2964 22.062 58.2357 22.104C58.1797 22.146 58.1004 22.167 57.9977 22.167C57.9277 22.167 57.8554 22.1483 57.7807 22.111C57.7061 22.069 57.6244 22.02 57.5357 21.964C57.4471 21.9033 57.3444 21.838 57.2277 21.768C57.1111 21.698 56.9757 21.635 56.8217 21.579C56.6677 21.5183 56.4881 21.4693 56.2827 21.432C56.0821 21.39 55.8487 21.369 55.5827 21.369C55.1301 21.369 54.7147 21.4507 54.3367 21.614C53.9634 21.7727 53.6414 22.006 53.3707 22.314C53.1001 22.6173 52.8901 22.9907 52.7407 23.434C52.5914 23.8727 52.5167 24.3743 52.5167 24.939C52.5167 25.5083 52.5961 26.0147 52.7547 26.458C52.9181 26.9013 53.1374 27.2747 53.4127 27.578C53.6881 27.8813 54.0124 28.1147 54.3857 28.278C54.7591 28.4367 55.1604 28.516 55.5897 28.516C55.8464 28.516 56.0774 28.502 56.2827 28.474C56.4927 28.446 56.6841 28.4017 56.8567 28.341C57.0341 28.2803 57.1997 28.2033 57.3537 28.11C57.5124 28.012 57.6687 27.893 57.8227 27.753C57.8694 27.711 57.9184 27.6783 57.9697 27.655C58.0211 27.627 58.0747 27.613 58.1307 27.613Z" fill="#212121"/>
</svg>
