<svg width="75" height="27" viewBox="0 0 75 27" fill="none" xmlns="http://www.w3.org/2000/svg">
<path d="M40.9931 10.5181H37.5835V10.0408H38.5264V0.684277H37.5835V0.209281H41.32L44.525 7.5388L47.8547 0.209281H51.5912V0.684277H50.6482V10.0408H51.5912V10.5181H46.4791V10.0408H48.1439V1.11695L44.0524 10.0408H43.1682L41.755 6.76282L39.3259 1.13341V10.0408H40.9908V10.5181H40.9931ZM36.8263 6.61467H36.1679C35.58 8.04907 35.0462 9.10017 34.6888 9.47641C34.3337 9.85264 33.7929 10.0408 33.0663 10.0408H29.4309V4.93102H30.9923C31.4861 4.93102 31.8694 5.06976 32.1422 5.34959C32.4055 5.60354 32.6336 6.07619 32.8288 6.76282C32.8476 6.82631 32.8641 6.8898 32.8805 6.95799H33.539V2.42906H32.8805C32.676 3.22386 32.422 3.7694 32.121 4.06804C31.86 4.3267 31.4838 4.45603 30.9923 4.45603H29.4309V0.684277H33.5178C34.0375 0.684277 34.4208 0.81831 34.6677 1.08638C34.9828 1.43439 35.4201 2.27857 35.9821 3.61891H36.6405V0.206929H26.0049V0.681925H26.9454V10.0384H25.671V10.5158H36.8263V6.61232V6.61467ZM16.4532 1.05816C16.646 0.808904 16.9682 0.684277 17.4197 0.684277H18.673V10.0408H17.0905V10.5181H22.7598V10.0408H21.1773V0.684277H22.4306C22.8821 0.684277 23.2043 0.808904 23.3947 1.05816C23.6416 1.38736 23.9779 2.22919 24.4012 3.59069H25.0596V0.209281H14.7884V3.59069H15.4468C15.87 2.23154 16.2063 1.38736 16.4532 1.05816ZM62.5913 5.36369C62.5913 3.79291 63.2145 2.49491 64.4607 1.46731C65.6529 0.489105 67.0967 0 68.7968 0C70.4969 0 71.9384 0.489105 73.1306 1.46731C74.3769 2.49491 75 3.79291 75 5.36369C75 6.93447 74.3769 8.23248 73.1306 9.26007C71.9384 10.2383 70.4946 10.7274 68.7968 10.7274C67.0991 10.7274 65.6529 10.2383 64.4607 9.26007C63.2145 8.23248 62.5913 6.93447 62.5913 5.36369ZM65.4272 5.36605C65.4272 7.2143 65.707 8.5076 66.269 9.24596C66.7769 9.91848 67.6188 10.2547 68.7968 10.2547C69.9749 10.2547 70.8167 9.91848 71.3223 9.24596C71.8843 8.5076 72.1641 7.21195 72.1641 5.36605C72.1641 3.52014 71.882 2.22684 71.3223 1.48613C70.8144 0.813607 69.9726 0.477348 68.7968 0.477348C67.6211 0.477348 66.7769 0.813607 66.269 1.48613C65.707 2.22684 65.4272 3.52014 65.4272 5.36605ZM57.5686 10.5158H52.1861V10.0384H53.1314V0.684277H52.1861V0.209281H57.1006C58.7584 0.209281 60.0658 0.463239 61.0229 0.968804C61.9258 1.46496 62.3797 2.12102 62.3797 2.93463C62.3797 3.74824 61.9423 4.39959 61.0652 4.85813C60.1458 5.34488 58.8337 5.58708 57.1218 5.58708H55.6192V10.0408H57.5709V10.5181L57.5686 10.5158ZM55.6169 5.10503H56.5669C57.7167 5.10503 58.5397 4.95219 59.0312 4.64415C59.525 4.3361 59.7719 3.7647 59.7719 2.92993C59.7719 1.42969 58.7655 0.679574 56.7526 0.679574H55.6192V5.10503H55.6169ZM0 5.36369C0 3.79291 0.623139 2.49491 1.86942 1.46731C3.06161 0.489105 4.50541 0 6.20552 0C7.90563 0 9.34708 0.489105 10.5393 1.46731C11.7855 2.49491 12.4087 3.79291 12.4087 5.36369C12.4087 6.93447 11.7855 8.23248 10.5393 9.26007C9.34708 10.2383 7.90328 10.7274 6.20552 10.7274C4.50776 10.7274 3.06161 10.2383 1.86942 9.26007C0.623139 8.23248 0 6.93447 0 5.36369ZM2.83587 5.36605C2.83587 7.2143 3.11569 8.5076 3.67769 9.24596C4.18326 9.91848 5.02743 10.2547 6.20317 10.2547C7.3789 10.2547 8.22308 9.91848 8.73099 9.24596C9.29299 8.50525 9.57282 7.21195 9.57282 5.36605C9.57282 3.52014 9.29064 2.22684 8.73099 1.48613C8.22308 0.813607 7.38125 0.477348 6.20317 0.477348C5.02508 0.477348 4.18326 0.813607 3.67769 1.48613C3.11569 2.22684 2.83587 3.52014 2.83587 5.36605Z" fill="#00542B"/>
<path d="M8.51004 23.5018C8.57409 23.5018 8.63813 23.5151 8.70218 23.5418C8.76622 23.5631 8.8276 23.6032 8.88631 23.6619L9.95907 24.7907C9.4894 25.4045 8.89965 25.8688 8.18981 26.1837C7.48531 26.4932 6.65005 26.648 5.68404 26.648C4.79807 26.648 4.00284 26.4986 3.29834 26.1997C2.59918 25.8955 2.00409 25.4792 1.51307 24.9508C1.0274 24.4171 0.653798 23.7873 0.392278 23.0615C0.130759 22.3303 0 21.5377 0 20.6838C0 19.8138 0.141434 19.0159 0.424301 18.2901C0.707169 17.5589 1.10478 16.9291 1.61715 16.4007C2.12951 15.8724 2.74328 15.4614 3.45846 15.1679C4.17363 14.8743 4.96086 14.7275 5.82013 14.7275C6.25778 14.7275 6.66873 14.7676 7.05301 14.8476C7.44262 14.9223 7.80554 15.0291 8.14178 15.1679C8.47802 15.3013 8.78757 15.4641 9.07044 15.6562C9.35331 15.8483 9.60415 16.0565 9.82297 16.2806L8.91033 17.5055C8.85162 17.5802 8.78224 17.6496 8.70218 17.7137C8.62212 17.7724 8.51004 17.8017 8.36594 17.8017C8.26987 17.8017 8.17914 17.7804 8.09375 17.7377C8.00835 17.695 7.91762 17.6443 7.82155 17.5856C7.72548 17.5215 7.61874 17.4548 7.50133 17.3854C7.38925 17.3107 7.25315 17.244 7.09304 17.1853C6.93826 17.1212 6.75413 17.0679 6.54064 17.0252C6.3325 16.9825 6.08699 16.9611 5.80412 16.9611C5.3558 16.9611 4.94484 17.0439 4.57125 17.2093C4.20298 17.3748 3.88276 17.6176 3.61056 17.9378C3.34371 18.2527 3.13556 18.6423 2.98612 19.1066C2.84202 19.5656 2.76997 20.0913 2.76997 20.6838C2.76997 21.2815 2.85002 21.8126 3.01014 22.2769C3.17559 22.7412 3.39708 23.1335 3.67461 23.4537C3.95748 23.7686 4.28571 24.0088 4.65931 24.1742C5.03291 24.3397 5.43319 24.4224 5.86016 24.4224C6.10567 24.4224 6.32983 24.4117 6.53264 24.3904C6.73545 24.3637 6.92492 24.3237 7.10104 24.2703C7.27717 24.2116 7.44262 24.1369 7.59739 24.0462C7.75217 23.9501 7.90962 23.83 8.06973 23.6859C8.13377 23.6325 8.20316 23.5898 8.27788 23.5578C8.3526 23.5204 8.42999 23.5018 8.51004 23.5018Z" fill="#555555"/>
<path d="M22.2906 20.6838C22.2906 21.527 22.1438 22.3116 21.8503 23.0374C21.5621 23.7633 21.1538 24.3957 20.6254 24.9348C20.097 25.4685 19.4592 25.8875 18.712 26.1917C17.9702 26.4959 17.1456 26.648 16.2383 26.648C15.331 26.648 14.5037 26.4959 13.7565 26.1917C13.0093 25.8875 12.3689 25.4685 11.8352 24.9348C11.3068 24.3957 10.8958 23.7633 10.6023 23.0374C10.3141 22.3116 10.17 21.527 10.17 20.6838C10.17 19.8405 10.3141 19.0559 10.6023 18.3301C10.8958 17.6042 11.3068 16.9745 11.8352 16.4408C12.3689 15.907 13.0093 15.4881 13.7565 15.1839C14.5037 14.8796 15.331 14.7275 16.2383 14.7275C17.1456 14.7275 17.9702 14.8823 18.712 15.1919C19.4592 15.4961 20.097 15.915 20.6254 16.4488C21.1538 16.9825 21.5621 17.6123 21.8503 18.3381C22.1438 19.064 22.2906 19.8458 22.2906 20.6838ZM19.5206 20.6838C19.5206 20.1074 19.4459 19.5897 19.2964 19.1307C19.147 18.6663 18.9309 18.2741 18.648 17.9538C18.3705 17.6336 18.0289 17.3881 17.6233 17.2173C17.2176 17.0465 16.756 16.9611 16.2383 16.9611C15.7152 16.9611 15.2482 17.0465 14.8373 17.2173C14.4317 17.3881 14.0874 17.6336 13.8046 17.9538C13.527 18.2741 13.3135 18.6663 13.1641 19.1307C13.0147 19.5897 12.9399 20.1074 12.9399 20.6838C12.9399 21.2655 13.0147 21.7886 13.1641 22.2529C13.3135 22.7119 13.527 23.1015 13.8046 23.4217C14.0874 23.7419 14.4317 23.9874 14.8373 24.1582C15.2482 24.3237 15.7152 24.4064 16.2383 24.4064C16.756 24.4064 17.2176 24.3237 17.6233 24.1582C18.0289 23.9874 18.3705 23.7419 18.648 23.4217C18.9309 23.1015 19.147 22.7119 19.2964 22.2529C19.4459 21.7886 19.5206 21.2655 19.5206 20.6838Z" fill="#555555"/>
<path d="M30.8799 24.3584V26.5199H23.8509V14.8556H26.5569V24.3584H30.8799Z" fill="#555555"/>
<path d="M36.864 24.3824C37.227 24.3824 37.5499 24.3237 37.8327 24.2063C38.1209 24.0835 38.3638 23.9101 38.5612 23.6859C38.7587 23.4617 38.9082 23.1895 39.0096 22.8693C39.1163 22.5438 39.1697 22.1755 39.1697 21.7645V14.8556H41.8756V21.7645C41.8756 22.4797 41.7582 23.1362 41.5234 23.7339C41.2939 24.3317 40.963 24.8467 40.5306 25.279C40.0983 25.7113 39.5726 26.0476 38.9535 26.2877C38.3344 26.5279 37.6379 26.648 36.864 26.648C36.0848 26.648 35.3857 26.5279 34.7666 26.2877C34.1474 26.0476 33.6217 25.7113 33.1894 25.279C32.7571 24.8467 32.4262 24.3317 32.1967 23.7339C31.9672 23.1362 31.8525 22.4797 31.8525 21.7645V14.8556H34.5584V21.7565C34.5584 22.1675 34.6091 22.5357 34.7105 22.8613C34.8173 23.1815 34.9694 23.4564 35.1668 23.6859C35.3643 23.9101 35.6045 24.0835 35.8874 24.2063C36.1756 24.3237 36.5011 24.3824 36.864 24.3824Z" fill="#555555"/>
<path d="M54.1407 14.8556V26.5199H52.7317C52.5235 26.5199 52.3474 26.4879 52.2033 26.4238C52.0645 26.3545 51.9258 26.237 51.787 26.0716L46.2871 19.1147C46.3085 19.3228 46.3218 19.5256 46.3271 19.7231C46.3378 19.9152 46.3432 20.0967 46.3432 20.2675V26.5199H43.9575V14.8556H45.3825C45.4999 14.8556 45.5986 14.861 45.6787 14.8716C45.7587 14.8823 45.8308 14.9037 45.8948 14.9357C45.9589 14.9624 46.0203 15.0024 46.079 15.0558C46.1377 15.1091 46.2044 15.1812 46.2791 15.2719L51.827 22.2769C51.8004 22.0527 51.7817 21.8366 51.771 21.6284C51.7603 21.415 51.755 21.2148 51.755 21.028V14.8556H54.1407Z" fill="#555555"/>
<path d="M62.5361 22.0607L61.4554 18.8665C61.3753 18.6637 61.2899 18.4262 61.1992 18.154C61.1085 17.8764 61.0177 17.5776 60.927 17.2573C60.847 17.5829 60.7616 17.8844 60.6708 18.162C60.5801 18.4395 60.4947 18.6797 60.4146 18.8825L59.3419 22.0607H62.5361ZM66.8352 26.5199H64.7377C64.5029 26.5199 64.3134 26.4665 64.1693 26.3598C64.0252 26.2477 63.9158 26.1063 63.8411 25.9355L63.1526 23.9021H58.7174L58.0289 25.9355C57.9702 26.0849 57.8635 26.221 57.7087 26.3438C57.5593 26.4612 57.3725 26.5199 57.1483 26.5199H55.0348L59.55 14.8556H62.32L66.8352 26.5199Z" fill="#555555"/>
<path d="M74.1674 17.2253C74.0873 17.3534 74.002 17.4495 73.9112 17.5135C73.8258 17.5776 73.7138 17.6096 73.575 17.6096C73.4522 17.6096 73.3188 17.5722 73.1747 17.4975C73.0359 17.4174 72.8758 17.3294 72.6944 17.2333C72.5182 17.1372 72.3154 17.0519 72.0859 16.9771C71.8564 16.8971 71.5949 16.8571 71.3014 16.8571C70.7943 16.8571 70.4154 16.9665 70.1646 17.1853C69.9191 17.3988 69.7963 17.6896 69.7963 18.0579C69.7963 18.2927 69.871 18.4875 70.0205 18.6423C70.1699 18.7971 70.3647 18.9305 70.6049 19.0426C70.8504 19.1547 71.1279 19.2588 71.4375 19.3548C71.7524 19.4456 72.0726 19.5496 72.3982 19.667C72.7237 19.7791 73.0413 19.9126 73.3508 20.0673C73.6657 20.2221 73.9433 20.4196 74.1834 20.6598C74.4289 20.8999 74.6264 21.1935 74.7758 21.5404C74.9253 21.882 75 22.2956 75 22.7813C75 23.3203 74.9066 23.8247 74.7198 24.2943C74.533 24.764 74.2608 25.175 73.9032 25.5272C73.551 25.8741 73.1133 26.149 72.5903 26.3518C72.0726 26.5493 71.4828 26.648 70.821 26.648C70.4581 26.648 70.0872 26.6106 69.7082 26.5359C69.3346 26.4612 68.9717 26.3571 68.6195 26.2237C68.2672 26.0849 67.9363 25.9222 67.6268 25.7354C67.3172 25.5486 67.0477 25.3404 66.8182 25.1109L67.6188 23.846C67.6828 23.7553 67.7655 23.6806 67.8669 23.6219C67.9737 23.5578 68.0884 23.5258 68.2112 23.5258C68.3713 23.5258 68.5314 23.5765 68.6915 23.6779C68.857 23.7793 69.0411 23.8914 69.2439 24.0141C69.4521 24.1369 69.6896 24.249 69.9564 24.3504C70.2233 24.4518 70.5382 24.5025 70.9011 24.5025C71.3921 24.5025 71.7737 24.3957 72.0459 24.1823C72.3181 23.9634 72.4542 23.6192 72.4542 23.1495C72.4542 22.8773 72.3795 22.6558 72.23 22.485C72.0806 22.3143 71.8831 22.1728 71.6376 22.0607C71.3974 21.9487 71.1226 21.8499 70.813 21.7645C70.5035 21.6791 70.1859 21.5857 69.8603 21.4843C69.5348 21.3776 69.2172 21.2495 68.9077 21.1001C68.5981 20.9453 68.3206 20.7451 68.0751 20.4996C67.8349 20.2488 67.6401 19.9392 67.4907 19.571C67.3412 19.1974 67.2665 18.7384 67.2665 18.194C67.2665 17.7564 67.3546 17.3294 67.5307 16.9131C67.7068 16.4968 67.9657 16.1259 68.3073 15.8003C68.6488 15.4747 69.0678 15.2159 69.5641 15.0237C70.0605 14.8263 70.6289 14.7275 71.2694 14.7275C71.6269 14.7275 71.9739 14.7569 72.3101 14.8156C72.6517 14.869 72.9746 14.9517 73.2788 15.0638C73.583 15.1705 73.8659 15.3013 74.1274 15.4561C74.3942 15.6055 74.6317 15.7763 74.8399 15.9684L74.1674 17.2253Z" fill="#555555"/>
</svg>
