<svg width="65" height="42" viewBox="0 0 65 42" fill="none" xmlns="http://www.w3.org/2000/svg">
<path d="M16.1568 11.3748C15.8523 12.3984 14.1464 13.8393 11.4563 13.9521C8.57455 14.141 6.3385 13.3458 6.3385 10.0834C6.3385 7.08882 8.00778 5.76073 11.1546 5.76073C15.0233 5.76073 16.842 8.98369 16.1596 11.372M11.039 0C3.34112 0 -0.107424 4.62437 0.00254628 10.2751C0.191469 17.5162 4.28573 19.5633 9.25411 19.5633C11.3407 19.5633 12.8183 19.2222 13.8418 18.8048C14.4481 18.5764 14.9415 18.3114 15.3588 18.0463C14.5637 20.1696 12.212 23.6971 3.6823 23.6971L3.07606 29.345C3.53004 29.345 5.19932 29.2689 6.1101 29.2689C10.8106 29.0038 14.6398 27.6757 17.5611 25.0985C20.8601 22.1801 22.9073 17.7418 22.9073 12.3956C22.9073 5.61128 20.1016 0 11.039 0Z" fill="white"/>
<path d="M35.0291 0.37793H24.1111L23.4287 6.29374H28.1687H28.2448V28.815H35.0291V0.37793Z" fill="white"/>
<path d="M60.7337 0.132568H40.5246L39.8789 5.89611H52.9597C48.6765 11.2113 45.7552 16.7521 43.8209 21.1622C42.7212 23.7028 41.8104 26.1729 41.0914 28.5668H48.7893C50.4191 21.6528 53.4137 15.5368 56.0304 11.2452C57.5474 8.69893 59.1011 6.38675 60.7309 4.30014V0.132568H60.7337Z" fill="white"/>
<path fill-rule="evenodd" clip-rule="evenodd" d="M38.3733 26.0347C37.5556 27.1541 36.8168 28.2764 36.1514 29.3761H39.7832C40.1131 28.2792 40.4825 27.1654 40.8942 26.0347H38.3733Z" fill="white"/>
<path fill-rule="evenodd" clip-rule="evenodd" d="M2.29785 42.0001V30.9636H64.2334V41.9973H15.5788V42.0001H2.29785ZM33.2867 40.2011H35.7484V39.8571H34.5443V33.4224L36.2982 37.4885L37.319 39.8571H37.9562L40.9113 33.4111V39.8571H39.7101V40.2011H43.404V39.8571H42.7244V33.0982H43.404V32.7542H40.7055L38.3002 38.0496L35.9852 32.7542H33.2867V33.0982H33.9691V39.8571H33.2867V40.2011ZM32.2632 37.3813H32.7369V40.1983H24.6781V39.8542H25.5973V33.0953H24.9178V32.7513H32.6015V35.2158H32.1278C31.7218 34.2458 31.406 33.6367 31.1776 33.3858C30.9999 33.194 30.7208 33.0953 30.3457 33.0953H27.3935V35.8192H28.5214C28.8767 35.8192 29.1474 35.7262 29.3363 35.54C29.5534 35.3258 29.7395 34.931 29.8861 34.3558H30.3598V37.6295H29.8861C29.8749 37.5815 29.8636 37.5336 29.8495 37.4885C29.7085 36.9922 29.5449 36.651 29.3532 36.4677C29.1558 36.2675 28.8767 36.166 28.5214 36.166H27.3935V39.8571H30.0215C30.5459 39.8571 30.9379 39.7217 31.1945 39.4482C31.4539 39.1775 31.8374 38.4162 32.2632 37.3813ZM18.7171 33.0953C18.3929 33.0953 18.1588 33.1856 18.0207 33.366H18.0179C17.8402 33.6029 17.5977 34.212 17.2904 35.196H16.8166V32.7542H24.2382V35.196H23.7645C23.4571 34.212 23.2146 33.6029 23.037 33.366C22.8988 33.1856 22.6676 33.0953 22.3405 33.0953H21.4354V39.8542H22.5774V40.1983H18.4803V39.8542H19.6223V33.0953H18.7171ZM52.7034 33.6621C51.804 34.4037 51.3528 35.3427 51.3528 36.4762C51.3528 37.6097 51.804 38.5487 52.7034 39.2903C53.5635 39.9981 54.6124 40.3505 55.8362 40.3505C57.0599 40.3505 58.1061 39.9981 58.9661 39.2903C59.8656 38.5487 60.3167 37.6097 60.3167 36.4762C60.3167 35.3427 59.8656 34.4037 58.9661 33.6621C58.1061 32.9543 57.0656 32.6019 55.8362 32.6019C54.6068 32.6019 53.5635 32.9572 52.7034 33.6621ZM54.0118 39.279C53.6058 38.7461 53.4027 37.8099 53.4027 36.4762C53.4027 35.1425 53.6058 34.2091 54.0118 33.6734C54.3784 33.1884 54.9903 32.9459 55.839 32.9459C56.6877 32.9459 57.2968 33.1884 57.6634 33.6734C58.0694 34.2091 58.2724 35.1425 58.2724 36.4762C58.2724 37.8099 58.0694 38.7461 57.6634 39.279C57.2968 39.764 56.6906 40.0065 55.839 40.0065C54.9874 40.0065 54.3784 39.764 54.0118 39.279ZM43.8354 40.1983H47.7238V39.8542H46.3139V36.6369H47.3995C48.6346 36.6369 49.5848 36.4621 50.2475 36.1096C50.8819 35.7797 51.1977 35.3117 51.1977 34.7223C51.1977 34.133 50.8734 33.6593 50.2193 33.3012C49.5284 32.9346 48.581 32.7513 47.3854 32.7513H43.8354V33.0953H44.5177V39.8542H43.8354V40.1983ZM46.9991 36.2901H46.3139V33.0953H47.1316C48.5866 33.0953 49.3141 33.6367 49.3141 34.7195C49.3141 35.3229 49.1337 35.7346 48.7784 35.9574C48.4231 36.1801 47.8309 36.2901 46.9991 36.2901ZM7.48613 33.6621C6.58663 34.4037 6.13548 35.3427 6.13548 36.4762C6.13548 37.6097 6.58663 38.5487 7.48613 39.2903C8.34897 39.9981 9.39227 40.3505 10.6189 40.3505C11.8454 40.3505 12.8916 39.9981 13.7516 39.2903C14.6511 38.5487 15.1022 37.6097 15.1022 36.4762C15.1022 35.3427 14.6511 34.4037 13.7516 33.6621C12.8887 32.9543 11.8454 32.6019 10.6189 32.6019C9.39227 32.6019 8.34615 32.9572 7.48613 33.6621ZM8.79167 39.279C8.38563 38.7461 8.18261 37.8099 8.18261 36.4762C8.18261 35.1425 8.38563 34.2091 8.79167 33.6734C9.15542 33.1884 9.7673 32.9459 10.616 32.9459C11.4648 32.9459 12.0738 33.1884 12.4404 33.6734C12.8465 34.2091 13.0495 35.1425 13.0495 36.4762C13.0495 37.8099 12.8465 38.7461 12.4404 39.279C12.0738 39.764 11.4648 40.0065 10.616 40.0065C9.7673 40.0065 9.15824 39.764 8.79167 39.279Z" fill="white"/>
<path d="M62.5021 22.9893L60.6467 25.9838L58.7913 22.9893H57.5929V28.8148H58.7152V24.9546L60.4634 27.7772H60.8385L62.5782 24.9546V28.8148H63.709V22.9893H62.5021ZM56.6765 24.0382V22.9893H53.2646V28.8148H54.3954V26.5252H56.434V25.4763H54.3954V24.0354H56.6765V24.0382Z" fill="white"/>
</svg>
