<svg width="342" height="28" viewBox="0 0 342 28" fill="none" xmlns="http://www.w3.org/2000/svg">
<path d="M200.348 27C198.285 27 196.273 26.7749 194.311 26.3246C192.368 25.8514 190.769 25.2219 189.515 24.4409L192.216 18.3303C193.402 19.0148 194.725 19.5754 196.195 19.998C197.665 20.4024 199.071 20.5999 200.422 20.5999C201.584 20.5999 202.411 20.4942 202.907 20.2783C203.404 20.0394 203.652 19.6994 203.652 19.2491C203.652 18.73 203.321 18.3394 202.659 18.0776C202.021 17.8157 200.955 17.5308 199.462 17.223C197.546 16.8187 195.947 16.396 194.665 15.9457C193.388 15.4725 192.276 14.7144 191.325 13.6715C190.378 12.6056 189.901 11.1721 189.901 9.37108C189.901 7.80897 190.342 6.38928 191.215 5.10743C192.092 3.83017 193.392 2.82399 195.124 2.08887C196.875 1.35376 198.998 0.986206 201.483 0.986206C203.188 0.986206 204.86 1.17458 206.491 1.55592C208.15 1.90969 209.606 2.44265 210.86 3.15479L208.338 9.22865C205.898 7.99734 203.587 7.38168 201.41 7.38168C199.232 7.38168 198.175 7.90086 198.175 8.9438C198.175 9.44 198.497 9.82134 199.135 10.0786C199.774 10.3175 200.831 10.5748 202.296 10.8597C204.189 11.2135 205.788 11.6315 207.093 12.1048C208.393 12.555 209.519 13.2993 210.465 14.3423C211.439 15.3852 211.922 16.8049 211.922 18.6059C211.922 20.168 211.485 21.5877 210.608 22.8696C209.73 24.1239 208.416 25.13 206.666 25.8881C204.938 26.6232 202.829 26.9908 200.344 26.9908L200.348 27Z" fill="white"/>
<path d="M226.395 1.5697C228.692 1.5697 230.695 1.94645 232.4 2.70453C234.105 3.46262 235.419 4.5515 236.342 5.97119C237.265 7.39087 237.725 9.04947 237.725 10.9424C237.725 12.8353 237.265 14.4939 236.342 15.9136C235.419 17.3333 234.105 18.4221 232.4 19.1802C230.695 19.9383 228.697 20.3151 226.395 20.3151H222.807V26.4257H214.422V1.5697H226.39H226.395ZM225.862 13.8599C226.997 13.8599 227.851 13.6118 228.417 13.1156C228.986 12.5964 229.271 11.8705 229.271 10.947C229.271 10.0235 228.986 9.31135 228.417 8.81515C227.851 8.29598 226.997 8.0341 225.862 8.0341H222.807V13.8599H225.862Z" fill="white"/>
<path d="M253.86 27C251.186 27 248.783 26.4441 246.651 25.3322C244.519 24.2204 242.852 22.6812 241.643 20.7148C240.435 18.7254 239.833 16.4879 239.833 14.0023C239.833 11.5167 240.439 9.28839 241.643 7.32196C242.852 5.33257 244.519 3.77964 246.651 2.66779C248.783 1.55593 251.186 1 253.86 1C256.534 1 258.941 1.55593 261.069 2.66779C263.2 3.77964 264.868 5.33257 266.077 7.32196C267.285 9.28839 267.887 11.5121 267.887 14.0023C267.887 16.4925 267.285 18.7254 266.077 20.7148C264.868 22.6812 263.2 24.2204 261.069 25.3322C258.937 26.4441 256.534 27 253.86 27ZM253.86 20.214C254.903 20.214 255.835 19.9659 256.667 19.4697C257.522 18.9505 258.192 18.2246 258.693 17.3011C259.189 16.3547 259.438 15.252 259.438 13.9977C259.438 12.7434 259.189 11.6545 258.693 10.731C258.197 9.78459 257.522 9.06326 256.667 8.56247C255.84 8.04329 254.903 7.78141 253.86 7.78141C252.817 7.78141 251.87 8.04329 251.02 8.56247C250.193 9.05867 249.527 9.78 249.031 10.731C248.535 11.6545 248.287 12.7434 248.287 13.9977C248.287 15.252 248.535 16.3547 249.031 17.3011C249.527 18.2246 250.193 18.9459 251.02 19.4697C251.87 19.9659 252.822 20.214 253.86 20.214Z" fill="white"/>
<path d="M281.588 20.1818H279.314V26.4349H270.929V1.5697H282.902C285.199 1.5697 287.198 1.94645 288.902 2.70453C290.607 3.46262 291.921 4.5515 292.844 5.97119C293.768 7.39087 294.227 9.04947 294.227 10.9424C294.227 12.7204 293.823 14.2688 293.019 15.5966C292.215 16.9244 291.052 17.9765 289.536 18.7575L294.756 26.4303H285.806L281.579 20.1772L281.588 20.1818ZM285.778 10.947C285.778 10.0235 285.493 9.31135 284.923 8.81515C284.358 8.29598 283.504 8.0341 282.369 8.0341H279.314V13.8599H282.369C283.504 13.8599 284.358 13.6118 284.923 13.1156C285.493 12.5964 285.778 11.8705 285.778 10.947Z" fill="white"/>
<path d="M302.451 8.07085H295.169V1.5697H318.114V8.07085H310.831V26.4349H302.447V8.07085H302.451Z" fill="white"/>
<path d="M329.567 27C327.504 27 325.496 26.7749 323.53 26.3246C321.587 25.8514 319.992 25.2219 318.733 24.4409L321.435 18.3303C322.62 19.0148 323.943 19.5754 325.414 19.998C326.879 20.4024 328.29 20.5999 329.641 20.5999C330.803 20.5999 331.63 20.4942 332.126 20.2783C332.622 20.0394 332.871 19.6994 332.871 19.2491C332.871 18.73 332.54 18.3394 331.878 18.0776C331.239 17.8157 330.174 17.5308 328.68 17.223C326.76 16.8187 325.166 16.396 323.884 15.9457C322.607 15.4725 321.49 14.7144 320.544 13.6715C319.597 12.6056 319.124 11.1721 319.124 9.37108C319.124 7.80897 319.56 6.38928 320.438 5.10743C321.315 3.83017 322.616 2.82399 324.343 2.08887C326.094 1.35376 328.216 0.986206 330.702 0.986206C332.406 0.986206 334.074 1.17458 335.71 1.55592C337.368 1.90969 338.825 2.44265 340.079 3.15479L337.557 9.22865C335.117 7.99734 332.806 7.38168 330.628 7.38168C328.451 7.38168 327.394 7.90086 327.394 8.9438C327.394 9.44 327.716 9.82134 328.354 10.0786C328.993 10.3175 330.05 10.5748 331.515 10.8597C333.408 11.2135 335.007 11.6315 336.312 12.1048C337.617 12.555 338.738 13.2993 339.689 14.3423C340.658 15.3852 341.145 16.8049 341.145 18.6059C341.145 20.168 340.709 21.5877 339.831 22.8696C338.954 24.1239 337.64 25.13 335.889 25.8881C334.162 26.6232 332.053 26.9908 329.567 26.9908V27Z" fill="white"/>
<path d="M167.521 26.9954C163.768 27.0919 160.11 25.8284 157.225 23.4393C155.838 22.2861 154.716 20.8435 153.949 19.2078C153.182 17.5768 152.782 15.7942 152.782 13.9931C152.782 12.1921 153.182 10.4141 153.949 8.77844C154.716 7.14741 155.833 5.70475 157.225 4.54695C160.156 2.24513 163.786 0.990845 167.521 0.990845C171.257 0.990845 174.882 2.24513 177.817 4.54695C179.205 5.70016 180.326 7.14282 181.093 8.77844C181.861 10.4095 182.26 12.1921 182.26 13.9931C182.26 15.7942 181.865 17.5768 181.093 19.2078C180.326 20.8389 179.21 22.2815 177.817 23.4393C174.932 25.8284 171.275 27.0919 167.526 26.9954H167.521ZM167.521 2.15784C164.723 2.15784 162.725 2.97105 161.521 4.60208C160.184 6.39851 159.518 9.53193 159.518 14.0069C159.518 18.4819 160.184 21.6153 161.521 23.4118C162.725 25.0382 164.723 25.856 167.521 25.856C170.319 25.856 172.318 25.0428 173.522 23.4118C174.854 21.6153 175.52 18.4819 175.52 14.0069C175.52 9.53193 174.854 6.39392 173.522 4.60208C172.318 2.97565 170.315 2.16243 167.521 2.15784Z" fill="white"/>
<path d="M136.104 25.8008H140.418V27.0046H128.519V25.8008H130.604V2.20375H128.519V1H139.38C143.042 1 145.936 1.63863 148.054 2.91589C150.053 4.16558 151.054 5.81958 151.054 7.87789C151.054 9.93621 150.085 11.5718 148.146 12.725C146.115 13.9518 143.212 14.5674 139.426 14.5674H136.104V25.8008ZM136.104 13.3637H138.204C140.749 13.3637 142.564 12.9777 143.653 12.2013C144.742 11.4248 145.288 9.98675 145.288 7.88249C145.288 4.09666 143.065 2.20834 138.613 2.20834H136.109V13.3683L136.104 13.3637Z" fill="white"/>
<path d="M116.945 3.29263V25.7963H113.035V27H125.055V25.7963H122.84V2.20375H125.055V1H116.275L108.446 19.4835L100.901 1H92.1123V2.20375H94.3314V25.8008H92.1123V27.0046H100.125V25.8008H96.2106V3.32939L101.921 17.5262L105.248 25.7963H107.325L116.941 3.29263H116.945Z" fill="white"/>
<path d="M90.3805 17.1587H88.8505C87.4814 20.7745 86.2363 23.4255 85.4047 24.372C84.5685 25.3184 83.3142 25.8008 81.6234 25.8008H73.1467V12.9088H76.7855C77.2771 12.8767 77.7687 12.9548 78.2327 13.1385C78.6968 13.3177 79.1149 13.6026 79.4686 13.9609C80.2681 14.9947 80.8194 16.2168 81.0675 17.5262C81.1089 17.687 81.1502 17.8479 81.1916 18.0178H82.7215V6.60064H81.1916C80.7137 8.60382 80.121 9.98215 79.4181 10.731C79.0643 11.0756 78.6508 11.3375 78.196 11.5075C77.7411 11.6775 77.2633 11.7418 76.7855 11.7097H73.1467V2.20375H82.6756C83.1672 2.1578 83.6588 2.22672 84.1228 2.40131C84.5869 2.5759 85.005 2.85616 85.3587 3.21453C86.0938 4.09207 87.1138 6.2193 88.4232 9.60081H89.9578V1H65.1615V2.20375H67.3577V25.8008H64.3896V27.0046H90.3896V17.1587" fill="white"/>
<path d="M38.3809 1V9.5273H39.8235C40.7562 6.09525 41.4913 3.96802 42.0334 3.14101C42.2953 2.80562 42.6215 2.54833 42.9891 2.38293C43.3566 2.21753 43.7564 2.1578 44.1515 2.19915H46.899V25.7963H43.4302V27H55.8673V25.7963H52.3985V2.20375H55.146C55.5411 2.1578 55.9363 2.22212 56.3084 2.38752C56.676 2.55292 57.0068 2.81021 57.2641 3.14561C57.8062 3.97261 58.5413 6.09984 59.474 9.5319H60.9166V1H38.3809Z" fill="white"/>
<path d="M15.7341 26.9954C11.985 27.0919 8.32327 25.8284 5.43795 23.4393C4.05043 22.2861 2.92938 20.8434 2.16211 19.2078C1.39483 17.5768 0.995117 15.7941 0.995117 13.9931C0.995117 12.1921 1.39483 10.414 2.16211 8.77841C2.92938 7.14738 4.04583 5.70472 5.43795 4.54692C8.37381 2.25429 11.9988 1 15.7341 1C19.4694 1 23.0944 2.25428 26.0303 4.55611C27.4178 5.70931 28.5389 7.15197 29.3061 8.7876C30.0734 10.4186 30.4731 12.2013 30.4731 14.0023C30.4731 15.8033 30.0734 17.586 29.3061 19.217C28.5389 20.848 27.4224 22.2907 26.0303 23.4485C23.145 25.8376 19.4878 27.1011 15.7341 27.0046V26.9954ZM15.7341 2.1624C12.9361 2.1624 10.9375 2.97561 9.73376 4.60664C8.40137 6.40307 7.73058 9.53649 7.73058 14.0115C7.73058 18.4865 8.39678 21.6199 9.73376 23.4163C10.9375 25.0428 12.9361 25.8606 15.7341 25.8606C18.5321 25.8606 20.5307 25.0474 21.7345 23.4163C23.0669 21.6199 23.7331 18.4865 23.7376 14.0115C23.7376 9.53649 23.0715 6.39848 21.7345 4.60664C20.5307 2.98021 18.5321 2.16699 15.7341 2.1624Z" fill="white"/>
</svg>
