<svg width="443" height="32" viewBox="0 0 443 32" fill="none" xmlns="http://www.w3.org/2000/svg">
<path d="M122.283 31.3757H112.112V29.9518H114.925V2.04121H112.112V0.624288H123.258L132.819 22.4884L142.751 0.624288H153.897V2.04121H151.085V29.9518H153.897V31.3757H138.648V29.9518H143.614V3.33187L131.409 29.9518H128.772L124.556 20.1736L117.31 3.38097V29.9518H122.276V31.3757H122.283ZM109.854 19.7317H107.89C106.136 24.0105 104.544 27.146 103.477 28.2683C102.418 29.3906 100.805 29.9518 98.6374 29.9518H87.7931V14.7093H92.4507C93.9237 14.7093 95.0671 15.1232 95.8808 15.9579C96.6664 16.7155 97.3468 18.1254 97.929 20.1736C97.9851 20.363 98.0342 20.5524 98.0833 20.7558H100.047V7.24594H98.0833C97.473 9.61684 96.7155 11.2442 95.8176 12.135C95.039 12.9066 93.9167 13.2924 92.4507 13.2924H87.7931V2.04121H99.9842C101.534 2.04121 102.678 2.44104 103.414 3.24068C104.354 4.27883 105.659 6.79702 107.335 10.7953H109.299V0.617273H77.573V2.0342H80.3788V29.9448H76.5769V31.3687H109.854V19.7247V19.7317ZM49.0802 3.15651C49.6554 2.41298 50.6164 2.04121 51.9632 2.04121H55.7019V29.9518H50.9811V31.3757H67.893V29.9518H63.1723V2.04121H66.911C68.2578 2.04121 69.2188 2.41298 69.7869 3.15651C70.5235 4.13854 71.5265 6.64972 72.7891 10.7111H74.7532V0.624288H44.114V10.7111H46.078C47.3406 6.65673 48.3437 4.13854 49.0802 3.15651ZM186.711 16C186.711 11.3143 188.57 7.44235 192.288 4.37703C195.844 1.45901 200.151 0 205.222 0C210.294 0 214.594 1.45901 218.15 4.37703C221.868 7.44235 223.726 11.3143 223.726 16C223.726 20.6857 221.868 24.5576 218.15 27.623C214.594 30.541 210.287 32 205.222 32C200.158 32 195.844 30.541 192.288 27.623C188.57 24.5576 186.711 20.6857 186.711 16ZM195.171 16.007C195.171 21.5204 196.005 25.3783 197.682 27.5809C199.197 29.587 201.708 30.5901 205.222 30.5901C208.737 30.5901 211.248 29.587 212.756 27.5809C214.432 25.3783 215.267 21.5134 215.267 16.007C215.267 10.5007 214.425 6.6427 212.756 4.43314C211.241 2.42701 208.73 1.42394 205.222 1.42394C201.715 1.42394 199.197 2.42701 197.682 4.43314C196.005 6.6427 195.171 10.5007 195.171 16.007ZM171.728 31.3687H155.672V29.9448H158.492V2.04121H155.672V0.624288H170.332C175.277 0.624288 179.178 1.38185 182.032 2.88996C184.726 4.37001 186.08 6.32705 186.08 8.75406C186.08 11.1811 184.775 13.1241 182.159 14.4919C179.416 15.9439 175.502 16.6664 170.395 16.6664H165.913V29.9518H171.735V31.3757L171.728 31.3687ZM165.906 15.2284H168.74C172.17 15.2284 174.625 14.7725 176.091 13.8536C177.564 12.9347 178.301 11.2302 178.301 8.74003C178.301 4.2648 175.299 2.02718 169.294 2.02718H165.913V15.2284H165.906ZM0 16C0 11.3143 1.85883 7.44235 5.5765 4.37703C9.13284 1.45901 13.4397 0 18.5112 0C23.5826 0 27.8825 1.45901 31.4388 4.37703C35.1565 7.44235 37.0153 11.3143 37.0153 16C37.0153 20.6857 35.1565 24.5576 31.4388 27.623C27.8825 30.541 23.5756 32 18.5112 32C13.4467 32 9.13284 30.541 5.5765 27.623C1.85883 24.5576 0 20.6857 0 16ZM8.45945 16.007C8.45945 21.5204 9.29417 25.3783 10.9706 27.5809C12.4787 29.587 14.9969 30.5901 18.5042 30.5901C22.0114 30.5901 24.5296 29.587 26.0447 27.5809C27.7212 25.3713 28.5559 21.5134 28.5559 16.007C28.5559 10.5007 27.7142 6.6427 26.0447 4.43314C24.5296 2.42701 22.0184 1.42394 18.5042 1.42394C14.9899 1.42394 12.4787 2.42701 10.9706 4.43314C9.29417 6.6427 8.45945 10.5007 8.45945 16.007Z" fill="#00542B"/>
<rect x="231.727" width="1" height="32" fill="#C4C4C4"/>
<path d="M263.571 23.5541C263.743 23.5541 263.915 23.5899 264.087 23.6615C264.259 23.7188 264.424 23.8263 264.581 23.9839L267.461 27.0141C266.2 28.6617 264.617 29.9082 262.712 30.7535C260.821 31.5845 258.578 32 255.985 32C253.607 32 251.472 31.5988 249.581 30.7965C247.704 29.9799 246.106 28.8623 244.788 27.4439C243.485 26.0112 242.482 24.3206 241.78 22.3721C241.078 20.4092 240.727 18.2816 240.727 15.9893C240.727 13.6539 241.106 11.512 241.866 9.56347C242.625 7.60063 243.692 5.91001 245.068 4.4916C246.443 3.0732 248.091 1.97 250.011 1.182C251.931 0.394 254.044 0 256.35 0C257.525 0 258.629 0.107454 259.66 0.322364C260.706 0.522945 261.68 0.80949 262.583 1.182C263.485 1.54018 264.316 1.97717 265.076 2.49295C265.835 3.00873 266.509 3.56749 267.096 4.16924L264.646 7.45735C264.488 7.65793 264.302 7.84419 264.087 8.01612C263.872 8.17372 263.571 8.25252 263.185 8.25252C262.927 8.25252 262.683 8.19521 262.454 8.08059C262.225 7.96597 261.981 7.82986 261.723 7.67226C261.465 7.50034 261.179 7.32124 260.864 7.13499C260.563 6.93441 260.197 6.75532 259.768 6.59772C259.352 6.42579 258.858 6.28252 258.285 6.1679C257.726 6.05328 257.067 5.99597 256.307 5.99597C255.104 5.99597 254.001 6.21804 252.998 6.66219C252.009 7.10633 251.15 7.75823 250.419 8.61786C249.703 9.46317 249.144 10.5091 248.743 11.7555C248.356 12.9877 248.162 14.3989 248.162 15.9893C248.162 17.5939 248.377 19.0195 248.807 20.2659C249.251 21.5124 249.846 22.5655 250.591 23.4251C251.35 24.2704 252.231 24.9152 253.234 25.3593C254.237 25.8034 255.312 26.0255 256.458 26.0255C257.117 26.0255 257.719 25.9969 258.263 25.9396C258.808 25.8679 259.316 25.7605 259.789 25.6172C260.262 25.4596 260.706 25.259 261.121 25.0154C261.537 24.7576 261.96 24.4352 262.389 24.0484C262.561 23.9051 262.748 23.7905 262.948 23.7045C263.149 23.6042 263.357 23.5541 263.571 23.5541Z" fill="#555555"/>
<path d="M300.565 15.9893C300.565 18.253 300.171 20.3591 299.383 22.3076C298.609 24.2561 297.513 25.9539 296.095 27.4009C294.676 28.8337 292.964 29.9584 290.958 30.775C288.967 31.5917 286.753 32 284.318 32C281.882 32 279.661 31.5917 277.655 30.775C275.65 29.9584 273.93 28.8337 272.498 27.4009C271.079 25.9539 269.976 24.2561 269.188 22.3076C268.414 20.3591 268.027 18.253 268.027 15.9893C268.027 13.7255 268.414 11.6194 269.188 9.67092C269.976 7.72241 271.079 6.03179 272.498 4.59906C273.93 3.16633 275.65 2.04164 277.655 1.22498C279.661 0.408328 281.882 0 284.318 0C286.753 0 288.967 0.41549 290.958 1.24647C292.964 2.06313 294.676 3.18782 296.095 4.62055C297.513 6.05328 298.609 7.7439 299.383 9.69241C300.171 11.6409 300.565 13.7399 300.565 15.9893ZM293.129 15.9893C293.129 14.4419 292.928 13.0522 292.527 11.82C292.126 10.5735 291.546 9.52048 290.786 8.66085C290.041 7.80121 289.124 7.14215 288.035 6.68368C286.947 6.22521 285.707 5.99597 284.318 5.99597C282.913 5.99597 281.66 6.22521 280.557 6.68368C279.468 7.14215 278.544 7.80121 277.784 8.66085C277.039 9.52048 276.466 10.5735 276.065 11.82C275.664 13.0522 275.463 14.4419 275.463 15.9893C275.463 17.5509 275.664 18.955 276.065 20.2015C276.466 21.4336 277.039 22.4795 277.784 23.3392C278.544 24.1988 279.468 24.8578 280.557 25.3163C281.66 25.7605 282.913 25.9825 284.318 25.9825C285.707 25.9825 286.947 25.7605 288.035 25.3163C289.124 24.8578 290.041 24.1988 290.786 23.3392C291.546 22.4795 292.126 21.4336 292.527 20.2015C292.928 18.955 293.129 17.5509 293.129 15.9893Z" fill="#555555"/>
<path d="M323.622 25.8536V31.6561H304.753V0.343855H312.017V25.8536H323.622Z" fill="#555555"/>
<path d="M339.687 25.9181C340.661 25.9181 341.528 25.7605 342.287 25.4453C343.061 25.1157 343.713 24.6501 344.243 24.0484C344.773 23.4466 345.174 22.7159 345.446 21.8563C345.733 20.9823 345.876 19.9937 345.876 18.8905V0.343855H353.14V18.8905C353.14 20.8104 352.825 22.5726 352.194 24.1773C351.578 25.782 350.69 27.1645 349.529 28.3251C348.369 29.4856 346.958 30.3882 345.296 31.0329C343.634 31.6776 341.764 32 339.687 32C337.595 32 335.718 31.6776 334.056 31.0329C332.394 30.3882 330.983 29.4856 329.822 28.3251C328.662 27.1645 327.773 25.782 327.157 24.1773C326.541 22.5726 326.233 20.8104 326.233 18.8905V0.343855H333.497V18.869C333.497 19.9722 333.633 20.9608 333.906 21.8348C334.192 22.6944 334.6 23.4323 335.131 24.0484C335.661 24.6501 336.305 25.1157 337.065 25.4453C337.838 25.7605 338.712 25.9181 339.687 25.9181Z" fill="#555555"/>
<path d="M386.065 0.343855V31.6561H382.283C381.724 31.6561 381.251 31.5702 380.864 31.3983C380.492 31.212 380.119 30.8968 379.747 30.4527L364.982 11.777C365.04 12.3358 365.076 12.8802 365.09 13.4103C365.119 13.9261 365.133 14.4133 365.133 14.8717V31.6561H358.729V0.343855H362.554C362.869 0.343855 363.134 0.358182 363.349 0.386836C363.564 0.41549 363.757 0.472799 363.929 0.558764C364.101 0.6304 364.266 0.737856 364.424 0.881128C364.581 1.0244 364.76 1.21782 364.961 1.46138L379.854 20.2659C379.783 19.6642 379.732 19.084 379.704 18.5252C379.675 17.9521 379.661 17.4148 379.661 16.9134V0.343855H386.065Z" fill="#555555"/>
<path d="M408.602 19.6857L405.701 11.1108C405.486 10.5664 405.257 9.92881 405.013 9.19812C404.77 8.4531 404.526 7.65077 404.283 6.79113C404.068 7.6651 403.839 8.47459 403.595 9.21961C403.351 9.96463 403.122 10.6094 402.907 11.1538L400.027 19.6857H408.602ZM420.143 31.6561H414.512C413.882 31.6561 413.373 31.5129 412.986 31.2263C412.6 30.9255 412.306 30.5458 412.105 30.0873L410.257 24.6286H398.351L396.503 30.0873C396.345 30.4885 396.059 30.8538 395.643 31.1833C395.242 31.4985 394.741 31.6561 394.139 31.6561H388.465L400.586 0.343855H408.022L420.143 31.6561Z" fill="#555555"/>
<path d="M439.826 6.70517C439.611 7.04903 439.382 7.30692 439.138 7.47885C438.909 7.65077 438.608 7.73674 438.236 7.73674C437.906 7.73674 437.548 7.63644 437.161 7.43586C436.789 7.22095 436.359 6.98455 435.872 6.72666C435.399 6.46877 434.854 6.23953 434.238 6.03895C433.622 5.82404 432.92 5.71659 432.132 5.71659C430.771 5.71659 429.754 6.0103 429.08 6.59772C428.421 7.17081 428.092 7.95165 428.092 8.94023C428.092 9.57063 428.292 10.0936 428.694 10.5091C429.095 10.9246 429.618 11.2827 430.262 11.5836C430.922 11.8845 431.667 12.1639 432.498 12.4218C433.343 12.6653 434.203 12.9447 435.076 13.2599C435.95 13.5608 436.803 13.919 437.634 14.3345C438.479 14.7499 439.224 15.2801 439.869 15.9248C440.528 16.5695 441.058 17.3575 441.459 18.2888C441.86 19.2057 442.061 20.3161 442.061 21.6199C442.061 23.0669 441.81 24.4209 441.309 25.6817C440.807 26.9425 440.077 28.0457 439.117 28.9913C438.171 29.9225 436.996 30.6604 435.592 31.2048C434.203 31.7349 432.619 32 430.843 32C429.868 32 428.873 31.8997 427.856 31.6991C426.853 31.4985 425.878 31.2192 424.933 30.861C423.987 30.4885 423.099 30.0515 422.268 29.55C421.437 29.0486 420.713 28.4898 420.097 27.8737L422.246 24.4782C422.418 24.2346 422.64 24.034 422.913 23.8764C423.199 23.7045 423.507 23.6185 423.837 23.6185C424.267 23.6185 424.696 23.7546 425.126 24.0269C425.57 24.2991 426.065 24.6 426.609 24.9295C427.168 25.259 427.805 25.5599 428.522 25.8321C429.238 26.1043 430.083 26.2404 431.058 26.2404C432.376 26.2404 433.4 25.9539 434.131 25.3808C434.862 24.7934 435.227 23.8693 435.227 22.6085C435.227 21.8778 435.026 21.2832 434.625 20.8247C434.224 20.3662 433.694 19.9866 433.035 19.6857C432.39 19.3848 431.652 19.1198 430.821 18.8905C429.99 18.6613 429.138 18.4106 428.264 18.1383C427.39 17.8518 426.537 17.5079 425.706 17.1068C424.875 16.6913 424.13 16.154 423.471 15.495C422.827 14.8216 422.304 13.9906 421.903 13.002C421.501 11.9991 421.301 10.767 421.301 9.30557C421.301 8.13073 421.537 6.98455 422.01 5.86702C422.483 4.7495 423.178 3.75375 424.095 2.87978C425.012 2.00582 426.136 1.31095 427.469 0.795163C428.801 0.265054 430.327 0 432.046 0C433.006 0 433.937 0.0787995 434.84 0.2364C435.757 0.379673 436.624 0.601745 437.44 0.902617C438.257 1.18916 439.016 1.54018 439.719 1.95567C440.435 2.35684 441.072 2.81531 441.631 3.33109L439.826 6.70517Z" fill="#555555"/>
</svg>
