<svg width="76" height="24" viewBox="0 0 76 24" fill="none" xmlns="http://www.w3.org/2000/svg">
<path d="M11.5669 23.9999C10.7178 23.9999 9.88857 23.9074 9.07915 23.7224C8.27965 23.5275 7.62055 23.2681 7.10352 22.946L8.21522 20.4286C8.70252 20.711 9.24929 20.9406 9.85388 21.1157C10.4585 21.2809 11.0399 21.3652 11.5949 21.3652C12.0723 21.3652 12.4143 21.3206 12.6191 21.233C12.8239 21.1356 12.9264 20.9935 12.9264 20.8085C12.9264 20.5938 12.7892 20.4335 12.5167 20.3262C12.254 20.2188 11.8146 20.1015 11.2002 19.9743C10.4106 19.8091 9.75146 19.6324 9.22452 19.4474C8.69757 19.2524 8.24 18.9402 7.84851 18.5107C7.45867 18.0714 7.26209 17.4816 7.26209 16.7399C7.26209 16.0957 7.44215 15.511 7.80391 14.984C8.16402 14.4571 8.70252 14.0424 9.41448 13.7402C10.1363 13.4379 11.0102 13.2859 12.0343 13.2859C12.7364 13.2859 13.4252 13.3635 14.0975 13.5205C14.7798 13.6675 15.381 13.8855 15.8981 14.1795L14.859 16.6821C13.8547 16.175 12.9032 15.9206 12.0046 15.9206C11.106 15.9206 10.6732 16.1354 10.6732 16.5648C10.6732 16.7697 10.8054 16.9266 11.068 17.034C11.3323 17.1314 11.7651 17.2388 12.3713 17.3561C13.1527 17.5031 13.8101 17.6733 14.347 17.8682C14.8838 18.0532 15.3463 18.3604 15.7362 18.7899C16.1359 19.2194 16.3358 19.8042 16.3358 20.5459C16.3358 21.1901 16.1558 21.7748 15.794 22.3018C15.4322 22.8188 14.8921 23.2334 14.1686 23.5456C13.4566 23.8479 12.5877 23.9999 11.5636 23.9999H11.5669Z" fill="white"/>
<path d="M22.2977 13.5205C23.2442 13.5205 24.0685 13.6774 24.7706 13.9896C25.4743 14.3018 26.0144 14.7511 26.396 15.3359C26.7759 15.9206 26.9659 16.6045 26.9659 17.3842C26.9659 18.1639 26.7759 18.8477 26.396 19.4325C26.0144 20.0173 25.4743 20.4666 24.7706 20.7788C24.0685 21.091 23.2442 21.2462 22.2977 21.2462H20.8193V23.7637H17.3652V13.5188H22.2977V13.5205ZM22.078 18.5834C22.5455 18.5834 22.8973 18.481 23.1319 18.2762C23.3665 18.0614 23.4838 17.7641 23.4838 17.3842C23.4838 17.0042 23.3665 16.7102 23.1319 16.5054C22.899 16.2906 22.5471 16.1833 22.078 16.1833H20.8193V18.5834H22.078Z" fill="white"/>
<path d="M33.6129 24C32.5111 24 31.52 23.7704 30.6428 23.3128C29.7657 22.8536 29.0769 22.2193 28.5797 21.4098C28.0824 20.5905 27.833 19.6688 27.833 18.6446C27.833 17.6204 28.0824 16.7037 28.5797 15.8926C29.0769 15.0733 29.7657 14.434 30.6428 13.9748C31.5216 13.5156 32.5111 13.2876 33.6129 13.2876C34.7147 13.2876 35.7058 13.5172 36.583 13.9748C37.4618 14.434 38.1489 15.0716 38.6461 15.8926C39.145 16.702 39.3928 17.6188 39.3928 18.6446C39.3928 19.6704 39.145 20.5905 38.6461 21.4098C38.1489 22.2193 37.4618 22.8536 36.583 23.3128C35.7058 23.772 34.7147 24 33.6129 24ZM33.6129 21.205C34.0424 21.205 34.4273 21.1026 34.7692 20.8978C35.1211 20.683 35.3986 20.3857 35.6034 20.0057C35.8082 19.6159 35.9106 19.1616 35.9106 18.6446C35.9106 18.1276 35.8082 17.6783 35.6034 17.2983C35.3986 16.9085 35.1211 16.6112 34.7692 16.4063C34.4273 16.1916 34.0424 16.0842 33.6129 16.0842C33.1834 16.0842 32.7936 16.1916 32.4417 16.4063C32.0998 16.6112 31.8272 16.9085 31.6224 17.2983C31.4176 17.6783 31.3151 18.1276 31.3151 18.6446C31.3151 19.1616 31.4176 19.6159 31.6224 20.0057C31.8272 20.3857 32.0998 20.683 32.4417 20.8978C32.7919 21.1026 33.1834 21.205 33.6129 21.205Z" fill="white"/>
<path d="M45.0372 21.1901H44.1005V23.7654H40.6465V13.5205H45.579C46.5255 13.5205 47.3498 13.6774 48.0518 13.9896C48.7555 14.3018 49.2957 14.7511 49.6773 15.3359C50.0572 15.9207 50.2472 16.6045 50.2472 17.3842C50.2472 18.116 50.0803 18.7553 49.7499 19.302C49.4179 19.8488 48.9405 20.2833 48.3161 20.6054L50.4668 23.7671H46.7782L45.0372 21.1918V21.1901ZM46.7634 17.3842C46.7634 17.0043 46.6461 16.7103 46.4115 16.5054C46.1786 16.2907 45.8267 16.1833 45.3576 16.1833H44.0989V18.5835H45.3576C45.8251 18.5835 46.1769 18.4811 46.4115 18.2762C46.6461 18.0615 46.7634 17.7642 46.7634 17.3842Z" fill="white"/>
<path d="M53.6336 16.1982H50.6338V13.5205H60.0874V16.1982H57.0876V23.7654H53.6336V16.1982Z" fill="white"/>
<path d="M64.8052 23.9999C63.9561 23.9999 63.1269 23.9074 62.3174 23.7224C61.5179 23.5275 60.8588 23.2681 60.3418 22.946L61.4552 20.4286C61.9425 20.711 62.4892 20.9406 63.0938 21.1157C63.6984 21.2809 64.2782 21.3652 64.8349 21.3652C65.3123 21.3652 65.6542 21.3206 65.859 21.233C66.0639 21.1356 66.1663 20.9935 66.1663 20.8085C66.1663 20.5938 66.0292 20.4335 65.7566 20.3262C65.4923 20.2188 65.0546 20.1015 64.4401 19.9743C63.6488 19.8091 62.9914 19.6324 62.4644 19.4474C61.9375 19.2524 61.4783 18.9402 61.0884 18.5107C60.6986 18.0714 60.5037 17.4816 60.5037 16.7399C60.5037 16.0957 60.6837 15.511 61.0455 14.984C61.4056 14.4571 61.9425 14.0424 62.6544 13.7402C63.3763 13.4379 64.2501 13.2859 65.2743 13.2859C65.9763 13.2859 66.6635 13.3635 67.3375 13.5205C68.0197 13.6675 68.621 13.8855 69.138 14.1795L68.099 16.6821C67.0946 16.175 66.1432 15.9206 65.2445 15.9206C64.3459 15.9206 63.9131 16.1354 63.9131 16.5648C63.9131 16.7697 64.0453 16.9266 64.3079 17.034C64.5706 17.1314 65.005 17.2388 65.6096 17.3561C66.3909 17.5031 67.0484 17.6733 67.5852 17.8682C68.1221 18.0532 68.5863 18.3604 68.9761 18.7899C69.3759 19.2194 69.5757 19.8042 69.5757 20.5459C69.5757 21.1901 69.3957 21.7748 69.0339 22.3018C68.6738 22.8188 68.132 23.2334 67.4101 23.5456C66.6982 23.8479 65.8293 23.9999 64.8052 23.9999Z" fill="white"/>
<path d="M69.6084 10.7107C68.0623 10.752 66.5541 10.23 65.3664 9.24551C64.7932 8.76977 64.334 8.1751 64.0168 7.50279C63.7013 6.83048 63.5361 6.09705 63.5361 5.35536C63.5361 4.61367 63.6997 3.88024 64.0168 3.20793C64.3323 2.53562 64.7932 1.94095 65.3664 1.46521C66.5756 0.517035 68.0689 0 69.6084 0C71.1479 0 72.6412 0.515383 73.8504 1.46521C74.4236 1.94095 74.8828 2.53562 75.2 3.20793C75.5171 3.88024 75.6807 4.61367 75.6807 5.35536C75.6807 6.09705 75.5171 6.83048 75.2 7.50279C74.8845 8.1751 74.4236 8.76977 73.8504 9.24551C72.6627 10.23 71.1546 10.7504 69.6101 10.7107H69.6084ZM69.6084 0.479042C68.4554 0.479042 67.6311 0.814371 67.1356 1.48503C66.5855 2.22507 66.3113 3.51683 66.3113 5.36031C66.3113 7.2038 66.5871 8.49556 67.1356 9.2356C67.6311 9.90626 68.4554 10.2416 69.6084 10.2416C70.7614 10.2416 71.5857 9.90626 72.0796 9.2356C72.628 8.49556 72.9039 7.2038 72.9039 5.36031C72.9039 3.51683 72.6297 2.22507 72.0796 1.48503C71.584 0.814371 70.7598 0.479042 69.6084 0.479042Z" fill="white"/>
<path d="M56.6634 10.2168H58.4408V10.7124H53.5381V10.2168H54.3987V0.495561H53.5381V0H58.013C59.5228 0 60.7138 0.262647 61.586 0.789593C62.4103 1.30498 62.8216 1.9872 62.8216 2.83295C62.8216 3.67871 62.4218 4.35433 61.624 4.83006C60.7881 5.33554 59.5905 5.58827 58.0312 5.58827H56.6618V10.2168H56.6634ZM56.6634 5.09271H57.5274C58.5746 5.09271 59.3229 4.93248 59.7722 4.61367C60.2199 4.29321 60.4446 3.70019 60.4462 2.83295C60.4462 1.27359 59.5294 0.493909 57.6958 0.495561H56.6634V5.09271Z" fill="white"/>
<path d="M48.7701 0.944869V10.2168H47.1578V10.7124H52.1101V10.2168H51.1983V0.495561H52.1101V0H48.4926L45.2665 7.61512L42.1609 0H38.54V0.495561H39.4535V10.2168H38.54V10.7124H41.8421V10.2168H40.2299V0.959736L42.5822 6.809L43.9516 10.2168H44.8072L48.7701 0.944869Z" fill="white"/>
<path d="M37.8247 6.65703H37.1937C36.6287 8.14702 36.1166 9.24055 35.7731 9.62874C35.4295 10.0186 34.9124 10.2168 34.2153 10.2168H30.7233V4.9077H32.2232C32.4264 4.89449 32.6295 4.92752 32.8195 5.00186C33.0095 5.07619 33.1829 5.19182 33.3283 5.34214C33.6587 5.76833 33.885 6.27215 33.9874 6.81066C34.0039 6.87673 34.0221 6.94446 34.0386 7.01383H34.6696V2.30601H34.0386C33.842 3.13194 33.5975 3.69853 33.3085 4.00909C33.1631 4.15115 32.9913 4.25852 32.8046 4.3279C32.618 4.39727 32.4198 4.42536 32.2232 4.41049H30.7233V0.495561H34.6498C34.8513 0.47739 35.0545 0.505472 35.2461 0.578154C35.4361 0.650836 35.6112 0.764815 35.7549 0.913483C36.0572 1.27524 36.4784 2.15238 37.0169 3.54491H37.6479V0H27.4328V0.495561H28.3363V10.2168H27.1123V10.7124H37.8247V6.65538" fill="white"/>
<path d="M16.4004 0V3.51352H16.9951C17.3783 2.09953 17.6822 1.22238 17.9052 0.882098C18.0126 0.743341 18.1481 0.637621 18.3 0.569895C18.452 0.502168 18.6155 0.47739 18.7791 0.495561H19.9123V10.2185H18.4817V10.714H23.6058V10.2185H22.1753V0.495561H23.3085C23.4704 0.47739 23.6356 0.50382 23.7875 0.569895C23.9395 0.637621 24.075 0.744993 24.1823 0.882098C24.4053 1.22238 24.7076 2.09953 25.0925 3.51352H25.6872V0H16.402" fill="white"/>
<path d="M7.07032 10.7107C5.52417 10.752 4.01766 10.23 2.82832 9.24551C2.25512 8.76977 1.7959 8.1751 1.47874 7.50279C1.16323 6.83048 0.998047 6.09705 0.998047 5.35536C0.998047 4.61367 1.16158 3.88024 1.47874 3.20793C1.79425 2.53562 2.25512 1.94095 2.82832 1.46521C4.03749 0.515383 5.53077 0 7.07032 0C8.60986 0 10.1031 0.515383 11.3123 1.46521C11.8855 1.94095 12.3464 2.53562 12.6619 3.20793C12.9774 3.88024 13.1426 4.61367 13.1426 5.35536C13.1426 6.09705 12.9791 6.83048 12.6619 7.50279C12.3464 8.1751 11.8855 8.76977 11.3123 9.24551C10.1246 10.23 8.61647 10.7504 7.07032 10.7107ZM7.07032 0.479042C5.91731 0.479042 5.09303 0.814371 4.59747 1.48503C4.0474 2.22507 3.77319 3.51683 3.77319 5.36031C3.77319 7.2038 4.0474 8.49556 4.59747 9.2356C5.09303 9.90626 5.91731 10.2416 7.07032 10.2416C8.22332 10.2416 9.0476 9.90626 9.54316 9.2356C10.0916 8.49556 10.3674 7.2038 10.3674 5.36031C10.3674 3.51683 10.0932 2.22507 9.54316 1.48503C9.0476 0.814371 8.22332 0.479042 7.07032 0.479042Z" fill="white"/>
</svg>
