<svg width="568" height="32" viewBox="0 0 568 32" fill="none" xmlns="http://www.w3.org/2000/svg">
<path d="M122.283 31.3757H112.112V29.9518H114.925V2.04121H112.112V0.624288H123.258L132.819 22.4884L142.751 0.624288H153.897V2.04121H151.085V29.9518H153.897V31.3757H138.648V29.9518H143.614V3.33187L131.409 29.9518H128.772L124.556 20.1736L117.31 3.38097V29.9518H122.276V31.3757H122.283ZM109.854 19.7317H107.89C106.136 24.0105 104.544 27.146 103.477 28.2683C102.418 29.3906 100.805 29.9518 98.6374 29.9518H87.7931V14.7093H92.4507C93.9237 14.7093 95.0671 15.1232 95.8808 15.9579C96.6664 16.7155 97.3468 18.1254 97.929 20.1736C97.9851 20.363 98.0342 20.5524 98.0833 20.7558H100.047V7.24594H98.0833C97.473 9.61684 96.7155 11.2442 95.8176 12.135C95.039 12.9066 93.9167 13.2924 92.4507 13.2924H87.7931V2.04121H99.9842C101.534 2.04121 102.678 2.44104 103.414 3.24068C104.354 4.27883 105.659 6.79702 107.335 10.7953H109.299V0.617273H77.573V2.0342H80.3788V29.9448H76.5769V31.3687H109.854V19.7247V19.7317ZM49.0802 3.15651C49.6554 2.41298 50.6164 2.04121 51.9632 2.04121H55.7019V29.9518H50.9811V31.3757H67.893V29.9518H63.1723V2.04121H66.911C68.2578 2.04121 69.2188 2.41298 69.7869 3.15651C70.5235 4.13854 71.5265 6.64972 72.7891 10.7111H74.7532V0.624288H44.114V10.7111H46.078C47.3406 6.65673 48.3437 4.13854 49.0802 3.15651ZM186.711 16C186.711 11.3143 188.57 7.44235 192.288 4.37703C195.844 1.45901 200.151 0 205.222 0C210.294 0 214.594 1.45901 218.15 4.37703C221.868 7.44235 223.726 11.3143 223.726 16C223.726 20.6857 221.868 24.5576 218.15 27.623C214.594 30.541 210.287 32 205.222 32C200.158 32 195.844 30.541 192.288 27.623C188.57 24.5576 186.711 20.6857 186.711 16ZM195.171 16.007C195.171 21.5204 196.005 25.3783 197.682 27.5809C199.197 29.587 201.708 30.5901 205.222 30.5901C208.737 30.5901 211.248 29.587 212.756 27.5809C214.432 25.3783 215.267 21.5134 215.267 16.007C215.267 10.5007 214.425 6.6427 212.756 4.43314C211.241 2.42701 208.73 1.42394 205.222 1.42394C201.715 1.42394 199.197 2.42701 197.682 4.43314C196.005 6.6427 195.171 10.5007 195.171 16.007ZM171.728 31.3687H155.672V29.9448H158.492V2.04121H155.672V0.624288H170.332C175.277 0.624288 179.178 1.38185 182.032 2.88996C184.726 4.37001 186.08 6.32705 186.08 8.75406C186.08 11.1811 184.775 13.1241 182.159 14.4919C179.416 15.9439 175.502 16.6664 170.395 16.6664H165.913V29.9518H171.735V31.3757L171.728 31.3687ZM165.906 15.2284H168.74C172.17 15.2284 174.625 14.7725 176.091 13.8536C177.564 12.9347 178.301 11.2302 178.301 8.74003C178.301 4.2648 175.299 2.02718 169.294 2.02718H165.913V15.2284H165.906ZM0 16C0 11.3143 1.85883 7.44235 5.5765 4.37703C9.13284 1.45901 13.4397 0 18.5112 0C23.5826 0 27.8825 1.45901 31.4388 4.37703C35.1565 7.44235 37.0153 11.3143 37.0153 16C37.0153 20.6857 35.1565 24.5576 31.4388 27.623C27.8825 30.541 23.5756 32 18.5112 32C13.4467 32 9.13284 30.541 5.5765 27.623C1.85883 24.5576 0 20.6857 0 16ZM8.45945 16.007C8.45945 21.5204 9.29417 25.3783 10.9706 27.5809C12.4787 29.587 14.9969 30.5901 18.5042 30.5901C22.0114 30.5901 24.5296 29.587 26.0447 27.5809C27.7212 25.3713 28.5559 21.5134 28.5559 16.007C28.5559 10.5007 27.7142 6.6427 26.0447 4.43314C24.5296 2.42701 22.0184 1.42394 18.5042 1.42394C14.9899 1.42394 12.4787 2.42701 10.9706 4.43314C9.29417 6.6427 8.45945 10.5007 8.45945 16.007Z" fill="#00542B"/>
<rect x="231.727" width="1" height="32" fill="#C4C4C4"/>
<path d="M257.575 15.4305H268.708V28.6474C267.103 29.8223 265.391 30.6747 263.571 31.2048C261.766 31.7349 259.875 32 257.898 32C255.319 32 252.969 31.5988 250.849 30.7965C248.743 29.9799 246.937 28.8623 245.433 27.4439C243.929 26.0112 242.768 24.3206 241.952 22.3721C241.135 20.4092 240.727 18.2816 240.727 15.9893C240.727 13.6539 241.113 11.512 241.887 9.56347C242.661 7.60063 243.764 5.91001 245.197 4.4916C246.644 3.0732 248.384 1.97 250.419 1.182C252.468 0.394 254.753 0 257.275 0C258.578 0 259.803 0.107455 260.95 0.322364C262.096 0.537273 263.149 0.830982 264.109 1.20349C265.083 1.576 265.971 2.02015 266.774 2.53593C267.576 3.05171 268.292 3.61048 268.923 4.21222L266.817 7.41437C266.487 7.91583 266.057 8.22386 265.527 8.33848C265.011 8.4531 264.453 8.32416 263.851 7.95165C263.278 7.60779 262.733 7.31408 262.217 7.07052C261.716 6.81263 261.2 6.60488 260.67 6.44728C260.14 6.28968 259.581 6.17506 258.994 6.10343C258.406 6.03179 257.747 5.99597 257.017 5.99597C255.656 5.99597 254.431 6.23953 253.342 6.72666C252.253 7.19946 251.322 7.87284 250.548 8.74681C249.789 9.62078 249.201 10.6738 248.786 11.906C248.37 13.1238 248.162 14.4849 248.162 15.9893C248.162 17.6512 248.392 19.1269 248.85 20.4164C249.309 21.7058 249.953 22.7947 250.784 23.683C251.63 24.5713 252.633 25.2518 253.793 25.7246C254.968 26.1831 256.265 26.4124 257.683 26.4124C258.557 26.4124 259.345 26.3264 260.047 26.1545C260.763 25.9825 261.458 25.7533 262.132 25.4668V20.7173H259.037C258.578 20.7173 258.22 20.5955 257.962 20.3519C257.704 20.1084 257.575 19.8003 257.575 19.4278V15.4305Z" fill="#555555"/>
<path d="M289.679 19.6857L286.778 11.1108C286.563 10.5664 286.334 9.92881 286.09 9.19812C285.847 8.4531 285.603 7.65077 285.36 6.79113C285.145 7.6651 284.915 8.47459 284.672 9.21961C284.428 9.96463 284.199 10.6094 283.984 11.1538L281.104 19.6857H289.679ZM301.22 31.6561H295.589C294.959 31.6561 294.45 31.5129 294.063 31.2263C293.677 30.9255 293.383 30.5458 293.182 30.0873L291.334 24.6286H279.428L277.58 30.0873C277.422 30.4885 277.136 30.8538 276.72 31.1833C276.319 31.4985 275.818 31.6561 275.216 31.6561H269.542L281.663 0.343856H289.099L301.22 31.6561Z" fill="#555555"/>
<path d="M320.989 6.70517C320.774 7.04903 320.545 7.30692 320.301 7.47885C320.072 7.65077 319.771 7.73674 319.398 7.73674C319.069 7.73674 318.711 7.63645 318.324 7.43586C317.951 7.22095 317.522 6.98455 317.034 6.72666C316.562 6.46877 316.017 6.23953 315.401 6.03895C314.785 5.82404 314.083 5.71659 313.295 5.71659C311.934 5.71659 310.917 6.0103 310.243 6.59772C309.584 7.17081 309.255 7.95164 309.255 8.94023C309.255 9.57063 309.455 10.0936 309.857 10.5091C310.258 10.9246 310.781 11.2827 311.425 11.5836C312.084 11.8845 312.829 12.1639 313.66 12.4218C314.506 12.6653 315.365 12.9447 316.239 13.2599C317.113 13.5608 317.966 13.919 318.797 14.3345C319.642 14.7499 320.387 15.2801 321.032 15.9248C321.691 16.5695 322.221 17.3575 322.622 18.2888C323.023 19.2057 323.224 20.3161 323.224 21.6199C323.224 23.0669 322.973 24.4209 322.472 25.6817C321.97 26.9425 321.24 28.0457 320.28 28.9913C319.334 29.9225 318.159 30.6604 316.755 31.2048C315.365 31.7349 313.782 32 312.006 32C311.031 32 310.036 31.8997 309.018 31.6991C308.015 31.4985 307.041 31.2192 306.096 30.861C305.15 30.4885 304.262 30.0515 303.431 29.55C302.6 29.0486 301.876 28.4898 301.26 27.8737L303.409 24.4782C303.581 24.2346 303.803 24.034 304.075 23.8764C304.362 23.7045 304.67 23.6185 305 23.6185C305.429 23.6185 305.859 23.7546 306.289 24.0269C306.733 24.2991 307.227 24.6 307.772 24.9295C308.331 25.259 308.968 25.5599 309.685 25.8321C310.401 26.1043 311.246 26.2404 312.221 26.2404C313.539 26.2404 314.563 25.9539 315.294 25.3808C316.024 24.7934 316.39 23.8693 316.39 22.6085C316.39 21.8778 316.189 21.2832 315.788 20.8247C315.387 20.3662 314.857 19.9866 314.198 19.6857C313.553 19.3848 312.815 19.1198 311.984 18.8905C311.153 18.6613 310.301 18.4106 309.427 18.1383C308.553 17.8518 307.7 17.5079 306.869 17.1068C306.038 16.6913 305.293 16.154 304.634 15.495C303.989 14.8216 303.467 13.9906 303.065 13.002C302.664 11.9991 302.464 10.767 302.464 9.30557C302.464 8.13074 302.7 6.98455 303.173 5.86702C303.646 4.7495 304.341 3.75375 305.257 2.87978C306.174 2.00582 307.299 1.31095 308.632 0.795163C309.964 0.265054 311.49 0 313.209 0C314.169 0 315.1 0.0788004 316.003 0.236401C316.92 0.379674 317.787 0.601746 318.603 0.902618C319.42 1.18917 320.179 1.54018 320.881 1.95567C321.598 2.35684 322.235 2.81531 322.794 3.33109L320.989 6.70517Z" fill="#555555"/>
<path d="M349.989 6.10343H341.178V31.6561H333.914V6.10343H325.103V0.343856H349.989V6.10343Z" fill="#555555"/>
<path d="M363.867 15.0651C364.856 15.0651 365.694 14.9434 366.381 14.6998C367.083 14.4419 367.656 14.0909 368.101 13.6467C368.545 13.2026 368.867 12.6868 369.068 12.0994C369.268 11.4977 369.369 10.8529 369.369 10.1652C369.369 8.78979 368.917 7.71524 368.015 6.94157C367.126 6.1679 365.744 5.78106 363.867 5.78106H360.944V15.0651H363.867ZM379.297 31.6561H372.721C371.503 31.6561 370.629 31.1977 370.099 30.2807L364.898 21.1901C364.655 20.8032 364.383 20.5238 364.082 20.3519C363.781 20.1657 363.351 20.0725 362.792 20.0725H360.944V31.6561H353.68V0.343856H363.867C366.131 0.343856 368.058 0.580256 369.648 1.05306C371.253 1.51153 372.556 2.15626 373.559 2.98724C374.577 3.81822 375.314 4.79964 375.773 5.9315C376.231 7.06335 376.461 8.2955 376.461 9.62794C376.461 10.6452 376.325 11.6051 376.052 12.5077C375.78 13.4103 375.379 14.2485 374.849 15.0222C374.319 15.7815 373.66 16.4621 372.872 17.0638C372.098 17.6655 371.202 18.1598 370.185 18.5467C370.658 18.7902 371.102 19.0983 371.518 19.4708C371.933 19.829 372.306 20.2588 372.635 20.7602L379.297 31.6561Z" fill="#555555"/>
<path d="M412.115 15.9893C412.115 18.253 411.721 20.3591 410.933 22.3076C410.16 24.2561 409.064 25.9539 407.645 27.4009C406.227 28.8337 404.515 29.9584 402.509 30.775C400.517 31.5917 398.304 32 395.868 32C393.433 32 391.212 31.5917 389.206 30.775C387.2 29.9584 385.481 28.8337 384.048 27.4009C382.63 25.9539 381.527 24.2561 380.739 22.3076C379.965 20.3591 379.578 18.253 379.578 15.9893C379.578 13.7255 379.965 11.6194 380.739 9.67092C381.527 7.72241 382.63 6.03179 384.048 4.59906C385.481 3.16633 387.2 2.04164 389.206 1.22498C391.212 0.408328 393.433 0 395.868 0C398.304 0 400.517 0.415491 402.509 1.24647C404.515 2.06313 406.227 3.18782 407.645 4.62055C409.064 6.05328 410.16 7.7439 410.933 9.69241C411.721 11.6409 412.115 13.7399 412.115 15.9893ZM404.68 15.9893C404.68 14.4419 404.479 13.0522 404.078 11.82C403.677 10.5735 403.096 9.52048 402.337 8.66085C401.592 7.80121 400.675 7.14215 399.586 6.68368C398.497 6.22521 397.258 5.99597 395.868 5.99597C394.464 5.99597 393.211 6.22521 392.107 6.68368C391.018 7.14215 390.094 7.80121 389.335 8.66085C388.59 9.52048 388.017 10.5735 387.616 11.82C387.215 13.0522 387.014 14.4419 387.014 15.9893C387.014 17.5509 387.215 18.955 387.616 20.2015C388.017 21.4336 388.59 22.4795 389.335 23.3392C390.094 24.1988 391.018 24.8578 392.107 25.3163C393.211 25.7605 394.464 25.9825 395.868 25.9825C397.258 25.9825 398.497 25.7605 399.586 25.3163C400.675 24.8578 401.592 24.1988 402.337 23.3392C403.096 22.4795 403.677 21.4336 404.078 20.2015C404.479 18.955 404.68 17.5509 404.68 15.9893Z" fill="#555555"/>
<path d="M443.727 0.343856V31.6561H439.944C439.385 31.6561 438.913 31.5702 438.526 31.3983C438.153 31.212 437.781 30.8968 437.408 30.4527L422.644 11.777C422.701 12.3358 422.737 12.8802 422.751 13.4103C422.78 13.9261 422.794 14.4133 422.794 14.8717V31.6561H416.39V0.343856H420.215C420.531 0.343856 420.796 0.358183 421.011 0.386837C421.226 0.415491 421.419 0.4728 421.591 0.558765C421.763 0.630401 421.928 0.737856 422.085 0.881128C422.243 1.0244 422.422 1.21782 422.622 1.46138L437.516 20.266C437.444 19.6642 437.394 19.084 437.365 18.5252C437.337 17.9521 437.322 17.4148 437.322 16.9134V0.343856H443.727Z" fill="#555555"/>
<path d="M480.534 15.9893C480.534 18.253 480.14 20.3591 479.352 22.3076C478.578 24.2561 477.482 25.9539 476.064 27.4009C474.645 28.8337 472.933 29.9584 470.927 30.775C468.936 31.5917 466.722 32 464.287 32C461.851 32 459.63 31.5917 457.624 30.775C455.619 29.9584 453.899 28.8337 452.467 27.4009C451.048 25.9539 449.945 24.2561 449.157 22.3076C448.383 20.3591 447.997 18.253 447.997 15.9893C447.997 13.7255 448.383 11.6194 449.157 9.67092C449.945 7.72241 451.048 6.03179 452.467 4.59906C453.899 3.16633 455.619 2.04164 457.624 1.22498C459.63 0.408328 461.851 0 464.287 0C466.722 0 468.936 0.415491 470.927 1.24647C472.933 2.06313 474.645 3.18782 476.064 4.62055C477.482 6.05328 478.578 7.7439 479.352 9.69241C480.14 11.6409 480.534 13.7399 480.534 15.9893ZM473.098 15.9893C473.098 14.4419 472.897 13.0522 472.496 11.82C472.095 10.5735 471.515 9.52048 470.755 8.66085C470.01 7.80121 469.093 7.14215 468.005 6.68368C466.916 6.22521 465.676 5.99597 464.287 5.99597C462.883 5.99597 461.629 6.22521 460.526 6.68368C459.437 7.14215 458.513 7.80121 457.753 8.66085C457.008 9.52048 456.435 10.5735 456.034 11.82C455.633 13.0522 455.432 14.4419 455.432 15.9893C455.432 17.5509 455.633 18.955 456.034 20.2015C456.435 21.4336 457.008 22.4795 457.753 23.3392C458.513 24.1988 459.437 24.8578 460.526 25.3163C461.629 25.7605 462.883 25.9825 464.287 25.9825C465.676 25.9825 466.916 25.7605 468.005 25.3163C469.093 24.8578 470.01 24.1988 470.755 23.3392C471.515 22.4795 472.095 21.4336 472.496 20.2015C472.897 18.955 473.098 17.5509 473.098 15.9893Z" fill="#555555"/>
<path d="M520.011 0.343856V31.6561H513.606V13.6467C513.606 13.2313 513.614 12.7799 513.628 12.2928C513.656 11.8057 513.699 11.3114 513.757 10.8099L505.44 26.9067C505.182 27.4081 504.831 27.7878 504.387 28.0457C503.957 28.3036 503.463 28.4325 502.904 28.4325H501.915C501.357 28.4325 500.855 28.3036 500.411 28.0457C499.981 27.7878 499.637 27.4081 499.379 26.9067L491.062 10.767C491.105 11.2827 491.141 11.7914 491.17 12.2928C491.198 12.7799 491.213 13.2313 491.213 13.6467V31.6561H484.809V0.343856H490.353C490.668 0.343856 490.941 0.351019 491.17 0.365345C491.413 0.379673 491.628 0.422655 491.815 0.494292C492.001 0.565928 492.166 0.680546 492.309 0.838147C492.466 0.98142 492.617 1.18917 492.76 1.46138L500.819 17.3432C501.106 17.8876 501.378 18.4536 501.636 19.041C501.908 19.6284 502.166 20.2301 502.41 20.8462C502.653 20.2158 502.904 19.5997 503.162 18.998C503.434 18.3962 503.721 17.8231 504.021 17.2787L512.059 1.46138C512.202 1.18917 512.346 0.98142 512.489 0.838147C512.646 0.680546 512.818 0.565928 513.005 0.494292C513.191 0.422655 513.399 0.379673 513.628 0.365345C513.871 0.351019 514.151 0.343856 514.466 0.343856H520.011Z" fill="#555555"/>
<path d="M533.376 31.6561H526.069V0.343856H533.376V31.6561Z" fill="#555555"/>
<path d="M555.965 19.6857L553.064 11.1108C552.849 10.5664 552.62 9.92881 552.376 9.19812C552.133 8.4531 551.889 7.65077 551.646 6.79113C551.431 7.6651 551.201 8.47459 550.958 9.21961C550.714 9.96463 550.485 10.6094 550.27 11.1538L547.39 19.6857H555.965ZM567.506 31.6561H561.875C561.245 31.6561 560.736 31.5129 560.349 31.2263C559.963 30.9255 559.669 30.5458 559.468 30.0873L557.62 24.6286H545.714L543.866 30.0873C543.708 30.4885 543.422 30.8538 543.006 31.1833C542.605 31.4985 542.104 31.6561 541.502 31.6561H535.828L547.949 0.343856H555.385L567.506 31.6561Z" fill="#555555"/>
</svg>
