<svg width="50" height="22" viewBox="0 0 50 22" fill="none" xmlns="http://www.w3.org/2000/svg">
<path d="M27.3057 0V7.21601H28.7093C29.6157 4.31421 30.3307 2.5124 30.8565 1.8128C31.2657 1.2826 31.9521 1.01857 32.9179 1.01857H35.5909V20.9814H32.2161V22H44.3139V20.9814H40.9391V1.01857H43.6121C44.5757 1.01857 45.2621 1.2826 45.6735 1.8128C46.1993 2.5124 46.9143 4.31421 47.8207 7.21601H49.2243V0H27.3057Z" fill="white"/>
<path d="M7.71422 8.58887H0.922852V22.0001H7.71422V8.58887Z" fill="white"/>
<path d="M15.0404 16.2668H8.24902V22.0001H15.0404V16.2668Z" fill="white"/>
<path d="M15.0404 4.29443H8.24902V15.73H15.0404V4.29443Z" fill="white"/>
<path d="M22.3686 11.2837H15.5771V21.9999H22.3686V11.2837Z" fill="white"/>
<path d="M22.3686 0H15.5771V10.747H22.3686V0Z" fill="white"/>
</svg>
