<svg width="75" height="30" viewBox="0 0 75 30" fill="none" xmlns="http://www.w3.org/2000/svg">
<path d="M40.9931 10.5181H37.5835V10.0408H38.5264V0.684277H37.5835V0.209281H41.32L44.525 7.5388L47.8547 0.209281H51.5912V0.684277H50.6482V10.0408H51.5912V10.5181H46.4791V10.0408H48.1439V1.11695L44.0524 10.0408H43.1682L41.755 6.76282L39.3259 1.13341V10.0408H40.9908V10.5181H40.9931ZM36.8263 6.61467H36.1679C35.58 8.04907 35.0462 9.10017 34.6888 9.47641C34.3337 9.85264 33.7929 10.0408 33.0663 10.0408H29.4309V4.93102H30.9923C31.4861 4.93102 31.8694 5.06976 32.1422 5.34959C32.4055 5.60354 32.6336 6.07619 32.8288 6.76282C32.8476 6.82631 32.8641 6.8898 32.8805 6.95799H33.539V2.42906H32.8805C32.676 3.22386 32.422 3.7694 32.121 4.06804C31.86 4.3267 31.4838 4.45603 30.9923 4.45603H29.4309V0.684277H33.5178C34.0375 0.684277 34.4208 0.81831 34.6677 1.08638C34.9828 1.43439 35.4201 2.27857 35.9821 3.61891H36.6405V0.206929H26.0049V0.681925H26.9454V10.0384H25.671V10.5158H36.8263V6.61232V6.61467ZM16.4532 1.05816C16.646 0.808904 16.9682 0.684277 17.4197 0.684277H18.673V10.0408H17.0905V10.5181H22.7598V10.0408H21.1773V0.684277H22.4306C22.8821 0.684277 23.2043 0.808904 23.3947 1.05816C23.6416 1.38736 23.9779 2.22919 24.4012 3.59069H25.0596V0.209281H14.7884V3.59069H15.4468C15.87 2.23154 16.2063 1.38736 16.4532 1.05816ZM62.5913 5.36369C62.5913 3.79291 63.2145 2.49491 64.4607 1.46731C65.6529 0.489105 67.0967 0 68.7968 0C70.4969 0 71.9384 0.489105 73.1306 1.46731C74.3769 2.49491 75 3.79291 75 5.36369C75 6.93447 74.3769 8.23248 73.1306 9.26007C71.9384 10.2383 70.4946 10.7274 68.7968 10.7274C67.0991 10.7274 65.6529 10.2383 64.4607 9.26007C63.2145 8.23248 62.5913 6.93447 62.5913 5.36369ZM65.4272 5.36605C65.4272 7.2143 65.707 8.5076 66.269 9.24596C66.7769 9.91848 67.6188 10.2547 68.7968 10.2547C69.9749 10.2547 70.8167 9.91848 71.3223 9.24596C71.8843 8.5076 72.1641 7.21195 72.1641 5.36605C72.1641 3.52014 71.882 2.22684 71.3223 1.48613C70.8144 0.813607 69.9726 0.477348 68.7968 0.477348C67.6211 0.477348 66.7769 0.813607 66.269 1.48613C65.707 2.22684 65.4272 3.52014 65.4272 5.36605ZM57.5686 10.5158H52.1861V10.0384H53.1314V0.684277H52.1861V0.209281H57.1006C58.7584 0.209281 60.0658 0.463239 61.0229 0.968804C61.9258 1.46496 62.3797 2.12102 62.3797 2.93463C62.3797 3.74824 61.9423 4.39959 61.0652 4.85813C60.1458 5.34488 58.8337 5.58708 57.1218 5.58708H55.6192V10.0408H57.5709V10.5181L57.5686 10.5158ZM55.6169 5.10503H56.5669C57.7167 5.10503 58.5397 4.95219 59.0312 4.64415C59.525 4.3361 59.7719 3.7647 59.7719 2.92993C59.7719 1.42969 58.7655 0.679574 56.7526 0.679574H55.6192V5.10503H55.6169ZM0 5.36369C0 3.79291 0.623139 2.49491 1.86942 1.46731C3.06161 0.489105 4.50541 0 6.20552 0C7.90563 0 9.34708 0.489105 10.5393 1.46731C11.7855 2.49491 12.4087 3.79291 12.4087 5.36369C12.4087 6.93447 11.7855 8.23248 10.5393 9.26007C9.34708 10.2383 7.90328 10.7274 6.20552 10.7274C4.50776 10.7274 3.06161 10.2383 1.86942 9.26007C0.623139 8.23248 0 6.93447 0 5.36369ZM2.83587 5.36605C2.83587 7.2143 3.11569 8.5076 3.67769 9.24596C4.18326 9.91848 5.02743 10.2547 6.20317 10.2547C7.3789 10.2547 8.22308 9.91848 8.73099 9.24596C9.29299 8.50525 9.57282 7.21195 9.57282 5.36605C9.57282 3.52014 9.29064 2.22684 8.73099 1.48613C8.22308 0.813607 7.38125 0.477348 6.20317 0.477348C5.02508 0.477348 4.18326 0.813607 3.67769 1.48613C3.11569 2.22684 2.83587 3.52014 2.83587 5.36605Z" fill="#00542B"/>
<path d="M15.8227 14.8819V28.9562H12.9441V20.8613C12.9441 20.6745 12.9473 20.4717 12.9538 20.2527C12.9667 20.0337 12.986 19.8116 13.0117 19.5862L9.2734 26.8214C9.15749 27.0468 8.99971 27.2174 8.80007 27.3333C8.60688 27.4492 8.3847 27.5072 8.13355 27.5072H7.6892C7.43804 27.5072 7.21265 27.4492 7.01301 27.3333C6.81982 27.2174 6.66526 27.0468 6.54934 26.8214L2.811 19.5669C2.83032 19.7987 2.84642 20.0273 2.8593 20.2527C2.87218 20.4717 2.87862 20.6745 2.87862 20.8613V28.9562H0V14.8819H2.49223C2.6339 14.8819 2.75626 14.8851 2.8593 14.8915C2.96878 14.898 3.06538 14.9173 3.14909 14.9495C3.23281 14.9817 3.30687 15.0332 3.37127 15.104C3.44211 15.1684 3.50973 15.2618 3.57412 15.3842L7.19655 22.5227C7.32534 22.7675 7.4477 23.0218 7.56362 23.2859C7.68598 23.5499 7.80189 23.8204 7.91137 24.0973C8.02085 23.8139 8.13355 23.537 8.24947 23.2666C8.37182 22.9961 8.50062 22.7385 8.63586 22.4938L12.2486 15.3842C12.313 15.2618 12.3774 15.1684 12.4418 15.104C12.5127 15.0332 12.5899 14.9817 12.6737 14.9495C12.7574 14.9173 12.8507 14.898 12.9538 14.8915C13.0633 14.8851 13.1888 14.8819 13.3305 14.8819H15.8227Z" fill="#555555"/>
<path d="M24.0328 26.377C24.4707 26.377 24.8603 26.3062 25.2016 26.1645C25.5494 26.0164 25.8424 25.8071 26.0807 25.5366C26.319 25.2661 26.4993 24.9377 26.6216 24.5513C26.7504 24.1585 26.8148 23.7141 26.8148 23.2183V14.8819H30.0798V23.2183C30.0798 24.0812 29.9382 24.8733 29.6548 25.5946C29.3779 26.3158 28.9786 26.9373 28.457 27.4589C27.9354 27.9805 27.301 28.3862 26.554 28.676C25.807 28.9658 24.9666 29.1107 24.0328 29.1107C23.0926 29.1107 22.249 28.9658 21.5019 28.676C20.7549 28.3862 20.1206 27.9805 19.599 27.4589C19.0773 26.9373 18.6781 26.3158 18.4012 25.5946C18.1242 24.8733 17.9858 24.0812 17.9858 23.2183V14.8819H21.2508V23.2086C21.2508 23.7045 21.312 24.1488 21.4343 24.5416C21.5631 24.928 21.7467 25.2597 21.9849 25.5366C22.2232 25.8071 22.513 26.0164 22.8543 26.1645C23.2021 26.3062 23.5949 26.377 24.0328 26.377Z" fill="#555555"/>
<path d="M44.5313 14.8819V28.9562H42.8312C42.5801 28.9562 42.3676 28.9175 42.1937 28.8403C42.0262 28.7565 41.8588 28.6149 41.6914 28.4152L35.0551 20.0209C35.0808 20.272 35.0969 20.5167 35.1034 20.755C35.1163 20.9868 35.1227 21.2058 35.1227 21.4119V28.9562H32.2441V14.8819H33.9635C34.1052 14.8819 34.2243 14.8883 34.3209 14.9012C34.4175 14.9141 34.5045 14.9398 34.5818 14.9784C34.659 15.0106 34.7331 15.0589 34.8039 15.1233C34.8748 15.1877 34.9553 15.2747 35.0454 15.3842L41.7397 23.8365C41.7075 23.566 41.6849 23.3052 41.6721 23.054C41.6592 22.7964 41.6527 22.5549 41.6527 22.3296V14.8819H44.5313Z" fill="#555555"/>
<path d="M59.6459 21.9142C59.6459 22.9317 59.4688 23.8719 59.1146 24.7348C58.7669 25.5913 58.2742 26.3351 57.6367 26.9663C56.9991 27.5909 56.2296 28.0804 55.328 28.4345C54.4328 28.7823 53.4379 28.9562 52.3431 28.9562H46.8757V14.8819H52.3431C53.4379 14.8819 54.4328 15.0589 55.328 15.4131C56.2296 15.7673 56.9991 16.2568 57.6367 16.8814C58.2742 17.5061 58.7669 18.2499 59.1146 19.1128C59.4688 19.9693 59.6459 20.9031 59.6459 21.9142ZM56.3036 21.9142C56.3036 21.2187 56.2135 20.5908 56.0331 20.0305C55.8528 19.4703 55.592 18.9969 55.2507 18.6105C54.9158 18.2177 54.5037 17.9182 54.0142 17.7122C53.5248 17.4997 52.9678 17.3934 52.3431 17.3934H50.16V26.4446H52.3431C52.9678 26.4446 53.5248 26.3416 54.0142 26.1355C54.5037 25.923 54.9158 25.6235 55.2507 25.2372C55.592 24.8443 55.8528 24.3678 56.0331 23.8075C56.2135 23.2472 56.3036 22.6161 56.3036 21.9142Z" fill="#555555"/>
<path d="M75 21.9142C75 22.9317 74.8229 23.8783 74.4687 24.7542C74.121 25.63 73.6283 26.3931 72.9908 27.0435C72.3532 27.6875 71.5837 28.193 70.6821 28.5601C69.7869 28.9272 68.792 29.1107 67.6972 29.1107C66.6024 29.1107 65.6042 28.9272 64.7027 28.5601C63.8011 28.193 63.0283 27.6875 62.3843 27.0435C61.7468 26.3931 61.2509 25.63 60.8967 24.7542C60.5489 23.8783 60.3751 22.9317 60.3751 21.9142C60.3751 20.8967 60.5489 19.95 60.8967 19.0742C61.2509 18.1984 61.7468 17.4385 62.3843 16.7945C63.0283 16.1505 63.8011 15.645 64.7027 15.2779C65.6042 14.9108 66.6024 14.7273 67.6972 14.7273C68.792 14.7273 69.7869 14.9141 70.6821 15.2876C71.5837 15.6546 72.3532 16.1602 72.9908 16.8042C73.6283 17.4481 74.121 18.208 74.4687 19.0839C74.8229 19.9597 75 20.9031 75 21.9142ZM71.6577 21.9142C71.6577 21.2187 71.5676 20.594 71.3872 20.0402C71.2069 19.4799 70.9461 19.0066 70.6048 18.6202C70.2699 18.2338 69.8578 17.9376 69.3683 17.7315C68.8789 17.5254 68.3219 17.4224 67.6972 17.4224C67.0661 17.4224 66.5026 17.5254 66.0067 17.7315C65.5173 17.9376 65.1019 18.2338 64.7606 18.6202C64.4257 19.0066 64.1682 19.4799 63.9878 20.0402C63.8075 20.594 63.7174 21.2187 63.7174 21.9142C63.7174 22.6161 63.8075 23.2472 63.9878 23.8075C64.1682 24.3613 64.4257 24.8314 64.7606 25.2178C65.1019 25.6042 65.5173 25.9005 66.0067 26.1065C66.5026 26.3062 67.0661 26.406 67.6972 26.406C68.3219 26.406 68.8789 26.3062 69.3683 26.1065C69.8578 25.9005 70.2699 25.6042 70.6048 25.2178C70.9461 24.8314 71.2069 24.3613 71.3872 23.8075C71.5676 23.2472 71.6577 22.6161 71.6577 21.9142Z" fill="#555555"/>
</svg>
