<svg width="690" height="41" viewBox="0 0 690 41" fill="none" xmlns="http://www.w3.org/2000/svg">
<path d="M122.282 40.3757H112.111V38.9518H114.924V11.0412H112.111V9.62429H123.257L132.818 31.4884L142.75 9.62429H153.896V11.0412H151.084V38.9518H153.896V40.3757H138.647V38.9518H143.613V12.3319L131.408 38.9518H128.771L124.555 29.1736L117.309 12.381V38.9518H122.275V40.3757H122.282ZM109.853 28.7317H107.889C106.135 33.0105 104.543 36.146 103.476 37.2683C102.417 38.3906 100.804 38.9518 98.6365 38.9518H87.7921V23.7093H92.4497C93.9227 23.7093 95.0661 24.1232 95.8798 24.9579C96.6654 25.7155 97.3458 27.1254 97.928 29.1736C97.9841 29.363 98.0332 29.5524 98.0823 29.7558H100.046V16.2459H98.0823C97.472 18.6168 96.7145 20.2442 95.8167 21.135C95.038 21.9066 93.9157 22.2924 92.4497 22.2924H87.7921V11.0412H99.9832C101.533 11.0412 102.677 11.441 103.413 12.2407C104.353 13.2788 105.658 15.797 107.334 19.7953H109.298V9.61727H77.572V11.0342H80.3778V38.9448H76.576V40.3687H109.853V28.7247V28.7317ZM49.0793 12.1565C49.6544 11.413 50.6154 11.0412 51.9622 11.0412H55.7009V38.9518H50.9802V40.3757H67.8921V38.9518H63.1713V11.0412H66.91C68.2568 11.0412 69.2178 11.413 69.786 12.1565C70.5225 13.1385 71.5255 15.6497 72.7881 19.7111H74.7522V9.62429H44.113V19.7111H46.0771C47.3397 15.6567 48.3427 13.1385 49.0793 12.1565ZM186.71 25C186.71 20.3143 188.569 16.4424 192.287 13.377C195.843 10.459 200.15 9 205.221 9C210.293 9 214.593 10.459 218.149 13.377C221.867 16.4424 223.725 20.3143 223.725 25C223.725 29.6857 221.867 33.5576 218.149 36.623C214.593 39.541 210.286 41 205.221 41C200.157 41 195.843 39.541 192.287 36.623C188.569 33.5576 186.71 29.6857 186.71 25ZM195.17 25.007C195.17 30.5204 196.004 34.3783 197.681 36.5809C199.196 38.587 201.707 39.5901 205.221 39.5901C208.736 39.5901 211.247 38.587 212.755 36.5809C214.431 34.3783 215.266 30.5134 215.266 25.007C215.266 19.5007 214.424 15.6427 212.755 13.4331C211.24 11.427 208.729 10.4239 205.221 10.4239C201.714 10.4239 199.196 11.427 197.681 13.4331C196.004 15.6427 195.17 19.5007 195.17 25.007ZM171.727 40.3687H155.671V38.9448H158.491V11.0412H155.671V9.62429H170.331C175.277 9.62429 179.177 10.3819 182.031 11.89C184.725 13.37 186.079 15.327 186.079 17.7541C186.079 20.1811 184.774 22.1241 182.158 23.4919C179.415 24.9439 175.501 25.6664 170.394 25.6664H165.912V38.9518H171.734V40.3757L171.727 40.3687ZM165.905 24.2284H168.739C172.169 24.2284 174.624 23.7725 176.09 22.8536C177.563 21.9347 178.3 20.2302 178.3 17.74C178.3 13.2648 175.298 11.0272 169.293 11.0272H165.912V24.2284H165.905ZM-0.000976562 25C-0.000976562 20.3143 1.85786 16.4424 5.57553 13.377C9.13186 10.459 13.4387 9 18.5102 9C23.5817 9 27.8815 10.459 31.4379 13.377C35.1555 16.4424 37.0144 20.3143 37.0144 25C37.0144 29.6857 35.1555 33.5576 31.4379 36.623C27.8815 39.541 23.5746 41 18.5102 41C13.4458 41 9.13186 39.541 5.57553 36.623C1.85786 33.5576 -0.000976562 29.6857 -0.000976562 25ZM8.45847 25.007C8.45847 30.5204 9.29319 34.3783 10.9696 36.5809C12.4778 38.587 14.996 39.5901 18.5032 39.5901C22.0104 39.5901 24.5286 38.587 26.0437 36.5809C27.7202 34.3713 28.5549 30.5134 28.5549 25.007C28.5549 19.5007 27.7132 15.6427 26.0437 13.4331C24.5286 11.427 22.0174 10.4239 18.5032 10.4239C14.9889 10.4239 12.4778 11.427 10.9696 13.4331C9.29319 15.6427 8.45847 19.5007 8.45847 25.007Z" fill="#00542B"/>
<rect x="231.726" y="9" width="1" height="32" fill="#C4C4C4"/>
<path d="M403.56 2.35749C404.179 2.35749 404.655 2.15781 404.99 1.75845C405.325 1.3591 405.493 0.772947 405.493 0H410.324C410.324 1.09501 410.176 2.08052 409.879 2.95652C409.596 3.83253 409.184 4.57971 408.643 5.19807C408.101 5.80354 407.432 6.27375 406.633 6.6087C405.847 6.93076 404.952 7.09179 403.947 7.09179C403.264 7.09179 402.62 7.02093 402.014 6.87923C401.422 6.72464 400.868 6.55717 400.353 6.37681C399.837 6.18358 399.361 6.0161 398.923 5.8744C398.498 5.71981 398.111 5.64251 397.763 5.64251C397.145 5.64251 396.668 5.84219 396.333 6.24155C395.998 6.6409 395.831 7.22705 395.831 8H391C391 6.90499 391.142 5.91948 391.425 5.04348C391.721 4.16747 392.14 3.42673 392.681 2.82126C393.222 2.2029 393.886 1.73269 394.671 1.41063C395.47 1.07568 396.372 0.908212 397.377 0.908212C398.06 0.908212 398.697 0.985507 399.29 1.1401C399.895 1.2818 400.456 1.44928 400.971 1.64251C401.486 1.82287 401.957 1.99034 402.382 2.14493C402.82 2.28663 403.213 2.35749 403.56 2.35749Z" fill="#555555"/>
<path d="M252.046 24.7099C253.938 24.7099 255.299 24.2586 256.13 23.3559C256.961 22.4533 257.376 21.1925 257.376 19.5735C257.376 18.8572 257.269 18.2053 257.054 17.6179C256.839 17.0304 256.509 16.529 256.065 16.1135C255.635 15.6837 255.084 15.3542 254.41 15.1249C253.751 14.8957 252.963 14.7811 252.046 14.7811H248.264V24.7099H252.046ZM252.046 9.34386C254.253 9.34386 256.144 9.60891 257.72 10.139C259.31 10.6548 260.614 11.3712 261.631 12.2881C262.663 13.2051 263.422 14.2868 263.909 15.5332C264.396 16.7797 264.64 18.1265 264.64 19.5735C264.64 21.1352 264.389 22.5679 263.888 23.8717C263.386 25.1755 262.62 26.293 261.588 27.2243C260.557 28.1556 259.246 28.8863 257.655 29.4164C256.079 29.9322 254.21 30.1901 252.046 30.1901H248.264V40.6561H241V9.34386H252.046Z" fill="#555555"/>
<path d="M278.512 24.0651C279.501 24.0651 280.339 23.9434 281.027 23.6998C281.729 23.4419 282.302 23.0909 282.746 22.6467C283.19 22.2026 283.512 21.6868 283.713 21.0994C283.913 20.4977 284.014 19.8529 284.014 19.1652C284.014 17.7898 283.562 16.7152 282.66 15.9416C281.772 15.1679 280.389 14.7811 278.512 14.7811H275.589V24.0651H278.512ZM293.943 40.6561H287.366C286.149 40.6561 285.275 40.1977 284.744 39.2807L279.544 30.1901C279.3 29.8032 279.028 29.5238 278.727 29.3519C278.426 29.1657 277.996 29.0725 277.438 29.0725H275.589V40.6561H268.325V9.34386H278.512C280.776 9.34386 282.703 9.58026 284.293 10.0531C285.898 10.5115 287.202 11.1563 288.205 11.9872C289.222 12.8182 289.96 13.7996 290.418 14.9315C290.877 16.0634 291.106 17.2955 291.106 18.6279C291.106 19.6452 290.97 20.6051 290.697 21.5077C290.425 22.4103 290.024 23.2485 289.494 24.0222C288.964 24.7815 288.305 25.4621 287.517 26.0638C286.743 26.6655 285.848 27.1598 284.83 27.5467C285.303 27.7902 285.747 28.0983 286.163 28.4708C286.578 28.829 286.951 29.2588 287.28 29.7602L293.943 40.6561Z" fill="#555555"/>
<path d="M303.881 14.9315V22.2384H313.724V27.6111H303.881V35.0685H316.733V40.6561H296.574V9.34386H316.733V14.9315H303.881Z" fill="#555555"/>
<path d="M349.302 9.34386L336.751 40.6561H330.175L317.624 9.34386H323.47C324.1 9.34386 324.609 9.49429 324.996 9.79516C325.382 10.0817 325.676 10.4542 325.877 10.9127L331.937 27.6756C332.224 28.4063 332.503 29.2086 332.775 30.0826C333.048 30.9422 333.305 31.8449 333.549 32.7905C333.75 31.8449 333.972 30.9422 334.215 30.0826C334.473 29.2086 334.745 28.4063 335.032 27.6756L341.049 10.9127C341.207 10.5115 341.486 10.1533 341.888 9.83815C342.303 9.50862 342.812 9.34386 343.413 9.34386H349.302Z" fill="#555555"/>
<path d="M359.078 40.6561H351.771V9.34386H359.078V40.6561Z" fill="#555555"/>
<path d="M382.419 15.7052C382.204 16.049 381.975 16.3069 381.731 16.4788C381.502 16.6508 381.201 16.7367 380.828 16.7367C380.499 16.7367 380.141 16.6364 379.754 16.4359C379.381 16.221 378.952 15.9846 378.464 15.7267C377.992 15.4688 377.447 15.2395 376.831 15.039C376.215 14.824 375.513 14.7166 374.725 14.7166C373.364 14.7166 372.347 15.0103 371.673 15.5977C371.014 16.1708 370.685 16.9516 370.685 17.9402C370.685 18.5706 370.885 19.0936 371.286 19.5091C371.688 19.9246 372.211 20.2827 372.855 20.5836C373.514 20.8845 374.259 21.1639 375.09 21.4218C375.936 21.6653 376.795 21.9447 377.669 22.2599C378.543 22.5608 379.396 22.919 380.227 23.3345C381.072 23.7499 381.817 24.2801 382.462 24.9248C383.121 25.5695 383.651 26.3575 384.052 27.2888C384.453 28.2057 384.654 29.3161 384.654 30.6199C384.654 32.0669 384.403 33.4209 383.902 34.6817C383.4 35.9425 382.669 37.0457 381.71 37.9913C380.764 38.9225 379.589 39.6604 378.185 40.2048C376.795 40.7349 375.212 41 373.436 41C372.461 41 371.466 40.8997 370.448 40.6991C369.445 40.4985 368.471 40.2192 367.526 39.861C366.58 39.4885 365.692 39.0515 364.861 38.55C364.03 38.0486 363.306 37.4898 362.69 36.8737L364.839 33.4782C365.011 33.2346 365.233 33.034 365.505 32.8764C365.792 32.7045 366.1 32.6185 366.429 32.6185C366.859 32.6185 367.289 32.7546 367.719 33.0269C368.163 33.2991 368.657 33.6 369.202 33.9295C369.761 34.259 370.398 34.5599 371.115 34.8321C371.831 35.1043 372.676 35.2404 373.65 35.2404C374.969 35.2404 375.993 34.9539 376.724 34.3808C377.454 33.7934 377.82 32.8693 377.82 31.6085C377.82 30.8778 377.619 30.2832 377.218 29.8247C376.817 29.3662 376.287 28.9866 375.628 28.6857C374.983 28.3848 374.245 28.1198 373.414 27.8905C372.583 27.6613 371.731 27.4106 370.857 27.1383C369.983 26.8518 369.13 26.5079 368.299 26.1068C367.468 25.6913 366.723 25.154 366.064 24.495C365.419 23.8216 364.896 22.9906 364.495 22.002C364.094 20.9991 363.894 19.767 363.894 18.3056C363.894 17.1307 364.13 15.9846 364.603 14.867C365.076 13.7495 365.77 12.7537 366.687 11.8798C367.604 11.0058 368.729 10.3109 370.061 9.79516C371.394 9.26505 372.92 9 374.639 9C375.599 9 376.53 9.0788 377.433 9.2364C378.35 9.37967 379.217 9.60175 380.033 9.90262C380.85 10.1892 381.609 10.5402 382.311 10.9557C383.028 11.3568 383.665 11.8153 384.224 12.3311L382.419 15.7052Z" fill="#555555"/>
<path d="M404.753 28.6857L401.851 20.1108C401.636 19.5664 401.407 18.9288 401.164 18.1981C400.92 17.4531 400.676 16.6508 400.433 15.7911C400.218 16.6651 399.989 17.4746 399.745 18.2196C399.502 18.9646 399.272 19.6094 399.057 20.1538L396.178 28.6857H404.753ZM416.293 40.6561H410.663C410.032 40.6561 409.524 40.5129 409.137 40.2263C408.75 39.9255 408.456 39.5458 408.256 39.0873L406.407 33.6286H394.501L392.653 39.0873C392.496 39.4885 392.209 39.8538 391.793 40.1833C391.392 40.4985 390.891 40.6561 390.289 40.6561H384.616L396.736 9.34386H404.172L416.293 40.6561Z" fill="#555555"/>
<path d="M448.445 24.9893C448.445 27.253 448.051 29.3591 447.263 31.3076C446.489 33.2561 445.393 34.9539 443.974 36.4009C442.556 37.8337 440.844 38.9584 438.838 39.775C436.847 40.5917 434.633 41 432.197 41C429.762 41 427.541 40.5917 425.535 39.775C423.529 38.9584 421.81 37.8337 420.377 36.4009C418.959 34.9539 417.856 33.2561 417.068 31.3076C416.294 29.3591 415.907 27.253 415.907 24.9893C415.907 22.7255 416.294 20.6194 417.068 18.6709C417.856 16.7224 418.959 15.0318 420.377 13.5991C421.81 12.1663 423.529 11.0416 425.535 10.225C427.541 9.40833 429.762 9 432.197 9C434.633 9 436.847 9.41549 438.838 10.2465C440.844 11.0631 442.556 12.1878 443.974 13.6206C445.393 15.0533 446.489 16.7439 447.263 18.6924C448.051 20.6409 448.445 22.7399 448.445 24.9893ZM441.009 24.9893C441.009 23.4419 440.808 22.0522 440.407 20.82C440.006 19.5735 439.426 18.5205 438.666 17.6608C437.921 16.8012 437.004 16.1422 435.915 15.6837C434.827 15.2252 433.587 14.996 432.197 14.996C430.793 14.996 429.54 15.2252 428.437 15.6837C427.348 16.1422 426.424 16.8012 425.664 17.6608C424.919 18.5205 424.346 19.5735 423.945 20.82C423.544 22.0522 423.343 23.4419 423.343 24.9893C423.343 26.5509 423.544 27.955 423.945 29.2015C424.346 30.4336 424.919 31.4795 425.664 32.3392C426.424 33.1988 427.348 33.8578 428.437 34.3163C429.54 34.7605 430.793 34.9825 432.197 34.9825C433.587 34.9825 434.827 34.7605 435.915 34.3163C437.004 33.8578 437.921 33.1988 438.666 32.3392C439.426 31.4795 440.006 30.4336 440.407 29.2015C440.808 27.955 441.009 26.5509 441.009 24.9893Z" fill="#555555"/>
<path d="M491.078 24.9893C491.078 27.253 490.684 29.3448 489.896 31.2646C489.123 33.1701 488.027 34.8249 486.608 36.229C485.19 37.6188 483.478 38.7076 481.472 39.4956C479.48 40.2693 477.267 40.6561 474.831 40.6561H462.667V9.34386H474.831C477.267 9.34386 479.48 9.73786 481.472 10.5259C483.478 11.3139 485.19 12.4027 486.608 13.7925C488.027 15.1822 489.123 16.837 489.896 18.7569C490.684 20.6624 491.078 22.7399 491.078 24.9893ZM483.642 24.9893C483.642 23.4419 483.442 22.045 483.041 20.7985C482.639 19.552 482.059 18.499 481.3 17.6394C480.555 16.7654 479.638 16.0992 478.549 15.6407C477.46 15.1679 476.221 14.9315 474.831 14.9315H469.974V35.0685H474.831C476.221 35.0685 477.46 34.8393 478.549 34.3808C479.638 33.908 480.555 33.2418 481.3 32.3821C482.059 31.5082 482.639 30.448 483.041 29.2015C483.442 27.955 483.642 26.5509 483.642 24.9893Z" fill="#555555"/>
<path d="M526.097 24.9893C526.097 27.253 525.703 29.3591 524.915 31.3076C524.142 33.2561 523.046 34.9539 521.627 36.4009C520.209 37.8337 518.497 38.9584 516.491 39.775C514.499 40.5917 512.286 41 509.85 41C507.415 41 505.194 40.5917 503.188 39.775C501.182 38.9584 499.463 37.8337 498.03 36.4009C496.612 34.9539 495.509 33.2561 494.721 31.3076C493.947 29.3591 493.56 27.253 493.56 24.9893C493.56 22.7255 493.947 20.6194 494.721 18.6709C495.509 16.7224 496.612 15.0318 498.03 13.5991C499.463 12.1663 501.182 11.0416 503.188 10.225C505.194 9.40833 507.415 9 509.85 9C512.286 9 514.499 9.41549 516.491 10.2465C518.497 11.0631 520.209 12.1878 521.627 13.6206C523.046 15.0533 524.142 16.7439 524.915 18.6924C525.703 20.6409 526.097 22.7399 526.097 24.9893ZM518.662 24.9893C518.662 23.4419 518.461 22.0522 518.06 20.82C517.659 19.5735 517.078 18.5205 516.319 17.6608C515.574 16.8012 514.657 16.1422 513.568 15.6837C512.479 15.2252 511.24 14.996 509.85 14.996C508.446 14.996 507.193 15.2252 506.089 15.6837C505 16.1422 504.076 16.8012 503.317 17.6608C502.572 18.5205 501.999 19.5735 501.598 20.82C501.197 22.0522 500.996 23.4419 500.996 24.9893C500.996 26.5509 501.197 27.955 501.598 29.2015C501.999 30.4336 502.572 31.4795 503.317 32.3392C504.076 33.1988 505 33.8578 506.089 34.3163C507.193 34.7605 508.446 34.9825 509.85 34.9825C511.24 34.9825 512.479 34.7605 513.568 34.3163C514.657 33.8578 515.574 33.1988 516.319 32.3392C517.078 31.4795 517.659 30.4336 518.06 29.2015C518.461 27.955 518.662 26.5509 518.662 24.9893Z" fill="#555555"/>
<path d="M561.52 15.1034H552.709V40.6561H545.445V15.1034H536.633V9.34386H561.52V15.1034Z" fill="#555555"/>
<path d="M572.518 14.9315V22.2384H582.361V27.6111H572.518V35.0685H585.369V40.6561H565.211V9.34386H585.369V14.9315H572.518Z" fill="#555555"/>
<path d="M625.052 9.34386V40.6561H618.648V22.6467C618.648 22.2313 618.655 21.7799 618.669 21.2928C618.698 20.8057 618.741 20.3114 618.798 19.8099L610.481 35.9067C610.223 36.4081 609.872 36.7878 609.428 37.0457C608.998 37.3036 608.504 37.4325 607.945 37.4325H606.957C606.398 37.4325 605.896 37.3036 605.452 37.0457C605.022 36.7878 604.679 36.4081 604.421 35.9067L596.104 19.767C596.147 20.2827 596.183 20.7914 596.211 21.2928C596.24 21.7799 596.254 22.2313 596.254 22.6467V40.6561H589.85V9.34386H595.395C595.71 9.34386 595.982 9.35102 596.211 9.36535C596.455 9.37967 596.67 9.42266 596.856 9.49429C597.042 9.56593 597.207 9.68055 597.35 9.83815C597.508 9.98142 597.658 10.1892 597.802 10.4614L605.861 26.3432C606.147 26.8876 606.419 27.4535 606.677 28.041C606.95 28.6284 607.207 29.2301 607.451 29.8462C607.695 29.2158 607.945 28.5997 608.203 27.998C608.475 27.3962 608.762 26.8231 609.063 26.2787L617.1 10.4614C617.244 10.1892 617.387 9.98142 617.53 9.83815C617.688 9.68055 617.86 9.56593 618.046 9.49429C618.232 9.42266 618.44 9.37967 618.669 9.36535C618.913 9.35102 619.192 9.34386 619.507 9.34386H625.052Z" fill="#555555"/>
<path d="M642.157 24.7099C644.048 24.7099 645.409 24.2586 646.24 23.3559C647.071 22.4533 647.487 21.1925 647.487 19.5735C647.487 18.8572 647.379 18.2053 647.165 17.6179C646.95 17.0304 646.62 16.529 646.176 16.1135C645.746 15.6837 645.195 15.3542 644.521 15.1249C643.862 14.8957 643.074 14.7811 642.157 14.7811H638.375V24.7099H642.157ZM642.157 9.34386C644.364 9.34386 646.255 9.60891 647.831 10.139C649.421 10.6548 650.725 11.3712 651.742 12.2881C652.774 13.2051 653.533 14.2868 654.02 15.5332C654.507 16.7797 654.751 18.1265 654.751 19.5735C654.751 21.1352 654.5 22.5679 653.999 23.8717C653.497 25.1755 652.731 26.293 651.699 27.2243C650.668 28.1556 649.357 28.8863 647.766 29.4164C646.19 29.9322 644.321 30.1901 642.157 30.1901H638.375V40.6561H631.111V9.34386H642.157Z" fill="#555555"/>
<path d="M689.168 24.9893C689.168 27.253 688.774 29.3591 687.986 31.3076C687.213 33.2561 686.117 34.9539 684.698 36.4009C683.28 37.8337 681.568 38.9584 679.562 39.775C677.57 40.5917 675.357 41 672.921 41C670.485 41 668.265 40.5917 666.259 39.775C664.253 38.9584 662.534 37.8337 661.101 36.4009C659.683 34.9539 658.579 33.2561 657.791 31.3076C657.018 29.3591 656.631 27.253 656.631 24.9893C656.631 22.7255 657.018 20.6194 657.791 18.6709C658.579 16.7224 659.683 15.0318 661.101 13.5991C662.534 12.1663 664.253 11.0416 666.259 10.225C668.265 9.40833 670.485 9 672.921 9C675.357 9 677.57 9.41549 679.562 10.2465C681.568 11.0631 683.28 12.1878 684.698 13.6206C686.117 15.0533 687.213 16.7439 687.986 18.6924C688.774 20.6409 689.168 22.7399 689.168 24.9893ZM681.732 24.9893C681.732 23.4419 681.532 22.0522 681.131 20.82C680.729 19.5735 680.149 18.5205 679.39 17.6608C678.645 16.8012 677.728 16.1422 676.639 15.6837C675.55 15.2252 674.311 14.996 672.921 14.996C671.517 14.996 670.263 15.2252 669.16 15.6837C668.071 16.1422 667.147 16.8012 666.388 17.6608C665.643 18.5205 665.07 19.5735 664.669 20.82C664.267 22.0522 664.067 23.4419 664.067 24.9893C664.067 26.5509 664.267 27.955 664.669 29.2015C665.07 30.4336 665.643 31.4795 666.388 32.3392C667.147 33.1988 668.071 33.8578 669.16 34.3163C670.263 34.7605 671.517 34.9825 672.921 34.9825C674.311 34.9825 675.55 34.7605 676.639 34.3163C677.728 33.8578 678.645 33.1988 679.39 32.3392C680.149 31.4795 680.729 30.4336 681.131 29.2015C681.532 27.955 681.732 26.5509 681.732 24.9893Z" fill="#555555"/>
</svg>
