<svg width="408" height="32" viewBox="0 0 408 32" fill="none" xmlns="http://www.w3.org/2000/svg">
<path d="M122.283 31.3757H112.112V29.9518H114.925V2.04121H112.112V0.624288H123.258L132.819 22.4884L142.751 0.624288H153.897V2.04121H151.085V29.9518H153.897V31.3757H138.648V29.9518H143.614V3.33187L131.409 29.9518H128.772L124.556 20.1736L117.31 3.38097V29.9518H122.276V31.3757H122.283ZM109.854 19.7317H107.89C106.136 24.0105 104.544 27.146 103.477 28.2683C102.418 29.3906 100.805 29.9518 98.6374 29.9518H87.7931V14.7093H92.4507C93.9237 14.7093 95.0671 15.1232 95.8808 15.9579C96.6664 16.7155 97.3468 18.1254 97.929 20.1736C97.9851 20.363 98.0342 20.5524 98.0833 20.7558H100.047V7.24595H98.0833C97.473 9.61684 96.7155 11.2442 95.8176 12.135C95.039 12.9066 93.9167 13.2924 92.4507 13.2924H87.7931V2.04121H99.9842C101.534 2.04121 102.678 2.44104 103.414 3.24068C104.354 4.27883 105.659 6.79702 107.335 10.7953H109.299V0.617273H77.573V2.0342H80.3788V29.9448H76.5769V31.3687H109.854V19.7247V19.7317ZM49.0802 3.15651C49.6554 2.41298 50.6164 2.04121 51.9632 2.04121H55.7019V29.9518H50.9811V31.3757H67.893V29.9518H63.1723V2.04121H66.911C68.2578 2.04121 69.2188 2.41298 69.7869 3.15651C70.5235 4.13854 71.5265 6.64972 72.7891 10.7111H74.7532V0.624288H44.114V10.7111H46.078C47.3406 6.65673 48.3437 4.13854 49.0802 3.15651ZM186.711 16C186.711 11.3143 188.57 7.44235 192.288 4.37703C195.844 1.45901 200.151 0 205.222 0C210.294 0 214.594 1.45901 218.15 4.37703C221.868 7.44235 223.726 11.3143 223.726 16C223.726 20.6857 221.868 24.5576 218.15 27.623C214.594 30.541 210.287 32 205.222 32C200.158 32 195.844 30.541 192.288 27.623C188.57 24.5576 186.711 20.6857 186.711 16ZM195.171 16.007C195.171 21.5204 196.005 25.3783 197.682 27.5809C199.197 29.587 201.708 30.5901 205.222 30.5901C208.737 30.5901 211.248 29.587 212.756 27.5809C214.432 25.3783 215.267 21.5134 215.267 16.007C215.267 10.5007 214.425 6.6427 212.756 4.43314C211.241 2.42701 208.73 1.42394 205.222 1.42394C201.715 1.42394 199.197 2.42701 197.682 4.43314C196.005 6.6427 195.171 10.5007 195.171 16.007ZM171.728 31.3687H155.672V29.9448H158.492V2.04121H155.672V0.624288H170.332C175.277 0.624288 179.178 1.38185 182.032 2.88996C184.726 4.37001 186.08 6.32705 186.08 8.75406C186.08 11.1811 184.775 13.1241 182.159 14.4919C179.416 15.9439 175.502 16.6664 170.395 16.6664H165.913V29.9518H171.735V31.3757L171.728 31.3687ZM165.906 15.2284H168.74C172.17 15.2284 174.625 14.7725 176.091 13.8536C177.564 12.9347 178.301 11.2302 178.301 8.74003C178.301 4.2648 175.299 2.02718 169.294 2.02718H165.913V15.2284H165.906ZM0 16C0 11.3143 1.85883 7.44235 5.5765 4.37703C9.13284 1.45901 13.4397 0 18.5112 0C23.5826 0 27.8825 1.45901 31.4388 4.37703C35.1565 7.44235 37.0153 11.3143 37.0153 16C37.0153 20.6857 35.1565 24.5576 31.4388 27.623C27.8825 30.541 23.5756 32 18.5112 32C13.4467 32 9.13284 30.541 5.5765 27.623C1.85883 24.5576 0 20.6857 0 16ZM8.45945 16.007C8.45945 21.5204 9.29417 25.3783 10.9706 27.5809C12.4787 29.587 14.9969 30.5901 18.5042 30.5901C22.0114 30.5901 24.5296 29.587 26.0447 27.5809C27.7212 25.3713 28.5559 21.5134 28.5559 16.007C28.5559 10.5007 27.7142 6.6427 26.0447 4.43314C24.5296 2.42701 22.0184 1.42394 18.5042 1.42394C14.9899 1.42394 12.4787 2.42701 10.9706 4.43314C9.29417 6.6427 8.45945 10.5007 8.45945 16.007Z" fill="#00542B"/>
<rect x="231.727" width="1" height="32" fill="#C4C4C4"/>
<path d="M275.929 0.343856V31.6561H269.524V13.6467C269.524 13.2313 269.532 12.7799 269.546 12.2928C269.575 11.8057 269.618 11.3114 269.675 10.8099L261.358 26.9066C261.1 27.4081 260.749 27.7878 260.305 28.0457C259.875 28.3036 259.381 28.4325 258.822 28.4325H257.833C257.275 28.4325 256.773 28.3036 256.329 28.0457C255.899 27.7878 255.555 27.4081 255.297 26.9066L246.98 10.767C247.023 11.2827 247.059 11.7914 247.088 12.2928C247.117 12.7799 247.131 13.2313 247.131 13.6467V31.6561H240.727V0.343856H246.271C246.586 0.343856 246.859 0.351019 247.088 0.365345C247.331 0.379673 247.546 0.422655 247.733 0.494292C247.919 0.565928 248.084 0.680546 248.227 0.838147C248.384 0.98142 248.535 1.18916 248.678 1.46138L256.737 17.3432C257.024 17.8876 257.296 18.4535 257.554 19.041C257.826 19.6284 258.084 20.2301 258.328 20.8462C258.571 20.2158 258.822 19.5997 259.08 18.998C259.352 18.3962 259.639 17.8231 259.939 17.2787L267.977 1.46138C268.12 1.18916 268.264 0.98142 268.407 0.838147C268.564 0.680546 268.736 0.565928 268.923 0.494292C269.109 0.422655 269.317 0.379673 269.546 0.365345C269.789 0.351019 270.069 0.343856 270.384 0.343856H275.929Z" fill="#555555"/>
<path d="M294.194 25.9181C295.169 25.9181 296.035 25.7605 296.795 25.4453C297.568 25.1157 298.22 24.6501 298.75 24.0484C299.281 23.4466 299.682 22.7159 299.954 21.8563C300.24 20.9823 300.384 19.9937 300.384 18.8905V0.343856H307.648V18.8905C307.648 20.8104 307.332 22.5726 306.702 24.1773C306.086 25.782 305.198 27.1645 304.037 28.3251C302.877 29.4856 301.465 30.3882 299.803 31.0329C298.141 31.6776 296.272 32 294.194 32C292.103 32 290.226 31.6776 288.564 31.0329C286.902 30.3882 285.49 29.4856 284.33 28.3251C283.169 27.1645 282.281 25.782 281.665 24.1773C281.049 22.5726 280.741 20.8104 280.741 18.8905V0.343856H288.005V18.869C288.005 19.9722 288.141 20.9608 288.413 21.8348C288.7 22.6944 289.108 23.4323 289.638 24.0484C290.168 24.6501 290.813 25.1157 291.572 25.4453C292.346 25.7605 293.22 25.9181 294.194 25.9181Z" fill="#555555"/>
<path d="M339.799 0.343856V31.6561H336.017C335.458 31.6561 334.985 31.5702 334.598 31.3983C334.226 31.212 333.853 30.8968 333.481 30.4527L318.716 11.777C318.774 12.3358 318.81 12.8802 318.824 13.4103C318.853 13.9261 318.867 14.4133 318.867 14.8717V31.6561H312.463V0.343856H316.288C316.603 0.343856 316.868 0.358183 317.083 0.386837C317.298 0.415491 317.492 0.4728 317.663 0.558765C317.835 0.630401 318 0.737856 318.158 0.881128C318.315 1.0244 318.494 1.21782 318.695 1.46138L333.588 20.2659C333.517 19.6642 333.466 19.084 333.438 18.5252C333.409 17.9521 333.395 17.4148 333.395 16.9134V0.343856H339.799Z" fill="#555555"/>
<path d="M373.426 15.9893C373.426 18.253 373.032 20.3447 372.244 22.2646C371.47 24.1701 370.374 25.8249 368.956 27.229C367.537 28.6188 365.825 29.7076 363.819 30.4956C361.828 31.2693 359.614 31.6561 357.179 31.6561H345.015V0.343856H357.179C359.614 0.343856 361.828 0.737856 363.819 1.52586C365.825 2.31386 367.537 3.40273 368.956 4.79248C370.374 6.18223 371.47 7.83703 372.244 9.75688C373.032 11.6624 373.426 13.7399 373.426 15.9893ZM365.99 15.9893C365.99 14.4419 365.789 13.045 365.388 11.7985C364.987 10.552 364.407 9.49899 363.647 8.63935C362.902 7.76539 361.985 7.09917 360.896 6.6407C359.808 6.1679 358.568 5.9315 357.179 5.9315H352.322V26.0685H357.179C358.568 26.0685 359.808 25.8393 360.896 25.3808C361.985 24.908 362.902 24.2418 363.647 23.3821C364.407 22.5082 364.987 21.448 365.388 20.2015C365.789 18.955 365.99 17.5509 365.99 15.9893Z" fill="#555555"/>
<path d="M407.585 15.9893C407.585 18.253 407.191 20.3591 406.403 22.3076C405.63 24.2561 404.533 25.9539 403.115 27.4009C401.697 28.8337 399.985 29.9584 397.979 30.775C395.987 31.5917 393.774 32 391.338 32C388.902 32 386.682 31.5917 384.676 30.775C382.67 29.9584 380.951 28.8337 379.518 27.4009C378.1 25.9539 376.996 24.2561 376.208 22.3076C375.435 20.3591 375.048 18.253 375.048 15.9893C375.048 13.7255 375.435 11.6194 376.208 9.67092C376.996 7.72241 378.1 6.03179 379.518 4.59906C380.951 3.16633 382.67 2.04164 384.676 1.22498C386.682 0.408328 388.902 0 391.338 0C393.774 0 395.987 0.415491 397.979 1.24647C399.985 2.06313 401.697 3.18782 403.115 4.62055C404.533 6.05328 405.63 7.7439 406.403 9.69241C407.191 11.6409 407.585 13.7399 407.585 15.9893ZM400.149 15.9893C400.149 14.4419 399.949 13.0522 399.548 11.82C399.146 10.5735 398.566 9.52048 397.807 8.66085C397.062 7.80121 396.145 7.14215 395.056 6.68368C393.967 6.22521 392.728 5.99597 391.338 5.99597C389.934 5.99597 388.68 6.22521 387.577 6.68368C386.488 7.14215 385.564 7.80121 384.805 8.66085C384.06 9.52048 383.487 10.5735 383.086 11.82C382.684 13.0522 382.484 14.4419 382.484 15.9893C382.484 17.5509 382.684 18.955 383.086 20.2015C383.487 21.4336 384.06 22.4795 384.805 23.3392C385.564 24.1988 386.488 24.8578 387.577 25.3163C388.68 25.7605 389.934 25.9825 391.338 25.9825C392.728 25.9825 393.967 25.7605 395.056 25.3163C396.145 24.8578 397.062 24.1988 397.807 23.3392C398.566 22.4795 399.146 21.4336 399.548 20.2015C399.949 18.955 400.149 17.5509 400.149 15.9893Z" fill="#555555"/>
</svg>
