<svg width="473" height="32" viewBox="0 0 473 32" fill="none" xmlns="http://www.w3.org/2000/svg">
<path d="M122.283 31.3757H112.112V29.9518H114.925V2.04121H112.112V0.624288H123.258L132.819 22.4884L142.751 0.624288H153.897V2.04121H151.085V29.9518H153.897V31.3757H138.648V29.9518H143.614V3.33187L131.409 29.9518H128.772L124.556 20.1736L117.31 3.38097V29.9518H122.276V31.3757H122.283ZM109.854 19.7317H107.89C106.136 24.0105 104.544 27.146 103.477 28.2683C102.418 29.3906 100.805 29.9518 98.6374 29.9518H87.7931V14.7093H92.4507C93.9237 14.7093 95.0671 15.1232 95.8808 15.9579C96.6664 16.7155 97.3468 18.1254 97.929 20.1736C97.9851 20.363 98.0342 20.5524 98.0833 20.7558H100.047V7.24594H98.0833C97.473 9.61684 96.7155 11.2442 95.8176 12.135C95.039 12.9066 93.9167 13.2924 92.4507 13.2924H87.7931V2.04121H99.9842C101.534 2.04121 102.678 2.44104 103.414 3.24068C104.354 4.27883 105.659 6.79702 107.335 10.7953H109.299V0.617273H77.573V2.0342H80.3788V29.9448H76.5769V31.3687H109.854V19.7247V19.7317ZM49.0802 3.15651C49.6554 2.41298 50.6164 2.04121 51.9632 2.04121H55.7019V29.9518H50.9811V31.3757H67.893V29.9518H63.1723V2.04121H66.911C68.2578 2.04121 69.2188 2.41298 69.7869 3.15651C70.5235 4.13854 71.5265 6.64972 72.7891 10.7111H74.7532V0.624288H44.114V10.7111H46.078C47.3406 6.65673 48.3437 4.13854 49.0802 3.15651ZM186.711 16C186.711 11.3143 188.57 7.44235 192.288 4.37703C195.844 1.45901 200.151 0 205.222 0C210.294 0 214.594 1.45901 218.15 4.37703C221.868 7.44235 223.726 11.3143 223.726 16C223.726 20.6857 221.868 24.5576 218.15 27.623C214.594 30.541 210.287 32 205.222 32C200.158 32 195.844 30.541 192.288 27.623C188.57 24.5576 186.711 20.6857 186.711 16ZM195.171 16.007C195.171 21.5204 196.005 25.3783 197.682 27.5809C199.197 29.587 201.708 30.5901 205.222 30.5901C208.737 30.5901 211.248 29.587 212.756 27.5809C214.432 25.3783 215.267 21.5134 215.267 16.007C215.267 10.5007 214.425 6.6427 212.756 4.43314C211.241 2.42701 208.73 1.42394 205.222 1.42394C201.715 1.42394 199.197 2.42701 197.682 4.43314C196.005 6.6427 195.171 10.5007 195.171 16.007ZM171.728 31.3687H155.672V29.9448H158.492V2.04121H155.672V0.624288H170.332C175.277 0.624288 179.178 1.38185 182.032 2.88996C184.726 4.37001 186.08 6.32705 186.08 8.75406C186.08 11.1811 184.775 13.1241 182.159 14.4919C179.416 15.9439 175.502 16.6664 170.395 16.6664H165.913V29.9518H171.735V31.3757L171.728 31.3687ZM165.906 15.2284H168.74C172.17 15.2284 174.625 14.7725 176.091 13.8536C177.564 12.9347 178.301 11.2302 178.301 8.74003C178.301 4.2648 175.299 2.02718 169.294 2.02718H165.913V15.2284H165.906ZM0 16C0 11.3143 1.85883 7.44235 5.5765 4.37703C9.13284 1.45901 13.4397 0 18.5112 0C23.5826 0 27.8825 1.45901 31.4388 4.37703C35.1565 7.44235 37.0153 11.3143 37.0153 16C37.0153 20.6857 35.1565 24.5576 31.4388 27.623C27.8825 30.541 23.5756 32 18.5112 32C13.4467 32 9.13284 30.541 5.5765 27.623C1.85883 24.5576 0 20.6857 0 16ZM8.45945 16.007C8.45945 21.5204 9.29417 25.3783 10.9706 27.5809C12.4787 29.587 14.9969 30.5901 18.5042 30.5901C22.0114 30.5901 24.5296 29.587 26.0447 27.5809C27.7212 25.3713 28.5559 21.5134 28.5559 16.007C28.5559 10.5007 27.7142 6.6427 26.0447 4.43314C24.5296 2.42701 22.0184 1.42394 18.5042 1.42394C14.9899 1.42394 12.4787 2.42701 10.9706 4.43314C9.29417 6.6427 8.45945 10.5007 8.45945 16.007Z" fill="#00542B"/>
<rect x="231.727" width="1" height="32" fill="#C4C4C4"/>
<path d="M248.033 5.9315V13.2384H257.876V18.6111H248.033V26.0685H260.885V31.6561H240.727V0.343856H260.885V5.9315H248.033Z" fill="#555555"/>
<path d="M284.98 23.5541C285.152 23.5541 285.324 23.5899 285.496 23.6615C285.668 23.7188 285.833 23.8263 285.991 23.9839L288.87 27.0141C287.609 28.6617 286.026 29.9082 284.121 30.7535C282.23 31.5845 279.987 32 277.394 32C275.016 32 272.881 31.5988 270.99 30.7965C269.113 29.9799 267.515 28.8623 266.197 27.4439C264.894 26.0112 263.891 24.3206 263.189 22.3721C262.487 20.4092 262.136 18.2816 262.136 15.9893C262.136 13.6539 262.515 11.512 263.275 9.56347C264.034 7.60063 265.101 5.91001 266.477 4.4916C267.852 3.0732 269.5 1.97 271.42 1.182C273.34 0.394 275.453 0 277.759 0C278.934 0 280.038 0.107454 281.069 0.322364C282.115 0.522945 283.089 0.80949 283.992 1.182C284.894 1.54018 285.725 1.97717 286.485 2.49295C287.244 3.00873 287.918 3.56749 288.505 4.16924L286.055 7.45735C285.897 7.65794 285.711 7.84419 285.496 8.01612C285.281 8.17372 284.98 8.25252 284.594 8.25252C284.336 8.25252 284.092 8.19521 283.863 8.08059C283.634 7.96597 283.39 7.82986 283.132 7.67226C282.874 7.50034 282.588 7.32125 282.273 7.13499C281.972 6.93441 281.606 6.75532 281.177 6.59772C280.761 6.42579 280.267 6.28252 279.694 6.1679C279.135 6.05328 278.476 5.99597 277.716 5.99597C276.513 5.99597 275.41 6.21804 274.407 6.66219C273.418 7.10633 272.559 7.75823 271.828 8.61786C271.112 9.46317 270.553 10.5091 270.152 11.7555C269.765 12.9877 269.571 14.3989 269.571 15.9893C269.571 17.5939 269.786 19.0195 270.216 20.2659C270.66 21.5124 271.255 22.5655 272 23.4251C272.759 24.2704 273.64 24.9152 274.643 25.3593C275.646 25.8034 276.721 26.0255 277.867 26.0255C278.526 26.0255 279.128 25.9969 279.672 25.9396C280.217 25.8679 280.725 25.7605 281.198 25.6172C281.671 25.4596 282.115 25.259 282.53 25.0154C282.946 24.7576 283.369 24.4352 283.798 24.0484C283.97 23.9051 284.157 23.7905 284.357 23.7045C284.558 23.6042 284.766 23.5541 284.98 23.5541Z" fill="#555555"/>
<path d="M321.2 15.9893C321.2 18.253 320.806 20.3591 320.018 22.3076C319.244 24.2561 318.148 25.9539 316.73 27.4009C315.312 28.8337 313.599 29.9584 311.594 30.775C309.602 31.5917 307.389 32 304.953 32C302.517 32 300.297 31.5917 298.291 30.775C296.285 29.9584 294.566 28.8337 293.133 27.4009C291.714 25.9539 290.611 24.2561 289.823 22.3076C289.05 20.3591 288.663 18.253 288.663 15.9893C288.663 13.7255 289.05 11.6194 289.823 9.67092C290.611 7.72241 291.714 6.03179 293.133 4.59906C294.566 3.16633 296.285 2.04164 298.291 1.22498C300.297 0.408328 302.517 0 304.953 0C307.389 0 309.602 0.415491 311.594 1.24647C313.599 2.06313 315.312 3.18782 316.73 4.62055C318.148 6.05328 319.244 7.7439 320.018 9.69241C320.806 11.6409 321.2 13.7399 321.2 15.9893ZM313.764 15.9893C313.764 14.4419 313.564 13.0522 313.162 11.82C312.761 10.5735 312.181 9.52048 311.422 8.66085C310.677 7.80121 309.76 7.14215 308.671 6.68368C307.582 6.22521 306.343 5.99597 304.953 5.99597C303.549 5.99597 302.295 6.22521 301.192 6.68368C300.103 7.14215 299.179 7.80121 298.42 8.66085C297.675 9.52048 297.102 10.5735 296.7 11.82C296.299 13.0522 296.099 14.4419 296.099 15.9893C296.099 17.5509 296.299 18.955 296.7 20.2015C297.102 21.4336 297.675 22.4795 298.42 23.3392C299.179 24.1988 300.103 24.8578 301.192 25.3163C302.295 25.7605 303.549 25.9825 304.953 25.9825C306.343 25.9825 307.582 25.7605 308.671 25.3163C309.76 24.8578 310.677 24.1988 311.422 23.3392C312.181 22.4795 312.761 21.4336 313.162 20.2015C313.564 18.955 313.764 17.5509 313.764 15.9893Z" fill="#555555"/>
<path d="M351.952 0.343856V31.6561H348.169C347.61 31.6561 347.138 31.5702 346.751 31.3983C346.378 31.212 346.006 30.8968 345.633 30.4527L330.869 11.777C330.926 12.3358 330.962 12.8802 330.976 13.4103C331.005 13.9261 331.019 14.4133 331.019 14.8717V31.6561H324.615V0.343856H328.44C328.756 0.343856 329.021 0.358183 329.236 0.386837C329.451 0.415491 329.644 0.4728 329.816 0.558765C329.988 0.630401 330.153 0.737856 330.31 0.881128C330.468 1.0244 330.647 1.21782 330.847 1.46138L345.741 20.2659C345.669 19.6642 345.619 19.084 345.59 18.5252C345.562 17.9521 345.547 17.4148 345.547 16.9134V0.343856H351.952Z" fill="#555555"/>
<path d="M387.899 15.9893C387.899 18.253 387.505 20.3591 386.717 22.3076C385.943 24.2561 384.847 25.9539 383.429 27.4009C382.011 28.8337 380.299 29.9584 378.293 30.775C376.301 31.5917 374.088 32 371.652 32C369.216 32 366.996 31.5917 364.99 30.775C362.984 29.9584 361.265 28.8337 359.832 27.4009C358.414 25.9539 357.31 24.2561 356.522 22.3076C355.749 20.3591 355.362 18.253 355.362 15.9893C355.362 13.7255 355.749 11.6194 356.522 9.67092C357.31 7.72241 358.414 6.03179 359.832 4.59906C361.265 3.16633 362.984 2.04164 364.99 1.22498C366.996 0.408328 369.216 0 371.652 0C374.088 0 376.301 0.415491 378.293 1.24647C380.299 2.06313 382.011 3.18782 383.429 4.62055C384.847 6.05328 385.943 7.7439 386.717 9.69241C387.505 11.6409 387.899 13.7399 387.899 15.9893ZM380.463 15.9893C380.463 14.4419 380.263 13.0522 379.862 11.82C379.46 10.5735 378.88 9.52048 378.121 8.66085C377.376 7.80121 376.459 7.14215 375.37 6.68368C374.281 6.22521 373.042 5.99597 371.652 5.99597C370.248 5.99597 368.994 6.22521 367.891 6.68368C366.802 7.14215 365.878 7.80121 365.119 8.66085C364.374 9.52048 363.801 10.5735 363.399 11.82C362.998 13.0522 362.798 14.4419 362.798 15.9893C362.798 17.5509 362.998 18.955 363.399 20.2015C363.801 21.4336 364.374 22.4795 365.119 23.3392C365.878 24.1988 366.802 24.8578 367.891 25.3163C368.994 25.7605 370.248 25.9825 371.652 25.9825C373.042 25.9825 374.281 25.7605 375.37 25.3163C376.459 24.8578 377.376 24.1988 378.121 23.3392C378.88 22.4795 379.46 21.4336 379.862 20.2015C380.263 18.955 380.463 17.5509 380.463 15.9893Z" fill="#555555"/>
<path d="M426.516 0.343856V31.6561H420.112V13.6467C420.112 13.2313 420.119 12.7799 420.134 12.2928C420.162 11.8057 420.205 11.3114 420.262 10.8099L411.946 26.9066C411.688 27.4081 411.337 27.7878 410.892 28.0457C410.463 28.3036 409.968 28.4325 409.41 28.4325H408.421C407.862 28.4325 407.361 28.3036 406.917 28.0457C406.487 27.7878 406.143 27.4081 405.885 26.9066L397.568 10.767C397.611 11.2827 397.647 11.7914 397.676 12.2928C397.704 12.7799 397.719 13.2313 397.719 13.6467V31.6561H391.314V0.343856H396.859C397.174 0.343856 397.446 0.351019 397.676 0.365345C397.919 0.379673 398.134 0.422655 398.32 0.494292C398.507 0.565928 398.671 0.680546 398.815 0.838147C398.972 0.98142 399.123 1.18916 399.266 1.46138L407.325 17.3432C407.611 17.8876 407.884 18.4535 408.142 19.041C408.414 19.6284 408.672 20.2301 408.915 20.8462C409.159 20.2158 409.41 19.5997 409.667 18.998C409.94 18.3962 410.226 17.8231 410.527 17.2787L418.565 1.46138C418.708 1.18916 418.851 0.98142 418.995 0.838147C419.152 0.680546 419.324 0.565928 419.51 0.494292C419.697 0.422655 419.904 0.379673 420.134 0.365345C420.377 0.351019 420.656 0.343856 420.972 0.343856H426.516Z" fill="#555555"/>
<path d="M439.022 31.6561H431.715V0.343856H439.022V31.6561Z" fill="#555555"/>
<path d="M460.752 19.6857L457.85 11.1108C457.636 10.5664 457.406 9.92881 457.163 9.19812C456.919 8.4531 456.676 7.65077 456.432 6.79113C456.217 7.6651 455.988 8.47459 455.744 9.21961C455.501 9.96463 455.272 10.6094 455.057 11.1538L452.177 19.6857H460.752ZM472.292 31.6561H466.662C466.031 31.6561 465.523 31.5129 465.136 31.2263C464.749 30.9255 464.455 30.5458 464.255 30.0873L462.407 24.6286H450.501L448.652 30.0873C448.495 30.4885 448.208 30.8538 447.793 31.1833C447.392 31.4985 446.89 31.6561 446.288 31.6561H440.615L452.736 0.343856H460.171L472.292 31.6561Z" fill="#555555"/>
</svg>
