<svg width="76" height="27" viewBox="0 0 76 27" fill="none" xmlns="http://www.w3.org/2000/svg">
<path d="M41.9931 10.5181H38.5835V10.0408H39.5264V0.684277H38.5835V0.209281H42.32L45.525 7.5388L48.8547 0.209281H52.5912V0.684277H51.6482V10.0408H52.5912V10.5181H47.4791V10.0408H49.1439V1.11695L45.0524 10.0408H44.1682L42.755 6.76282L40.3259 1.13341V10.0408H41.9908V10.5181H41.9931ZM37.8263 6.61467H37.1679C36.58 8.04907 36.0462 9.10017 35.6888 9.47641C35.3337 9.85264 34.7929 10.0408 34.0663 10.0408H30.4309V4.93102H31.9923C32.4861 4.93102 32.8694 5.06976 33.1422 5.34959C33.4055 5.60354 33.6336 6.07619 33.8288 6.76282C33.8476 6.82631 33.8641 6.8898 33.8805 6.95799H34.539V2.42906H33.8805C33.676 3.22386 33.422 3.7694 33.121 4.06804C32.86 4.3267 32.4838 4.45603 31.9923 4.45603H30.4309V0.684277H34.5178C35.0375 0.684277 35.4208 0.81831 35.6677 1.08638C35.9828 1.43439 36.4201 2.27857 36.9821 3.61891H37.6405V0.206929H27.0049V0.681925H27.9454V10.0384H26.671V10.5158H37.8263V6.61232V6.61467ZM17.4532 1.05816C17.646 0.808904 17.9682 0.684277 18.4197 0.684277H19.673V10.0408H18.0905V10.5181H23.7598V10.0408H22.1773V0.684277H23.4306C23.8821 0.684277 24.2043 0.808904 24.3947 1.05816C24.6416 1.38736 24.9779 2.22919 25.4012 3.59069H26.0596V0.209281H15.7884V3.59069H16.4468C16.87 2.23154 17.2063 1.38736 17.4532 1.05816ZM63.5913 5.36369C63.5913 3.79291 64.2145 2.49491 65.4607 1.46731C66.6529 0.489105 68.0967 0 69.7968 0C71.4969 0 72.9384 0.489105 74.1306 1.46731C75.3769 2.49491 76 3.79291 76 5.36369C76 6.93447 75.3769 8.23248 74.1306 9.26007C72.9384 10.2383 71.4946 10.7274 69.7968 10.7274C68.0991 10.7274 66.6529 10.2383 65.4607 9.26007C64.2145 8.23248 63.5913 6.93447 63.5913 5.36369ZM66.4272 5.36605C66.4272 7.2143 66.707 8.5076 67.269 9.24596C67.7769 9.91848 68.6188 10.2547 69.7968 10.2547C70.9749 10.2547 71.8167 9.91848 72.3223 9.24596C72.8843 8.5076 73.1641 7.21195 73.1641 5.36605C73.1641 3.52014 72.882 2.22684 72.3223 1.48613C71.8144 0.813607 70.9726 0.477348 69.7968 0.477348C68.6211 0.477348 67.7769 0.813607 67.269 1.48613C66.707 2.22684 66.4272 3.52014 66.4272 5.36605ZM58.5686 10.5158H53.1861V10.0384H54.1314V0.684277H53.1861V0.209281H58.1006C59.7584 0.209281 61.0658 0.463239 62.0229 0.968804C62.9258 1.46496 63.3797 2.12102 63.3797 2.93463C63.3797 3.74824 62.9423 4.39959 62.0652 4.85813C61.1458 5.34488 59.8337 5.58708 58.1218 5.58708H56.6192V10.0408H58.5709V10.5181L58.5686 10.5158ZM56.6169 5.10503H57.5669C58.7167 5.10503 59.5397 4.95219 60.0312 4.64415C60.525 4.3361 60.7719 3.7647 60.7719 2.92993C60.7719 1.42969 59.7655 0.679574 57.7526 0.679574H56.6192V5.10503H56.6169ZM1 5.36369C1 3.79291 1.62314 2.49491 2.86942 1.46731C4.06161 0.489105 5.50541 0 7.20552 0C8.90563 0 10.3471 0.489105 11.5393 1.46731C12.7855 2.49491 13.4087 3.79291 13.4087 5.36369C13.4087 6.93447 12.7855 8.23248 11.5393 9.26007C10.3471 10.2383 8.90328 10.7274 7.20552 10.7274C5.50776 10.7274 4.06161 10.2383 2.86942 9.26007C1.62314 8.23248 1 6.93447 1 5.36369ZM3.83587 5.36605C3.83587 7.2143 4.11569 8.5076 4.67769 9.24596C5.18326 9.91848 6.02743 10.2547 7.20317 10.2547C8.3789 10.2547 9.22308 9.91848 9.73099 9.24596C10.293 8.50525 10.5728 7.21195 10.5728 5.36605C10.5728 3.52014 10.2906 2.22684 9.73099 1.48613C9.22308 0.813607 8.38125 0.477348 7.20317 0.477348C6.02508 0.477348 5.18326 0.813607 4.67769 1.48613C4.11569 2.22684 3.83587 3.52014 3.83587 5.36605Z" fill="#00542B"/>
<path d="M59.0384 12.5024C59.2416 12.5024 59.3983 12.4367 59.5084 12.3055C59.6185 12.1742 59.6735 11.9816 59.6735 11.7275H61.2613C61.2613 12.0874 61.2126 12.4113 61.1152 12.6993C61.0221 12.9872 60.8866 13.2328 60.7087 13.436C60.5309 13.635 60.3107 13.7895 60.0482 13.8996C59.7899 14.0055 59.4957 14.0584 59.1654 14.0584C58.941 14.0584 58.7293 14.0351 58.5303 13.9885C58.3355 13.9377 58.1535 13.8827 57.9841 13.8234C57.8147 13.7599 57.6581 13.7049 57.5141 13.6583C57.3744 13.6075 57.2474 13.5821 57.133 13.5821C56.9298 13.5821 56.7732 13.6477 56.6631 13.779C56.553 13.9102 56.4979 14.1029 56.4979 14.3569H54.9102C54.9102 13.997 54.9567 13.6731 55.0499 13.3852C55.1473 13.0973 55.2849 12.8538 55.4627 12.6548C55.6405 12.4516 55.8586 12.297 56.1169 12.1912C56.3794 12.0811 56.6758 12.026 57.006 12.026C57.2304 12.026 57.44 12.0514 57.6348 12.1023C57.8338 12.1488 58.018 12.2039 58.1873 12.2674C58.3567 12.3267 58.5112 12.3817 58.651 12.4325C58.7949 12.4791 58.9241 12.5024 59.0384 12.5024Z" fill="#555555"/>
<path d="M4.73879 20.5625C5.42253 20.5625 5.91461 20.3994 6.21504 20.073C6.51548 19.7467 6.66569 19.2909 6.66569 18.7055C6.66569 18.4466 6.62684 18.2109 6.54915 17.9985C6.47145 17.7861 6.35231 17.6048 6.19174 17.4546C6.03634 17.2992 5.83692 17.1801 5.59346 17.0972C5.35519 17.0143 5.0703 16.9729 4.73879 16.9729H3.3713V20.5625H4.73879ZM4.73879 15.0071C5.53648 15.0071 6.22022 15.103 6.79001 15.2946C7.36497 15.4811 7.83634 15.7401 8.20411 16.0716C8.57706 16.4031 8.85159 16.7942 9.02771 17.2448C9.20382 17.6955 9.29188 18.1824 9.29188 18.7055C9.29188 19.2701 9.20123 19.7881 9.01994 20.2595C8.83864 20.7309 8.56152 21.1349 8.18857 21.4716C7.81562 21.8083 7.34166 22.0725 6.7667 22.2641C6.19692 22.4506 5.52094 22.5438 4.73879 22.5438H3.3713V26.3277H0.745117V15.0071H4.73879Z" fill="#555555"/>
<path d="M14.3072 20.3294C14.6646 20.3294 14.9676 20.2854 15.2162 20.1973C15.47 20.1041 15.6772 19.9772 15.8378 19.8166C15.9984 19.656 16.1149 19.4696 16.1874 19.2572C16.26 19.0396 16.2962 18.8066 16.2962 18.5579C16.2962 18.0607 16.1331 17.6722 15.8067 17.3925C15.4856 17.1127 14.9857 16.9729 14.3072 16.9729H13.2505V20.3294H14.3072ZM19.8859 26.3277H17.5083C17.068 26.3277 16.752 26.1619 16.5604 25.8304L14.6801 22.5438C14.592 22.404 14.4936 22.303 14.3848 22.2408C14.2761 22.1735 14.1207 22.1398 13.9187 22.1398H13.2505V26.3277H10.6243V15.0071H14.3072C15.1256 15.0071 15.8223 15.0926 16.3972 15.2635C16.9774 15.4293 17.4487 15.6624 17.8113 15.9628C18.1791 16.2632 18.4459 16.6181 18.6116 17.0273C18.7774 17.4365 18.8602 17.8819 18.8602 18.3637C18.8602 18.7314 18.811 19.0785 18.7126 19.4048C18.6142 19.7312 18.4692 20.0342 18.2775 20.3139C18.0859 20.5884 17.8476 20.8345 17.5627 21.052C17.283 21.2696 16.9592 21.4483 16.5915 21.5881C16.7624 21.6762 16.923 21.7876 17.0732 21.9222C17.2234 22.0517 17.3581 22.2071 17.4772 22.3884L19.8859 26.3277Z" fill="#555555"/>
<path d="M23.479 17.0273V19.669H27.0376V21.6114H23.479V24.3076H28.1253V26.3277H20.8373V15.0071H28.1253V17.0273H23.479Z" fill="#555555"/>
<path d="M39.9003 15.0071L35.3628 26.3277H32.9852L28.4477 15.0071H30.5611C30.789 15.0071 30.9729 15.0615 31.1127 15.1703C31.2526 15.2739 31.3588 15.4086 31.4313 15.5743L33.6223 21.6348C33.7259 21.8989 33.827 22.189 33.9254 22.505C34.0238 22.8158 34.117 23.1421 34.2051 23.484C34.2776 23.1421 34.3579 22.8158 34.4459 22.505C34.5392 22.189 34.6376 21.8989 34.7412 21.6348L36.9167 15.5743C36.9737 15.4293 37.0747 15.2998 37.2198 15.1858C37.37 15.0667 37.5539 15.0071 37.7714 15.0071H39.9003Z" fill="#555555"/>
<path d="M43.4346 26.3277H40.7929V15.0071H43.4346V26.3277Z" fill="#555555"/>
<path d="M51.8733 17.307C51.7956 17.4313 51.7127 17.5245 51.6247 17.5867C51.5418 17.6489 51.433 17.6799 51.2984 17.6799C51.1792 17.6799 51.0497 17.6437 50.9099 17.5712C50.7752 17.4935 50.6198 17.408 50.4437 17.3148C50.2728 17.2215 50.0759 17.1386 49.8532 17.0661C49.6304 16.9884 49.3766 16.9496 49.0917 16.9496C48.5997 16.9496 48.2319 17.0558 47.9884 17.2681C47.7502 17.4753 47.631 17.7576 47.631 18.115C47.631 18.343 47.7035 18.532 47.8486 18.6822C47.9936 18.8325 48.1827 18.9619 48.4158 19.0707C48.654 19.1795 48.9234 19.2805 49.2238 19.3737C49.5294 19.4618 49.8402 19.5628 50.1562 19.6768C50.4722 19.7855 50.7804 19.915 51.0808 20.0653C51.3864 20.2155 51.6558 20.4071 51.8889 20.6402C52.1271 20.8733 52.3188 21.1582 52.4638 21.4949C52.6089 21.8264 52.6814 22.2278 52.6814 22.6992C52.6814 23.2224 52.5907 23.7119 52.4094 24.1677C52.2281 24.6235 51.964 25.0224 51.6169 25.3642C51.275 25.7009 50.8503 25.9677 50.3427 26.1645C49.8402 26.3562 49.2679 26.452 48.6256 26.452C48.2733 26.452 47.9133 26.4158 47.5456 26.3432C47.183 26.2707 46.8307 26.1697 46.4889 26.0402C46.147 25.9055 45.8258 25.7476 45.5254 25.5663C45.225 25.385 44.9634 25.183 44.7407 24.9602L45.5176 23.7326C45.5798 23.6445 45.6601 23.572 45.7585 23.515C45.8621 23.4529 45.9735 23.4218 46.0926 23.4218C46.248 23.4218 46.4034 23.471 46.5588 23.5694C46.7194 23.6678 46.8981 23.7766 47.0949 23.8958C47.2969 24.0149 47.5274 24.1237 47.7864 24.2221C48.0454 24.3205 48.351 24.3697 48.7033 24.3697C49.1798 24.3697 49.5502 24.2661 49.8143 24.0589C50.0785 23.8466 50.2106 23.5125 50.2106 23.0566C50.2106 22.7925 50.1381 22.5775 49.993 22.4117C49.848 22.246 49.6563 22.1087 49.4181 21.9999C49.185 21.8912 48.9182 21.7953 48.6178 21.7125C48.3174 21.6296 48.0092 21.5389 47.6932 21.4405C47.3772 21.3369 47.069 21.2126 46.7686 21.0676C46.4681 20.9173 46.1988 20.7231 45.9605 20.4848C45.7274 20.2414 45.5384 19.9409 45.3933 19.5835C45.2483 19.2209 45.1758 18.7755 45.1758 18.2471C45.1758 17.8224 45.2612 17.408 45.4322 17.004C45.6031 16.5999 45.8543 16.2399 46.1858 15.924C46.5174 15.608 46.924 15.3568 47.4057 15.1703C47.8874 14.9786 48.4391 14.8828 49.0607 14.8828C49.4077 14.8828 49.7444 14.9113 50.0707 14.9683C50.4022 15.0201 50.7156 15.1004 51.0109 15.2091C51.3061 15.3127 51.5807 15.4396 51.8345 15.5899C52.0935 15.7349 52.324 15.9007 52.526 16.0871L51.8733 17.307Z" fill="#555555"/>
<path d="M59.9478 21.9999L58.8989 18.8998C58.8212 18.703 58.7383 18.4725 58.6503 18.2083C58.5622 17.9389 58.4742 17.6489 58.3861 17.3381C58.3084 17.654 58.2255 17.9467 58.1375 18.216C58.0494 18.4854 57.9665 18.7185 57.8888 18.9153L56.8477 21.9999H59.9478ZM64.1202 26.3277H62.0845C61.8566 26.3277 61.6727 26.2759 61.5329 26.1723C61.393 26.0635 61.2868 25.9263 61.2143 25.7605L60.5461 23.787H56.2416L55.5734 25.7605C55.5165 25.9055 55.4129 26.0376 55.2626 26.1568C55.1176 26.2707 54.9363 26.3277 54.7188 26.3277H52.6675L57.0497 15.0071H59.738L64.1202 26.3277Z" fill="#555555"/>
<path d="M75.7441 20.6635C75.7441 21.4819 75.6017 22.2434 75.3168 22.9478C75.0371 23.6523 74.6408 24.2661 74.128 24.7893C73.6152 25.3073 72.9962 25.7139 72.2711 26.0091C71.5511 26.3044 70.7508 26.452 69.8702 26.452C68.9896 26.452 68.1868 26.3044 67.4616 26.0091C66.7364 25.7139 66.1148 25.3073 65.5968 24.7893C65.084 24.2661 64.6852 23.6523 64.4003 22.9478C64.1206 22.2434 63.9807 21.4819 63.9807 20.6635C63.9807 19.8451 64.1206 19.0837 64.4003 18.3792C64.6852 17.6748 65.084 17.0635 65.5968 16.5455C66.1148 16.0276 66.7364 15.6209 67.4616 15.3257C68.1868 15.0304 68.9896 14.8828 69.8702 14.8828C70.7508 14.8828 71.5511 15.033 72.2711 15.3335C72.9962 15.6287 73.6152 16.0353 74.128 16.5533C74.6408 17.0713 75.0371 17.6825 75.3168 18.387C75.6017 19.0914 75.7441 19.8503 75.7441 20.6635ZM73.0558 20.6635C73.0558 20.1041 72.9833 19.6017 72.8383 19.1562C72.6932 18.7055 72.4834 18.3248 72.2089 18.014C71.9396 17.7032 71.608 17.465 71.2144 17.2992C70.8207 17.1335 70.3726 17.0506 69.8702 17.0506C69.3626 17.0506 68.9093 17.1335 68.5105 17.2992C68.1168 17.465 67.7827 17.7032 67.5082 18.014C67.2388 18.3248 67.0316 18.7055 66.8866 19.1562C66.7416 19.6017 66.669 20.1041 66.669 20.6635C66.669 21.2281 66.7416 21.7358 66.8866 22.1864C67.0316 22.6319 67.2388 23.01 67.5082 23.3208C67.7827 23.6316 68.1168 23.8699 68.5105 24.0356C68.9093 24.1962 69.3626 24.2765 69.8702 24.2765C70.3726 24.2765 70.8207 24.1962 71.2144 24.0356C71.608 23.8699 71.9396 23.6316 72.2089 23.3208C72.4834 23.01 72.6932 22.6319 72.8383 22.1864C72.9833 21.7358 73.0558 21.2281 73.0558 20.6635Z" fill="#555555"/>
</svg>
