<svg width="75" height="23" viewBox="0 0 75 23" fill="none" xmlns="http://www.w3.org/2000/svg">
<path d="M40.9931 10.5181H37.5835V10.0408H38.5264V0.684277H37.5835V0.209281H41.32L44.525 7.5388L47.8547 0.209281H51.5912V0.684277H50.6482V10.0408H51.5912V10.5181H46.4791V10.0408H48.1439V1.11695L44.0524 10.0408H43.1682L41.755 6.76282L39.3259 1.13341V10.0408H40.9908V10.5181H40.9931ZM36.8263 6.61467H36.1679C35.58 8.04907 35.0462 9.10017 34.6888 9.47641C34.3337 9.85264 33.7929 10.0408 33.0663 10.0408H29.4309V4.93102H30.9923C31.4861 4.93102 31.8694 5.06976 32.1422 5.34959C32.4055 5.60354 32.6336 6.07619 32.8288 6.76282C32.8476 6.82631 32.8641 6.8898 32.8805 6.95799H33.539V2.42906H32.8805C32.676 3.22386 32.422 3.7694 32.121 4.06804C31.86 4.3267 31.4838 4.45603 30.9923 4.45603H29.4309V0.684277H33.5178C34.0375 0.684277 34.4208 0.81831 34.6677 1.08638C34.9828 1.43439 35.4201 2.27857 35.9821 3.61891H36.6405V0.206929H26.0049V0.681925H26.9454V10.0384H25.671V10.5158H36.8263V6.61232V6.61467ZM16.4532 1.05816C16.646 0.808904 16.9682 0.684277 17.4197 0.684277H18.673V10.0408H17.0905V10.5181H22.7598V10.0408H21.1773V0.684277H22.4306C22.8821 0.684277 23.2043 0.808904 23.3947 1.05816C23.6416 1.38736 23.9779 2.22919 24.4012 3.59069H25.0596V0.209281H14.7884V3.59069H15.4468C15.87 2.23154 16.2063 1.38736 16.4532 1.05816ZM62.5913 5.36369C62.5913 3.79291 63.2145 2.49491 64.4607 1.46731C65.6529 0.489105 67.0967 0 68.7968 0C70.4969 0 71.9384 0.489105 73.1306 1.46731C74.3769 2.49491 75 3.79291 75 5.36369C75 6.93447 74.3769 8.23248 73.1306 9.26007C71.9384 10.2383 70.4946 10.7274 68.7968 10.7274C67.0991 10.7274 65.6529 10.2383 64.4607 9.26007C63.2145 8.23248 62.5913 6.93447 62.5913 5.36369ZM65.4272 5.36605C65.4272 7.2143 65.707 8.5076 66.269 9.24596C66.7769 9.91848 67.6188 10.2547 68.7968 10.2547C69.9749 10.2547 70.8167 9.91848 71.3223 9.24596C71.8843 8.5076 72.1641 7.21195 72.1641 5.36605C72.1641 3.52014 71.882 2.22684 71.3223 1.48613C70.8144 0.813607 69.9726 0.477348 68.7968 0.477348C67.6211 0.477348 66.7769 0.813607 66.269 1.48613C65.707 2.22684 65.4272 3.52014 65.4272 5.36605ZM57.5686 10.5158H52.1861V10.0384H53.1314V0.684277H52.1861V0.209281H57.1006C58.7584 0.209281 60.0658 0.463239 61.0229 0.968804C61.9258 1.46496 62.3797 2.12102 62.3797 2.93463C62.3797 3.74824 61.9423 4.39959 61.0652 4.85813C60.1458 5.34488 58.8337 5.58708 57.1218 5.58708H55.6192V10.0408H57.5709V10.5181L57.5686 10.5158ZM55.6169 5.10503H56.5669C57.7167 5.10503 58.5397 4.95219 59.0312 4.64415C59.525 4.3361 59.7719 3.7647 59.7719 2.92993C59.7719 1.42969 58.7655 0.679574 56.7526 0.679574H55.6192V5.10503H55.6169ZM0 5.36369C0 3.79291 0.623139 2.49491 1.86942 1.46731C3.06161 0.489105 4.50541 0 6.20552 0C7.90563 0 9.34708 0.489105 10.5393 1.46731C11.7855 2.49491 12.4087 3.79291 12.4087 5.36369C12.4087 6.93447 11.7855 8.23248 10.5393 9.26007C9.34708 10.2383 7.90328 10.7274 6.20552 10.7274C4.50776 10.7274 3.06161 10.2383 1.86942 9.26007C0.623139 8.23248 0 6.93447 0 5.36369ZM2.83587 5.36605C2.83587 7.2143 3.11569 8.5076 3.67769 9.24596C4.18326 9.91848 5.02743 10.2547 6.20317 10.2547C7.3789 10.2547 8.22308 9.91848 8.73099 9.24596C9.29299 8.50525 9.57282 7.21195 9.57282 5.36605C9.57282 3.52014 9.29064 2.22684 8.73099 1.48613C8.22308 0.813607 7.38125 0.477348 6.20317 0.477348C5.02508 0.477348 4.18326 0.813607 3.67769 1.48613C3.11569 2.22684 2.83587 3.52014 2.83587 5.36605Z" fill="#00542B"/>
<path d="M5.13358 19.7461L4.39395 17.56C4.33916 17.4213 4.28072 17.2587 4.21863 17.0724C4.15654 16.8825 4.09445 16.678 4.03235 16.4588C3.97757 16.6816 3.91913 16.888 3.85703 17.0779C3.79494 17.2678 3.7365 17.4322 3.68171 17.571L2.94756 19.7461H5.13358ZM8.07566 22.7977H6.64023C6.47952 22.7977 6.34986 22.7612 6.25124 22.6881C6.15263 22.6114 6.07775 22.5147 6.02661 22.3978L5.55544 21.0062H2.52022L2.04905 22.3978C2.00887 22.5 1.93582 22.5932 1.8299 22.6772C1.72763 22.7575 1.59979 22.7977 1.44639 22.7977H0L3.09001 14.8152H4.98565L8.07566 22.7977Z" fill="#555555"/>
<path d="M13.6601 16.2835H11.4138V22.7977H9.56203V16.2835H7.31574V14.8152H13.6601V16.2835Z" fill="#555555"/>
<path d="M17.9322 21.3349C18.1805 21.3349 18.4015 21.2947 18.5951 21.2144C18.7923 21.1304 18.9585 21.0117 19.0937 20.8582C19.2288 20.7048 19.3311 20.5186 19.4005 20.2994C19.4735 20.0766 19.51 19.8246 19.51 19.5434V14.8152H21.3619V19.5434C21.3619 20.0328 21.2815 20.482 21.1208 20.8911C20.9637 21.3002 20.7373 21.6527 20.4414 21.9485C20.1456 22.2444 19.7858 22.4745 19.3621 22.6388C18.9384 22.8032 18.4618 22.8854 17.9322 22.8854C17.3989 22.8854 16.9204 22.8032 16.4967 22.6388C16.0731 22.4745 15.7133 22.2444 15.4174 21.9485C15.1216 21.6527 14.8951 21.3002 14.7381 20.8911C14.581 20.482 14.5025 20.0328 14.5025 19.5434V14.8152H16.3543V19.5379C16.3543 19.8191 16.389 20.0711 16.4584 20.2939C16.5314 20.5131 16.6355 20.7012 16.7707 20.8582C16.9058 21.0117 17.0702 21.1304 17.2638 21.2144C17.461 21.2947 17.6838 21.3349 17.9322 21.3349Z" fill="#555555"/>
<path d="M26.8238 19.7461L26.0842 17.56C26.0294 17.4213 25.971 17.2587 25.9089 17.0724C25.8468 16.8825 25.7847 16.678 25.7226 16.4588C25.6678 16.6816 25.6094 16.888 25.5473 17.0779C25.4852 17.2678 25.4267 17.4322 25.372 17.571L24.6378 19.7461H26.8238ZM29.7659 22.7977H28.3305C28.1698 22.7977 28.0401 22.7612 27.9415 22.6881C27.8429 22.6114 27.768 22.5147 27.7169 22.3978L27.2457 21.0062H24.2105L23.7393 22.3978C23.6991 22.5 23.6261 22.5932 23.5201 22.6772C23.4179 22.7575 23.29 22.7977 23.1366 22.7977H21.6902L24.7803 14.8152H26.6759L29.7659 22.7977Z" fill="#555555"/>
<path d="M35.2056 21.3185V22.7977H30.3953V14.8152H32.2471V21.3185H35.2056Z" fill="#555555"/>
<path d="M38.015 22.7977H36.1522V14.8152H38.015V22.7977Z" fill="#555555"/>
<path d="M46.7979 18.8037C46.7979 19.3808 46.6975 19.9141 46.4966 20.4035C46.2994 20.8893 46.02 21.3112 45.6584 21.6691C45.2968 22.0234 44.8603 22.301 44.3489 22.5019C43.8412 22.6991 43.2769 22.7977 42.656 22.7977H39.555V14.8152H42.656C43.2769 14.8152 43.8412 14.9156 44.3489 15.1165C44.8603 15.3174 45.2968 15.595 45.6584 15.9493C46.02 16.3036 46.2994 16.7255 46.4966 17.2149C46.6975 17.7007 46.7979 18.2303 46.7979 18.8037ZM44.9023 18.8037C44.9023 18.4093 44.8512 18.0531 44.7489 17.7354C44.6466 17.4176 44.4987 17.1491 44.3051 16.93C44.1152 16.7072 43.8814 16.5373 43.6038 16.4205C43.3262 16.2999 43.0103 16.2397 42.656 16.2397H41.4178V21.3733H42.656C43.0103 21.3733 43.3262 21.3148 43.6038 21.1979C43.8814 21.0774 44.1152 20.9076 44.3051 20.6884C44.4987 20.4656 44.6466 20.1953 44.7489 19.8776C44.8512 19.5598 44.9023 19.2018 44.9023 18.8037Z" fill="#555555"/>
<path d="M51.8313 19.7461L51.0916 17.56C51.0369 17.4213 50.9784 17.2587 50.9163 17.0724C50.8542 16.8825 50.7921 16.678 50.73 16.4588C50.6753 16.6816 50.6168 16.888 50.5547 17.0779C50.4926 17.2678 50.4342 17.4322 50.3794 17.571L49.6453 19.7461H51.8313ZM54.7734 22.7977H53.3379C53.1772 22.7977 53.0476 22.7612 52.9489 22.6881C52.8503 22.6114 52.7754 22.5147 52.7243 22.3978L52.2531 21.0062H49.2179L48.7467 22.3978C48.7066 22.5 48.6335 22.5932 48.5276 22.6772C48.4253 22.7575 48.2975 22.7977 48.1441 22.7977H46.6977L49.7877 14.8152H51.6833L54.7734 22.7977Z" fill="#555555"/>
<path d="M62.6456 18.8037C62.6456 19.3808 62.5452 19.9141 62.3443 20.4035C62.1471 20.8893 61.8676 21.3112 61.506 21.6691C61.1444 22.0234 60.708 22.301 60.1966 22.5019C59.6889 22.6991 59.1246 22.7977 58.5037 22.7977H55.4027V14.8152H58.5037C59.1246 14.8152 59.6889 14.9156 60.1966 15.1165C60.708 15.3174 61.1444 15.595 61.506 15.9493C61.8676 16.3036 62.1471 16.7255 62.3443 17.2149C62.5452 17.7007 62.6456 18.2303 62.6456 18.8037ZM60.75 18.8037C60.75 18.4093 60.6988 18.0531 60.5966 17.7354C60.4943 17.4176 60.3464 17.1491 60.1528 16.93C59.9629 16.7072 59.7291 16.5373 59.4515 16.4205C59.1739 16.2999 58.858 16.2397 58.5037 16.2397H57.2655V21.3733H58.5037C58.858 21.3733 59.1739 21.3148 59.4515 21.1979C59.7291 21.0774 59.9629 20.9076 60.1528 20.6884C60.3464 20.4656 60.4943 20.1953 60.5966 19.8776C60.6988 19.5598 60.75 19.2018 60.75 18.8037Z" fill="#555555"/>
<path d="M65.6013 16.2397V18.1024H68.1106V19.4721H65.6013V21.3733H68.8776V22.7977H63.7385V14.8152H68.8776V16.2397H65.6013Z" fill="#555555"/>
<path d="M74.4302 16.4369C74.3754 16.5246 74.317 16.5903 74.2549 16.6341C74.1965 16.678 74.1198 16.6999 74.0248 16.6999C73.9408 16.6999 73.8495 16.6743 73.7508 16.6232C73.6559 16.5684 73.5463 16.5081 73.4221 16.4424C73.3016 16.3766 73.1628 16.3182 73.0057 16.2671C72.8487 16.2123 72.6697 16.1849 72.4688 16.1849C72.1218 16.1849 71.8625 16.2598 71.6908 16.4095C71.5228 16.5556 71.4388 16.7547 71.4388 17.0067C71.4388 17.1674 71.49 17.3007 71.5922 17.4066C71.6945 17.5126 71.8278 17.6039 71.9922 17.6806C72.1602 17.7573 72.3501 17.8285 72.562 17.8943C72.7775 17.9563 72.9966 18.0276 73.2194 18.1079C73.4422 18.1846 73.6595 18.2759 73.8714 18.3819C74.0869 18.4878 74.2768 18.6229 74.4412 18.7873C74.6092 18.9516 74.7443 19.1525 74.8466 19.3899C74.9489 19.6237 75 19.9068 75 20.2392C75 20.6081 74.9361 20.9532 74.8083 21.2746C74.6804 21.5961 74.4941 21.8773 74.2494 22.1184C74.0084 22.3558 73.7088 22.5439 73.3509 22.6827C72.9966 22.8178 72.593 22.8854 72.1401 22.8854C71.8917 22.8854 71.6379 22.8598 71.3786 22.8087C71.1229 22.7575 70.8745 22.6863 70.6334 22.595C70.3924 22.5 70.1659 22.3886 69.9541 22.2608C69.7422 22.133 69.5578 21.9905 69.4007 21.8335L69.9486 20.9678C69.9924 20.9057 70.049 20.8546 70.1184 20.8144C70.1915 20.7706 70.27 20.7487 70.354 20.7487C70.4636 20.7487 70.5732 20.7834 70.6828 20.8528C70.796 20.9222 70.922 20.9989 71.0608 21.0829C71.2032 21.1669 71.3658 21.2436 71.5484 21.313C71.731 21.3824 71.9465 21.4171 72.1949 21.4171C72.5309 21.4171 72.7921 21.344 72.9783 21.1979C73.1646 21.0482 73.2578 20.8126 73.2578 20.4912C73.2578 20.3049 73.2066 20.1533 73.1044 20.0364C73.0021 19.9196 72.867 19.8228 72.6989 19.7461C72.5346 19.6694 72.3465 19.6018 72.1346 19.5434C71.9228 19.4849 71.7055 19.421 71.4827 19.3516C71.2598 19.2785 71.0425 19.1909 70.8307 19.0886C70.6188 18.9827 70.4289 18.8457 70.2609 18.6777C70.0965 18.506 69.9632 18.2942 69.8609 18.0422C69.7587 17.7865 69.7075 17.4724 69.7075 17.0998C69.7075 16.8003 69.7678 16.5081 69.8883 16.2232C70.0089 15.9383 70.186 15.6845 70.4198 15.4617C70.6535 15.2389 70.9403 15.0617 71.2799 14.9303C71.6196 14.7951 72.0086 14.7275 72.4469 14.7275C72.6916 14.7275 72.929 14.7476 73.1591 14.7878C73.3929 14.8243 73.6139 14.8809 73.8221 14.9576C74.0303 15.0307 74.2238 15.1202 74.4028 15.2261C74.5854 15.3284 74.748 15.4453 74.8904 15.5767L74.4302 16.4369Z" fill="#555555"/>
</svg>
