<svg width="75" height="23" viewBox="0 0 75 23" fill="none" xmlns="http://www.w3.org/2000/svg">
<path d="M40.9931 10.5181H37.5835V10.0408H38.5264V0.684277H37.5835V0.209281H41.32L44.525 7.5388L47.8547 0.209281H51.5912V0.684277H50.6482V10.0408H51.5912V10.5181H46.4791V10.0408H48.1439V1.11695L44.0524 10.0408H43.1682L41.755 6.76282L39.3259 1.13341V10.0408H40.9908V10.5181H40.9931ZM36.8263 6.61467H36.1679C35.58 8.04907 35.0462 9.10017 34.6888 9.47641C34.3337 9.85264 33.7929 10.0408 33.0663 10.0408H29.4309V4.93102H30.9923C31.4861 4.93102 31.8694 5.06976 32.1422 5.34959C32.4055 5.60354 32.6336 6.07619 32.8288 6.76282C32.8476 6.82631 32.8641 6.8898 32.8805 6.95799H33.539V2.42906H32.8805C32.676 3.22386 32.422 3.7694 32.121 4.06804C31.86 4.3267 31.4838 4.45603 30.9923 4.45603H29.4309V0.684277H33.5178C34.0375 0.684277 34.4208 0.81831 34.6677 1.08638C34.9828 1.43439 35.4201 2.27857 35.9821 3.61891H36.6405V0.206929H26.0049V0.681925H26.9454V10.0384H25.671V10.5158H36.8263V6.61232V6.61467ZM16.4532 1.05816C16.646 0.808904 16.9682 0.684277 17.4197 0.684277H18.673V10.0408H17.0905V10.5181H22.7598V10.0408H21.1773V0.684277H22.4306C22.8821 0.684277 23.2043 0.808904 23.3947 1.05816C23.6416 1.38736 23.9779 2.22919 24.4012 3.59069H25.0596V0.209281H14.7884V3.59069H15.4468C15.87 2.23154 16.2063 1.38736 16.4532 1.05816ZM62.5913 5.36369C62.5913 3.79291 63.2145 2.49491 64.4607 1.46731C65.6529 0.489105 67.0967 0 68.7968 0C70.4969 0 71.9384 0.489105 73.1306 1.46731C74.3769 2.49491 75 3.79291 75 5.36369C75 6.93447 74.3769 8.23248 73.1306 9.26007C71.9384 10.2383 70.4946 10.7274 68.7968 10.7274C67.0991 10.7274 65.6529 10.2383 64.4607 9.26007C63.2145 8.23248 62.5913 6.93447 62.5913 5.36369ZM65.4272 5.36605C65.4272 7.2143 65.707 8.5076 66.269 9.24596C66.7769 9.91848 67.6188 10.2547 68.7968 10.2547C69.9749 10.2547 70.8167 9.91848 71.3223 9.24596C71.8843 8.5076 72.1641 7.21195 72.1641 5.36605C72.1641 3.52014 71.882 2.22684 71.3223 1.48613C70.8144 0.813607 69.9726 0.477348 68.7968 0.477348C67.6211 0.477348 66.7769 0.813607 66.269 1.48613C65.707 2.22684 65.4272 3.52014 65.4272 5.36605ZM57.5686 10.5158H52.1861V10.0384H53.1314V0.684277H52.1861V0.209281H57.1006C58.7584 0.209281 60.0658 0.463239 61.0229 0.968804C61.9258 1.46496 62.3797 2.12102 62.3797 2.93463C62.3797 3.74824 61.9423 4.39959 61.0652 4.85813C60.1458 5.34488 58.8337 5.58708 57.1218 5.58708H55.6192V10.0408H57.5709V10.5181L57.5686 10.5158ZM55.6169 5.10503H56.5669C57.7167 5.10503 58.5397 4.95219 59.0312 4.64415C59.525 4.3361 59.7719 3.7647 59.7719 2.92993C59.7719 1.42969 58.7655 0.679574 56.7526 0.679574H55.6192V5.10503H55.6169ZM0 5.36369C0 3.79291 0.623139 2.49491 1.86942 1.46731C3.06161 0.489105 4.50541 0 6.20552 0C7.90563 0 9.34708 0.489105 10.5393 1.46731C11.7855 2.49491 12.4087 3.79291 12.4087 5.36369C12.4087 6.93447 11.7855 8.23248 10.5393 9.26007C9.34708 10.2383 7.90328 10.7274 6.20552 10.7274C4.50776 10.7274 3.06161 10.2383 1.86942 9.26007C0.623139 8.23248 0 6.93447 0 5.36369ZM2.83587 5.36605C2.83587 7.2143 3.11569 8.5076 3.67769 9.24596C4.18326 9.91848 5.02743 10.2547 6.20317 10.2547C7.3789 10.2547 8.22308 9.91848 8.73099 9.24596C9.29299 8.50525 9.57282 7.21195 9.57282 5.36605C9.57282 3.52014 9.29064 2.22684 8.73099 1.48613C8.22308 0.813607 7.38125 0.477348 6.20317 0.477348C5.02508 0.477348 4.18326 0.813607 3.67769 1.48613C3.11569 2.22684 2.83587 3.52014 2.83587 5.36605Z" fill="#00542B"/>
<path d="M3.86703 18.269H6.42204V21.3025C6.05375 21.5721 5.6608 21.7678 5.24319 21.8894C4.82886 22.0111 4.39481 22.0719 3.94102 22.0719C3.34913 22.0719 2.80985 21.9799 2.32318 21.7957C1.8398 21.6083 1.42548 21.3518 1.0802 21.0263C0.734934 20.6974 0.468582 20.3094 0.281149 19.8622C0.0937164 19.4117 0 18.9234 0 18.3973C0 17.8613 0.088784 17.3697 0.266352 16.9225C0.44392 16.472 0.697118 16.084 1.02595 15.7584C1.35807 15.4329 1.75759 15.1797 2.22453 14.9988C2.69476 14.818 3.21924 14.7275 3.79798 14.7275C4.09721 14.7275 4.37836 14.7522 4.64143 14.8015C4.90449 14.8508 5.14618 14.9183 5.3665 15.0038C5.5901 15.0893 5.79397 15.1912 5.97812 15.3096C6.16226 15.4279 6.32668 15.5562 6.47136 15.6943L5.98798 16.4292C5.91235 16.5443 5.8137 16.615 5.69204 16.6413C5.57366 16.6676 5.44542 16.638 5.30731 16.5525C5.17578 16.4736 5.05082 16.4062 4.93244 16.3503C4.81735 16.2911 4.69897 16.2434 4.57731 16.2073C4.45564 16.1711 4.3274 16.1448 4.19258 16.1284C4.05776 16.1119 3.90649 16.1037 3.73879 16.1037C3.4264 16.1037 3.14525 16.1596 2.89534 16.2714C2.64543 16.3799 2.43169 16.5345 2.25413 16.735C2.07985 16.9356 1.94503 17.1773 1.84967 17.4601C1.75431 17.7396 1.70662 18.052 1.70662 18.3973C1.70662 18.7787 1.75924 19.1174 1.86446 19.4134C1.96969 19.7093 2.11766 19.9592 2.30838 20.1631C2.50239 20.367 2.73257 20.5232 2.99892 20.6317C3.26856 20.7369 3.56616 20.7895 3.8917 20.7895C4.09228 20.7895 4.27314 20.7698 4.43427 20.7303C4.59868 20.6909 4.75816 20.6382 4.91271 20.5725V19.4824H4.20244C4.09721 19.4824 4.01501 19.4545 3.95582 19.3986C3.89663 19.3427 3.86703 19.272 3.86703 19.1865V18.269Z" fill="#555555"/>
<path d="M11.2353 19.2457L10.5694 17.2776C10.5201 17.1527 10.4674 17.0063 10.4115 16.8386C10.3556 16.6676 10.2997 16.4835 10.2438 16.2862C10.1945 16.4868 10.1419 16.6726 10.086 16.8436C10.0301 17.0145 9.97748 17.1625 9.92816 17.2875L9.26721 19.2457H11.2353ZM13.884 21.993H12.5917C12.447 21.993 12.3303 21.9601 12.2415 21.8944C12.1527 21.8253 12.0853 21.7382 12.0392 21.633L11.6151 20.3801H8.88248L8.45829 21.633C8.42212 21.725 8.35635 21.8089 8.26099 21.8845C8.16892 21.9569 8.05383 21.993 7.91572 21.993H6.61356L9.39545 14.8065H11.1021L13.884 21.993Z" fill="#555555"/>
<path d="M18.4212 16.2665C18.3719 16.3454 18.3193 16.4046 18.2634 16.444C18.2108 16.4835 18.1417 16.5032 18.0562 16.5032C17.9806 16.5032 17.8984 16.4802 17.8096 16.4342C17.7241 16.3848 17.6254 16.3306 17.5136 16.2714C17.4051 16.2122 17.2802 16.1596 17.1388 16.1136C16.9974 16.0642 16.8362 16.0396 16.6554 16.0396C16.343 16.0396 16.1095 16.107 15.955 16.2418C15.8037 16.3733 15.7281 16.5525 15.7281 16.7794C15.7281 16.9241 15.7741 17.0441 15.8662 17.1395C15.9583 17.2349 16.0783 17.3171 16.2263 17.3861C16.3775 17.4552 16.5485 17.5193 16.7392 17.5785C16.9333 17.6344 17.1305 17.6985 17.3311 17.7709C17.5317 17.8399 17.7274 17.9221 17.9181 18.0175C18.1121 18.1128 18.2831 18.2345 18.4311 18.3825C18.5823 18.5305 18.704 18.7113 18.7961 18.925C18.8881 19.1355 18.9342 19.3903 18.9342 19.6896C18.9342 20.0217 18.8766 20.3324 18.7615 20.6218C18.6465 20.9112 18.4788 21.1644 18.2584 21.3814C18.0414 21.5951 17.7718 21.7645 17.4495 21.8894C17.1306 22.0111 16.7672 22.0719 16.3594 22.0719C16.1358 22.0719 15.9073 22.0489 15.6738 22.0029C15.4437 21.9569 15.22 21.8927 15.003 21.8105C14.786 21.725 14.5821 21.6247 14.3914 21.5096C14.2007 21.3946 14.0346 21.2663 13.8932 21.1249L14.3865 20.3456C14.4259 20.2897 14.4769 20.2437 14.5394 20.2075C14.6051 20.168 14.6758 20.1483 14.7515 20.1483C14.8501 20.1483 14.9488 20.1795 15.0474 20.242C15.1494 20.3045 15.2628 20.3735 15.3878 20.4492C15.516 20.5248 15.6623 20.5939 15.8267 20.6563C15.9912 20.7188 16.1852 20.75 16.4088 20.75C16.7113 20.75 16.9464 20.6843 17.1141 20.5528C17.2818 20.4179 17.3657 20.2058 17.3657 19.9165C17.3657 19.7488 17.3196 19.6123 17.2276 19.5071C17.1355 19.4018 17.0138 19.3147 16.8626 19.2457C16.7146 19.1766 16.5452 19.1158 16.3545 19.0632C16.1638 19.0105 15.9681 18.953 15.7676 18.8905C15.567 18.8248 15.3713 18.7458 15.1806 18.6538C14.9899 18.5584 14.8189 18.4351 14.6676 18.2838C14.5196 18.1293 14.3996 17.9386 14.3075 17.7117C14.2155 17.4815 14.1694 17.1987 14.1694 16.8633C14.1694 16.5936 14.2237 16.3306 14.3322 16.0741C14.4407 15.8176 14.6002 15.5891 14.8107 15.3885C15.0211 15.1879 15.2792 15.0284 15.5851 14.91C15.8909 14.7884 16.2411 14.7275 16.6357 14.7275C16.856 14.7275 17.0697 14.7456 17.2769 14.7818C17.4873 14.8147 17.6863 14.8656 17.8737 14.9347C18.0611 15.0005 18.2354 15.081 18.3965 15.1764C18.561 15.2685 18.7073 15.3737 18.8355 15.4921L18.4212 16.2665Z" fill="#555555"/>
<path d="M25.0771 16.1284H23.0548V21.993H21.3877V16.1284H19.3654V14.8065H25.0771V16.1284Z" fill="#555555"/>
<path d="M28.2623 18.1852C28.4892 18.1852 28.6815 18.1572 28.8394 18.1013C29.0005 18.0421 29.132 17.9616 29.234 17.8596C29.3359 17.7577 29.4099 17.6393 29.4559 17.5045C29.502 17.3664 29.525 17.2184 29.525 17.0606C29.525 16.7449 29.4214 16.4983 29.2142 16.3207C29.0104 16.1431 28.693 16.0544 28.2623 16.0544H27.5915V18.1852H28.2623ZM31.8038 21.993H30.2944C30.0149 21.993 29.8143 21.8878 29.6927 21.6773L28.499 19.5909C28.4431 19.5021 28.3807 19.438 28.3116 19.3986C28.2425 19.3558 28.1439 19.3344 28.0157 19.3344H27.5915V21.993H25.9243V14.8065H28.2623C28.7818 14.8065 29.2241 14.8607 29.5891 14.9692C29.9574 15.0745 30.2566 15.2224 30.4868 15.4131C30.7203 15.6039 30.8896 15.8291 30.9948 16.0889C31.1001 16.3487 31.1527 16.6315 31.1527 16.9373C31.1527 17.1707 31.1214 17.3911 31.059 17.5982C30.9965 17.8054 30.9044 17.9977 30.7828 18.1753C30.6611 18.3496 30.5098 18.5058 30.329 18.6439C30.1514 18.782 29.9459 18.8955 29.7124 18.9842C29.8209 19.0401 29.9229 19.1108 30.0182 19.1963C30.1136 19.2785 30.1991 19.3772 30.2747 19.4923L31.8038 21.993Z" fill="#555555"/>
<path d="M39.3359 18.3973C39.3359 18.9168 39.2455 19.4002 39.0646 19.8474C38.8871 20.2946 38.6355 20.6843 38.31 21.0164C37.9844 21.3452 37.5915 21.6034 37.1311 21.7908C36.674 21.9782 36.166 22.0719 35.607 22.0719C35.048 22.0719 34.5383 21.9782 34.0779 21.7908C33.6176 21.6034 33.223 21.3452 32.8941 21.0164C32.5686 20.6843 32.3154 20.2946 32.1345 19.8474C31.957 19.4002 31.8682 18.9168 31.8682 18.3973C31.8682 17.8777 31.957 17.3943 32.1345 16.9471C32.3154 16.4999 32.5686 16.1119 32.8941 15.7831C33.223 15.4543 33.6176 15.1961 34.0779 15.0087C34.5383 14.8213 35.048 14.7275 35.607 14.7275C36.166 14.7275 36.674 14.8229 37.1311 15.0136C37.5915 15.2011 37.9844 15.4592 38.31 15.788C38.6355 16.1168 38.8871 16.5049 39.0646 16.9521C39.2455 17.3993 39.3359 17.881 39.3359 18.3973ZM37.6293 18.3973C37.6293 18.0421 37.5833 17.7232 37.4912 17.4404C37.3991 17.1543 37.2659 16.9126 37.0917 16.7153C36.9207 16.518 36.7102 16.3668 36.4603 16.2615C36.2104 16.1563 35.926 16.1037 35.607 16.1037C35.2847 16.1037 34.997 16.1563 34.7438 16.2615C34.4939 16.3668 34.2818 16.518 34.1075 16.7153C33.9365 16.9126 33.805 17.1543 33.7129 17.4404C33.6209 17.7232 33.5748 18.0421 33.5748 18.3973C33.5748 18.7557 33.6209 19.078 33.7129 19.364C33.805 19.6468 33.9365 19.8869 34.1075 20.0842C34.2818 20.2815 34.4939 20.4327 34.7438 20.538C34.997 20.6399 35.2847 20.6909 35.607 20.6909C35.926 20.6909 36.2104 20.6399 36.4603 20.538C36.7102 20.4327 36.9207 20.2815 37.0917 20.0842C37.2659 19.8869 37.3991 19.6468 37.4912 19.364C37.5833 19.078 37.6293 18.7557 37.6293 18.3973Z" fill="#555555"/>
<path d="M46.5911 14.8065V21.993H45.723C45.5947 21.993 45.4862 21.9733 45.3974 21.9338C45.3119 21.8911 45.2264 21.8187 45.1409 21.7168L41.7523 17.4305C41.7655 17.5588 41.7737 17.6837 41.777 17.8054C41.7836 17.9238 41.7869 18.0356 41.7869 18.1408V21.993H40.317V14.8065H41.195C41.2673 14.8065 41.3282 14.8097 41.3775 14.8163C41.4268 14.8229 41.4712 14.8361 41.5107 14.8558C41.5501 14.8722 41.5879 14.8969 41.6241 14.9298C41.6603 14.9627 41.7014 15.007 41.7474 15.0629L45.1656 19.3788C45.1492 19.2407 45.1376 19.1075 45.1311 18.9793C45.1245 18.8478 45.1212 18.7245 45.1212 18.6094V14.8065H46.5911Z" fill="#555555"/>
<path d="M55.0388 18.3973C55.0388 18.9168 54.9484 19.4002 54.7675 19.8474C54.59 20.2946 54.3384 20.6843 54.0129 21.0164C53.6873 21.3452 53.2944 21.6034 52.834 21.7908C52.3769 21.9782 51.8689 22.0719 51.3099 22.0719C50.7509 22.0719 50.2412 21.9782 49.7808 21.7908C49.3205 21.6034 48.9259 21.3452 48.597 21.0164C48.2715 20.6843 48.0183 20.2946 47.8374 19.8474C47.6599 19.4002 47.5711 18.9168 47.5711 18.3973C47.5711 17.8777 47.6599 17.3943 47.8374 16.9471C48.0183 16.4999 48.2715 16.1119 48.597 15.7831C48.9259 15.4543 49.3205 15.1961 49.7808 15.0087C50.2412 14.8213 50.7509 14.7275 51.3099 14.7275C51.8689 14.7275 52.3769 14.8229 52.834 15.0136C53.2944 15.2011 53.6873 15.4592 54.0129 15.788C54.3384 16.1168 54.59 16.5049 54.7675 16.9521C54.9484 17.3993 55.0388 17.881 55.0388 18.3973ZM53.3322 18.3973C53.3322 18.0421 53.2861 17.7232 53.1941 17.4404C53.102 17.1543 52.9688 16.9126 52.7945 16.7153C52.6236 16.518 52.4131 16.3668 52.1632 16.2615C51.9133 16.1563 51.6288 16.1037 51.3099 16.1037C50.9876 16.1037 50.6999 16.1563 50.4467 16.2615C50.1968 16.3668 49.9847 16.518 49.8104 16.7153C49.6394 16.9126 49.5079 17.1543 49.4158 17.4404C49.3237 17.7232 49.2777 18.0421 49.2777 18.3973C49.2777 18.7557 49.3237 19.078 49.4158 19.364C49.5079 19.6468 49.6394 19.8869 49.8104 20.0842C49.9847 20.2815 50.1968 20.4327 50.4467 20.538C50.6999 20.6399 50.9876 20.6909 51.3099 20.6909C51.6288 20.6909 51.9133 20.6399 52.1632 20.538C52.4131 20.4327 52.6236 20.2815 52.7945 20.0842C52.9688 19.8869 53.102 19.6468 53.1941 19.364C53.2861 19.078 53.3322 18.7557 53.3322 18.3973Z" fill="#555555"/>
<path d="M64.0992 14.8065V21.993H62.6294V17.8596C62.6294 17.7643 62.631 17.6607 62.6343 17.5489C62.6409 17.4371 62.6507 17.3236 62.6639 17.2086L60.755 20.903C60.6959 21.018 60.6153 21.1052 60.5134 21.1644C60.4147 21.2236 60.3013 21.2532 60.173 21.2532H59.9461C59.8179 21.2532 59.7028 21.2236 59.6008 21.1644C59.5022 21.1052 59.4233 21.018 59.3641 20.903L57.4552 17.1987C57.4651 17.3171 57.4733 17.4338 57.4799 17.5489C57.4865 17.6607 57.4898 17.7643 57.4898 17.8596V21.993H56.0199V14.8065H57.2925C57.3648 14.8065 57.4273 14.8081 57.4799 14.8114C57.5358 14.8147 57.5851 14.8245 57.6279 14.841C57.6706 14.8574 57.7084 14.8837 57.7413 14.9199C57.7775 14.9528 57.812 15.0005 57.8449 15.0629L59.6946 18.708C59.7603 18.833 59.8228 18.9629 59.882 19.0977C59.9445 19.2325 60.0037 19.3706 60.0596 19.512C60.1155 19.3673 60.173 19.2259 60.2322 19.0878C60.2947 18.9497 60.3604 18.8182 60.4295 18.6932L62.2742 15.0629C62.3071 15.0005 62.34 14.9528 62.3729 14.9199C62.409 14.8837 62.4485 14.8574 62.4913 14.841C62.534 14.8245 62.5817 14.8147 62.6343 14.8114C62.6902 14.8081 62.7543 14.8065 62.8267 14.8065H64.0992Z" fill="#555555"/>
<path d="M67.1668 21.993H65.4898V14.8065H67.1668V21.993Z" fill="#555555"/>
<path d="M72.3513 19.2457L71.6854 17.2776C71.6361 17.1527 71.5835 17.0063 71.5276 16.8386C71.4717 16.6676 71.4158 16.4835 71.3599 16.2862C71.3105 16.4868 71.2579 16.6726 71.202 16.8436C71.1461 17.0145 71.0935 17.1625 71.0442 17.2875L70.3832 19.2457H72.3513ZM75 21.993H73.7077C73.563 21.993 73.4463 21.9601 73.3575 21.8944C73.2687 21.8253 73.2013 21.7382 73.1553 21.633L72.7311 20.3801H69.9985L69.5743 21.633C69.5381 21.725 69.4724 21.8089 69.377 21.8845C69.285 21.9569 69.1699 21.993 69.0318 21.993H67.7296L70.5115 14.8065H72.2181L75 21.993Z" fill="#555555"/>
</svg>
