<svg width="75" height="27" viewBox="0 0 75 27" fill="none" xmlns="http://www.w3.org/2000/svg">
<path d="M40.9931 10.5181H37.5835V10.0408H38.5264V0.684277H37.5835V0.209281H41.32L44.525 7.5388L47.8547 0.209281H51.5912V0.684277H50.6482V10.0408H51.5912V10.5181H46.4791V10.0408H48.1439V1.11695L44.0524 10.0408H43.1682L41.755 6.76282L39.3259 1.13341V10.0408H40.9908V10.5181H40.9931ZM36.8263 6.61467H36.1679C35.58 8.04907 35.0462 9.10017 34.6888 9.47641C34.3337 9.85264 33.7929 10.0408 33.0663 10.0408H29.4309V4.93102H30.9923C31.4861 4.93102 31.8694 5.06976 32.1422 5.34959C32.4055 5.60354 32.6336 6.07619 32.8288 6.76282C32.8476 6.82631 32.8641 6.8898 32.8805 6.95799H33.539V2.42906H32.8805C32.676 3.22386 32.422 3.7694 32.121 4.06804C31.86 4.3267 31.4838 4.45603 30.9923 4.45603H29.4309V0.684277H33.5178C34.0375 0.684277 34.4208 0.81831 34.6677 1.08638C34.9828 1.43439 35.4201 2.27857 35.9821 3.61891H36.6405V0.206929H26.0049V0.681925H26.9454V10.0384H25.671V10.5158H36.8263V6.61232V6.61467ZM16.4532 1.05816C16.646 0.808904 16.9682 0.684277 17.4197 0.684277H18.673V10.0408H17.0905V10.5181H22.7598V10.0408H21.1773V0.684277H22.4306C22.8821 0.684277 23.2043 0.808904 23.3947 1.05816C23.6416 1.38736 23.9779 2.22919 24.4012 3.59069H25.0596V0.209281H14.7884V3.59069H15.4468C15.87 2.23154 16.2063 1.38736 16.4532 1.05816ZM62.5913 5.36369C62.5913 3.79291 63.2145 2.49491 64.4607 1.46731C65.6529 0.489105 67.0967 0 68.7968 0C70.4969 0 71.9384 0.489105 73.1306 1.46731C74.3769 2.49491 75 3.79291 75 5.36369C75 6.93447 74.3769 8.23248 73.1306 9.26007C71.9384 10.2383 70.4946 10.7274 68.7968 10.7274C67.0991 10.7274 65.6529 10.2383 64.4607 9.26007C63.2145 8.23248 62.5913 6.93447 62.5913 5.36369ZM65.4272 5.36605C65.4272 7.2143 65.707 8.5076 66.269 9.24596C66.7769 9.91848 67.6188 10.2547 68.7968 10.2547C69.9749 10.2547 70.8167 9.91848 71.3223 9.24596C71.8843 8.5076 72.1641 7.21195 72.1641 5.36605C72.1641 3.52014 71.882 2.22684 71.3223 1.48613C70.8144 0.813607 69.9726 0.477348 68.7968 0.477348C67.6211 0.477348 66.7769 0.813607 66.269 1.48613C65.707 2.22684 65.4272 3.52014 65.4272 5.36605ZM57.5686 10.5158H52.1861V10.0384H53.1314V0.684277H52.1861V0.209281H57.1006C58.7584 0.209281 60.0658 0.463239 61.0229 0.968804C61.9258 1.46496 62.3797 2.12102 62.3797 2.93463C62.3797 3.74824 61.9423 4.39959 61.0652 4.85813C60.1458 5.34488 58.8337 5.58708 57.1218 5.58708H55.6192V10.0408H57.5709V10.5181L57.5686 10.5158ZM55.6169 5.10503H56.5669C57.7167 5.10503 58.5397 4.95219 59.0312 4.64415C59.525 4.3361 59.7719 3.7647 59.7719 2.92993C59.7719 1.42969 58.7655 0.679574 56.7526 0.679574H55.6192V5.10503H55.6169ZM0 5.36369C0 3.79291 0.623139 2.49491 1.86942 1.46731C3.06161 0.489105 4.50541 0 6.20552 0C7.90563 0 9.34708 0.489105 10.5393 1.46731C11.7855 2.49491 12.4087 3.79291 12.4087 5.36369C12.4087 6.93447 11.7855 8.23248 10.5393 9.26007C9.34708 10.2383 7.90328 10.7274 6.20552 10.7274C4.50776 10.7274 3.06161 10.2383 1.86942 9.26007C0.623139 8.23248 0 6.93447 0 5.36369ZM2.83587 5.36605C2.83587 7.2143 3.11569 8.5076 3.67769 9.24596C4.18326 9.91848 5.02743 10.2547 6.20317 10.2547C7.3789 10.2547 8.22308 9.91848 8.73099 9.24596C9.29299 8.50525 9.57282 7.21195 9.57282 5.36605C9.57282 3.52014 9.29064 2.22684 8.73099 1.48613C8.22308 0.813607 7.38125 0.477348 6.20317 0.477348C5.02508 0.477348 4.18326 0.813607 3.67769 1.48613C3.11569 2.22684 2.83587 3.52014 2.83587 5.36605Z" fill="#00542B"/>
<path d="M38.2826 12.0796L35.6778 13.8647C35.6133 13.9088 35.5517 13.9446 35.493 13.9722C35.4402 13.9997 35.3845 14.0217 35.3258 14.0383C35.273 14.0548 35.2144 14.0658 35.1498 14.0713C35.0912 14.0768 35.0208 14.0796 34.9386 14.0796H33.2314L34.9562 12.4102C35.0266 12.3441 35.0912 12.289 35.1498 12.2449C35.2144 12.2008 35.2789 12.1677 35.3434 12.1457C35.408 12.1182 35.4813 12.1016 35.5634 12.0961C35.6456 12.0851 35.7453 12.0796 35.8626 12.0796H38.2826Z" fill="#555555"/>
<path d="M4.26927 20.4755C5.00019 20.4755 5.52624 20.301 5.8474 19.9522C6.16856 19.6033 6.32915 19.1161 6.32915 18.4903C6.32915 18.2135 6.28762 17.9615 6.20456 17.7345C6.1215 17.5075 5.99414 17.3137 5.82248 17.1531C5.65636 16.987 5.44318 16.8596 5.18292 16.771C4.92821 16.6824 4.62365 16.6381 4.26927 16.6381H2.80742V20.4755H4.26927ZM4.26927 14.5367C5.12201 14.5367 5.85294 14.6391 6.46204 14.844C7.07668 15.0434 7.58058 15.3202 7.97373 15.6746C8.37241 16.029 8.66589 16.4471 8.85416 16.9288C9.04243 17.4106 9.13656 17.9311 9.13656 18.4903C9.13656 19.0939 9.03966 19.6476 8.84585 20.1515C8.65205 20.6554 8.3558 21.0873 7.95711 21.4473C7.55843 21.8072 7.05176 22.0896 6.43712 22.2945C5.82802 22.4938 5.1054 22.5935 4.26927 22.5935H2.80742V26.6385H0V14.5367H4.26927Z" fill="#555555"/>
<path d="M22.4384 20.5834C22.4384 21.4583 22.2862 22.2723 21.9816 23.0254C21.6826 23.7785 21.259 24.4346 20.7108 24.9939C20.1626 25.5476 19.5009 25.9823 18.7257 26.2979C17.956 26.6136 17.1005 26.7714 16.1591 26.7714C15.2178 26.7714 14.3595 26.6136 13.5843 26.2979C12.8091 25.9823 12.1446 25.5476 11.5908 24.9939C11.0427 24.4346 10.6163 23.7785 10.3117 23.0254C10.0127 22.2723 9.8632 21.4583 9.8632 20.5834C9.8632 19.7086 10.0127 18.8946 10.3117 18.1415C10.6163 17.3884 11.0427 16.735 11.5908 16.1813C12.1446 15.6276 12.8091 15.1929 13.5843 14.8772C14.3595 14.5616 15.2178 14.4038 16.1591 14.4038C17.1005 14.4038 17.956 14.5644 18.7257 14.8856C19.5009 15.2012 20.1626 15.6359 20.7108 16.1896C21.259 16.7433 21.6826 17.3967 21.9816 18.1498C22.2862 18.9029 22.4384 19.7141 22.4384 20.5834ZM19.5646 20.5834C19.5646 19.9854 19.487 19.4483 19.332 18.9721C19.177 18.4903 18.9527 18.0834 18.6592 17.7511C18.3713 17.4189 18.0169 17.1642 17.5961 16.987C17.1752 16.8098 16.6962 16.7212 16.1591 16.7212C15.6165 16.7212 15.132 16.8098 14.7056 16.987C14.2847 17.1642 13.9276 17.4189 13.6341 17.7511C13.3462 18.0834 13.1247 18.4903 12.9696 18.9721C12.8146 19.4483 12.7371 19.9854 12.7371 20.5834C12.7371 21.187 12.8146 21.7297 12.9696 22.2114C13.1247 22.6876 13.3462 23.0918 13.6341 23.4241C13.9276 23.7563 14.2847 24.011 14.7056 24.1882C15.132 24.3599 15.6165 24.4457 16.1591 24.4457C16.6962 24.4457 17.1752 24.3599 17.5961 24.1882C18.0169 24.011 18.3713 23.7563 18.6592 23.4241C18.9527 23.0918 19.177 22.6876 19.332 22.2114C19.487 21.7297 19.5646 21.187 19.5646 20.5834Z" fill="#555555"/>
<path d="M31.3832 24.3959V26.6385H24.0905V14.5367H26.898V24.3959H31.3832Z" fill="#555555"/>
<path d="M35.6423 26.6385H32.8183V14.5367H35.6423V26.6385Z" fill="#555555"/>
<path d="M46.6734 16.7627H43.268V26.6385H40.4606V16.7627H37.0551V14.5367H46.6734V16.7627Z" fill="#555555"/>
<path d="M50.924 26.6385H48.1V14.5367H50.924V26.6385Z" fill="#555555"/>
<path d="M61.4152 23.5071C61.4817 23.5071 61.5481 23.521 61.6146 23.5487C61.681 23.5708 61.7447 23.6124 61.8056 23.6733L62.9186 24.8444C62.4313 25.4812 61.8194 25.9629 61.083 26.2896C60.352 26.6108 59.4855 26.7714 58.4832 26.7714C57.564 26.7714 56.7389 26.6163 56.008 26.3063C55.2826 25.9906 54.6652 25.5587 54.1558 25.0105C53.6519 24.4568 53.2643 23.8034 52.993 23.0503C52.7216 22.2917 52.586 21.4694 52.586 20.5834C52.586 19.6809 52.7327 18.853 53.0262 18.1C53.3197 17.3414 53.7322 16.6879 54.2638 16.1398C54.7954 15.5916 55.4321 15.1652 56.1741 14.8606C56.9161 14.5561 57.7329 14.4038 58.6244 14.4038C59.0785 14.4038 59.5048 14.4453 59.9035 14.5284C60.3077 14.6059 60.6843 14.7167 61.0331 14.8606C61.382 14.9991 61.7031 15.168 61.9966 15.3673C62.2901 15.5666 62.5504 15.7826 62.7774 16.0152L61.8305 17.286C61.7696 17.3635 61.6976 17.4355 61.6146 17.5019C61.5315 17.5628 61.4152 17.5933 61.2657 17.5933C61.166 17.5933 61.0719 17.5711 60.9833 17.5269C60.8947 17.4826 60.8006 17.4299 60.7009 17.369C60.6012 17.3026 60.4905 17.2334 60.3687 17.1614C60.2524 17.0839 60.1112 17.0146 59.945 16.9537C59.7845 16.8873 59.5934 16.8319 59.3719 16.7876C59.156 16.7433 58.9013 16.7212 58.6078 16.7212C58.1427 16.7212 57.7163 16.807 57.3287 16.9787C56.9466 17.1503 56.6144 17.4023 56.332 17.7345C56.0551 18.0612 55.8391 18.4654 55.6841 18.9472C55.5346 19.4234 55.4598 19.9688 55.4598 20.5834C55.4598 21.2036 55.5429 21.7546 55.709 22.2363C55.8807 22.7181 56.1105 23.1251 56.3984 23.4573C56.6919 23.784 57.0324 24.0332 57.42 24.2048C57.8076 24.3765 58.2229 24.4623 58.6659 24.4623C58.9206 24.4623 59.1532 24.4513 59.3636 24.4291C59.5741 24.4014 59.7706 24.3599 59.9534 24.3045C60.1361 24.2436 60.3077 24.1661 60.4683 24.072C60.6289 23.9723 60.7923 23.8477 60.9584 23.6982C61.0248 23.6428 61.0968 23.5985 61.1743 23.5653C61.2519 23.5265 61.3321 23.5071 61.4152 23.5071Z" fill="#555555"/>
<path d="M70.5397 22.0121L69.4184 18.698C69.3353 18.4876 69.2467 18.2412 69.1526 17.9588C69.0585 17.6708 68.9643 17.3607 68.8702 17.0285C68.7871 17.3663 68.6985 17.6791 68.6044 17.9671C68.5103 18.255 68.4217 18.5042 68.3386 18.7146L67.2256 22.0121H70.5397ZM75 26.6385H72.8238C72.5802 26.6385 72.3836 26.5831 72.2341 26.4724C72.0846 26.3561 71.9711 26.2094 71.8936 26.0322L71.1793 23.9224H66.5778L65.8634 26.0322C65.8025 26.1872 65.6918 26.3284 65.5312 26.4558C65.3762 26.5776 65.1824 26.6385 64.9498 26.6385H62.757L67.4416 14.5367H70.3154L75 26.6385Z" fill="#555555"/>
</svg>
