<svg width="434" height="32" viewBox="0 0 434 32" fill="none" xmlns="http://www.w3.org/2000/svg">
<path d="M122.283 31.3757H112.112V29.9518H114.925V2.04121H112.112V0.624288H123.258L132.819 22.4884L142.751 0.624288H153.897V2.04121H151.085V29.9518H153.897V31.3757H138.648V29.9518H143.614V3.33187L131.409 29.9518H128.772L124.556 20.1736L117.31 3.38097V29.9518H122.276V31.3757H122.283ZM109.854 19.7317H107.89C106.136 24.0105 104.544 27.146 103.477 28.2683C102.418 29.3906 100.805 29.9518 98.6374 29.9518H87.7931V14.7093H92.4507C93.9237 14.7093 95.0671 15.1232 95.8808 15.9579C96.6664 16.7155 97.3468 18.1254 97.929 20.1736C97.9851 20.363 98.0342 20.5524 98.0833 20.7558H100.047V7.24595H98.0833C97.473 9.61684 96.7155 11.2442 95.8176 12.135C95.039 12.9066 93.9167 13.2924 92.4507 13.2924H87.7931V2.04121H99.9842C101.534 2.04121 102.678 2.44104 103.414 3.24068C104.354 4.27883 105.659 6.79702 107.335 10.7953H109.299V0.617273H77.573V2.0342H80.3788V29.9448H76.5769V31.3687H109.854V19.7247V19.7317ZM49.0802 3.15651C49.6554 2.41298 50.6164 2.04121 51.9632 2.04121H55.7019V29.9518H50.9811V31.3757H67.893V29.9518H63.1723V2.04121H66.911C68.2578 2.04121 69.2188 2.41298 69.7869 3.15651C70.5235 4.13854 71.5265 6.64972 72.7891 10.7111H74.7532V0.624288H44.114V10.7111H46.078C47.3406 6.65673 48.3437 4.13854 49.0802 3.15651ZM186.711 16C186.711 11.3143 188.57 7.44235 192.288 4.37703C195.844 1.45901 200.151 0 205.222 0C210.294 0 214.594 1.45901 218.15 4.37703C221.868 7.44235 223.726 11.3143 223.726 16C223.726 20.6857 221.868 24.5576 218.15 27.623C214.594 30.541 210.287 32 205.222 32C200.158 32 195.844 30.541 192.288 27.623C188.57 24.5576 186.711 20.6857 186.711 16ZM195.171 16.007C195.171 21.5204 196.005 25.3783 197.682 27.5809C199.197 29.587 201.708 30.5901 205.222 30.5901C208.737 30.5901 211.248 29.587 212.756 27.5809C214.432 25.3783 215.267 21.5134 215.267 16.007C215.267 10.5007 214.425 6.6427 212.756 4.43314C211.241 2.42701 208.73 1.42394 205.222 1.42394C201.715 1.42394 199.197 2.42701 197.682 4.43314C196.005 6.6427 195.171 10.5007 195.171 16.007ZM171.728 31.3687H155.672V29.9448H158.492V2.04121H155.672V0.624288H170.332C175.277 0.624288 179.178 1.38185 182.032 2.88996C184.726 4.37001 186.08 6.32705 186.08 8.75406C186.08 11.1811 184.775 13.1241 182.159 14.4919C179.416 15.9439 175.502 16.6664 170.395 16.6664H165.913V29.9518H171.735V31.3757L171.728 31.3687ZM165.906 15.2284H168.74C172.17 15.2284 174.625 14.7725 176.091 13.8536C177.564 12.9347 178.301 11.2302 178.301 8.74003C178.301 4.2648 175.299 2.02718 169.294 2.02718H165.913V15.2284H165.906ZM0 16C0 11.3143 1.85883 7.44235 5.5765 4.37703C9.13284 1.45901 13.4397 0 18.5112 0C23.5826 0 27.8825 1.45901 31.4388 4.37703C35.1565 7.44235 37.0153 11.3143 37.0153 16C37.0153 20.6857 35.1565 24.5576 31.4388 27.623C27.8825 30.541 23.5756 32 18.5112 32C13.4467 32 9.13284 30.541 5.5765 27.623C1.85883 24.5576 0 20.6857 0 16ZM8.45945 16.007C8.45945 21.5204 9.29417 25.3783 10.9706 27.5809C12.4787 29.587 14.9969 30.5901 18.5042 30.5901C22.0114 30.5901 24.5296 29.587 26.0447 27.5809C27.7212 25.3713 28.5559 21.5134 28.5559 16.007C28.5559 10.5007 27.7142 6.6427 26.0447 4.43314C24.5296 2.42701 22.0184 1.42394 18.5042 1.42394C14.9899 1.42394 12.4787 2.42701 10.9706 4.43314C9.29417 6.6427 8.45945 10.5007 8.45945 16.007Z" fill="#00542B"/>
<rect x="231.727" width="1" height="32" fill="#C4C4C4"/>
<path d="M265.613 6.10343H256.802V31.6561H249.538V6.10343H240.727V0.343856H265.613V6.10343Z" fill="#555555"/>
<path d="M281.511 25.9181C282.485 25.9181 283.352 25.7605 284.111 25.4453C284.885 25.1157 285.537 24.6501 286.067 24.0484C286.597 23.4466 286.998 22.7159 287.271 21.8563C287.557 20.9823 287.7 19.9937 287.7 18.8905V0.343856H294.964V18.8905C294.964 20.8104 294.649 22.5726 294.019 24.1773C293.403 25.782 292.514 27.1645 291.354 28.3251C290.193 29.4856 288.782 30.3882 287.12 31.0329C285.458 31.6776 283.588 32 281.511 32C279.419 32 277.542 31.6776 275.88 31.0329C274.218 30.3882 272.807 29.4856 271.647 28.3251C270.486 27.1645 269.598 25.782 268.982 24.1773C268.366 22.5726 268.058 20.8104 268.058 18.8905V0.343856H275.322V18.869C275.322 19.9722 275.458 20.9608 275.73 21.8348C276.016 22.6944 276.425 23.4323 276.955 24.0484C277.485 24.6501 278.13 25.1157 278.889 25.4453C279.663 25.7605 280.537 25.9181 281.511 25.9181Z" fill="#555555"/>
<path d="M309.966 15.0651C310.955 15.0651 311.793 14.9434 312.48 14.6998C313.182 14.4419 313.756 14.0909 314.2 13.6467C314.644 13.2026 314.966 12.6868 315.167 12.0994C315.367 11.4976 315.468 10.8529 315.468 10.1652C315.468 8.78979 315.016 7.71524 314.114 6.94157C313.225 6.1679 311.843 5.78106 309.966 5.78106H307.043V15.0651H309.966ZM325.396 31.6561H318.82C317.602 31.6561 316.728 31.1977 316.198 30.2807L310.998 21.1901C310.754 20.8032 310.482 20.5238 310.181 20.3519C309.88 20.1657 309.45 20.0725 308.891 20.0725H307.043V31.6561H299.779V0.343856H309.966C312.23 0.343856 314.157 0.580256 315.747 1.05306C317.352 1.51153 318.655 2.15626 319.658 2.98724C320.676 3.81822 321.413 4.79964 321.872 5.9315C322.33 7.06335 322.56 8.2955 322.56 9.62794C322.56 10.6452 322.424 11.6051 322.151 12.5077C321.879 13.4103 321.478 14.2485 320.948 15.0222C320.418 15.7815 319.759 16.4621 318.971 17.0638C318.197 17.6655 317.302 18.1598 316.284 18.5467C316.757 18.7902 317.201 19.0983 317.617 19.4708C318.032 19.829 318.405 20.2588 318.734 20.7602L325.396 31.6561Z" fill="#555555"/>
<path d="M334.475 31.6561H327.168V0.343856H334.475V31.6561Z" fill="#555555"/>
<path d="M356.957 6.70517C356.742 7.04903 356.513 7.30692 356.269 7.47885C356.04 7.65077 355.739 7.73674 355.367 7.73674C355.037 7.73674 354.679 7.63645 354.292 7.43586C353.92 7.22095 353.49 6.98455 353.003 6.72666C352.53 6.46877 351.985 6.23953 351.369 6.03895C350.753 5.82404 350.051 5.71659 349.263 5.71659C347.902 5.71659 346.885 6.0103 346.211 6.59772C345.552 7.17081 345.223 7.95165 345.223 8.94023C345.223 9.57063 345.423 10.0936 345.825 10.5091C346.226 10.9246 346.749 11.2827 347.393 11.5836C348.053 11.8845 348.798 12.1639 349.629 12.4218C350.474 12.6653 351.333 12.9447 352.207 13.2599C353.081 13.5608 353.934 13.919 354.765 14.3345C355.61 14.7499 356.355 15.2801 357 15.9248C357.659 16.5695 358.189 17.3575 358.59 18.2888C358.991 19.2057 359.192 20.3161 359.192 21.6199C359.192 23.0669 358.941 24.4209 358.44 25.6817C357.938 26.9425 357.208 28.0457 356.248 28.9913C355.302 29.9225 354.127 30.6604 352.723 31.2048C351.333 31.7349 349.75 32 347.974 32C346.999 32 346.004 31.8997 344.986 31.6991C343.984 31.4985 343.009 31.2192 342.064 30.861C341.118 30.4885 340.23 30.0515 339.399 29.55C338.568 29.0486 337.844 28.4898 337.228 27.8737L339.377 24.4782C339.549 24.2346 339.771 24.034 340.044 23.8764C340.33 23.7045 340.638 23.6185 340.968 23.6185C341.397 23.6185 341.827 23.7546 342.257 24.0269C342.701 24.2991 343.196 24.6 343.74 24.9295C344.299 25.259 344.936 25.5599 345.653 25.8321C346.369 26.1043 347.214 26.2404 348.189 26.2404C349.507 26.2404 350.531 25.9539 351.262 25.3808C351.993 24.7934 352.358 23.8693 352.358 22.6085C352.358 21.8778 352.157 21.2832 351.756 20.8247C351.355 20.3662 350.825 19.9866 350.166 19.6857C349.521 19.3848 348.783 19.1198 347.952 18.8905C347.121 18.6613 346.269 18.4106 345.395 18.1383C344.521 17.8518 343.668 17.5079 342.837 17.1068C342.006 16.6913 341.261 16.154 340.602 15.495C339.958 14.8216 339.435 13.9906 339.033 13.002C338.632 11.9991 338.432 10.767 338.432 9.30557C338.432 8.13074 338.668 6.98455 339.141 5.86702C339.614 4.7495 340.309 3.75375 341.226 2.87978C342.143 2.00582 343.267 1.31095 344.6 0.795163C345.932 0.265054 347.458 0 349.177 0C350.137 0 351.068 0.0788005 351.971 0.236401C352.888 0.379674 353.755 0.601746 354.571 0.902618C355.388 1.18916 356.147 1.54018 356.849 1.95567C357.566 2.35684 358.203 2.81531 358.762 3.33109L356.957 6.70517Z" fill="#555555"/>
<path d="M397.799 0.343856V31.6561H391.394V13.6467C391.394 13.2313 391.402 12.7799 391.416 12.2928C391.445 11.8057 391.488 11.3114 391.545 10.8099L383.228 26.9066C382.97 27.4081 382.619 27.7878 382.175 28.0457C381.745 28.3036 381.251 28.4325 380.692 28.4325H379.703C379.145 28.4325 378.643 28.3036 378.199 28.0457C377.769 27.7878 377.425 27.4081 377.167 26.9066L368.85 10.767C368.893 11.2827 368.929 11.7914 368.958 12.2928C368.987 12.7799 369.001 13.2313 369.001 13.6467V31.6561H362.597V0.343856H368.141C368.456 0.343856 368.729 0.351019 368.958 0.365345C369.201 0.379673 369.416 0.422655 369.603 0.494292C369.789 0.565928 369.954 0.680546 370.097 0.838147C370.255 0.98142 370.405 1.18916 370.548 1.46138L378.607 17.3432C378.894 17.8876 379.166 18.4535 379.424 19.041C379.696 19.6284 379.954 20.2301 380.198 20.8462C380.441 20.2158 380.692 19.5997 380.95 18.998C381.222 18.3962 381.509 17.8231 381.81 17.2787L389.847 1.46138C389.99 1.18916 390.134 0.98142 390.277 0.838147C390.435 0.680546 390.606 0.565928 390.793 0.494292C390.979 0.422655 391.187 0.379673 391.416 0.365345C391.66 0.351019 391.939 0.343856 392.254 0.343856H397.799Z" fill="#555555"/>
<path d="M433.73 15.9893C433.73 18.253 433.336 20.3591 432.548 22.3076C431.774 24.2561 430.678 25.9539 429.26 27.4009C427.841 28.8337 426.129 29.9584 424.123 30.775C422.132 31.5917 419.918 32 417.483 32C415.047 32 412.826 31.5917 410.821 30.775C408.815 29.9584 407.096 28.8337 405.663 27.4009C404.244 25.9539 403.141 24.2561 402.353 22.3076C401.579 20.3591 401.193 18.253 401.193 15.9893C401.193 13.7255 401.579 11.6194 402.353 9.67092C403.141 7.72241 404.244 6.03179 405.663 4.59906C407.096 3.16633 408.815 2.04164 410.821 1.22498C412.826 0.408328 415.047 0 417.483 0C419.918 0 422.132 0.415491 424.123 1.24647C426.129 2.06313 427.841 3.18782 429.26 4.62055C430.678 6.05328 431.774 7.7439 432.548 9.69241C433.336 11.6409 433.73 13.7399 433.73 15.9893ZM426.294 15.9893C426.294 14.4419 426.093 13.0522 425.692 11.82C425.291 10.5735 424.711 9.52048 423.952 8.66085C423.207 7.80121 422.29 7.14215 421.201 6.68368C420.112 6.22521 418.873 5.99597 417.483 5.99597C416.079 5.99597 414.825 6.22521 413.722 6.68368C412.633 7.14215 411.709 7.80121 410.95 8.66085C410.205 9.52048 409.631 10.5735 409.23 11.82C408.829 13.0522 408.629 14.4419 408.629 15.9893C408.629 17.5509 408.829 18.955 409.23 20.2015C409.631 21.4336 410.205 22.4795 410.95 23.3392C411.709 24.1988 412.633 24.8578 413.722 25.3163C414.825 25.7605 416.079 25.9825 417.483 25.9825C418.873 25.9825 420.112 25.7605 421.201 25.3163C422.29 24.8578 423.207 24.1988 423.952 23.3392C424.711 22.4795 425.291 21.4336 425.692 20.2015C426.093 18.955 426.294 17.5509 426.294 15.9893Z" fill="#555555"/>
</svg>
