<svg width="381" height="32" viewBox="0 0 381 32" fill="none" xmlns="http://www.w3.org/2000/svg">
<path d="M122.283 31.3757H112.112V29.9518H114.925V2.04121H112.112V0.624288H123.258L132.819 22.4884L142.751 0.624288H153.897V2.04121H151.085V29.9518H153.897V31.3757H138.648V29.9518H143.614V3.33187L131.409 29.9518H128.772L124.556 20.1736L117.31 3.38097V29.9518H122.276V31.3757H122.283ZM109.854 19.7317H107.89C106.136 24.0105 104.544 27.146 103.477 28.2683C102.418 29.3906 100.805 29.9518 98.6374 29.9518H87.7931V14.7093H92.4507C93.9237 14.7093 95.0671 15.1232 95.8808 15.9579C96.6664 16.7155 97.3468 18.1254 97.929 20.1736C97.9851 20.363 98.0342 20.5524 98.0833 20.7558H100.047V7.24595H98.0833C97.473 9.61684 96.7155 11.2442 95.8176 12.135C95.039 12.9066 93.9167 13.2924 92.4507 13.2924H87.7931V2.04121H99.9842C101.534 2.04121 102.678 2.44104 103.414 3.24068C104.354 4.27883 105.659 6.79702 107.335 10.7953H109.299V0.617273H77.573V2.0342H80.3788V29.9448H76.5769V31.3687H109.854V19.7247V19.7317ZM49.0802 3.15651C49.6554 2.41298 50.6164 2.04121 51.9632 2.04121H55.7019V29.9518H50.9811V31.3757H67.893V29.9518H63.1723V2.04121H66.911C68.2578 2.04121 69.2188 2.41298 69.7869 3.15651C70.5235 4.13854 71.5265 6.64972 72.7891 10.7111H74.7532V0.624288H44.114V10.7111H46.078C47.3406 6.65673 48.3437 4.13854 49.0802 3.15651ZM186.711 16C186.711 11.3143 188.57 7.44235 192.288 4.37703C195.844 1.45901 200.151 0 205.222 0C210.294 0 214.594 1.45901 218.15 4.37703C221.868 7.44235 223.726 11.3143 223.726 16C223.726 20.6857 221.868 24.5576 218.15 27.623C214.594 30.541 210.287 32 205.222 32C200.158 32 195.844 30.541 192.288 27.623C188.57 24.5576 186.711 20.6857 186.711 16ZM195.171 16.007C195.171 21.5204 196.005 25.3783 197.682 27.5809C199.197 29.587 201.708 30.5901 205.222 30.5901C208.737 30.5901 211.248 29.587 212.756 27.5809C214.432 25.3783 215.267 21.5134 215.267 16.007C215.267 10.5007 214.425 6.6427 212.756 4.43314C211.241 2.42701 208.73 1.42394 205.222 1.42394C201.715 1.42394 199.197 2.42701 197.682 4.43314C196.005 6.6427 195.171 10.5007 195.171 16.007ZM171.728 31.3687H155.672V29.9448H158.492V2.04121H155.672V0.624288H170.332C175.277 0.624288 179.178 1.38185 182.032 2.88996C184.726 4.37001 186.08 6.32705 186.08 8.75406C186.08 11.1811 184.775 13.1241 182.159 14.4919C179.416 15.9439 175.502 16.6664 170.395 16.6664H165.913V29.9518H171.735V31.3757L171.728 31.3687ZM165.906 15.2284H168.74C172.17 15.2284 174.625 14.7725 176.091 13.8536C177.564 12.9347 178.301 11.2302 178.301 8.74003C178.301 4.2648 175.299 2.02718 169.294 2.02718H165.913V15.2284H165.906ZM0 16C0 11.3143 1.85883 7.44235 5.5765 4.37703C9.13284 1.45901 13.4397 0 18.5112 0C23.5826 0 27.8825 1.45901 31.4388 4.37703C35.1565 7.44235 37.0153 11.3143 37.0153 16C37.0153 20.6857 35.1565 24.5576 31.4388 27.623C27.8825 30.541 23.5756 32 18.5112 32C13.4467 32 9.13284 30.541 5.5765 27.623C1.85883 24.5576 0 20.6857 0 16ZM8.45945 16.007C8.45945 21.5204 9.29417 25.3783 10.9706 27.5809C12.4787 29.587 14.9969 30.5901 18.5042 30.5901C22.0114 30.5901 24.5296 29.587 26.0447 27.5809C27.7212 25.3713 28.5559 21.5134 28.5559 16.007C28.5559 10.5007 27.7142 6.6427 26.0447 4.43314C24.5296 2.42701 22.0184 1.42394 18.5042 1.42394C14.9899 1.42394 12.4787 2.42701 10.9706 4.43314C9.29417 6.6427 8.45945 10.5007 8.45945 16.007Z" fill="#00542B"/>
<rect x="231.727" width="1" height="32" fill="#C4C4C4"/>
<path d="M253.105 26.176C254.065 26.176 254.846 26.0542 255.448 25.8106C256.064 25.567 256.544 25.2518 256.888 24.865C257.232 24.4782 257.468 24.0412 257.597 23.5541C257.726 23.0669 257.79 22.5726 257.79 22.0712C257.79 21.4981 257.712 20.9823 257.554 20.5238C257.411 20.0654 257.153 19.6785 256.78 19.3633C256.422 19.0481 255.942 18.8046 255.34 18.6326C254.739 18.4607 253.979 18.3747 253.062 18.3747H247.99V26.176H253.105ZM247.99 5.78106V13.5178H251.773C252.575 13.5178 253.299 13.4605 253.943 13.3459C254.588 13.2313 255.133 13.0307 255.577 12.7441C256.035 12.4576 256.379 12.0636 256.608 11.5621C256.852 11.0607 256.974 10.4303 256.974 9.67092C256.974 8.9259 256.881 8.30983 256.694 7.8227C256.508 7.32124 256.222 6.92008 255.835 6.61921C255.448 6.31833 254.954 6.10342 254.352 5.97448C253.764 5.84553 253.062 5.78106 252.246 5.78106H247.99ZM252.246 0.343856C254.409 0.343856 256.25 0.544438 257.769 0.945602C259.288 1.34677 260.527 1.91269 261.487 2.64339C262.447 3.37408 263.142 4.26237 263.571 5.30826C264.016 6.35415 264.238 7.52183 264.238 8.81128C264.238 9.51332 264.137 10.1939 263.937 10.8529C263.736 11.4976 263.421 12.1066 262.991 12.6797C262.561 13.2384 262.01 13.7542 261.336 14.227C260.663 14.6998 259.853 15.1081 258.908 15.452C260.971 15.9534 262.497 16.7629 263.485 17.8805C264.474 18.998 264.968 20.445 264.968 22.2216C264.968 23.5541 264.71 24.7934 264.195 25.9396C263.679 27.0857 262.92 28.0886 261.917 28.9483C260.928 29.7936 259.703 30.4598 258.242 30.9469C256.78 31.4197 255.111 31.6561 253.234 31.6561H240.727V0.343856H252.246Z" fill="#555555"/>
<path d="M278.848 15.0651C279.837 15.0651 280.675 14.9434 281.363 14.6998C282.065 14.4419 282.638 14.0909 283.082 13.6467C283.526 13.2026 283.848 12.6868 284.049 12.0994C284.25 11.4976 284.35 10.8529 284.35 10.1652C284.35 8.78979 283.898 7.71524 282.996 6.94157C282.108 6.1679 280.725 5.78106 278.848 5.78106H275.925V15.0651H278.848ZM294.279 31.6561H287.702C286.485 31.6561 285.611 31.1977 285.08 30.2807L279.88 21.1901C279.636 20.8032 279.364 20.5238 279.063 20.3519C278.762 20.1657 278.332 20.0725 277.774 20.0725H275.925V31.6561H268.661V0.343856H278.848C281.112 0.343856 283.039 0.580256 284.629 1.05306C286.234 1.51153 287.538 2.15626 288.541 2.98724C289.558 3.81822 290.296 4.79964 290.754 5.9315C291.213 7.06335 291.442 8.2955 291.442 9.62794C291.442 10.6452 291.306 11.6051 291.033 12.5077C290.761 13.4103 290.36 14.2485 289.83 15.0222C289.3 15.7815 288.641 16.4621 287.853 17.0638C287.079 17.6655 286.184 18.1598 285.166 18.5467C285.639 18.7902 286.083 19.0983 286.499 19.4708C286.914 19.829 287.287 20.2588 287.616 20.7602L294.279 31.6561Z" fill="#555555"/>
<path d="M312.599 19.6857L309.697 11.1108C309.482 10.5664 309.253 9.92881 309.01 9.19812C308.766 8.4531 308.523 7.65077 308.279 6.79113C308.064 7.6651 307.835 8.47459 307.591 9.21961C307.348 9.96463 307.118 10.6094 306.904 11.1538L304.024 19.6857H312.599ZM324.139 31.6561H318.509C317.878 31.6561 317.37 31.5129 316.983 31.2263C316.596 30.9255 316.302 30.5458 316.102 30.0873L314.253 24.6286H302.347L300.499 30.0873C300.342 30.4885 300.055 30.8538 299.64 31.1833C299.238 31.4985 298.737 31.6561 298.135 31.6561H292.462L304.583 0.343856H312.018L324.139 31.6561Z" fill="#555555"/>
<path d="M343.049 6.70517C342.834 7.04903 342.604 7.30692 342.361 7.47885C342.132 7.65077 341.831 7.73674 341.458 7.73674C341.129 7.73674 340.771 7.63645 340.384 7.43586C340.011 7.22095 339.581 6.98455 339.094 6.72666C338.621 6.46877 338.077 6.23953 337.461 6.03895C336.845 5.82404 336.143 5.71659 335.355 5.71659C333.994 5.71659 332.977 6.0103 332.303 6.59772C331.644 7.17081 331.315 7.95165 331.315 8.94023C331.315 9.57063 331.515 10.0936 331.916 10.5091C332.317 10.9246 332.84 11.2827 333.485 11.5836C334.144 11.8845 334.889 12.1639 335.72 12.4218C336.565 12.6653 337.425 12.9447 338.299 13.2599C339.173 13.5608 340.026 13.919 340.857 14.3345C341.702 14.7499 342.447 15.2801 343.092 15.9248C343.751 16.5695 344.281 17.3575 344.682 18.2888C345.083 19.2057 345.284 20.3161 345.284 21.6199C345.284 23.0669 345.033 24.4209 344.531 25.6817C344.03 26.9425 343.299 28.0457 342.339 28.9913C341.394 29.9225 340.219 30.6604 338.815 31.2048C337.425 31.7349 335.842 32 334.065 32C333.091 32 332.095 31.8997 331.078 31.6991C330.075 31.4985 329.101 31.2192 328.155 30.861C327.21 30.4885 326.321 30.0515 325.491 29.55C324.66 29.0486 323.936 28.4898 323.32 27.8737L325.469 24.4782C325.641 24.2346 325.863 24.034 326.135 23.8764C326.422 23.7045 326.73 23.6185 327.059 23.6185C327.489 23.6185 327.919 23.7546 328.349 24.0269C328.793 24.2991 329.287 24.6 329.832 24.9295C330.39 25.259 331.028 25.5599 331.744 25.8321C332.461 26.1043 333.306 26.2404 334.28 26.2404C335.598 26.2404 336.623 25.9539 337.354 25.3808C338.084 24.7934 338.45 23.8693 338.45 22.6085C338.45 21.8778 338.249 21.2832 337.848 20.8247C337.447 20.3662 336.917 19.9866 336.257 19.6857C335.613 19.3848 334.875 19.1198 334.044 18.8905C333.213 18.6613 332.36 18.4106 331.486 18.1383C330.613 17.8518 329.76 17.5079 328.929 17.1068C328.098 16.6913 327.353 16.154 326.694 15.495C326.049 14.8216 325.526 13.9906 325.125 13.002C324.724 11.9991 324.523 10.767 324.523 9.30557C324.523 8.13074 324.76 6.98455 325.233 5.86702C325.705 4.7495 326.4 3.75375 327.317 2.87978C328.234 2.00582 329.359 1.31095 330.691 0.795163C332.024 0.265054 333.55 0 335.269 0C336.229 0 337.16 0.0788005 338.063 0.236401C338.98 0.379674 339.846 0.601746 340.663 0.902618C341.48 1.18916 342.239 1.54018 342.941 1.95567C343.658 2.35684 344.295 2.81531 344.854 3.33109L343.049 6.70517Z" fill="#555555"/>
<path d="M355.995 31.6561H348.688V0.343856H355.995V31.6561Z" fill="#555555"/>
<path d="M380.046 25.8536V31.6561H361.177V0.343856H368.44V25.8536H380.046Z" fill="#555555"/>
</svg>
