<svg width="75" height="33" viewBox="0 0 75 33" fill="none" xmlns="http://www.w3.org/2000/svg">
<path d="M40.9931 10.5181H37.5835V10.0408H38.5264V0.684277H37.5835V0.209281H41.32L44.525 7.5388L47.8547 0.209281H51.5912V0.684277H50.6482V10.0408H51.5912V10.5181H46.4791V10.0408H48.1439V1.11695L44.0524 10.0408H43.1682L41.755 6.76282L39.3259 1.13341V10.0408H40.9908V10.5181H40.9931ZM36.8263 6.61467H36.1679C35.58 8.04907 35.0462 9.10017 34.6888 9.47641C34.3337 9.85264 33.7929 10.0408 33.0663 10.0408H29.4309V4.93102H30.9923C31.4861 4.93102 31.8694 5.06976 32.1422 5.34959C32.4055 5.60354 32.6336 6.07619 32.8288 6.76282C32.8476 6.82631 32.8641 6.8898 32.8805 6.95799H33.539V2.42906H32.8805C32.676 3.22386 32.422 3.7694 32.121 4.06804C31.86 4.3267 31.4838 4.45603 30.9923 4.45603H29.4309V0.684277H33.5178C34.0375 0.684277 34.4208 0.81831 34.6677 1.08638C34.9828 1.43439 35.4201 2.27857 35.9821 3.61891H36.6405V0.206929H26.0049V0.681925H26.9454V10.0384H25.671V10.5158H36.8263V6.61232V6.61467ZM16.4532 1.05816C16.646 0.808904 16.9682 0.684277 17.4197 0.684277H18.673V10.0408H17.0905V10.5181H22.7598V10.0408H21.1773V0.684277H22.4306C22.8821 0.684277 23.2043 0.808904 23.3947 1.05816C23.6416 1.38736 23.9779 2.22919 24.4012 3.59069H25.0596V0.209281H14.7884V3.59069H15.4468C15.87 2.23154 16.2063 1.38736 16.4532 1.05816ZM62.5913 5.36369C62.5913 3.79291 63.2145 2.49491 64.4607 1.46731C65.6529 0.489105 67.0967 0 68.7968 0C70.4969 0 71.9384 0.489105 73.1306 1.46731C74.3769 2.49491 75 3.79291 75 5.36369C75 6.93447 74.3769 8.23248 73.1306 9.26007C71.9384 10.2383 70.4946 10.7274 68.7968 10.7274C67.0991 10.7274 65.6529 10.2383 64.4607 9.26007C63.2145 8.23248 62.5913 6.93447 62.5913 5.36369ZM65.4272 5.36605C65.4272 7.2143 65.707 8.5076 66.269 9.24596C66.7769 9.91848 67.6188 10.2547 68.7968 10.2547C69.9749 10.2547 70.8167 9.91848 71.3223 9.24596C71.8843 8.5076 72.1641 7.21195 72.1641 5.36605C72.1641 3.52014 71.882 2.22684 71.3223 1.48613C70.8144 0.813607 69.9726 0.477348 68.7968 0.477348C67.6211 0.477348 66.7769 0.813607 66.269 1.48613C65.707 2.22684 65.4272 3.52014 65.4272 5.36605ZM57.5686 10.5158H52.1861V10.0384H53.1314V0.684277H52.1861V0.209281H57.1006C58.7584 0.209281 60.0658 0.463239 61.0229 0.968804C61.9258 1.46496 62.3797 2.12102 62.3797 2.93463C62.3797 3.74824 61.9423 4.39959 61.0652 4.85813C60.1458 5.34488 58.8337 5.58708 57.1218 5.58708H55.6192V10.0408H57.5709V10.5181L57.5686 10.5158ZM55.6169 5.10503H56.5669C57.7167 5.10503 58.5397 4.95219 59.0312 4.64415C59.525 4.3361 59.7719 3.7647 59.7719 2.92993C59.7719 1.42969 58.7655 0.679574 56.7526 0.679574H55.6192V5.10503H55.6169ZM0 5.36369C0 3.79291 0.623139 2.49491 1.86942 1.46731C3.06161 0.489105 4.50541 0 6.20552 0C7.90563 0 9.34708 0.489105 10.5393 1.46731C11.7855 2.49491 12.4087 3.79291 12.4087 5.36369C12.4087 6.93447 11.7855 8.23248 10.5393 9.26007C9.34708 10.2383 7.90328 10.7274 6.20552 10.7274C4.50776 10.7274 3.06161 10.2383 1.86942 9.26007C0.623139 8.23248 0 6.93447 0 5.36369ZM2.83587 5.36605C2.83587 7.2143 3.11569 8.5076 3.67769 9.24596C4.18326 9.91848 5.02743 10.2547 6.20317 10.2547C7.3789 10.2547 8.22308 9.91848 8.73099 9.24596C9.29299 8.50525 9.57282 7.21195 9.57282 5.36605C9.57282 3.52014 9.29064 2.22684 8.73099 1.48613C8.22308 0.813607 7.38125 0.477348 6.20317 0.477348C5.02508 0.477348 4.18326 0.813607 3.67769 1.48613C3.11569 2.22684 2.83587 3.52014 2.83587 5.36605Z" fill="#00542B"/>
<path d="M6.85857 29.2304C7.39043 29.2304 7.82306 29.163 8.15646 29.028C8.4978 28.8931 8.76373 28.7184 8.95425 28.5041C9.14476 28.2898 9.27574 28.0477 9.34719 27.7778C9.41863 27.5079 9.45435 27.234 9.45435 26.9562C9.45435 26.6386 9.41069 26.3529 9.32337 26.0988C9.24399 25.8448 9.1011 25.6305 8.89471 25.4558C8.69626 25.2812 8.43033 25.1463 8.09692 25.051C7.76352 24.9557 7.3428 24.9081 6.83476 24.9081H4.02465V29.2304H6.85857ZM4.02465 17.9305V22.2171H6.12032C6.56486 22.2171 6.96574 22.1853 7.32295 22.1218C7.68017 22.0583 7.98182 21.9472 8.2279 21.7884C8.48193 21.6296 8.67244 21.4113 8.79945 21.1335C8.9344 20.8557 9.00187 20.5064 9.00187 20.0857C9.00187 19.6729 8.95028 19.3316 8.84708 19.0617C8.74389 18.7838 8.58512 18.5615 8.37079 18.3948C8.15646 18.2281 7.88259 18.1091 7.54919 18.0376C7.22373 17.9662 6.83476 17.9305 6.38228 17.9305H4.02465ZM6.38228 14.9179C7.58094 14.9179 8.601 15.0291 9.44244 15.2513C10.2839 15.4736 10.9705 15.7872 11.5024 16.192C12.0343 16.5969 12.4193 17.089 12.6574 17.6685C12.9035 18.248 13.0265 18.895 13.0265 19.6094C13.0265 19.9984 12.971 20.3754 12.8598 20.7406C12.7487 21.0978 12.574 21.4352 12.3359 21.7527C12.0978 22.0623 11.7921 22.3481 11.419 22.61C11.046 22.872 10.5974 23.0982 10.0735 23.2887C11.2166 23.5666 12.062 24.0151 12.6098 24.6342C13.1575 25.2534 13.4314 26.0552 13.4314 27.0395C13.4314 27.7778 13.2885 28.4644 13.0027 29.0995C12.7169 29.7345 12.2962 30.2902 11.7405 30.7665C11.1928 31.2348 10.5141 31.604 9.7044 31.8738C8.89471 32.1358 7.96991 32.2668 6.93002 32.2668H0V14.9179H6.38228Z" fill="#555555"/>
<path d="M26.2893 29.0518V32.2668H15.8348V14.9179H19.8594V29.0518H26.2893Z" fill="#555555"/>
<path d="M44.8363 23.5864C44.8363 24.8406 44.618 26.0075 44.1814 27.0871C43.7528 28.1667 43.1455 29.1074 42.3596 29.9092C41.5738 30.703 40.6252 31.3261 39.5138 31.7786C38.4104 32.2311 37.184 32.4573 35.8345 32.4573C34.485 32.4573 33.2546 32.2311 32.1432 31.7786C31.0319 31.3261 30.0793 30.703 29.2855 29.9092C28.4996 29.1074 27.8884 28.1667 27.4518 27.0871C27.0231 26.0075 26.8088 24.8406 26.8088 23.5864C26.8088 22.3322 27.0231 21.1653 27.4518 20.0857C27.8884 19.0061 28.4996 18.0694 29.2855 17.2756C30.0793 16.4818 31.0319 15.8586 32.1432 15.4061C33.2546 14.9537 34.485 14.7274 35.8345 14.7274C37.184 14.7274 38.4104 14.9576 39.5138 15.418C40.6252 15.8705 41.5738 16.4937 42.3596 17.2875C43.1455 18.0813 43.7528 19.018 44.1814 20.0976C44.618 21.1772 44.8363 22.3401 44.8363 23.5864ZM40.7164 23.5864C40.7164 22.7291 40.6053 21.9591 40.383 21.2764C40.1608 20.5858 39.8393 20.0023 39.4186 19.526C39.0058 19.0497 38.4977 18.6846 37.8944 18.4306C37.2911 18.1765 36.6045 18.0495 35.8345 18.0495C35.0565 18.0495 34.3619 18.1765 33.7507 18.4306C33.1474 18.6846 32.6354 19.0497 32.2147 19.526C31.8019 20.0023 31.4844 20.5858 31.2621 21.2764C31.0398 21.9591 30.9287 22.7291 30.9287 23.5864C30.9287 24.4517 31.0398 25.2296 31.2621 25.9202C31.4844 26.6029 31.8019 27.1824 32.2147 27.6587C32.6354 28.135 33.1474 28.5001 33.7507 28.7541C34.3619 29.0002 35.0565 29.1233 35.8345 29.1233C36.6045 29.1233 37.2911 29.0002 37.8944 28.7541C38.4977 28.5001 39.0058 28.135 39.4186 27.6587C39.8393 27.1824 40.1608 26.6029 40.383 25.9202C40.6053 25.2296 40.7164 24.4517 40.7164 23.5864Z" fill="#555555"/>
<path d="M55.4208 23.2768H61.5887V30.5998C60.6996 31.2507 59.751 31.723 58.7429 32.0167C57.7427 32.3104 56.6948 32.4573 55.5994 32.4573C54.1705 32.4573 52.8686 32.235 51.6938 31.7905C50.5269 31.338 49.5267 30.7188 48.6932 29.933C47.8597 29.1392 47.2167 28.2024 46.7642 27.1229C46.3117 26.0353 46.0855 24.8565 46.0855 23.5864C46.0855 22.2925 46.2998 21.1057 46.7285 20.0261C47.1571 18.9386 47.7684 18.0019 48.5622 17.216C49.364 16.4302 50.3284 15.8189 51.4557 15.3823C52.5908 14.9457 53.857 14.7274 55.2541 14.7274C55.9764 14.7274 56.6552 14.787 57.2902 14.906C57.9253 15.0251 58.5087 15.1878 59.0406 15.3942C59.5804 15.6006 60.0725 15.8467 60.5171 16.1325C60.9616 16.4182 61.3585 16.7278 61.7078 17.0612L60.5409 18.8354C60.3583 19.1133 60.1202 19.2839 59.8264 19.3474C59.5407 19.4109 59.2311 19.3395 58.8977 19.1331C58.5802 18.9426 58.2785 18.7798 57.9927 18.6449C57.7149 18.502 57.4291 18.3869 57.1354 18.2996C56.8417 18.2123 56.5321 18.1488 56.2066 18.1091C55.8812 18.0694 55.516 18.0495 55.1112 18.0495C54.3571 18.0495 53.6783 18.1845 53.075 18.4544C52.4717 18.7163 51.9558 19.0894 51.5271 19.5737C51.1064 20.0579 50.7809 20.6413 50.5507 21.324C50.3205 21.9988 50.2054 22.7529 50.2054 23.5864C50.2054 24.5072 50.3324 25.3249 50.5864 26.0393C50.8405 26.7537 51.1977 27.357 51.6581 27.8492C52.1264 28.3414 52.6821 28.7184 53.3251 28.9804C53.976 29.2344 54.6944 29.3614 55.4803 29.3614C55.9645 29.3614 56.4011 29.3138 56.7901 29.2185C57.187 29.1233 57.572 28.9963 57.9451 28.8375V26.206H56.2305C55.9764 26.206 55.778 26.1385 55.6351 26.0036C55.4922 25.8686 55.4208 25.698 55.4208 25.4916V23.2768Z" fill="#555555"/>
<path d="M73.7617 18.4425C73.6426 18.633 73.5156 18.7759 73.3806 18.8711C73.2536 18.9664 73.0869 19.014 72.8805 19.014C72.6979 19.014 72.4995 18.9585 72.2851 18.8473C72.0788 18.7283 71.8406 18.5973 71.5707 18.4544C71.3088 18.3115 71.0071 18.1845 70.6658 18.0734C70.3244 17.9543 69.9354 17.8947 69.4988 17.8947C68.7447 17.8947 68.1811 18.0575 67.808 18.3829C67.4429 18.7005 67.2603 19.1331 67.2603 19.6808C67.2603 20.0301 67.3714 20.3199 67.5937 20.5501C67.816 20.7803 68.1057 20.9787 68.4629 21.1454C68.8281 21.3121 69.2409 21.4669 69.7013 21.6098C70.1696 21.7448 70.6459 21.8995 71.1301 22.0742C71.6144 22.2409 72.0867 22.4393 72.5471 22.6695C73.0155 22.8998 73.4282 23.1935 73.7855 23.5507C74.1506 23.9079 74.4443 24.3445 74.6666 24.8605C74.8889 25.3685 75 25.9837 75 26.7061C75 27.5079 74.8611 28.258 74.5833 28.9566C74.3054 29.6551 73.9006 30.2664 73.3687 30.7903C72.8448 31.3063 72.1939 31.7151 71.4159 32.0167C70.6459 32.3104 69.7687 32.4573 68.7844 32.4573C68.2446 32.4573 67.6929 32.4017 67.1293 32.2906C66.5736 32.1795 66.0338 32.0247 65.5099 31.8262C64.986 31.6198 64.4938 31.3777 64.0334 31.0999C63.573 30.822 63.1721 30.5125 62.8308 30.1711L64.0215 28.2898C64.1168 28.1548 64.2398 28.0437 64.3906 27.9564C64.5494 27.8611 64.7201 27.8135 64.9027 27.8135C65.1408 27.8135 65.3789 27.8889 65.6171 28.0397C65.8632 28.1905 66.137 28.3572 66.4387 28.5398C66.7483 28.7224 67.1015 28.8891 67.4984 29.0399C67.8953 29.1908 68.3637 29.2662 68.9035 29.2662C69.6338 29.2662 70.2014 29.1074 70.6062 28.7899C71.0111 28.4644 71.2135 27.9524 71.2135 27.2538C71.2135 26.849 71.1024 26.5196 70.8801 26.2655C70.6578 26.0115 70.3641 25.8012 69.999 25.6345C69.6417 25.4678 69.2329 25.3209 68.7725 25.1939C68.3121 25.0669 67.8398 24.928 67.3555 24.7771C66.8713 24.6184 66.399 24.4279 65.9386 24.2056C65.4782 23.9754 65.0654 23.6777 64.7002 23.3125C64.343 22.9394 64.0533 22.479 63.831 21.9313C63.6087 21.3756 63.4976 20.6929 63.4976 19.8833C63.4976 19.2323 63.6286 18.5973 63.8905 17.9781C64.1525 17.3589 64.5375 16.8072 65.0455 16.323C65.5536 15.8388 66.1767 15.4538 66.915 15.168C67.6532 14.8743 68.4986 14.7274 69.4512 14.7274C69.9831 14.7274 70.4991 14.7711 70.9992 14.8584C71.5072 14.9378 71.9875 15.0608 72.4399 15.2275C72.8924 15.3863 73.3131 15.5808 73.7021 15.811C74.099 16.0332 74.4523 16.2873 74.7619 16.573L73.7617 18.4425Z" fill="#555555"/>
</svg>
