<svg width="75" height="26" viewBox="0 0 75 26" fill="none" xmlns="http://www.w3.org/2000/svg">
<path d="M40.9931 10.5181H37.5835V10.0408H38.5264V0.684277H37.5835V0.209281H41.32L44.525 7.5388L47.8547 0.209281H51.5912V0.684277H50.6482V10.0408H51.5912V10.5181H46.4791V10.0408H48.1439V1.11695L44.0524 10.0408H43.1682L41.755 6.76282L39.3259 1.13341V10.0408H40.9908V10.5181H40.9931ZM36.8263 6.61467H36.1679C35.58 8.04907 35.0462 9.10017 34.6888 9.47641C34.3337 9.85264 33.7929 10.0408 33.0663 10.0408H29.4309V4.93102H30.9923C31.4861 4.93102 31.8694 5.06976 32.1422 5.34959C32.4055 5.60354 32.6336 6.07619 32.8288 6.76282C32.8476 6.82631 32.8641 6.8898 32.8805 6.95799H33.539V2.42906H32.8805C32.676 3.22386 32.422 3.7694 32.121 4.06804C31.86 4.3267 31.4838 4.45603 30.9923 4.45603H29.4309V0.684277H33.5178C34.0375 0.684277 34.4208 0.81831 34.6677 1.08638C34.9828 1.43439 35.4201 2.27857 35.9821 3.61891H36.6405V0.206929H26.0049V0.681925H26.9454V10.0384H25.671V10.5158H36.8263V6.61232V6.61467ZM16.4532 1.05816C16.646 0.808904 16.9682 0.684277 17.4197 0.684277H18.673V10.0408H17.0905V10.5181H22.7598V10.0408H21.1773V0.684277H22.4306C22.8821 0.684277 23.2043 0.808904 23.3947 1.05816C23.6416 1.38736 23.9779 2.22919 24.4012 3.59069H25.0596V0.209281H14.7884V3.59069H15.4468C15.87 2.23154 16.2063 1.38736 16.4532 1.05816ZM62.5913 5.36369C62.5913 3.79291 63.2145 2.49491 64.4607 1.46731C65.6529 0.489105 67.0967 0 68.7968 0C70.4969 0 71.9384 0.489105 73.1306 1.46731C74.3769 2.49491 75 3.79291 75 5.36369C75 6.93447 74.3769 8.23248 73.1306 9.26007C71.9384 10.2383 70.4946 10.7274 68.7968 10.7274C67.0991 10.7274 65.6529 10.2383 64.4607 9.26007C63.2145 8.23248 62.5913 6.93447 62.5913 5.36369ZM65.4272 5.36605C65.4272 7.2143 65.707 8.5076 66.269 9.24596C66.7769 9.91848 67.6188 10.2547 68.7968 10.2547C69.9749 10.2547 70.8167 9.91848 71.3223 9.24596C71.8843 8.5076 72.1641 7.21195 72.1641 5.36605C72.1641 3.52014 71.882 2.22684 71.3223 1.48613C70.8144 0.813607 69.9726 0.477348 68.7968 0.477348C67.6211 0.477348 66.7769 0.813607 66.269 1.48613C65.707 2.22684 65.4272 3.52014 65.4272 5.36605ZM57.5686 10.5158H52.1861V10.0384H53.1314V0.684277H52.1861V0.209281H57.1006C58.7584 0.209281 60.0658 0.463239 61.0229 0.968804C61.9258 1.46496 62.3797 2.12102 62.3797 2.93463C62.3797 3.74824 61.9423 4.39959 61.0652 4.85813C60.1458 5.34488 58.8337 5.58708 57.1218 5.58708H55.6192V10.0408H57.5709V10.5181L57.5686 10.5158ZM55.6169 5.10503H56.5669C57.7167 5.10503 58.5397 4.95219 59.0312 4.64415C59.525 4.3361 59.7719 3.7647 59.7719 2.92993C59.7719 1.42969 58.7655 0.679574 56.7526 0.679574H55.6192V5.10503H55.6169ZM0 5.36369C0 3.79291 0.623139 2.49491 1.86942 1.46731C3.06161 0.489105 4.50541 0 6.20552 0C7.90563 0 9.34708 0.489105 10.5393 1.46731C11.7855 2.49491 12.4087 3.79291 12.4087 5.36369C12.4087 6.93447 11.7855 8.23248 10.5393 9.26007C9.34708 10.2383 7.90328 10.7274 6.20552 10.7274C4.50776 10.7274 3.06161 10.2383 1.86942 9.26007C0.623139 8.23248 0 6.93447 0 5.36369ZM2.83587 5.36605C2.83587 7.2143 3.11569 8.5076 3.67769 9.24596C4.18326 9.91848 5.02743 10.2547 6.20317 10.2547C7.3789 10.2547 8.22308 9.91848 8.73099 9.24596C9.29299 8.50525 9.57282 7.21195 9.57282 5.36605C9.57282 3.52014 9.29064 2.22684 8.73099 1.48613C8.22308 0.813607 7.38125 0.477348 6.20317 0.477348C5.02508 0.477348 4.18326 0.813607 3.67769 1.48613C3.11569 2.22684 2.83587 3.52014 2.83587 5.36605Z" fill="#00542B"/>
<path d="M2.36658 16.6484V19.015H5.5545V20.7551H2.36658V23.1704H6.52897V24.9802H0V14.8387H6.52897V16.6484H2.36658Z" fill="#555555"/>
<path d="M14.333 22.356C14.3887 22.356 14.4444 22.3676 14.5001 22.3908C14.5558 22.4094 14.6091 22.4442 14.6602 22.4952L15.5929 23.4767C15.1845 24.0103 14.6718 24.414 14.0546 24.6878C13.4421 24.9569 12.7159 25.0915 11.876 25.0915C11.1057 25.0915 10.4143 24.9616 9.80173 24.7017C9.19384 24.4372 8.67644 24.0753 8.24953 23.6159C7.82726 23.1519 7.50243 22.6043 7.27506 21.9732C7.04768 21.3375 6.93399 20.6484 6.93399 19.9059C6.93399 19.1495 7.05696 18.4558 7.3029 17.8247C7.54884 17.189 7.89454 16.6414 8.34002 16.182C8.78549 15.7227 9.31913 15.3653 9.94094 15.1101C10.5627 14.8549 11.2472 14.7273 11.9943 14.7273C12.3748 14.7273 12.7321 14.7621 13.0662 14.8317C13.405 14.8967 13.7205 14.9895 14.0128 15.1101C14.3052 15.2261 14.5743 15.3677 14.8203 15.5347C15.0662 15.7018 15.2843 15.8827 15.4746 16.0776L14.6811 17.1426C14.63 17.2076 14.5697 17.2679 14.5001 17.3236C14.4305 17.3746 14.333 17.4001 14.2077 17.4001C14.1242 17.4001 14.0453 17.3816 13.9711 17.3445C13.8968 17.3073 13.818 17.2632 13.7344 17.2122C13.6509 17.1565 13.5581 17.0985 13.456 17.0382C13.3586 16.9732 13.2402 16.9152 13.101 16.8642C12.9664 16.8085 12.8064 16.7621 12.6207 16.725C12.4398 16.6878 12.2263 16.6693 11.9804 16.6693C11.5906 16.6693 11.2333 16.7412 10.9084 16.8851C10.5883 17.0289 10.3098 17.24 10.0732 17.5185C9.84117 17.7922 9.6602 18.131 9.53027 18.5347C9.40498 18.9338 9.34233 19.3908 9.34233 19.9059C9.34233 20.4256 9.41194 20.8874 9.55115 21.2911C9.695 21.6948 9.88757 22.0358 10.1289 22.3143C10.3748 22.588 10.6602 22.7969 10.985 22.9407C11.3098 23.0846 11.6579 23.1565 12.0291 23.1565C12.2426 23.1565 12.4374 23.1472 12.6138 23.1287C12.7901 23.1054 12.9548 23.0706 13.108 23.0242C13.2611 22.9732 13.405 22.9082 13.5395 22.8293C13.6741 22.7458 13.811 22.6414 13.9502 22.5161C14.0059 22.4697 14.0662 22.4326 14.1312 22.4048C14.1961 22.3723 14.2634 22.356 14.333 22.356Z" fill="#555555"/>
<path d="M26.0639 19.9059C26.0639 20.6391 25.9363 21.3212 25.6811 21.9523C25.4305 22.5834 25.0755 23.1333 24.6161 23.602C24.1567 24.066 23.6022 24.4303 22.9526 24.6948C22.3075 24.9593 21.5906 25.0915 20.8018 25.0915C20.0129 25.0915 19.2936 24.9593 18.644 24.6948C17.9943 24.4303 17.4375 24.066 16.9735 23.602C16.5141 23.1333 16.1568 22.5834 15.9015 21.9523C15.651 21.3212 15.5257 20.6391 15.5257 19.9059C15.5257 19.1728 15.651 18.4906 15.9015 17.8595C16.1568 17.2284 16.5141 16.6809 16.9735 16.2168C17.4375 15.7528 17.9943 15.3885 18.644 15.124C19.2936 14.8595 20.0129 14.7273 20.8018 14.7273C21.5906 14.7273 22.3075 14.8619 22.9526 15.131C23.6022 15.3955 24.1567 15.7598 24.6161 16.2238C25.0755 16.6878 25.4305 17.2354 25.6811 17.8665C25.9363 18.4976 26.0639 19.1774 26.0639 19.9059ZM23.6556 19.9059C23.6556 19.4048 23.5906 18.9547 23.4607 18.5556C23.3307 18.1519 23.1428 17.8108 22.8969 17.5324C22.6556 17.254 22.3586 17.0405 22.0059 16.892C21.6533 16.7435 21.2519 16.6693 20.8018 16.6693C20.347 16.6693 19.941 16.7435 19.5837 16.892C19.231 17.0405 18.9317 17.254 18.6857 17.5324C18.4445 17.8108 18.2588 18.1519 18.1289 18.5556C17.999 18.9547 17.934 19.4048 17.934 19.9059C17.934 20.4117 17.999 20.8665 18.1289 21.2702C18.2588 21.6693 18.4445 22.008 18.6857 22.2864C18.9317 22.5648 19.231 22.7783 19.5837 22.9268C19.941 23.0706 20.347 23.1426 20.8018 23.1426C21.2519 23.1426 21.6533 23.0706 22.0059 22.9268C22.3586 22.7783 22.6556 22.5648 22.8969 22.2864C23.1428 22.008 23.3307 21.6693 23.4607 21.2702C23.5906 20.8665 23.6556 20.4117 23.6556 19.9059Z" fill="#555555"/>
<path d="M36.0238 14.8387V24.9802H34.7987C34.6177 24.9802 34.4646 24.9523 34.3393 24.8966C34.2187 24.8363 34.098 24.7342 33.9774 24.5904L29.1955 18.5417C29.2141 18.7226 29.2257 18.899 29.2303 19.0707C29.2396 19.2377 29.2442 19.3955 29.2442 19.544V24.9802H27.17V14.8387H28.409C28.511 14.8387 28.5969 14.8433 28.6665 14.8526C28.7361 14.8619 28.7987 14.8804 28.8544 14.9083C28.9101 14.9315 28.9635 14.9663 29.0145 15.0127C29.0656 15.0591 29.1236 15.1217 29.1885 15.2006L34.0122 21.2911C33.989 21.0962 33.9727 20.9082 33.9635 20.7273C33.9542 20.5417 33.9495 20.3676 33.9495 20.2052V14.8387H36.0238Z" fill="#555555"/>
<path d="M47.6666 19.9059C47.6666 20.6391 47.5389 21.3212 47.2837 21.9523C47.0331 22.5834 46.6782 23.1333 46.2188 23.602C45.7594 24.066 45.2048 24.4303 44.5552 24.6948C43.9102 24.9593 43.1933 25.0915 42.4044 25.0915C41.6155 25.0915 40.8963 24.9593 40.2466 24.6948C39.597 24.4303 39.0401 24.066 38.5761 23.602C38.1167 23.1333 37.7594 22.5834 37.5042 21.9523C37.2536 21.3212 37.1283 20.6391 37.1283 19.9059C37.1283 19.1728 37.2536 18.4906 37.5042 17.8595C37.7594 17.2284 38.1167 16.6809 38.5761 16.2168C39.0401 15.7528 39.597 15.3885 40.2466 15.124C40.8963 14.8595 41.6155 14.7273 42.4044 14.7273C43.1933 14.7273 43.9102 14.8619 44.5552 15.131C45.2048 15.3955 45.7594 15.7598 46.2188 16.2238C46.6782 16.6878 47.0331 17.2354 47.2837 17.8665C47.5389 18.4976 47.6666 19.1774 47.6666 19.9059ZM45.2582 19.9059C45.2582 19.4048 45.1932 18.9547 45.0633 18.5556C44.9334 18.1519 44.7455 17.8108 44.4995 17.5324C44.2582 17.254 43.9612 17.0405 43.6086 16.892C43.2559 16.7435 42.8545 16.6693 42.4044 16.6693C41.9496 16.6693 41.5436 16.7435 41.1863 16.892C40.8336 17.0405 40.5343 17.254 40.2884 17.5324C40.0471 17.8108 39.8615 18.1519 39.7316 18.5556C39.6016 18.9547 39.5367 19.4048 39.5367 19.9059C39.5367 20.4117 39.6016 20.8665 39.7316 21.2702C39.8615 21.6693 40.0471 22.008 40.2884 22.2864C40.5343 22.5648 40.8336 22.7783 41.1863 22.9268C41.5436 23.0706 41.9496 23.1426 42.4044 23.1426C42.8545 23.1426 43.2559 23.0706 43.6086 22.9268C43.9612 22.7783 44.2582 22.5648 44.4995 22.2864C44.7455 22.008 44.9334 21.6693 45.0633 21.2702C45.1932 20.8665 45.2582 20.4117 45.2582 19.9059Z" fill="#555555"/>
<path d="M60.174 14.8387V24.9802H58.0997V19.1472C58.0997 19.0127 58.1021 18.8665 58.1067 18.7087C58.116 18.5509 58.1299 18.3909 58.1485 18.2284L55.4547 23.4419C55.3712 23.6043 55.2575 23.7273 55.1137 23.8108C54.9745 23.8943 54.8144 23.9361 54.6334 23.9361H54.3132C54.1322 23.9361 53.9698 23.8943 53.826 23.8108C53.6868 23.7273 53.5754 23.6043 53.4919 23.4419L50.7981 18.2145C50.8121 18.3816 50.8237 18.5463 50.8329 18.7087C50.8422 18.8665 50.8469 19.0127 50.8469 19.1472V24.9802H48.7726V14.8387H50.5684C50.6705 14.8387 50.7587 14.841 50.8329 14.8456C50.9118 14.8503 50.9814 14.8642 51.0418 14.8874C51.1021 14.9106 51.1554 14.9477 51.2019 14.9988C51.2529 15.0452 51.3016 15.1124 51.348 15.2006L53.9582 20.3444C54.051 20.5208 54.1392 20.7041 54.2227 20.8943C54.3109 21.0846 54.3944 21.2795 54.4733 21.479C54.5522 21.2748 54.6334 21.0753 54.7169 20.8804C54.8051 20.6855 54.8979 20.4999 54.9953 20.3236L57.5986 15.2006C57.645 15.1124 57.6914 15.0452 57.7378 14.9988C57.7888 14.9477 57.8445 14.9106 57.9048 14.8874C57.9652 14.8642 58.0324 14.8503 58.1067 14.8456C58.1856 14.841 58.2761 14.8387 58.3782 14.8387H60.174Z" fill="#555555"/>
<path d="M64.2245 24.9802H61.8579V14.8387H64.2245V24.9802Z" fill="#555555"/>
<path d="M71.2622 21.1031L70.3225 18.3259C70.2529 18.1496 70.1787 17.9431 70.0998 17.7064C70.0209 17.4651 69.942 17.2052 69.8631 16.9268C69.7935 17.2099 69.7193 17.4721 69.6404 17.7134C69.5615 17.9547 69.4873 18.1635 69.4177 18.3398L68.4849 21.1031H71.2622ZM75 24.9802H73.1763C72.9722 24.9802 72.8074 24.9337 72.6821 24.8409C72.5569 24.7435 72.4617 24.6205 72.3968 24.472L71.7982 22.7041H67.942L67.3434 24.472C67.2924 24.602 67.1996 24.7203 67.065 24.827C66.9351 24.9291 66.7727 24.9802 66.5778 24.9802H64.7402L68.6659 14.8387H71.0743L75 24.9802Z" fill="#555555"/>
</svg>
