<svg width="76" height="42" viewBox="0 0 76 42" fill="none" xmlns="http://www.w3.org/2000/svg">
<path d="M75.3325 0H19.9531V36.587H75.3325V0Z" fill="#E20119"/>
<path fill-rule="evenodd" clip-rule="evenodd" d="M39.5675 14.3697V26.8329C39.5675 27.4231 39.8984 28.0009 40.4244 28.0009C40.9776 28.0009 41.3924 27.4379 41.3924 26.9267V14.4635C41.3924 13.7918 41.1159 13.2016 40.4244 13.2016C39.8169 13.2016 39.5675 13.7523 39.5675 14.3697ZM34.6756 36.6686H39.5675V29.7591H39.7601C39.7873 31.0877 41.3356 31.9989 42.7728 31.9989C45.3806 31.9989 46.2819 29.7468 46.2819 27.5169V13.2016C46.2819 11.1495 45.0373 9.20364 42.9655 9.20364H42.7728C41.1974 9.20364 39.7873 10.2778 39.7601 11.7397H39.5675V9.49997H34.6756V36.6686ZM33.2112 31.7989V9.40613H28.265V27.0601C28.265 27.5539 27.86 28.0676 27.3834 28.0503C26.7957 28.0281 26.4969 27.6083 26.4969 26.9959V9.40613H21.5234V28.8726C21.5234 30.6827 23.173 31.9989 24.951 31.9989H25.2276C26.0005 31.9989 26.6919 31.6236 27.1068 31.2482C27.9365 30.4975 27.7415 30.416 28.2674 29.6653V31.7989H33.2137H33.2112ZM52.4999 13.6856V18.0738H54.352V13.8881C54.352 13.3794 53.91 12.8139 53.384 12.8139C52.9148 12.8139 52.4999 13.2041 52.4999 13.6856ZM47.6351 28.0009C48.2426 30.616 50.2058 31.9989 53.384 31.9989C54.5174 31.9989 55.6213 31.7717 56.3967 31.4087C57.8018 30.7716 59.2143 29.248 59.2143 27.6107V22.9411H54.3495V27.3144C54.3495 27.8231 53.9075 28.3886 53.3815 28.3886C52.774 28.3886 52.4974 27.9318 52.4974 27.3144V21.3853H59.2118V13.6832C59.2118 10.8656 56.3646 9.20117 53.3815 9.20117C50.2305 9.20117 47.5512 10.8927 47.5512 13.977V27.5144C47.5512 27.7688 47.5783 27.7836 47.6351 27.9984V28.0009ZM67.4202 21.4816H72.285V20.2074C72.285 17.8466 72.2578 15.471 72.285 13.0955C72.285 10.6137 71.5664 9.20364 69.0525 9.20364H68.7759C66.6769 9.20364 65.8743 11.1891 65.4595 11.3496V9.4975H60.5972V31.7026H65.4595V14.1697C65.4595 13.6857 65.8175 13.2041 66.3435 13.2041H66.5361C68.2228 13.2041 66.7287 20.3951 67.4202 21.4816Z" fill="white"/>
<path fill-rule="evenodd" clip-rule="evenodd" d="M19.9554 36.587H75.3323V42H19.9554H0V0H19.9554V36.587Z" fill="#231F20"/>
<path fill-rule="evenodd" clip-rule="evenodd" d="M1.89355 10.7816V15.3575C1.89355 23.1658 11.344 23.1115 11.344 32.6904V33.3744C11.344 34.3276 11.0131 35.4142 10.0723 35.4142C9.40802 35.4142 8.91166 34.5424 8.91166 33.8584V26.3588H2.08864V34.6363C2.08864 38.1256 5.5162 40.3777 9.10675 40.3777H10.9588C14.6901 40.3777 18.0609 38.1898 18.0609 34.5424V31.1346C18.0609 29.0159 17.5917 26.7341 16.9842 25.2055C16.1273 23.0324 15.3272 22.6966 13.8629 21.2199C11.3762 18.7381 8.61286 17.2762 8.61286 12.2312V11.9497C8.61286 11.1175 9.00056 10.0976 9.80066 10.0976H9.88462C10.7143 10.0976 11.0452 11.0236 11.0452 11.841V17.8788H17.7868V10.8755C17.7868 6.43543 13.7517 5.02539 9.19318 5.02539C5.48904 5.02539 1.89849 7.13181 1.89849 10.7816" fill="white"/>
<path fill-rule="evenodd" clip-rule="evenodd" d="M31.5987 39.0613V39.4021C31.5987 39.7355 31.8185 39.9578 32.1543 39.9578H32.3667C32.7124 39.9578 32.9223 39.7479 32.9223 39.4021V39.0613C32.9223 38.8317 32.6828 38.5922 32.4531 38.5922H32.1543C31.8704 38.5922 31.5987 38.7922 31.5987 39.0613ZM22.4248 40.5554H23.1064V39.0613C23.2693 39.249 24.1608 40.5554 24.3016 40.5554H24.8992V37.9526H24.2176V39.3182C23.988 39.1503 23.3015 37.9526 23.1088 37.9526H22.4273V40.5554H22.4248ZM70.7021 39.6219L71.0132 38.8292L71.3269 39.6219H70.7021ZM69.6378 40.5455L70.344 40.5554C70.3712 40.4418 70.423 40.2146 70.5564 40.2146H71.5812C71.5911 40.3306 71.6676 40.5554 71.7936 40.5554H72.4332C72.4208 40.4195 72.0183 39.417 71.9343 39.2194C71.8578 39.0391 71.4553 37.9526 71.3219 37.9526L70.6527 37.9575L69.6328 40.5455H69.6378ZM54.473 39.3602C54.473 40.2615 54.9768 40.5973 55.8806 40.5973C56.3523 40.5973 56.7572 40.4541 56.9573 40.1602L56.5202 39.7009C56.4486 39.7479 56.172 39.9578 56.093 39.9578H55.9646C55.4978 39.9578 55.1966 39.8269 55.1966 39.3602V39.1898C55.1966 38.8169 55.4213 38.5922 55.7942 38.5922H56.0065C56.1695 38.5922 56.372 38.7354 56.4658 38.7971L56.9449 38.2934C56.7153 38.1378 56.4979 37.9081 56.0905 37.9081H55.6633C54.8533 37.9081 54.4681 38.5057 54.4681 39.3602H54.473ZM39.4095 38.5922H40.2639V40.5554H40.99V38.6341H41.8444V37.9501H39.412V38.5897L39.4095 38.5922ZM62.9629 40.5973H63.7309V37.9526H62.9629V40.5973ZM47.7735 40.5554H48.455V37.9526H47.7735V40.5554ZM47.7685 37.7896H48.4427L49.0921 37.1401H48.218L47.7685 37.7896ZM30.8752 38.9749V39.5305C30.8752 40.1232 31.4283 40.5973 32.0284 40.5973H32.5396C33.2508 40.5973 33.6928 39.9923 33.6928 39.2317V39.0194C33.6928 38.7403 33.4409 38.323 33.2508 38.1822C32.989 37.9871 32.6334 37.9106 32.2013 37.9106C31.4975 37.9106 30.8777 38.3057 30.8777 38.9774L30.8752 38.9749Z" fill="white"/>
</svg>
