<svg width="436" height="40" viewBox="0 0 436 40" fill="none" xmlns="http://www.w3.org/2000/svg">
<path d="M122.923 38.3757H112.752V36.9518H115.565V9.04121H112.752V7.62429H123.898L133.459 29.4884L143.391 7.62429H154.537V9.04121H151.724V36.9518H154.537V38.3757H139.288V36.9518H144.254V10.3319L132.049 36.9518H129.411L125.196 27.1736L117.95 10.381V36.9518H122.916V38.3757H122.923ZM110.493 26.7317H108.529C106.776 31.0105 105.183 34.146 104.117 35.2683C103.058 36.3906 101.445 36.9518 99.2771 36.9518H88.4327V21.7093H93.0903C94.5634 21.7093 95.7067 22.1232 96.5204 22.9579C97.306 23.7155 97.9864 25.1254 98.5686 27.1736C98.6247 27.363 98.6738 27.5524 98.7229 27.7558H100.687V14.2459H98.7229C98.1127 16.6168 97.3551 18.2442 96.4573 19.135C95.6787 19.9066 94.5563 20.2924 93.0903 20.2924H88.4327V9.04121H100.624C102.174 9.04121 103.317 9.44104 104.054 10.2407C104.994 11.2788 106.299 13.797 107.975 17.7953H109.939V7.61727H78.2126V9.0342H81.0184V36.9448H77.2166V38.3687H110.493V26.7247V26.7317ZM49.7199 10.1565C50.2951 9.41298 51.256 9.04121 52.6028 9.04121H56.3415V36.9518H51.6208V38.3757H68.5327V36.9518H63.8119V9.04121H67.5507C68.8974 9.04121 69.8584 9.41298 70.4266 10.1565C71.1631 11.1385 72.1662 13.6497 73.4288 17.7111H75.3928V7.62429H44.7536V17.7111H46.7177C47.9803 13.6567 48.9834 11.1385 49.7199 10.1565ZM187.351 23C187.351 18.3143 189.21 14.4424 192.927 11.377C196.484 8.45901 200.79 7 205.862 7C210.933 7 215.233 8.45901 218.79 11.377C222.507 14.4424 224.366 18.3143 224.366 23C224.366 27.6857 222.507 31.5576 218.79 34.623C215.233 37.541 210.926 39 205.862 39C200.797 39 196.484 37.541 192.927 34.623C189.21 31.5576 187.351 27.6857 187.351 23ZM195.81 23.007C195.81 28.5204 196.645 32.3783 198.321 34.5809C199.836 36.587 202.348 37.5901 205.862 37.5901C209.376 37.5901 211.887 36.587 213.395 34.5809C215.072 32.3783 215.907 28.5134 215.907 23.007C215.907 17.5007 215.065 13.6427 213.395 11.4331C211.88 9.42701 209.369 8.42394 205.862 8.42394C202.355 8.42394 199.836 9.42701 198.321 11.4331C196.645 13.6427 195.81 17.5007 195.81 23.007ZM172.368 38.3687H156.312V36.9448H159.132V9.04121H156.312V7.62429H170.972C175.917 7.62429 179.817 8.38185 182.672 9.88996C185.366 11.37 186.719 13.327 186.719 15.7541C186.719 18.1811 185.415 20.1241 182.798 21.4919C180.056 22.9439 176.142 23.6664 171.035 23.6664H166.553V36.9518H172.375V38.3757L172.368 38.3687ZM166.546 22.2284H169.38C172.81 22.2284 175.265 21.7725 176.731 20.8536C178.204 19.9347 178.94 18.2302 178.94 15.74C178.94 11.2648 175.938 9.02718 169.934 9.02718H166.553V22.2284H166.546ZM0.639648 23C0.639648 18.3143 2.49848 14.4424 6.21615 11.377C9.77249 8.45901 14.0794 7 19.1508 7C24.2223 7 28.5222 8.45901 32.0785 11.377C35.7962 14.4424 37.655 18.3143 37.655 23C37.655 27.6857 35.7962 31.5576 32.0785 34.623C28.5222 37.541 24.2153 39 19.1508 39C14.0864 39 9.77249 37.541 6.21615 34.623C2.49848 31.5576 0.639648 27.6857 0.639648 23ZM9.0991 23.007C9.0991 28.5204 9.93382 32.3783 11.6103 34.5809C13.1184 36.587 15.6366 37.5901 19.1438 37.5901C22.651 37.5901 25.1692 36.587 26.6844 34.5809C28.3608 32.3713 29.1955 28.5134 29.1955 23.007C29.1955 17.5007 28.3538 13.6427 26.6844 11.4331C25.1692 9.42701 22.6581 8.42394 19.1438 8.42394C15.6296 8.42394 13.1184 9.42701 11.6103 11.4331C9.93382 13.6427 9.0991 17.5007 9.0991 23.007Z" fill="#00542B"/>
<rect x="232.366" y="7" width="1" height="32" fill="#C4C4C4"/>
<path d="M339.708 0L333.196 4.46281C333.035 4.573 332.881 4.66254 332.734 4.73141C332.602 4.80028 332.463 4.85537 332.316 4.89669C332.184 4.93802 332.037 4.96556 331.876 4.97934C331.729 4.99311 331.553 5 331.348 5H327.08L331.392 0.826447C331.568 0.661157 331.729 0.523416 331.876 0.413225C332.037 0.303032 332.199 0.220387 332.36 0.165289C332.521 0.0964189 332.705 0.0550973 332.91 0.0413242C333.115 0.0137747 333.365 0 333.658 0H339.708Z" fill="#555555"/>
<path d="M252.413 23.0341C254.304 23.0341 255.665 22.5828 256.496 21.6802C257.327 20.7775 257.742 19.5167 257.742 17.8978C257.742 17.1814 257.635 16.5295 257.42 15.9421C257.205 15.3547 256.876 14.8532 256.431 14.4377C256.002 14.0079 255.45 13.6784 254.777 13.4491C254.117 13.2199 253.329 13.1053 252.413 13.1053H248.63V23.0341H252.413ZM252.413 7.66807C254.619 7.66807 256.51 7.93313 258.086 8.46324C259.676 8.97902 260.98 9.69538 261.998 10.6123C263.029 11.5293 263.788 12.611 264.276 13.8575C264.763 15.1039 265.006 16.4507 265.006 17.8978C265.006 19.4594 264.756 20.8922 264.254 22.1959C263.753 23.4997 262.986 24.6173 261.955 25.5485C260.923 26.4798 259.612 27.2105 258.022 27.7406C256.446 28.2564 254.576 28.5143 252.413 28.5143H248.63V38.9804H241.366V7.66807H252.413Z" fill="#555555"/>
<path d="M299.424 23.3135C299.424 25.5772 299.03 27.6833 298.242 29.6318C297.468 31.5803 296.372 33.2781 294.954 34.7252C293.535 36.1579 291.823 37.2826 289.817 38.0992C287.826 38.9159 285.612 39.3242 283.176 39.3242C280.741 39.3242 278.52 38.9159 276.514 38.0992C274.508 37.2826 272.789 36.1579 271.356 34.7252C269.938 33.2781 268.835 31.5803 268.047 29.6318C267.273 27.6833 266.886 25.5772 266.886 23.3135C266.886 21.0498 267.273 18.9436 268.047 16.9951C268.835 15.0466 269.938 13.356 271.356 11.9233C272.789 10.4905 274.508 9.36586 276.514 8.5492C278.52 7.73255 280.741 7.32422 283.176 7.32422C285.612 7.32422 287.826 7.73971 289.817 8.57069C291.823 9.38735 293.535 10.512 294.954 11.9448C296.372 13.3775 297.468 15.0681 298.242 17.0166C299.03 18.9651 299.424 21.0641 299.424 23.3135ZM291.988 23.3135C291.988 21.7661 291.787 20.3764 291.386 19.1442C290.985 17.8978 290.405 16.8447 289.645 15.9851C288.9 15.1254 287.983 14.4664 286.894 14.0079C285.806 13.5494 284.566 13.3202 283.176 13.3202C281.772 13.3202 280.519 13.5494 279.416 14.0079C278.327 14.4664 277.403 15.1254 276.643 15.9851C275.898 16.8447 275.325 17.8978 274.924 19.1442C274.523 20.3764 274.322 21.7661 274.322 23.3135C274.322 24.8751 274.523 26.2792 274.924 27.5257C275.325 28.7578 275.898 29.8037 276.643 30.6634C277.403 31.523 278.327 32.1821 279.416 32.6405C280.519 33.0847 281.772 33.3068 283.176 33.3068C284.566 33.3068 285.806 33.0847 286.894 32.6405C287.983 32.1821 288.9 31.523 289.645 30.6634C290.405 29.8037 290.985 28.7578 291.386 27.5257C291.787 26.2792 291.988 24.8751 291.988 23.3135Z" fill="#555555"/>
<path d="M322.567 33.1778V38.9804H303.698V7.66807H310.962V33.1778H322.567Z" fill="#555555"/>
<path d="M333.587 38.9804H326.281V7.66807H333.587V38.9804Z" fill="#555555"/>
<path d="M362.129 13.4276H353.318V38.9804H346.054V13.4276H337.243V7.66807H362.129V13.4276Z" fill="#555555"/>
<path d="M373.127 38.9804H365.821V7.66807H373.127V38.9804Z" fill="#555555"/>
<path d="M400.272 30.8783C400.444 30.8783 400.616 30.9141 400.788 30.9857C400.96 31.043 401.125 31.1505 401.283 31.3081L404.162 34.3383C402.902 35.986 401.318 37.2324 399.413 38.0777C397.522 38.9087 395.279 39.3242 392.686 39.3242C390.308 39.3242 388.173 38.9231 386.282 38.1207C384.405 37.3041 382.808 36.1865 381.489 34.7681C380.186 33.3354 379.183 31.6448 378.481 29.6963C377.779 27.7334 377.428 25.6058 377.428 23.3135C377.428 20.9781 377.807 18.8362 378.567 16.8877C379.326 14.9248 380.393 13.2342 381.769 11.8158C383.144 10.3974 384.792 9.29422 386.712 8.50622C388.632 7.71822 390.745 7.32422 393.052 7.32422C394.226 7.32422 395.33 7.43167 396.361 7.64658C397.407 7.84716 398.381 8.13371 399.284 8.50622C400.187 8.8644 401.018 9.30139 401.777 9.81717C402.536 10.3329 403.21 10.8917 403.797 11.4935L401.347 14.7816C401.189 14.9822 401.003 15.1684 400.788 15.3403C400.573 15.4979 400.273 15.5767 399.886 15.5767C399.628 15.5767 399.384 15.5194 399.155 15.4048C398.926 15.2902 398.682 15.1541 398.424 14.9965C398.166 14.8246 397.88 14.6455 397.565 14.4592C397.264 14.2586 396.898 14.0795 396.469 13.9219C396.053 13.75 395.559 13.6067 394.986 13.4921C394.427 13.3775 393.768 13.3202 393.009 13.3202C391.805 13.3202 390.702 13.5423 389.699 13.9864C388.71 14.4306 387.851 15.0824 387.12 15.9421C386.404 16.7874 385.845 17.8333 385.444 19.0798C385.057 20.3119 384.864 21.7231 384.864 23.3135C384.864 24.9181 385.078 26.3437 385.508 27.5902C385.952 28.8366 386.547 29.8897 387.292 30.7493C388.051 31.5946 388.932 32.2394 389.935 32.6835C390.938 33.1277 392.013 33.3497 393.159 33.3497C393.818 33.3497 394.42 33.3211 394.964 33.2638C395.509 33.1921 396.017 33.0847 396.49 32.9414C396.963 32.7838 397.407 32.5832 397.823 32.3397C398.238 32.0818 398.661 31.7594 399.09 31.3726C399.262 31.2293 399.449 31.1147 399.649 31.0287C399.85 30.9284 400.058 30.8783 400.272 30.8783Z" fill="#555555"/>
<path d="M423.881 27.0099L420.98 18.435C420.765 17.8906 420.536 17.253 420.292 16.5223C420.049 15.7773 419.805 14.975 419.562 14.1154C419.347 14.9893 419.117 15.7988 418.874 16.5438C418.63 17.2888 418.401 17.9336 418.186 18.478L415.306 27.0099H423.881ZM435.422 38.9804H429.791C429.161 38.9804 428.652 38.8371 428.265 38.5505C427.879 38.2497 427.585 37.87 427.384 37.4115L425.536 31.9528H413.63L411.782 37.4115C411.624 37.8127 411.338 38.178 410.922 38.5076C410.521 38.8228 410.02 38.9804 409.418 38.9804H403.744L415.865 7.66807H423.301L435.422 38.9804Z" fill="#555555"/>
</svg>
