<svg width="93" height="23" viewBox="0 0 93 23" fill="none" xmlns="http://www.w3.org/2000/svg">
<path d="M0 7.04559C0 4.96878 0.764779 3.25604 2.29892 1.90966C3.75749 0.636553 5.52748 0 7.60429 0C9.6811 0 11.4534 0.636553 12.9142 1.90966C14.4438 3.25604 15.2063 4.97107 15.2063 7.04559C15.2063 9.12011 14.4438 10.8283 12.9142 12.1632C11.4534 13.4478 9.68339 14.0889 7.60429 14.0889C5.52519 14.0889 3.75749 13.4455 2.29892 12.1632C0.764779 10.8283 0 9.11782 0 7.04559ZM3.27664 7.04559C3.27664 9.50937 3.62698 11.2473 4.32993 12.2594C5.00083 13.1936 6.09076 13.6607 7.60658 13.6607C9.1224 13.6607 10.21 13.1936 10.8832 12.2594C11.5862 11.2473 11.9388 9.50937 11.9388 7.04559C11.9388 4.58181 11.5862 2.84159 10.8832 1.82952C10.2123 0.895296 9.1224 0.428185 7.60658 0.428185C6.09076 0.428185 5.00312 0.895296 4.32993 1.82952C3.62698 2.84159 3.27664 4.58181 3.27664 7.04559Z" fill="white"/>
<path d="M21.1644 13.7775V13.3493H23.145V0.741876H21.43C20.814 0.741876 20.3744 0.922767 20.1088 1.28684C19.8111 1.72876 19.3967 2.83014 18.8677 4.59325H18.2861V0.311401H30.8569V4.59325H30.2753C29.7487 2.83014 29.3342 1.72876 29.0365 1.28684C28.7709 0.922767 28.3313 0.741876 27.7154 0.741876H25.998V13.3493H27.9787V13.7775H21.1666H21.1644Z" fill="white"/>
<path d="M77.4072 7.04559C77.4072 4.97107 78.1697 3.25604 79.7039 1.90966C81.1647 0.636553 82.9347 0 85.0115 0C87.0883 0 88.8606 0.636553 90.3192 1.90966C91.8487 3.25604 92.6135 4.97107 92.6135 7.04559C92.6135 9.12011 91.8487 10.8283 90.3192 12.1632C88.8606 13.4478 87.0883 14.0889 85.0115 14.0889C82.9347 14.0889 81.1647 13.4455 79.7039 12.1632C78.1697 10.8283 77.4072 9.12011 77.4072 7.04559ZM80.6816 7.04559C80.6816 9.50937 81.0342 11.2473 81.7372 12.2594C82.4081 13.1936 83.4957 13.6607 85.0138 13.6607C86.5319 13.6607 87.6173 13.1936 88.2882 12.2594C88.9957 11.2473 89.346 9.50937 89.346 7.04559C89.346 4.58181 88.9957 2.84159 88.2882 1.82952C87.6195 0.895296 86.5296 0.428185 85.0138 0.428185C83.498 0.428185 82.4103 0.895296 81.7372 1.82952C81.0342 2.84159 80.6816 4.58181 80.6816 7.04559Z" fill="white"/>
<path d="M44.8704 8.7469C44.0965 10.7024 43.476 11.9388 43.0088 12.4563C42.5417 12.9761 41.8319 13.2348 40.8817 13.2348H36.2335V6.22359H38.2965C38.9651 6.22359 39.478 6.41135 39.8421 6.78687C40.2016 7.16468 40.5153 7.86077 40.7786 8.87055H41.3579V3.15073H40.7786C40.5153 4.16281 40.2016 4.8566 39.8421 5.23213C39.4803 5.60994 38.9674 5.7977 38.2965 5.7977H36.2335V0.801443H41.4633C42.1502 0.801443 42.6677 0.993782 43.0203 1.37846C43.4073 1.82496 43.9431 2.9126 44.63 4.63908H45.2116V0.380127H32.3889V0.801443H33.3804V13.2348H31.7959V13.6561H45.4497V8.74461H44.8658L44.8704 8.7469Z" fill="white"/>
<path d="M55.0204 10.897H54.9219L50.7935 0.313721H46.72V0.741906H47.8557V13.3493H46.5986V13.7775H50.3882V13.3493H48.5243V0.934245L53.5824 13.7775H54.3998L59.6961 0.934245V13.3493H57.404V13.7775H63.7466V13.3493H62.2743V0.741906H63.7169V0.313721H59.3388L55.0204 10.897Z" fill="white"/>
<path d="M75.4407 1.30519C74.4195 0.643446 73.0113 0.313721 71.2184 0.313721H64.6445V0.741906H65.9497V13.3493H64.6583V13.7798H70.591V13.3493H68.4593V7.23795H71.2436C73.1006 7.23795 74.5225 6.92883 75.5117 6.30602C76.4391 5.70839 76.9039 4.88637 76.9039 3.83766C76.9039 2.78895 76.4162 1.93945 75.4407 1.30519ZM73.4235 6.16863C72.8671 6.59682 71.9351 6.81206 70.6368 6.81206H68.457V0.739616H70.8452C73.1189 0.739616 74.2546 1.77001 74.2546 3.83537C74.2546 4.96193 73.9753 5.74045 73.4212 6.16863" fill="white"/>
<path d="M0.224609 15.6368H2.73876C4.35762 15.6368 4.87511 16.326 4.87511 17.2694C4.87511 17.9998 4.62095 18.4509 4.19276 18.6478C4.77207 18.8699 5.00334 19.3187 5.00334 20.1613C5.00334 21.3612 4.20192 21.9382 2.78227 21.9382H0.224609V15.6368ZM2.68152 18.1967C3.08681 18.1967 3.18069 17.9128 3.18069 17.5762C3.18069 17.2396 3.09597 17.0244 2.68152 17.0244H1.88239V18.199H2.68152V18.1967ZM2.76624 20.6033C3.13031 20.6033 3.30204 20.3812 3.30204 19.9919C3.30204 19.6026 3.13947 19.4034 2.75708 19.4034H1.88239V20.6033H2.76624Z" fill="white"/>
<path d="M5.4541 19.4813C5.4541 17.8922 5.98075 16.9557 7.6912 16.9557C9.7474 16.9557 9.68786 18.2128 9.65581 20.0789H7.01801C7.05922 20.5025 7.22179 20.6239 7.73012 20.6239C8.38728 20.6239 8.71701 20.4865 9.05131 20.3422L9.65581 21.565C9.13832 21.8466 8.5178 22.0023 7.64769 22.0023C5.85481 22.0023 5.4541 21.1002 5.4541 19.4836M7.00885 19.0508H8.227C8.20868 18.5539 8.15602 18.3524 7.65685 18.3524C7.15768 18.3524 7.03632 18.5539 7.00885 19.0508Z" fill="white"/>
<path d="M9.94629 17.0495H10.821L11.0522 16.0878L12.3368 15.7993V17.0495H13.4244V18.4623H12.3368V20.1132C12.3368 20.3994 12.378 20.5368 12.8543 20.5368H13.4244V21.9404C13.1268 21.9656 12.8795 21.9885 12.6436 21.9885C11.1622 21.9885 10.7202 21.5466 10.7202 20.3147V18.4623H9.94858V17.0495H9.94629Z" fill="white"/>
<path d="M14.0889 15.4009H15.7306V16.7107H14.0889V15.4009ZM14.098 17.0519H15.7215V21.9428H14.098V17.0519Z" fill="white"/>
<path d="M16.4775 17.1411L17.7781 17.0381L17.8972 17.3953C18.1445 17.1068 18.5452 16.9534 19.3443 16.9534C20.0748 16.9534 20.3289 17.1892 20.4503 17.3953C20.7136 17.1159 21.1464 16.9534 21.9798 16.9534C23.1453 16.9534 23.3583 17.7273 23.3583 18.7325V21.9382H21.7417V19.147C21.7417 18.705 21.7096 18.5104 21.3181 18.5104C20.8075 18.5104 20.7228 18.705 20.7228 19.1653V21.9382H19.1039V19.147C19.1039 18.705 19.0741 18.5104 18.6803 18.5104C18.1697 18.5104 18.0827 18.705 18.0827 19.1653V21.9382H16.4775V17.1388V17.1411Z" fill="white"/>
</svg>
