<svg width="165" height="43" viewBox="0 0 165 43" fill="none" xmlns="http://www.w3.org/2000/svg">
<path d="M0 12.4985C0 8.81837 1.35667 5.77602 4.07814 3.38762C6.66557 1.12921 9.80542 0 13.4896 0C17.1737 0 20.3176 1.12921 22.9091 3.38762C25.6224 5.77602 26.975 8.81837 26.975 12.4985C26.975 16.1785 25.6224 19.2087 22.9091 21.5768C20.3176 23.8555 17.1778 24.9928 13.4896 24.9928C9.80135 24.9928 6.66557 23.8514 4.07814 21.5768C1.35667 19.2087 0 16.1785 0 12.4985ZM5.81257 12.4985C5.81257 16.8691 6.43404 19.952 7.68104 21.7474C8.87118 23.4046 10.8046 24.2333 13.4936 24.2333C16.1826 24.2333 18.112 23.4046 19.3062 21.7474C20.5532 19.952 21.1787 16.8691 21.1787 12.4985C21.1787 8.12785 20.5532 5.04081 19.3062 3.24545C18.1161 1.5882 16.1826 0.759574 13.4936 0.759574C10.8046 0.759574 8.87524 1.5882 7.68104 3.24545C6.43404 5.04081 5.81257 8.12785 5.81257 12.4985Z" fill="white"/>
<path d="M37.5443 24.4405V23.6809H41.0578V1.32015H38.0155C36.9228 1.32015 36.1429 1.64105 35.6717 2.28689C35.1437 3.07083 34.4085 5.0246 33.4702 8.15226H32.4385V0.556519H54.7383V8.15226H53.7066C52.7723 5.0246 52.0371 3.07083 51.5091 2.28689C51.0379 1.64105 50.258 1.32015 49.1654 1.32015H46.1189V23.685H49.6325V24.4445H37.5483L37.5443 24.4405Z" fill="white"/>
<path d="M137.312 12.4985C137.312 8.81837 138.665 5.77602 141.387 3.38762C143.978 1.12921 147.118 0 150.802 0C154.486 0 157.63 1.12921 160.218 3.38762C162.931 5.77602 164.288 8.81837 164.288 12.4985C164.288 16.1785 162.931 19.2087 160.218 21.5768C157.63 23.8555 154.486 24.9928 150.802 24.9928C147.118 24.9928 143.978 23.8514 141.387 21.5768C138.665 19.2087 137.312 16.1785 137.312 12.4985ZM143.121 12.4985C143.121 16.8691 143.747 19.952 144.994 21.7474C146.184 23.4046 148.113 24.2333 150.806 24.2333C153.499 24.2333 155.424 23.4046 156.615 21.7474C157.87 19.952 158.491 16.8691 158.491 12.4985C158.491 8.12785 157.87 5.04081 156.615 3.24545C155.429 1.5882 153.495 0.759574 150.806 0.759574C148.117 0.759574 146.188 1.5882 144.994 3.24545C143.747 5.04081 143.121 8.12785 143.121 12.4985Z" fill="white"/>
<path d="M79.5967 15.5165C78.2238 18.9853 77.123 21.1788 76.2944 22.0968C75.4658 23.0188 74.2066 23.4778 72.5209 23.4778H64.2753V11.0403H67.935C69.1211 11.0403 70.031 11.3733 70.6768 12.0395C71.3145 12.7097 71.871 13.9445 72.3381 15.7358H73.3658V5.58921H72.3381C71.871 7.38457 71.3145 8.61532 70.6768 9.28147C70.035 9.95169 69.1252 10.2848 67.935 10.2848H64.2753V1.42171H73.5526C74.7712 1.42171 75.6892 1.7629 76.3147 2.4453C77.0012 3.23737 77.9517 5.16677 79.1702 8.22944H80.202V0.674316H57.4553V1.42171H59.2142V23.4778H56.4033V24.2252H80.6244V15.5124H79.5886L79.5967 15.5165Z" fill="white"/>
<path d="M97.5997 19.3347H97.4291L90.1055 0.556519H82.8753V1.31609H84.894V23.6809H82.6641V24.4445H89.3824V23.6809H86.0801V1.65729L95.0528 24.4445H96.5029L105.898 1.65729V23.6809H101.832V24.4445H113.084V23.6809H110.472V1.31609H113.031V0.556519H105.264L97.5997 19.3347Z" fill="white"/>
<path d="M133.828 2.31532C132.016 1.14143 129.518 0.556519 126.337 0.556519H114.676V1.31609H116.991V23.6809H114.7V24.4445H125.225V23.6809H121.443V12.8397H126.382C129.676 12.8397 132.199 12.2913 133.954 11.1865C135.599 10.1263 136.423 8.66812 136.423 6.80778C136.423 4.94743 135.558 3.44046 133.828 2.31532ZM130.249 10.9428C129.262 11.7024 127.609 12.0842 125.306 12.0842H121.439V1.31609H125.675C129.709 1.31609 131.724 3.14395 131.724 6.80778C131.724 8.80623 131.228 10.1873 130.245 10.9468" fill="white"/>
<path fill-rule="evenodd" clip-rule="evenodd" d="M57.3807 30.8893L57.0583 30.9707L56.8955 31.0522L56.7326 31.1336L56.573 31.215L56.4916 31.2964L56.3288 31.3746L56.2473 30.8893H53.9023V38.8232H56.2473L56.3288 33.4818L56.4102 33.319V33.1561H56.573L56.6544 33.0747L56.814 32.9966L57.0583 32.9151H57.866L58.1103 32.9966L58.2731 33.0747L58.3513 33.1561L58.4327 33.319L58.5142 33.6414L58.5956 38.8232H60.8624L60.9438 33.56L61.022 33.319L61.1034 33.2376L61.1848 33.1561L61.2663 33.0747L61.4291 32.9966L61.6701 32.9151H62.5625L62.7221 32.9966L62.885 33.0747L62.9664 33.1561L63.0478 33.2376L63.1292 33.4818L63.2074 38.8232H65.4742V32.508L65.3928 32.1856L65.3146 31.9413L65.2332 31.7817L65.1518 31.7003L65.0704 31.6189L64.9889 31.456L64.9075 31.3746L64.7479 31.2964L64.6665 31.215L64.5851 31.1336L64.4222 31.0522L64.1812 30.9707L63.9369 30.8893L63.3702 30.8112H62.5625L61.9958 30.8893L61.6701 30.9707L61.5105 31.0522L61.2663 31.1336L61.1848 31.215L61.022 31.2964L60.9438 31.3746L60.781 31.456L60.6996 31.5375L60.6181 31.6189H60.4553L60.3771 31.5375L60.2957 31.456L60.2143 31.3746L60.1328 31.2964L60.0514 31.215L59.8918 31.1336L59.729 31.0522L59.5661 30.9707L59.3251 30.8893L58.7584 30.8112H57.9474L57.3807 30.8893Z" fill="white"/>
<path fill-rule="evenodd" clip-rule="evenodd" d="M39.9796 30.8893L39.6572 30.9707L39.4129 31.0522L39.25 31.1336L39.0872 31.215L39.0058 31.2964L38.8429 31.3779L38.7615 31.4593L38.6801 31.5407L38.5987 31.6221L38.5172 31.7036L38.4358 31.8664L38.3544 31.9478L38.273 32.1107L38.1915 32.2735L38.1101 32.5178L38.0287 32.8402L37.9473 33.3255V36.4L38.0287 36.9667L38.1101 37.211L38.1915 37.4553L38.273 37.6181L38.3544 37.781L38.4358 37.9438L38.5172 38.0252L38.5987 38.1067L38.6801 38.1881L38.7615 38.2695L38.8429 38.3509L38.9243 38.4324L39.0872 38.5138L39.25 38.5952L39.4129 38.6766L39.5757 38.7581L39.8982 38.8395L40.3834 38.9209H41.4354L41.8393 38.8395L42.0836 38.7581L42.2464 38.6766L42.4093 38.5952L42.5721 38.5138L42.6535 38.4324L42.7349 38.3509V39.6472L42.6535 39.81V39.9729H42.4907L42.3278 40.0543L42.0054 40.1357H41.2758L40.9534 40.0543L40.7906 39.9729L40.7091 39.8915L40.6277 39.7286L40.5463 39.4843L40.4649 39.2401H40.2206L39.8167 39.3215L39.3315 39.4029L38.9276 39.4843L38.5237 39.5658L38.1199 39.6472V39.81L38.2013 40.2139L38.2827 40.5363L38.3642 40.6992L38.4456 40.862L38.527 40.9435L38.6084 41.1063L38.6898 41.1877L38.7713 41.2691L38.8527 41.3506L38.9341 41.432L39.097 41.5134L39.1784 41.5948L39.3412 41.6763L39.5855 41.7577L39.8298 41.8391L40.2336 41.9205L41.0446 42.002H42.178L42.9857 41.9205L43.3896 41.8391L43.6339 41.7577L43.8781 41.6763L44.041 41.5948L44.2038 41.5134L44.2852 41.432L44.3667 41.3506L44.4481 41.2691L44.5295 41.1877L44.6109 41.1063L44.6924 41.0249L44.7738 40.9435L44.8552 40.7806L44.9366 40.6178L45.0181 40.4549L45.0995 40.1325L45.1809 39.6472V30.9056H42.8327L42.7512 31.3095L42.5884 31.228L42.507 31.1466L42.3441 31.0652L42.0998 30.9838L41.8556 30.9023L41.3703 30.8209H40.6407L39.9926 30.9023L39.9796 30.8893ZM40.3834 33.56L40.4649 33.3157L40.5463 33.2343V33.0715H40.7091L40.7906 32.99L40.9534 32.9086L41.2758 32.8272H41.8425L42.165 32.9086L42.3278 32.99L42.4093 33.0715L42.4907 33.1529L42.5721 33.2343L42.6535 33.3157L42.7349 33.4786V36.3121L42.6535 36.475L42.5721 36.5564L42.4907 36.6378L42.4093 36.7192L42.2464 36.8006L42.0021 36.8821H41.0316L40.8687 36.8006L40.7059 36.7192L40.6245 36.6378L40.543 36.5564L40.4616 36.475L40.3802 36.2307V33.56H40.3834Z" fill="white"/>
<path fill-rule="evenodd" clip-rule="evenodd" d="M2.82693 27.411L2.58592 27.4924L2.34165 27.5706L2.10064 27.652L1.93779 27.7334L1.77494 27.8149L1.69352 27.8963L1.53393 27.9777L1.45251 28.0591L1.37108 28.1373L1.28966 28.2187L1.20824 28.3002L1.12681 28.3816L1.04539 28.463L0.967226 28.5444L0.885802 28.6258L0.804379 28.704L0.722956 28.8669L0.641533 28.9483L0.56011 29.1111L0.481943 29.2707L0.40052 29.515L0.319096 29.7593L0.237673 30.0003L0.15625 30.4856V35.7487L0.237673 36.234L0.319096 36.5565L0.40052 36.8007L0.481943 36.9603L0.56011 37.1232L0.641533 37.286L0.722956 37.3642L0.804379 37.527L0.885802 37.6085L0.967226 37.6899L1.04539 37.8527L1.12681 37.9309L1.20824 38.0123L1.37108 38.0937L1.45251 38.1752L1.53393 38.2566L1.69352 38.338L1.77494 38.4194L1.93779 38.4976L2.10064 38.579L2.26023 38.6604L2.5045 38.7419L2.82693 38.8233L3.15262 38.9047L4.04177 38.9861H4.44563L5.41619 38.9047L5.82331 38.8233L6.06432 38.7419L6.30859 38.6604L6.47143 38.579L6.63102 38.4976L6.79387 38.4194L6.87529 38.338L7.03814 38.2566L7.11631 38.1752L7.19773 38.0937L7.27915 38.0123L7.36058 37.9309L7.442 37.8527L7.52342 37.6899L7.60484 37.6085L7.68301 37.527L7.76443 37.3642L7.84586 37.2046L7.92728 37.0417L8.0087 36.8789L8.09013 36.6379L8.16829 36.3122L8.24972 35.9898L8.33114 35.4231V35.2602L7.76443 35.182L7.19773 35.1006L6.63102 35.0192L6.14574 34.9378H5.82331L5.74188 35.4231L5.66046 35.7487L5.57904 35.9898L5.49761 36.1526L5.41619 36.3122L5.33802 36.3936L5.17518 36.475L5.01233 36.5565L4.77132 36.6379H3.7975L3.47506 36.5565L3.31221 36.475L3.23405 36.3936L3.15262 36.3122L3.0712 36.234L2.98978 36.1526L2.90835 35.9898L2.82693 35.8269L2.74551 35.5859L2.66734 34.9378V31.2965L2.74551 30.6484L2.82693 30.4041L2.90835 30.2445L2.98978 30.0817L3.0712 30.0003L3.15262 29.9188L3.23405 29.8374L3.31221 29.7593L3.55648 29.6778L3.7975 29.5964H4.77132L5.01233 29.6778L5.17518 29.7593L5.33802 29.8374L5.41619 29.9188L5.49761 30.0817L5.57904 30.1631L5.66046 30.4041L5.74188 30.7298L5.82331 31.2965H6.14574L6.63102 31.2151L7.19773 31.1337L7.76443 31.0523L8.33114 30.9708V30.8112L8.24972 30.1631L8.16829 29.8374L8.09013 29.515L8.0087 29.2707L7.92728 29.1111L7.84586 28.9483L7.76443 28.7854L7.68301 28.6258L7.60484 28.5444L7.52342 28.463L7.442 28.3816L7.36058 28.2187L7.27915 28.1373L7.11631 28.0591L7.03814 27.9777L6.95672 27.8963L6.79387 27.8149L6.71245 27.7334L6.5496 27.652L6.30859 27.5706L6.06432 27.4924L5.82331 27.411L5.33802 27.3296H3.23405L2.82693 27.411Z" fill="white"/>
<path fill-rule="evenodd" clip-rule="evenodd" d="M32.615 30.8893L32.2925 30.9707L31.9701 31.0522L31.8073 31.1336L31.6444 31.215L31.4816 31.2964L31.3187 31.3779L31.2373 31.4593L31.1559 31.5407L31.0745 31.6221L30.993 31.7036L30.9116 31.785L30.8302 31.9478L30.7488 32.0292L30.6673 32.1921L30.5859 32.3549L30.5045 32.5992L30.4231 32.9216V33.2441L30.7455 33.3255L31.2308 33.4069L31.7161 33.4883L32.2828 33.5698H32.6866L32.7681 33.3255L32.8495 33.1627L32.9309 32.9998L33.0937 32.9184L33.4162 32.837H34.1457L34.39 32.9184L34.5529 32.9998L34.6343 33.0812L34.7157 33.1627L34.7971 33.4069L34.8785 33.8922H32.856L32.1264 33.9736L31.7226 34.0551L31.4783 34.1365L31.234 34.2179L31.0712 34.2993L30.9084 34.3807L30.8269 34.4622L30.6641 34.5436L30.5827 34.625L30.5012 34.7064L30.4198 34.8693L30.3384 34.9507L30.257 35.1136L30.1755 35.2764L30.0941 35.5207L30.0127 36.006V37.0579L30.0941 37.4618L30.1755 37.7061L30.257 37.8689L30.3384 38.0318L30.4198 38.1132L30.5012 38.1946L30.5827 38.276L30.6641 38.3575L30.7455 38.4389L30.8269 38.5203L30.9898 38.6017L31.1526 38.6831L31.3155 38.7646L31.5597 38.846L31.9636 38.9274L32.8527 39.0088H33.1752L33.8233 38.9274L34.0676 38.846L34.3118 38.7646L34.4747 38.6831L34.5561 38.6017L34.719 38.5203L34.8004 38.4389L34.8818 38.8427H37.1486V32.7718L37.0672 32.4494L36.9858 32.2051L36.9044 32.0423L36.8229 31.9608L36.7415 31.798L36.6601 31.7166L36.5787 31.6352L36.4972 31.5537L36.4158 31.4723L36.3344 31.3909L36.253 31.3095L36.0901 31.228L35.9273 31.1466L35.7644 31.0652L35.5202 30.9838L35.1977 30.9023L34.5496 30.8209H33.4162L32.6052 30.9023L32.615 30.8893ZM34.719 36.5564L34.6375 36.7192L34.5561 36.8006L34.4747 36.8821L34.3118 36.9635L34.0676 37.0449H33.0156L32.7713 36.9635L32.6085 36.8821L32.527 36.8006L32.4456 36.6378V35.9897L32.527 35.8268L32.6085 35.7454L32.6899 35.664L32.9342 35.5826L34.8851 35.5011L34.7971 36.3088L34.7157 36.5531L34.719 36.5564Z" fill="white"/>
<path fill-rule="evenodd" clip-rule="evenodd" d="M48.3981 30.8894L48.0756 30.9708L47.8313 31.0523L47.5871 31.1337L47.4242 31.2151L47.2614 31.2965L47.0985 31.3779L47.0171 31.4594L46.9357 31.5408L46.8543 31.6222L46.7728 31.7036L46.6914 31.7851L46.61 31.8665L46.5286 31.9479L46.4472 32.0293L46.3657 32.1922L46.2843 32.355L46.2029 32.5179L46.1215 32.7621L46.04 33.0846V36.7258L46.1215 37.0483L46.2029 37.2925L46.2843 37.4554L46.3657 37.6182L46.4472 37.6996L46.5286 37.8625L46.61 37.9439L46.6914 38.0253L46.7728 38.1068L46.8543 38.1882L46.9357 38.2696L47.0171 38.351L47.18 38.4325L47.2614 38.5139L47.4242 38.5953L47.5871 38.6767L47.8313 38.7581L48.0756 38.8396L48.4795 38.921L49.3686 39.0024H49.7725L50.6616 38.921L51.0655 38.8396L51.3879 38.7581L51.5508 38.6767L51.7136 38.5953L51.8765 38.5139L52.0393 38.4325L52.1207 38.351L52.2022 38.2696L52.2836 38.1882L52.365 38.1068L52.4464 38.0253L52.5278 37.9439L52.6093 37.8625L52.6907 37.6996L52.7721 37.6182L52.8535 37.374L52.935 37.2111L53.0164 36.8887V36.4034L52.6125 36.322L52.0458 36.2405L51.4791 36.1591L50.9124 36.0777H50.7496L50.6681 36.1591L50.5867 36.4816L50.5053 36.7258L50.4239 36.8072L50.3424 36.8887L50.1796 36.9701L49.9353 37.0515H49.2058L48.9615 36.9701L48.7987 36.8887L48.6358 36.8072L48.5544 36.7258L48.473 36.6444L48.3915 36.4816L48.3101 36.0777L48.2287 35.7553H53.0034V33.2474L52.9219 32.8436L52.8405 32.5993L52.7591 32.355L52.6777 32.1922L52.5962 32.0293L52.5148 31.9479L52.4334 31.8665L52.352 31.7036L52.2705 31.6222L52.1891 31.5408L52.0263 31.4594L51.9449 31.3779L51.782 31.2965L51.7006 31.2151L51.5377 31.1337L51.2935 31.0523L51.0492 30.9708L50.7268 30.8894L49.9972 30.808H49.0266L48.3785 30.8894H48.3981ZM48.3166 33.7229L48.3981 33.3191L48.4795 33.1562L48.5609 33.0748L48.6423 32.9934L48.7237 32.912L48.8866 32.8305L49.0494 32.7491H50.02L50.2643 32.8305L50.4271 32.912L50.5085 32.9934L50.59 33.1562L50.6714 33.3191L50.7528 33.7229L50.8342 34.0454H48.232L48.3231 33.7229H48.3166Z" fill="white"/>
<path fill-rule="evenodd" clip-rule="evenodd" d="M11.084 30.8893L10.6801 30.9707L10.4358 31.0522L10.1916 31.1336L10.0287 31.215L9.86588 31.2964L9.78446 31.3779L9.62161 31.4593L9.54019 31.5407L9.45876 31.6221L9.37734 31.7036L9.29592 31.785L9.21449 31.8664L9.13307 31.9478L9.05165 32.1107L8.97022 32.1921L8.8888 32.3549L8.80738 32.5992L8.72595 32.7621L8.64453 33.1659V36.6476L8.72595 36.97L8.80738 37.2143L8.8888 37.4585L8.97022 37.6214L9.05165 37.7028L9.13307 37.8657L9.21449 37.9471L9.29592 38.0285L9.37734 38.1099L9.45876 38.1914L9.54019 38.2728L9.70303 38.3542L9.78446 38.4356L9.9473 38.517L10.1101 38.5985L10.273 38.6799L10.4358 38.7613L10.7583 38.8427L11.0807 38.9242L11.9699 39.0056H12.4551L13.3443 38.9242L13.6667 38.8427L13.9891 38.7613L14.152 38.6799L14.3148 38.5985L14.4777 38.517L14.6405 38.4356L14.722 38.3542L14.8848 38.2728L14.9662 38.1914L15.0477 38.1099L15.1291 38.0285L15.2105 37.9471L15.2919 37.8657L15.3733 37.7028L15.4548 37.6214L15.5362 37.4585L15.6176 37.2957L15.699 37.0514L15.7805 36.729V33.0878L15.699 32.7653L15.6176 32.521L15.5362 32.3582L15.4548 32.1954L15.3733 32.0325L15.2919 31.9511L15.2105 31.8697L15.1291 31.7882L15.0477 31.7068L14.9662 31.6254L14.8848 31.544L14.8034 31.4625L14.6405 31.3811L14.5591 31.2997L14.3963 31.2183L14.2334 31.1369L13.9891 31.0554L13.7449 30.974L13.341 30.8926L12.6929 30.8112H11.7223L11.0742 30.8926L11.084 30.8893ZM11.0025 33.8043L11.084 33.4004L11.1654 33.2376L11.2468 33.1561L11.3282 33.0747L11.4911 32.9933L11.6539 32.9119L11.9764 32.8305H12.4617L12.7841 32.9119L12.9469 32.9933L13.1098 33.0747L13.1912 33.1561L13.2726 33.2376L13.354 33.4004L13.4355 33.6447V36.1525L13.354 36.3968L13.2726 36.4782L13.1912 36.6411L13.0284 36.7225L12.9469 36.8039L12.7027 36.8853H11.7321L11.4878 36.8039L11.4064 36.7225L11.2436 36.6411L11.1621 36.4782L11.0807 36.3154L10.9993 35.9929V33.8075L11.0025 33.8043Z" fill="white"/>
<path fill-rule="evenodd" clip-rule="evenodd" d="M20.1506 30.8893L19.9063 30.9707L19.6621 31.0522L19.5025 31.1336L19.3396 31.215L19.2582 31.2964L19.1768 31.3746L19.0954 31.456L19.0172 30.8893H16.6689V38.8232H19.0172L19.0954 33.4818L19.1768 33.319L19.2582 33.2376L19.3396 33.1561L19.421 33.0747L19.5839 32.9966L19.8249 32.9151H20.7141L20.9583 32.9966L21.1212 33.0747L21.2026 33.1561L21.2808 33.2376L21.3622 33.4818L21.4436 38.8232H23.7104V32.4299L23.629 32.1856L23.5476 31.9413L23.4662 31.8631L23.388 31.7003L23.3066 31.6189L23.2251 31.5375L23.1437 31.456L23.0623 31.3746L22.9809 31.2964L22.8994 31.215L22.7399 31.1336L22.577 31.0522L22.4142 30.9707L22.0917 30.8893L21.525 30.8112H20.7141L20.1506 30.8893Z" fill="white"/>
<path fill-rule="evenodd" clip-rule="evenodd" d="M26.3005 28.5443L25.4928 28.6257V30.8893H24.3594V32.9151H25.4928V36.8788L25.5742 37.4455L25.6524 37.6898L25.7338 37.8526L25.8152 38.0122L25.8966 38.1751L25.9781 38.2565L26.0595 38.3379L26.1377 38.4193L26.2191 38.4975L26.3819 38.5789L26.5448 38.6603L26.7044 38.7418L27.0301 38.8232L27.5968 38.9046H29.7007V36.9602L28.4045 36.8788L28.082 36.8006H27.9192V36.6378L27.8378 32.9151H29.7007V30.8893H27.8378V28.4629H27.1115L26.3005 28.5443Z" fill="white"/>
</svg>
