<svg width="438" height="32" viewBox="0 0 438 32" fill="none" xmlns="http://www.w3.org/2000/svg">
<path d="M122.283 31.3757H112.112V29.9518H114.925V2.04121H112.112V0.624288H123.258L132.819 22.4884L142.751 0.624288H153.897V2.04121H151.085V29.9518H153.897V31.3757H138.648V29.9518H143.614V3.33187L131.409 29.9518H128.772L124.556 20.1736L117.31 3.38097V29.9518H122.276V31.3757H122.283ZM109.854 19.7317H107.89C106.136 24.0105 104.544 27.146 103.477 28.2683C102.418 29.3906 100.805 29.9518 98.6374 29.9518H87.7931V14.7093H92.4507C93.9237 14.7093 95.0671 15.1232 95.8808 15.9579C96.6664 16.7155 97.3468 18.1254 97.929 20.1736C97.9851 20.363 98.0342 20.5524 98.0833 20.7558H100.047V7.24594H98.0833C97.473 9.61684 96.7155 11.2442 95.8176 12.135C95.039 12.9066 93.9167 13.2924 92.4507 13.2924H87.7931V2.04121H99.9842C101.534 2.04121 102.678 2.44104 103.414 3.24068C104.354 4.27883 105.659 6.79702 107.335 10.7953H109.299V0.617273H77.573V2.0342H80.3788V29.9448H76.5769V31.3687H109.854V19.7247V19.7317ZM49.0802 3.15651C49.6554 2.41298 50.6164 2.04121 51.9632 2.04121H55.7019V29.9518H50.9811V31.3757H67.893V29.9518H63.1723V2.04121H66.911C68.2578 2.04121 69.2188 2.41298 69.7869 3.15651C70.5235 4.13854 71.5265 6.64972 72.7891 10.7111H74.7532V0.624288H44.114V10.7111H46.078C47.3406 6.65673 48.3437 4.13854 49.0802 3.15651ZM186.711 16C186.711 11.3143 188.57 7.44235 192.288 4.37703C195.844 1.45901 200.151 0 205.222 0C210.294 0 214.594 1.45901 218.15 4.37703C221.868 7.44235 223.726 11.3143 223.726 16C223.726 20.6857 221.868 24.5576 218.15 27.623C214.594 30.541 210.287 32 205.222 32C200.158 32 195.844 30.541 192.288 27.623C188.57 24.5576 186.711 20.6857 186.711 16ZM195.171 16.007C195.171 21.5204 196.005 25.3783 197.682 27.5809C199.197 29.587 201.708 30.5901 205.222 30.5901C208.737 30.5901 211.248 29.587 212.756 27.5809C214.432 25.3783 215.267 21.5134 215.267 16.007C215.267 10.5007 214.425 6.6427 212.756 4.43314C211.241 2.42701 208.73 1.42394 205.222 1.42394C201.715 1.42394 199.197 2.42701 197.682 4.43314C196.005 6.6427 195.171 10.5007 195.171 16.007ZM171.728 31.3687H155.672V29.9448H158.492V2.04121H155.672V0.624288H170.332C175.277 0.624288 179.178 1.38185 182.032 2.88996C184.726 4.37001 186.08 6.32705 186.08 8.75406C186.08 11.1811 184.775 13.1241 182.159 14.4919C179.416 15.9439 175.502 16.6664 170.395 16.6664H165.913V29.9518H171.735V31.3757L171.728 31.3687ZM165.906 15.2284H168.74C172.17 15.2284 174.625 14.7725 176.091 13.8536C177.564 12.9347 178.301 11.2302 178.301 8.74003C178.301 4.2648 175.299 2.02718 169.294 2.02718H165.913V15.2284H165.906ZM0 16C0 11.3143 1.85883 7.44235 5.5765 4.37703C9.13284 1.45901 13.4397 0 18.5112 0C23.5826 0 27.8825 1.45901 31.4388 4.37703C35.1565 7.44235 37.0153 11.3143 37.0153 16C37.0153 20.6857 35.1565 24.5576 31.4388 27.623C27.8825 30.541 23.5756 32 18.5112 32C13.4467 32 9.13284 30.541 5.5765 27.623C1.85883 24.5576 0 20.6857 0 16ZM8.45945 16.007C8.45945 21.5204 9.29417 25.3783 10.9706 27.5809C12.4787 29.587 14.9969 30.5901 18.5042 30.5901C22.0114 30.5901 24.5296 29.587 26.0447 27.5809C27.7212 25.3713 28.5559 21.5134 28.5559 16.007C28.5559 10.5007 27.7142 6.6427 26.0447 4.43314C24.5296 2.42701 22.0184 1.42394 18.5042 1.42394C14.9899 1.42394 12.4787 2.42701 10.9706 4.43314C9.29417 6.6427 8.45945 10.5007 8.45945 16.007Z" fill="#00542B"/>
<rect x="231.727" width="1" height="32" fill="#C4C4C4"/>
<path d="M263.571 23.5541C263.743 23.5541 263.915 23.5899 264.087 23.6615C264.259 23.7188 264.424 23.8263 264.581 23.9839L267.461 27.0141C266.2 28.6617 264.617 29.9082 262.712 30.7535C260.821 31.5845 258.578 32 255.985 32C253.607 32 251.472 31.5988 249.581 30.7965C247.704 29.9799 246.106 28.8623 244.788 27.4439C243.485 26.0112 242.482 24.3206 241.78 22.3721C241.078 20.4092 240.727 18.2816 240.727 15.9893C240.727 13.6539 241.106 11.512 241.866 9.56347C242.625 7.60063 243.692 5.91001 245.068 4.4916C246.443 3.0732 248.091 1.97 250.011 1.182C251.931 0.394 254.044 0 256.35 0C257.525 0 258.629 0.107455 259.66 0.322364C260.706 0.522945 261.68 0.80949 262.583 1.182C263.485 1.54018 264.316 1.97717 265.076 2.49295C265.835 3.00873 266.509 3.56749 267.096 4.16924L264.646 7.45735C264.488 7.65794 264.302 7.84419 264.087 8.01612C263.872 8.17372 263.571 8.25252 263.185 8.25252C262.927 8.25252 262.683 8.19521 262.454 8.08059C262.225 7.96597 261.981 7.82986 261.723 7.67226C261.465 7.50034 261.179 7.32125 260.864 7.13499C260.563 6.93441 260.197 6.75532 259.768 6.59772C259.352 6.42579 258.858 6.28252 258.285 6.1679C257.726 6.05328 257.067 5.99597 256.307 5.99597C255.104 5.99597 254.001 6.21804 252.998 6.66219C252.009 7.10633 251.15 7.75823 250.419 8.61786C249.703 9.46317 249.144 10.5091 248.743 11.7555C248.356 12.9877 248.162 14.3989 248.162 15.9893C248.162 17.5939 248.377 19.0195 248.807 20.266C249.251 21.5124 249.846 22.5655 250.591 23.4251C251.35 24.2704 252.231 24.9152 253.234 25.3593C254.237 25.8034 255.312 26.0255 256.458 26.0255C257.117 26.0255 257.719 25.9969 258.263 25.9396C258.808 25.8679 259.316 25.7605 259.789 25.6172C260.262 25.4596 260.706 25.259 261.121 25.0154C261.537 24.7576 261.96 24.4352 262.389 24.0484C262.561 23.9051 262.748 23.7905 262.948 23.7045C263.149 23.6042 263.357 23.5541 263.571 23.5541Z" fill="#555555"/>
<path d="M297.969 0.343856V31.6561H290.662V18.4177H277.939V31.6561H270.632V0.343856H277.939V13.4318H290.662V0.343856H297.969Z" fill="#555555"/>
<path d="M320.592 19.6857L317.691 11.1108C317.476 10.5664 317.246 9.92881 317.003 9.19812C316.759 8.4531 316.516 7.65077 316.272 6.79113C316.057 7.6651 315.828 8.47459 315.585 9.21961C315.341 9.96463 315.112 10.6094 314.897 11.1538L312.017 19.6857H320.592ZM332.133 31.6561H326.502C325.872 31.6561 325.363 31.5129 324.976 31.2263C324.589 30.9255 324.296 30.5458 324.095 30.0873L322.247 24.6286H310.341L308.493 30.0873C308.335 30.4885 308.048 30.8538 307.633 31.1833C307.232 31.4985 306.73 31.6561 306.129 31.6561H300.455L312.576 0.343856H320.012L332.133 31.6561Z" fill="#555555"/>
<path d="M344.788 15.0651C345.777 15.0651 346.615 14.9434 347.302 14.6998C348.004 14.4419 348.578 14.0909 349.022 13.6467C349.466 13.2026 349.788 12.6868 349.989 12.0994C350.189 11.4977 350.29 10.8529 350.29 10.1652C350.29 8.78979 349.838 7.71524 348.936 6.94157C348.047 6.1679 346.665 5.78106 344.788 5.78106H341.865V15.0651H344.788ZM360.219 31.6561H353.642C352.424 31.6561 351.55 31.1977 351.02 30.2807L345.82 21.1901C345.576 20.8032 345.304 20.5238 345.003 20.3519C344.702 20.1657 344.272 20.0725 343.713 20.0725H341.865V31.6561H334.601V0.343856H344.788C347.052 0.343856 348.979 0.580256 350.569 1.05306C352.174 1.51153 353.478 2.15626 354.48 2.98724C355.498 3.81822 356.236 4.79964 356.694 5.9315C357.152 7.06335 357.382 8.2955 357.382 9.62794C357.382 10.6452 357.246 11.6051 356.973 12.5077C356.701 13.4103 356.3 14.2485 355.77 15.0222C355.24 15.7815 354.581 16.4621 353.793 17.0638C353.019 17.6655 352.124 18.1598 351.106 18.5467C351.579 18.7902 352.023 19.0983 352.439 19.4708C352.854 19.829 353.227 20.2588 353.556 20.7602L360.219 31.6561Z" fill="#555555"/>
<path d="M377.348 15.4305H388.48V28.6474C386.876 29.8223 385.164 30.6747 383.344 31.2048C381.539 31.7349 379.648 32 377.67 32C375.092 32 372.742 31.5988 370.621 30.7965C368.515 29.9799 366.71 28.8623 365.206 27.4439C363.701 26.0112 362.541 24.3206 361.724 22.3721C360.908 20.4092 360.499 18.2816 360.499 15.9893C360.499 13.6539 360.886 11.512 361.66 9.56347C362.433 7.60063 363.537 5.91001 364.969 4.4916C366.416 3.0732 368.157 1.97 370.192 1.182C372.24 0.394 374.526 0 377.047 0C378.351 0 379.576 0.107455 380.722 0.322364C381.868 0.537273 382.921 0.830982 383.881 1.20349C384.856 1.576 385.744 2.02015 386.546 2.53593C387.349 3.05171 388.065 3.61048 388.695 4.21222L386.589 7.41437C386.26 7.91583 385.83 8.22386 385.3 8.33848C384.784 8.4531 384.225 8.32416 383.623 7.95165C383.05 7.60779 382.506 7.31408 381.99 7.07052C381.489 6.81263 380.973 6.60488 380.443 6.44728C379.913 6.28968 379.354 6.17506 378.767 6.10343C378.179 6.03179 377.52 5.99597 376.789 5.99597C375.428 5.99597 374.203 6.23953 373.114 6.72666C372.026 7.19946 371.094 7.87284 370.321 8.74681C369.561 9.62078 368.974 10.6738 368.558 11.906C368.143 13.1238 367.935 14.4849 367.935 15.9893C367.935 17.6512 368.164 19.1269 368.623 20.4164C369.081 21.7058 369.726 22.7947 370.557 23.683C371.402 24.5713 372.405 25.2518 373.566 25.7246C374.741 26.1831 376.037 26.4124 377.456 26.4124C378.33 26.4124 379.118 26.3264 379.82 26.1545C380.536 25.9825 381.231 25.7533 381.904 25.4668V20.7173H378.81C378.351 20.7173 377.993 20.5955 377.735 20.3519C377.477 20.1084 377.348 19.8003 377.348 19.4278V15.4305Z" fill="#555555"/>
<path d="M400.672 5.9315V13.2384H410.515V18.6111H400.672V26.0685H413.524V31.6561H393.366V0.343856H413.524V5.9315H400.672Z" fill="#555555"/>
<path d="M435.305 6.70517C435.09 7.04903 434.861 7.30692 434.617 7.47885C434.388 7.65077 434.087 7.73674 433.714 7.73674C433.385 7.73674 433.027 7.63645 432.64 7.43586C432.267 7.22095 431.838 6.98455 431.35 6.72666C430.878 6.46877 430.333 6.23953 429.717 6.03895C429.101 5.82404 428.399 5.71659 427.611 5.71659C426.25 5.71659 425.233 6.0103 424.559 6.59772C423.9 7.17081 423.571 7.95165 423.571 8.94023C423.571 9.57063 423.771 10.0936 424.172 10.5091C424.574 10.9246 425.097 11.2827 425.741 11.5836C426.4 11.8845 427.145 12.1639 427.976 12.4218C428.822 12.6653 429.681 12.9447 430.555 13.2599C431.429 13.5608 432.282 13.919 433.113 14.3345C433.958 14.7499 434.703 15.2801 435.348 15.9248C436.007 16.5695 436.537 17.3575 436.938 18.2888C437.339 19.2057 437.54 20.3161 437.54 21.6199C437.54 23.0669 437.289 24.4209 436.788 25.6817C436.286 26.9425 435.556 28.0457 434.596 28.9913C433.65 29.9225 432.475 30.6604 431.071 31.2048C429.681 31.7349 428.098 32 426.322 32C425.347 32 424.352 31.8997 423.334 31.6991C422.331 31.4985 421.357 31.2192 420.412 30.861C419.466 30.4885 418.578 30.0515 417.747 29.55C416.916 29.0486 416.192 28.4898 415.576 27.8737L417.725 24.4782C417.897 24.2346 418.119 24.034 418.391 23.8764C418.678 23.7045 418.986 23.6185 419.316 23.6185C419.745 23.6185 420.175 23.7546 420.605 24.0269C421.049 24.2991 421.543 24.6 422.088 24.9295C422.647 25.259 423.284 25.5599 424.001 25.8321C424.717 26.1043 425.562 26.2404 426.536 26.2404C427.855 26.2404 428.879 25.9539 429.61 25.3808C430.34 24.7934 430.706 23.8693 430.706 22.6085C430.706 21.8778 430.505 21.2832 430.104 20.8247C429.703 20.3662 429.173 19.9866 428.514 19.6857C427.869 19.3848 427.131 19.1198 426.3 18.8905C425.469 18.6613 424.617 18.4106 423.743 18.1383C422.869 17.8518 422.016 17.5079 421.185 17.1068C420.354 16.6913 419.609 16.154 418.95 15.495C418.305 14.8216 417.783 13.9906 417.381 13.002C416.98 11.9991 416.78 10.767 416.78 9.30557C416.78 8.13074 417.016 6.98455 417.489 5.86702C417.962 4.7495 418.656 3.75375 419.573 2.87978C420.49 2.00582 421.615 1.31095 422.948 0.795163C424.28 0.265054 425.806 0 427.525 0C428.485 0 429.416 0.0788004 430.319 0.236401C431.236 0.379674 432.103 0.601746 432.919 0.902618C433.736 1.18917 434.495 1.54018 435.197 1.95567C435.914 2.35684 436.551 2.81531 437.11 3.33109L435.305 6.70517Z" fill="#555555"/>
</svg>
