<svg width="510" height="32" viewBox="0 0 510 32" fill="none" xmlns="http://www.w3.org/2000/svg">
<path d="M122.283 31.3757H112.112V29.9518H114.925V2.04121H112.112V0.624288H123.258L132.819 22.4884L142.751 0.624288H153.897V2.04121H151.085V29.9518H153.897V31.3757H138.648V29.9518H143.614V3.33187L131.409 29.9518H128.772L124.556 20.1736L117.31 3.38097V29.9518H122.276V31.3757H122.283ZM109.854 19.7317H107.89C106.136 24.0105 104.544 27.146 103.477 28.2683C102.418 29.3906 100.805 29.9518 98.6374 29.9518H87.7931V14.7093H92.4507C93.9237 14.7093 95.0671 15.1232 95.8808 15.9579C96.6664 16.7155 97.3468 18.1254 97.929 20.1736C97.9851 20.363 98.0342 20.5524 98.0833 20.7558H100.047V7.24595H98.0833C97.473 9.61684 96.7155 11.2442 95.8176 12.135C95.039 12.9066 93.9167 13.2924 92.4507 13.2924H87.7931V2.04121H99.9842C101.534 2.04121 102.678 2.44104 103.414 3.24068C104.354 4.27883 105.659 6.79702 107.335 10.7953H109.299V0.617273H77.573V2.0342H80.3788V29.9448H76.5769V31.3687H109.854V19.7247V19.7317ZM49.0802 3.15651C49.6554 2.41298 50.6164 2.04121 51.9632 2.04121H55.7019V29.9518H50.9811V31.3757H67.893V29.9518H63.1723V2.04121H66.911C68.2578 2.04121 69.2188 2.41298 69.7869 3.15651C70.5235 4.13854 71.5265 6.64972 72.7891 10.7111H74.7532V0.624288H44.114V10.7111H46.078C47.3406 6.65673 48.3437 4.13854 49.0802 3.15651ZM186.711 16C186.711 11.3143 188.57 7.44235 192.288 4.37703C195.844 1.45901 200.151 0 205.222 0C210.294 0 214.594 1.45901 218.15 4.37703C221.868 7.44235 223.726 11.3143 223.726 16C223.726 20.6857 221.868 24.5576 218.15 27.623C214.594 30.541 210.287 32 205.222 32C200.158 32 195.844 30.541 192.288 27.623C188.57 24.5576 186.711 20.6857 186.711 16ZM195.171 16.007C195.171 21.5204 196.005 25.3783 197.682 27.5809C199.197 29.587 201.708 30.5901 205.222 30.5901C208.737 30.5901 211.248 29.587 212.756 27.5809C214.432 25.3783 215.267 21.5134 215.267 16.007C215.267 10.5007 214.425 6.6427 212.756 4.43314C211.241 2.42701 208.73 1.42394 205.222 1.42394C201.715 1.42394 199.197 2.42701 197.682 4.43314C196.005 6.6427 195.171 10.5007 195.171 16.007ZM171.728 31.3687H155.672V29.9448H158.492V2.04121H155.672V0.624288H170.332C175.277 0.624288 179.178 1.38185 182.032 2.88996C184.726 4.37001 186.08 6.32705 186.08 8.75406C186.08 11.1811 184.775 13.1241 182.159 14.4919C179.416 15.9439 175.502 16.6664 170.395 16.6664H165.913V29.9518H171.735V31.3757L171.728 31.3687ZM165.906 15.2284H168.74C172.17 15.2284 174.625 14.7725 176.091 13.8536C177.564 12.9347 178.301 11.2302 178.301 8.74003C178.301 4.2648 175.299 2.02718 169.294 2.02718H165.913V15.2284H165.906ZM0 16C0 11.3143 1.85883 7.44235 5.5765 4.37703C9.13284 1.45901 13.4397 0 18.5112 0C23.5826 0 27.8825 1.45901 31.4388 4.37703C35.1565 7.44235 37.0153 11.3143 37.0153 16C37.0153 20.6857 35.1565 24.5576 31.4388 27.623C27.8825 30.541 23.5756 32 18.5112 32C13.4467 32 9.13284 30.541 5.5765 27.623C1.85883 24.5576 0 20.6857 0 16ZM8.45945 16.007C8.45945 21.5204 9.29417 25.3783 10.9706 27.5809C12.4787 29.587 14.9969 30.5901 18.5042 30.5901C22.0114 30.5901 24.5296 29.587 26.0447 27.5809C27.7212 25.3713 28.5559 21.5134 28.5559 16.007C28.5559 10.5007 27.7142 6.6427 26.0447 4.43314C24.5296 2.42701 22.0184 1.42394 18.5042 1.42394C14.9899 1.42394 12.4787 2.42701 10.9706 4.43314C9.29417 6.6427 8.45945 10.5007 8.45945 16.007Z" fill="#00542B"/>
<rect x="231.727" width="1" height="32" fill="#C4C4C4"/>
<path d="M260.864 19.6857L257.962 11.1108C257.747 10.5664 257.518 9.92881 257.275 9.19812C257.031 8.4531 256.787 7.65077 256.544 6.79113C256.329 7.6651 256.1 8.47459 255.856 9.21961C255.613 9.96463 255.383 10.6094 255.168 11.1538L252.289 19.6857H260.864ZM272.404 31.6561H266.774C266.143 31.6561 265.635 31.5129 265.248 31.2263C264.861 30.9255 264.567 30.5458 264.367 30.0873L262.518 24.6286H250.612L248.764 30.0873C248.607 30.4885 248.32 30.8538 247.905 31.1833C247.503 31.4985 247.002 31.6561 246.4 31.6561H240.727L252.847 0.343856H260.283L272.404 31.6561Z" fill="#555555"/>
<path d="M286.282 25.9181C287.257 25.9181 288.123 25.7605 288.883 25.4453C289.656 25.1157 290.308 24.6501 290.838 24.0484C291.368 23.4466 291.77 22.7159 292.042 21.8563C292.328 20.9823 292.472 19.9937 292.472 18.8905V0.343856H299.736V18.8905C299.736 20.8104 299.42 22.5726 298.79 24.1773C298.174 25.782 297.286 27.1645 296.125 28.3251C294.965 29.4856 293.553 30.3882 291.891 31.0329C290.229 31.6776 288.36 32 286.282 32C284.191 32 282.314 31.6776 280.652 31.0329C278.99 30.3882 277.578 29.4856 276.418 28.3251C275.257 27.1645 274.369 25.782 273.753 24.1773C273.137 22.5726 272.829 20.8104 272.829 18.8905V0.343856H280.093V18.869C280.093 19.9722 280.229 20.9608 280.501 21.8348C280.788 22.6944 281.196 23.4323 281.726 24.0484C282.256 24.6501 282.901 25.1157 283.66 25.4453C284.434 25.7605 285.308 25.9181 286.282 25.9181Z" fill="#555555"/>
<path d="M327.052 6.10343H318.24V31.6561H310.976V6.10343H302.165V0.343856H327.052V6.10343Z" fill="#555555"/>
<path d="M359.902 15.9893C359.902 18.253 359.508 20.3591 358.72 22.3076C357.946 24.2561 356.85 25.9539 355.431 27.4009C354.013 28.8337 352.301 29.9584 350.295 30.775C348.304 31.5917 346.09 32 343.654 32C341.219 32 338.998 31.5917 336.992 30.775C334.986 29.9584 333.267 28.8337 331.834 27.4009C330.416 25.9539 329.313 24.2561 328.525 22.3076C327.751 20.3591 327.364 18.253 327.364 15.9893C327.364 13.7255 327.751 11.6194 328.525 9.67092C329.313 7.72241 330.416 6.03179 331.834 4.59906C333.267 3.16633 334.986 2.04164 336.992 1.22498C338.998 0.408328 341.219 0 343.654 0C346.09 0 348.304 0.415491 350.295 1.24647C352.301 2.06313 354.013 3.18782 355.431 4.62055C356.85 6.05328 357.946 7.7439 358.72 9.69241C359.508 11.6409 359.902 13.7399 359.902 15.9893ZM352.466 15.9893C352.466 14.4419 352.265 13.0522 351.864 11.82C351.463 10.5735 350.882 9.52048 350.123 8.66085C349.378 7.80121 348.461 7.14215 347.372 6.68368C346.283 6.22521 345.044 5.99597 343.654 5.99597C342.25 5.99597 340.997 6.22521 339.893 6.68368C338.805 7.14215 337.88 7.80121 337.121 8.66085C336.376 9.52048 335.803 10.5735 335.402 11.82C335.001 13.0522 334.8 14.4419 334.8 15.9893C334.8 17.5509 335.001 18.955 335.402 20.2015C335.803 21.4336 336.376 22.4795 337.121 23.3392C337.88 24.1988 338.805 24.8578 339.893 25.3163C340.997 25.7605 342.25 25.9825 343.654 25.9825C345.044 25.9825 346.283 25.7605 347.372 25.3163C348.461 24.8578 349.378 24.1988 350.123 23.3392C350.882 22.4795 351.463 21.4336 351.864 20.2015C352.265 18.955 352.466 17.5509 352.466 15.9893Z" fill="#555555"/>
<path d="M385.062 6.10343H376.251V31.6561H368.987V6.10343H360.176V0.343856H385.062V6.10343Z" fill="#555555"/>
<path d="M395.2 5.9315V13.2384H405.043V18.6111H395.2V26.0685H408.052V31.6561H387.893V0.343856H408.052V5.9315H395.2Z" fill="#555555"/>
<path d="M446.875 0.343856V31.6561H440.471V13.6467C440.471 13.2313 440.478 12.7799 440.492 12.2928C440.521 11.8057 440.564 11.3114 440.621 10.8099L432.304 26.9066C432.046 27.4081 431.695 27.7878 431.251 28.0457C430.821 28.3036 430.327 28.4325 429.768 28.4325H428.78C428.221 28.4325 427.719 28.3036 427.275 28.0457C426.845 27.7878 426.502 27.4081 426.244 26.9066L417.927 10.767C417.97 11.2827 418.006 11.7914 418.034 12.2928C418.063 12.7799 418.077 13.2313 418.077 13.6467V31.6561H411.673V0.343856H417.217C417.533 0.343856 417.805 0.351019 418.034 0.365345C418.278 0.379673 418.493 0.422655 418.679 0.494292C418.865 0.565928 419.03 0.680546 419.173 0.838147C419.331 0.98142 419.481 1.18916 419.624 1.46138L427.684 17.3432C427.97 17.8876 428.242 18.4535 428.5 19.041C428.772 19.6284 429.03 20.2301 429.274 20.8462C429.517 20.2158 429.768 19.5997 430.026 18.998C430.298 18.3962 430.585 17.8231 430.886 17.2787L438.923 1.46138C439.067 1.18916 439.21 0.98142 439.353 0.838147C439.511 0.680546 439.683 0.565928 439.869 0.494292C440.055 0.422655 440.263 0.379673 440.492 0.365345C440.736 0.351019 441.015 0.343856 441.33 0.343856H446.875Z" fill="#555555"/>
<path d="M463.12 15.7099C465.012 15.7099 466.373 15.2586 467.204 14.3559C468.035 13.4533 468.45 12.1925 468.45 10.5735C468.45 9.85717 468.343 9.20528 468.128 8.61786C467.913 8.03045 467.583 7.52899 467.139 7.1135C466.709 6.68368 466.158 6.35415 465.484 6.12492C464.825 5.89568 464.037 5.78106 463.12 5.78106H459.338V15.7099H463.12ZM463.12 0.343856C465.327 0.343856 467.218 0.60891 468.794 1.13902C470.384 1.6548 471.688 2.37117 472.705 3.28811C473.737 4.20506 474.496 5.28677 474.983 6.53324C475.471 7.77972 475.714 9.12648 475.714 10.5735C475.714 12.1352 475.463 13.5679 474.962 14.8717C474.46 16.1755 473.694 17.293 472.662 18.2243C471.631 19.1556 470.32 19.8863 468.73 20.4164C467.154 20.9322 465.284 21.1901 463.12 21.1901H459.338V31.6561H452.074V0.343856H463.12Z" fill="#555555"/>
<path d="M509.272 15.9893C509.272 18.253 508.878 20.3591 508.09 22.3076C507.316 24.2561 506.22 25.9539 504.802 27.4009C503.383 28.8337 501.671 29.9584 499.665 30.775C497.674 31.5917 495.46 32 493.025 32C490.589 32 488.368 31.5917 486.363 30.775C484.357 29.9584 482.637 28.8337 481.205 27.4009C479.786 25.9539 478.683 24.2561 477.895 22.3076C477.121 20.3591 476.735 18.253 476.735 15.9893C476.735 13.7255 477.121 11.6194 477.895 9.67092C478.683 7.72241 479.786 6.03179 481.205 4.59906C482.637 3.16633 484.357 2.04164 486.363 1.22498C488.368 0.408328 490.589 0 493.025 0C495.46 0 497.674 0.415491 499.665 1.24647C501.671 2.06313 503.383 3.18782 504.802 4.62055C506.22 6.05328 507.316 7.7439 508.09 9.69241C508.878 11.6409 509.272 13.7399 509.272 15.9893ZM501.836 15.9893C501.836 14.4419 501.635 13.0522 501.234 11.82C500.833 10.5735 500.253 9.52048 499.494 8.66085C498.749 7.80121 497.832 7.14215 496.743 6.68368C495.654 6.22521 494.415 5.99597 493.025 5.99597C491.621 5.99597 490.367 6.22521 489.264 6.68368C488.175 7.14215 487.251 7.80121 486.492 8.66085C485.746 9.52048 485.173 10.5735 484.772 11.82C484.371 13.0522 484.17 14.4419 484.17 15.9893C484.17 17.5509 484.371 18.955 484.772 20.2015C485.173 21.4336 485.746 22.4795 486.492 23.3392C487.251 24.1988 488.175 24.8578 489.264 25.3163C490.367 25.7605 491.621 25.9825 493.025 25.9825C494.415 25.9825 495.654 25.7605 496.743 25.3163C497.832 24.8578 498.749 24.1988 499.494 23.3392C500.253 22.4795 500.833 21.4336 501.234 20.2015C501.635 18.955 501.836 17.5509 501.836 15.9893Z" fill="#555555"/>
</svg>
