<svg width="535" height="32" viewBox="0 0 535 32" fill="none" xmlns="http://www.w3.org/2000/svg">
<path d="M122.283 31.3757H112.112V29.9518H114.925V2.04121H112.112V0.624288H123.258L132.819 22.4884L142.751 0.624288H153.897V2.04121H151.085V29.9518H153.897V31.3757H138.648V29.9518H143.614V3.33187L131.409 29.9518H128.772L124.556 20.1736L117.31 3.38097V29.9518H122.276V31.3757H122.283ZM109.854 19.7317H107.89C106.136 24.0105 104.544 27.146 103.477 28.2683C102.418 29.3906 100.805 29.9518 98.6374 29.9518H87.7931V14.7093H92.4507C93.9237 14.7093 95.0671 15.1232 95.8808 15.9579C96.6664 16.7155 97.3468 18.1254 97.929 20.1736C97.9851 20.363 98.0342 20.5524 98.0833 20.7558H100.047V7.24594H98.0833C97.473 9.61684 96.7155 11.2442 95.8176 12.135C95.039 12.9066 93.9167 13.2924 92.4507 13.2924H87.7931V2.04121H99.9842C101.534 2.04121 102.678 2.44104 103.414 3.24068C104.354 4.27883 105.659 6.79702 107.335 10.7953H109.299V0.617273H77.573V2.0342H80.3788V29.9448H76.5769V31.3687H109.854V19.7247V19.7317ZM49.0802 3.15651C49.6554 2.41298 50.6164 2.04121 51.9632 2.04121H55.7019V29.9518H50.9811V31.3757H67.893V29.9518H63.1723V2.04121H66.911C68.2578 2.04121 69.2188 2.41298 69.7869 3.15651C70.5235 4.13854 71.5265 6.64972 72.7891 10.7111H74.7532V0.624288H44.114V10.7111H46.078C47.3406 6.65673 48.3437 4.13854 49.0802 3.15651ZM186.711 16C186.711 11.3143 188.57 7.44235 192.288 4.37703C195.844 1.45901 200.151 0 205.222 0C210.294 0 214.594 1.45901 218.15 4.37703C221.868 7.44235 223.726 11.3143 223.726 16C223.726 20.6857 221.868 24.5576 218.15 27.623C214.594 30.541 210.287 32 205.222 32C200.158 32 195.844 30.541 192.288 27.623C188.57 24.5576 186.711 20.6857 186.711 16ZM195.171 16.007C195.171 21.5204 196.005 25.3783 197.682 27.5809C199.197 29.587 201.708 30.5901 205.222 30.5901C208.737 30.5901 211.248 29.587 212.756 27.5809C214.432 25.3783 215.267 21.5134 215.267 16.007C215.267 10.5007 214.425 6.6427 212.756 4.43314C211.241 2.42701 208.73 1.42394 205.222 1.42394C201.715 1.42394 199.197 2.42701 197.682 4.43314C196.005 6.6427 195.171 10.5007 195.171 16.007ZM171.728 31.3687H155.672V29.9448H158.492V2.04121H155.672V0.624288H170.332C175.277 0.624288 179.178 1.38185 182.032 2.88996C184.726 4.37001 186.08 6.32705 186.08 8.75406C186.08 11.1811 184.775 13.1241 182.159 14.4919C179.416 15.9439 175.502 16.6664 170.395 16.6664H165.913V29.9518H171.735V31.3757L171.728 31.3687ZM165.906 15.2284H168.74C172.17 15.2284 174.625 14.7725 176.091 13.8536C177.564 12.9347 178.301 11.2302 178.301 8.74003C178.301 4.2648 175.299 2.02718 169.294 2.02718H165.913V15.2284H165.906ZM0 16C0 11.3143 1.85883 7.44235 5.5765 4.37703C9.13284 1.45901 13.4397 0 18.5112 0C23.5826 0 27.8825 1.45901 31.4388 4.37703C35.1565 7.44235 37.0153 11.3143 37.0153 16C37.0153 20.6857 35.1565 24.5576 31.4388 27.623C27.8825 30.541 23.5756 32 18.5112 32C13.4467 32 9.13284 30.541 5.5765 27.623C1.85883 24.5576 0 20.6857 0 16ZM8.45945 16.007C8.45945 21.5204 9.29417 25.3783 10.9706 27.5809C12.4787 29.587 14.9969 30.5901 18.5042 30.5901C22.0114 30.5901 24.5296 29.587 26.0447 27.5809C27.7212 25.3713 28.5559 21.5134 28.5559 16.007C28.5559 10.5007 27.7142 6.6427 26.0447 4.43314C24.5296 2.42701 22.0184 1.42394 18.5042 1.42394C14.9899 1.42394 12.4787 2.42701 10.9706 4.43314C9.29417 6.6427 8.45945 10.5007 8.45945 16.007Z" fill="#00542B"/>
<rect x="231.727" width="1" height="32" fill="#C4C4C4"/>
<path d="M260.864 19.6857L257.962 11.1108C257.747 10.5664 257.518 9.92881 257.275 9.19812C257.031 8.4531 256.787 7.65077 256.544 6.79113C256.329 7.6651 256.1 8.47459 255.856 9.21961C255.613 9.96463 255.383 10.6094 255.168 11.1538L252.289 19.6857H260.864ZM272.404 31.6561H266.774C266.143 31.6561 265.635 31.5129 265.248 31.2263C264.861 30.9255 264.567 30.5458 264.367 30.0873L262.518 24.6286H250.612L248.764 30.0873C248.607 30.4885 248.32 30.8538 247.905 31.1833C247.503 31.4985 247.002 31.6561 246.4 31.6561H240.727L252.847 0.343855H260.283L272.404 31.6561Z" fill="#555555"/>
<path d="M294.31 6.10343H285.499V31.6561H278.235V6.10343H269.423V0.343855H294.31V6.10343Z" fill="#555555"/>
<path d="M311.067 25.9181C312.042 25.9181 312.908 25.7605 313.668 25.4453C314.441 25.1157 315.093 24.6501 315.623 24.0484C316.154 23.4466 316.555 22.7159 316.827 21.8563C317.114 20.9823 317.257 19.9937 317.257 18.8905V0.343855H324.521V18.8905C324.521 20.8104 324.206 22.5726 323.575 24.1773C322.959 25.782 322.071 27.1645 320.91 28.3251C319.75 29.4856 318.338 30.3882 316.677 31.0329C315.015 31.6776 313.145 32 311.067 32C308.976 32 307.099 31.6776 305.437 31.0329C303.775 30.3882 302.364 29.4856 301.203 28.3251C300.043 27.1645 299.154 25.782 298.538 24.1773C297.922 22.5726 297.614 20.8104 297.614 18.8905V0.343855H304.878V18.869C304.878 19.9722 305.014 20.9608 305.286 21.8348C305.573 22.6944 305.981 23.4323 306.511 24.0484C307.041 24.6501 307.686 25.1157 308.445 25.4453C309.219 25.7605 310.093 25.9181 311.067 25.9181Z" fill="#555555"/>
<path d="M345.946 19.6857L343.045 11.1108C342.83 10.5664 342.6 9.92881 342.357 9.19812C342.113 8.4531 341.87 7.65077 341.626 6.79113C341.411 7.6651 341.182 8.47459 340.938 9.21961C340.695 9.96463 340.466 10.6094 340.251 11.1538L337.371 19.6857H345.946ZM357.486 31.6561H351.856C351.225 31.6561 350.717 31.5129 350.33 31.2263C349.943 30.9255 349.649 30.5458 349.449 30.0873L347.601 24.6286H335.695L333.846 30.0873C333.689 30.4885 333.402 30.8538 332.987 31.1833C332.586 31.4985 332.084 31.6561 331.482 31.6561H325.809L337.93 0.343855H345.366L357.486 31.6561Z" fill="#555555"/>
<path d="M378.824 25.8536V31.6561H359.955V0.343855H367.219V25.8536H378.824Z" fill="#555555"/>
<path d="M389.844 31.6561H382.538V0.343855H389.844V31.6561Z" fill="#555555"/>
<path d="M424.296 15.9893C424.296 18.253 423.902 20.3447 423.114 22.2646C422.341 24.1701 421.245 25.8249 419.826 27.229C418.408 28.6188 416.696 29.7076 414.69 30.4956C412.698 31.2693 410.485 31.6561 408.049 31.6561H395.885V0.343855H408.049C410.485 0.343855 412.698 0.737855 414.69 1.52586C416.696 2.31386 418.408 3.40273 419.826 4.79248C421.245 6.18223 422.341 7.83703 423.114 9.75688C423.902 11.6624 424.296 13.7399 424.296 15.9893ZM416.861 15.9893C416.861 14.4419 416.66 13.045 416.259 11.7985C415.858 10.552 415.277 9.49899 414.518 8.63935C413.773 7.76539 412.856 7.09917 411.767 6.6407C410.678 6.1679 409.439 5.9315 408.049 5.9315H403.192V26.0685H408.049C409.439 26.0685 410.678 25.8393 411.767 25.3808C412.856 24.908 413.773 24.2418 414.518 23.3821C415.277 22.5082 415.858 21.448 416.259 20.2015C416.66 18.955 416.861 17.5509 416.861 15.9893Z" fill="#555555"/>
<path d="M444.04 19.6857L441.139 11.1108C440.924 10.5664 440.695 9.92881 440.451 9.19812C440.208 8.4531 439.964 7.65077 439.721 6.79113C439.506 7.6651 439.276 8.47459 439.033 9.21961C438.789 9.96463 438.56 10.6094 438.345 11.1538L435.465 19.6857H444.04ZM455.581 31.6561H449.95C449.32 31.6561 448.811 31.5129 448.424 31.2263C448.038 30.9255 447.744 30.5458 447.543 30.0873L445.695 24.6286H433.789L431.941 30.0873C431.783 30.4885 431.497 30.8538 431.081 31.1833C430.68 31.4985 430.179 31.6561 429.577 31.6561H423.903L436.024 0.343855H443.46L455.581 31.6561Z" fill="#555555"/>
<path d="M486.461 15.9893C486.461 18.253 486.067 20.3447 485.279 22.2646C484.505 24.1701 483.409 25.8249 481.99 27.229C480.572 28.6188 478.86 29.7076 476.854 30.4956C474.863 31.2693 472.649 31.6561 470.213 31.6561H458.05V0.343855H470.213C472.649 0.343855 474.863 0.737855 476.854 1.52586C478.86 2.31386 480.572 3.40273 481.99 4.79248C483.409 6.18223 484.505 7.83703 485.279 9.75688C486.067 11.6624 486.461 13.7399 486.461 15.9893ZM479.025 15.9893C479.025 14.4419 478.824 13.045 478.423 11.7985C478.022 10.552 477.442 9.49899 476.682 8.63935C475.937 7.76539 475.02 7.09917 473.931 6.6407C472.843 6.1679 471.603 5.9315 470.213 5.9315H465.357V26.0685H470.213C471.603 26.0685 472.843 25.8393 473.931 25.3808C475.02 24.908 475.937 24.2418 476.682 23.3821C477.442 22.5082 478.022 21.448 478.423 20.2015C478.824 18.955 479.025 17.5509 479.025 15.9893Z" fill="#555555"/>
<path d="M498.055 5.9315V13.2384H507.897V18.6111H498.055V26.0685H510.906V31.6561H490.748V0.343855H510.906V5.9315H498.055Z" fill="#555555"/>
<path d="M532.687 6.70517C532.472 7.04903 532.243 7.30692 531.999 7.47885C531.77 7.65077 531.469 7.73674 531.097 7.73674C530.767 7.73674 530.409 7.63644 530.022 7.43586C529.65 7.22095 529.22 6.98455 528.733 6.72666C528.26 6.46877 527.715 6.23953 527.099 6.03895C526.483 5.82404 525.781 5.71659 524.993 5.71659C523.632 5.71659 522.615 6.0103 521.941 6.59772C521.282 7.17081 520.953 7.95165 520.953 8.94023C520.953 9.57063 521.153 10.0936 521.555 10.5091C521.956 10.9246 522.479 11.2827 523.123 11.5836C523.783 11.8845 524.528 12.1639 525.358 12.4218C526.204 12.6653 527.063 12.9447 527.937 13.2599C528.811 13.5608 529.664 13.919 530.495 14.3345C531.34 14.7499 532.085 15.2801 532.73 15.9248C533.389 16.5695 533.919 17.3575 534.32 18.2888C534.721 19.2057 534.922 20.3161 534.922 21.6199C534.922 23.0669 534.671 24.4209 534.17 25.6817C533.668 26.9425 532.938 28.0457 531.978 28.9913C531.032 29.9225 529.857 30.6604 528.453 31.2048C527.063 31.7349 525.48 32 523.704 32C522.729 32 521.734 31.8997 520.716 31.6991C519.714 31.4985 518.739 31.2192 517.794 30.861C516.848 30.4885 515.96 30.0515 515.129 29.55C514.298 29.0486 513.574 28.4898 512.958 27.8737L515.107 24.4782C515.279 24.2346 515.501 24.034 515.774 23.8764C516.06 23.7045 516.368 23.6185 516.698 23.6185C517.128 23.6185 517.557 23.7546 517.987 24.0269C518.431 24.2991 518.926 24.6 519.47 24.9295C520.029 25.259 520.666 25.5599 521.383 25.8321C522.099 26.1043 522.944 26.2404 523.919 26.2404C525.237 26.2404 526.261 25.9539 526.992 25.3808C527.723 24.7934 528.088 23.8693 528.088 22.6085C528.088 21.8778 527.887 21.2832 527.486 20.8247C527.085 20.3662 526.555 19.9866 525.896 19.6857C525.251 19.3848 524.513 19.1198 523.682 18.8905C522.851 18.6613 521.999 18.4106 521.125 18.1383C520.251 17.8518 519.398 17.5079 518.567 17.1068C517.736 16.6913 516.991 16.154 516.332 15.495C515.688 14.8216 515.165 13.9906 514.763 13.002C514.362 11.9991 514.162 10.767 514.162 9.30557C514.162 8.13073 514.398 6.98455 514.871 5.86702C515.344 4.7495 516.039 3.75375 516.956 2.87978C517.872 2.00582 518.997 1.31095 520.33 0.795163C521.662 0.265054 523.188 0 524.907 0C525.867 0 526.798 0.0787995 527.701 0.2364C528.618 0.379673 529.485 0.601745 530.301 0.902617C531.118 1.18916 531.877 1.54018 532.579 1.95567C533.296 2.35684 533.933 2.81531 534.492 3.33109L532.687 6.70517Z" fill="#555555"/>
</svg>
