<svg width="75" height="28" viewBox="0 0 75 28" fill="none" xmlns="http://www.w3.org/2000/svg">
  <path d="M40.9931 10.5181H37.5835V10.0408H38.5264V0.684277H37.5835V0.209281H41.32L44.525 7.5388L47.8547 0.209281H51.5912V0.684277H50.6482V10.0408H51.5912V10.5181H46.4791V10.0408H48.1439V1.11695L44.0524 10.0408H43.1682L41.755 6.76282L39.3259 1.13341V10.0408H40.9908V10.5181H40.9931ZM36.8263 6.61467H36.1679C35.58 8.04907 35.0462 9.10017 34.6888 9.47641C34.3337 9.85264 33.7929 10.0408 33.0663 10.0408H29.4309V4.93102H30.9923C31.4861 4.93102 31.8694 5.06976 32.1422 5.34959C32.4055 5.60354 32.6336 6.07619 32.8288 6.76282C32.8476 6.82631 32.8641 6.8898 32.8805 6.95799H33.539V2.42906H32.8805C32.676 3.22386 32.422 3.7694 32.121 4.06804C31.86 4.3267 31.4838 4.45603 30.9923 4.45603H29.4309V0.684277H33.5178C34.0375 0.684277 34.4208 0.81831 34.6677 1.08638C34.9828 1.43439 35.4201 2.27857 35.9821 3.61891H36.6405V0.206929H26.0049V0.681925H26.9454V10.0384H25.671V10.5158H36.8263V6.61232V6.61467ZM16.4532 1.05816C16.646 0.808904 16.9682 0.684277 17.4197 0.684277H18.673V10.0408H17.0905V10.5181H22.7598V10.0408H21.1773V0.684277H22.4306C22.8821 0.684277 23.2043 0.808904 23.3947 1.05816C23.6416 1.38736 23.9779 2.22919 24.4012 3.59069H25.0596V0.209281H14.7884V3.59069H15.4468C15.87 2.23154 16.2063 1.38736 16.4532 1.05816ZM62.5913 5.36369C62.5913 3.79291 63.2145 2.49491 64.4607 1.46731C65.6529 0.489105 67.0967 0 68.7968 0C70.4969 0 71.9384 0.489105 73.1306 1.46731C74.3769 2.49491 75 3.79291 75 5.36369C75 6.93447 74.3769 8.23248 73.1306 9.26007C71.9384 10.2383 70.4946 10.7274 68.7968 10.7274C67.0991 10.7274 65.6529 10.2383 64.4607 9.26007C63.2145 8.23248 62.5913 6.93447 62.5913 5.36369ZM65.4272 5.36605C65.4272 7.2143 65.707 8.5076 66.269 9.24596C66.7769 9.91848 67.6188 10.2547 68.7968 10.2547C69.9749 10.2547 70.8167 9.91848 71.3223 9.24596C71.8843 8.5076 72.1641 7.21195 72.1641 5.36605C72.1641 3.52014 71.882 2.22684 71.3223 1.48613C70.8144 0.813607 69.9726 0.477348 68.7968 0.477348C67.6211 0.477348 66.7769 0.813607 66.269 1.48613C65.707 2.22684 65.4272 3.52014 65.4272 5.36605ZM57.5686 10.5158H52.1861V10.0384H53.1314V0.684277H52.1861V0.209281H57.1006C58.7584 0.209281 60.0658 0.463239 61.0229 0.968804C61.9258 1.46496 62.3797 2.12102 62.3797 2.93463C62.3797 3.74824 61.9423 4.39959 61.0652 4.85813C60.1458 5.34488 58.8337 5.58708 57.1218 5.58708H55.6192V10.0408H57.5709V10.5181L57.5686 10.5158ZM55.6169 5.10503H56.5669C57.7167 5.10503 58.5397 4.95219 59.0312 4.64415C59.525 4.3361 59.7719 3.7647 59.7719 2.92993C59.7719 1.42969 58.7655 0.679574 56.7526 0.679574H55.6192V5.10503H55.6169ZM0 5.36369C0 3.79291 0.623139 2.49491 1.86942 1.46731C3.06161 0.489105 4.50541 0 6.20552 0C7.90563 0 9.34708 0.489105 10.5393 1.46731C11.7855 2.49491 12.4087 3.79291 12.4087 5.36369C12.4087 6.93447 11.7855 8.23248 10.5393 9.26007C9.34708 10.2383 7.90328 10.7274 6.20552 10.7274C4.50776 10.7274 3.06161 10.2383 1.86942 9.26007C0.623139 8.23248 0 6.93447 0 5.36369ZM2.83587 5.36605C2.83587 7.2143 3.11569 8.5076 3.67769 9.24596C4.18326 9.91848 5.02743 10.2547 6.20317 10.2547C7.3789 10.2547 8.22308 9.91848 8.73099 9.24596C9.29299 8.50525 9.57282 7.21195 9.57282 5.36605C9.57282 3.52014 9.29064 2.22684 8.73099 1.48613C8.22308 0.813607 7.38125 0.477348 6.20317 0.477348C5.02508 0.477348 4.18326 0.813607 3.67769 1.48613C3.11569 2.22684 2.83587 3.52014 2.83587 5.36605Z" fill="#00542B"/>
  <path d="M2.98679 17.0116V19.9983H7.01016V22.1945H2.98679V25.2428H8.24001V27.5268H0V14.7275H8.24001V17.0116H2.98679Z" fill="#555555"/>
  <path d="M21.2456 14.7275V27.5268H19.6995C19.4711 27.5268 19.2778 27.4917 19.1197 27.4214C18.9674 27.3452 18.8151 27.2164 18.6629 27.0348L12.6278 19.401C12.6512 19.6294 12.6659 19.8519 12.6717 20.0686C12.6834 20.2794 12.6893 20.4786 12.6893 20.666V27.5268H10.0715V14.7275H11.6351C11.764 14.7275 11.8723 14.7334 11.9602 14.7451C12.048 14.7568 12.1271 14.7802 12.1974 14.8154C12.2676 14.8447 12.335 14.8886 12.3994 14.9472C12.4638 15.0057 12.537 15.0848 12.619 15.1843L18.7068 22.8709C18.6775 22.6249 18.657 22.3878 18.6453 22.1594C18.6336 21.9251 18.6277 21.7055 18.6277 21.5005V14.7275H21.2456Z" fill="#555555"/>
  <path d="M32.9264 17.0818H29.3247V27.5268H26.3555V17.0818H22.7538V14.7275H32.9264V17.0818Z" fill="#555555"/>
  <path d="M38.5991 20.745C39.0032 20.745 39.3458 20.6953 39.6269 20.5957C39.9139 20.4903 40.1481 20.3468 40.3297 20.1652C40.5112 19.9837 40.643 19.7729 40.725 19.5327C40.807 19.2868 40.848 19.0232 40.848 18.7421C40.848 18.1799 40.6635 17.7407 40.2946 17.4244C39.9315 17.1082 39.3663 16.9501 38.5991 16.9501H37.4044V20.745H38.5991ZM44.9065 27.5268H42.2184C41.7206 27.5268 41.3634 27.3394 41.1467 26.9646L39.0208 23.2487C38.9212 23.0905 38.8099 22.9763 38.687 22.9061C38.564 22.8299 38.3883 22.7919 38.1599 22.7919H37.4044V27.5268H34.4352V14.7275H38.5991C39.5244 14.7275 40.3121 14.8242 40.9622 15.0174C41.6181 15.2048 42.151 15.4684 42.561 15.8081C42.9768 16.1477 43.2784 16.5489 43.4658 17.0116C43.6532 17.4742 43.7469 17.9779 43.7469 18.5225C43.7469 18.9383 43.6913 19.3307 43.58 19.6997C43.4687 20.0686 43.3048 20.4112 43.0881 20.7275C42.8714 21.0379 42.602 21.316 42.2799 21.562C41.9636 21.808 41.5976 22.01 41.1818 22.1681C41.3751 22.2677 41.5566 22.3936 41.7265 22.5459C41.8963 22.6923 42.0486 22.868 42.1833 23.073L44.9065 27.5268Z" fill="#555555"/>
  <path d="M48.969 17.0116V19.9983H52.9924V22.1945H48.969V25.2428H54.2222V27.5268H45.9822V14.7275H54.2222V17.0116H48.969Z" fill="#555555"/>
  <path d="M65.2512 17.0818H61.6495V27.5268H58.6803V17.0818H55.0786V14.7275H65.2512V17.0818Z" fill="#555555"/>
  <path d="M69.7468 17.0116V19.9983H73.7701V22.1945H69.7468V25.2428H75V27.5268H66.76V14.7275H75V17.0116H69.7468Z" fill="#555555"/>
</svg>
