<svg width="631" height="32" viewBox="0 0 631 32" fill="none" xmlns="http://www.w3.org/2000/svg">
  <path d="M122.283 31.3757H112.112V29.9518H114.925V2.04121H112.112V0.624288H123.258L132.819 22.4884L142.751 0.624288H153.897V2.04121H151.085V29.9518H153.897V31.3757H138.648V29.9518H143.614V3.33187L131.409 29.9518H128.772L124.556 20.1736L117.31 3.38097V29.9518H122.276V31.3757H122.283ZM109.854 19.7317H107.89C106.136 24.0105 104.544 27.146 103.477 28.2683C102.418 29.3906 100.805 29.9518 98.6374 29.9518H87.7931V14.7093H92.4507C93.9237 14.7093 95.0671 15.1232 95.8808 15.9579C96.6664 16.7155 97.3468 18.1254 97.929 20.1736C97.9851 20.363 98.0342 20.5524 98.0833 20.7558H100.047V7.24594H98.0833C97.473 9.61684 96.7155 11.2442 95.8176 12.135C95.039 12.9066 93.9167 13.2924 92.4507 13.2924H87.7931V2.04121H99.9842C101.534 2.04121 102.678 2.44104 103.414 3.24068C104.354 4.27883 105.659 6.79702 107.335 10.7953H109.299V0.617273H77.573V2.0342H80.3788V29.9448H76.5769V31.3687H109.854V19.7247V19.7317ZM49.0802 3.15651C49.6554 2.41298 50.6164 2.04121 51.9632 2.04121H55.7019V29.9518H50.9811V31.3757H67.893V29.9518H63.1723V2.04121H66.911C68.2578 2.04121 69.2188 2.41298 69.7869 3.15651C70.5235 4.13854 71.5265 6.64972 72.7891 10.7111H74.7532V0.624288H44.114V10.7111H46.078C47.3406 6.65673 48.3437 4.13854 49.0802 3.15651ZM186.711 16C186.711 11.3143 188.57 7.44235 192.288 4.37703C195.844 1.45901 200.151 0 205.222 0C210.294 0 214.594 1.45901 218.15 4.37703C221.868 7.44235 223.726 11.3143 223.726 16C223.726 20.6857 221.868 24.5576 218.15 27.623C214.594 30.541 210.287 32 205.222 32C200.158 32 195.844 30.541 192.288 27.623C188.57 24.5576 186.711 20.6857 186.711 16ZM195.171 16.007C195.171 21.5204 196.005 25.3783 197.682 27.5809C199.197 29.587 201.708 30.5901 205.222 30.5901C208.737 30.5901 211.248 29.587 212.756 27.5809C214.432 25.3783 215.267 21.5134 215.267 16.007C215.267 10.5007 214.425 6.6427 212.756 4.43314C211.241 2.42701 208.73 1.42394 205.222 1.42394C201.715 1.42394 199.197 2.42701 197.682 4.43314C196.005 6.6427 195.171 10.5007 195.171 16.007ZM171.728 31.3687H155.672V29.9448H158.492V2.04121H155.672V0.624288H170.332C175.277 0.624288 179.178 1.38185 182.032 2.88996C184.726 4.37001 186.08 6.32705 186.08 8.75406C186.08 11.1811 184.775 13.1241 182.159 14.4919C179.416 15.9439 175.502 16.6664 170.395 16.6664H165.913V29.9518H171.735V31.3757L171.728 31.3687ZM165.906 15.2284H168.74C172.17 15.2284 174.625 14.7725 176.091 13.8536C177.564 12.9347 178.301 11.2302 178.301 8.74003C178.301 4.2648 175.299 2.02718 169.294 2.02718H165.913V15.2284H165.906ZM0 16C0 11.3143 1.85883 7.44235 5.5765 4.37703C9.13284 1.45901 13.4397 0 18.5112 0C23.5826 0 27.8825 1.45901 31.4388 4.37703C35.1565 7.44235 37.0153 11.3143 37.0153 16C37.0153 20.6857 35.1565 24.5576 31.4388 27.623C27.8825 30.541 23.5756 32 18.5112 32C13.4467 32 9.13284 30.541 5.5765 27.623C1.85883 24.5576 0 20.6857 0 16ZM8.45945 16.007C8.45945 21.5204 9.29417 25.3783 10.9706 27.5809C12.4787 29.587 14.9969 30.5901 18.5042 30.5901C22.0114 30.5901 24.5296 29.587 26.0447 27.5809C27.7212 25.3713 28.5559 21.5134 28.5559 16.007C28.5559 10.5007 27.7142 6.6427 26.0447 4.43314C24.5296 2.42701 22.0184 1.42394 18.5042 1.42394C14.9899 1.42394 12.4787 2.42701 10.9706 4.43314C9.29417 6.6427 8.45945 10.5007 8.45945 16.007Z" fill="#00542B"/>
  <rect x="231.727" width="1" height="32" fill="#C4C4C4"/>
  <path d="M248.033 5.9315V13.2384H257.876V18.6111H248.033V26.0685H260.885V31.6561H240.727V0.343856H260.885V5.9315H248.033Z" fill="#555555"/>
  <path d="M292.702 0.343856V31.6561H288.92C288.361 31.6561 287.888 31.5702 287.501 31.3983C287.129 31.212 286.756 30.8968 286.384 30.4527L271.619 11.777C271.677 12.3358 271.713 12.8802 271.727 13.4103C271.756 13.9261 271.77 14.4133 271.77 14.8717V31.6561H265.366V0.343856H269.191C269.506 0.343856 269.771 0.358183 269.986 0.386837C270.201 0.415491 270.394 0.4728 270.566 0.558765C270.738 0.630401 270.903 0.737856 271.061 0.881128C271.218 1.0244 271.397 1.21782 271.598 1.46138L286.491 20.266C286.42 19.6642 286.369 19.084 286.341 18.5252C286.312 17.9521 286.298 17.4148 286.298 16.9134V0.343856H292.702Z" fill="#555555"/>
  <path d="M321.278 6.10343H312.467V31.6561H305.203V6.10343H296.392V0.343856H321.278V6.10343Z" fill="#555555"/>
  <path d="M335.156 15.0651C336.145 15.0651 336.983 14.9434 337.67 14.6998C338.373 14.4419 338.946 14.0909 339.39 13.6467C339.834 13.2026 340.156 12.6868 340.357 12.0994C340.557 11.4977 340.658 10.8529 340.658 10.1652C340.658 8.78979 340.206 7.71524 339.304 6.94157C338.415 6.1679 337.033 5.78106 335.156 5.78106H332.233V15.0651H335.156ZM350.587 31.6561H344.01C342.792 31.6561 341.919 31.1977 341.388 30.2807L336.188 21.1901C335.944 20.8032 335.672 20.5238 335.371 20.3519C335.07 20.1657 334.64 20.0725 334.081 20.0725H332.233V31.6561H324.969V0.343856H335.156C337.42 0.343856 339.347 0.580256 340.937 1.05306C342.542 1.51153 343.846 2.15626 344.848 2.98724C345.866 3.81822 346.604 4.79964 347.062 5.9315C347.52 7.06335 347.75 8.2955 347.75 9.62794C347.75 10.6452 347.614 11.6051 347.341 12.5077C347.069 13.4103 346.668 14.2485 346.138 15.0222C345.608 15.7815 344.949 16.4621 344.161 17.0638C343.387 17.6655 342.492 18.1598 341.474 18.5467C341.947 18.7902 342.391 19.0983 342.807 19.4708C343.222 19.829 343.595 20.2588 343.924 20.7602L350.587 31.6561Z" fill="#555555"/>
  <path d="M360.525 5.9315V13.2384H370.368V18.6111H360.525V26.0685H373.377V31.6561H353.218V0.343856H373.377V5.9315H360.525Z" fill="#555555"/>
  <path d="M400.358 6.10343H391.547V31.6561H384.283V6.10343H375.472V0.343856H400.358V6.10343Z" fill="#555555"/>
  <path d="M411.356 5.9315V13.2384H421.199V18.6111H411.356V26.0685H424.208V31.6561H404.049V0.343856H424.208V5.9315H411.356Z" fill="#555555"/>
  <path d="M456.025 0.343856V31.6561H452.242C451.684 31.6561 451.211 31.5702 450.824 31.3983C450.451 31.212 450.079 30.8968 449.706 30.4527L434.942 11.777C434.999 12.3358 435.035 12.8802 435.05 13.4103C435.078 13.9261 435.093 14.4133 435.093 14.8717V31.6561H428.688V0.343856H432.514C432.829 0.343856 433.094 0.358183 433.309 0.386837C433.524 0.415491 433.717 0.4728 433.889 0.558765C434.061 0.630401 434.226 0.737856 434.383 0.881128C434.541 1.0244 434.72 1.21782 434.921 1.46138L449.814 20.266C449.742 19.6642 449.692 19.084 449.663 18.5252C449.635 17.9521 449.62 17.4148 449.62 16.9134V0.343856H456.025Z" fill="#555555"/>
  <path d="M469.407 31.6561H462.1V0.343856H469.407V31.6561Z" fill="#555555"/>
  <path d="M510.65 0.343856V31.6561H504.246V13.6467C504.246 13.2313 504.253 12.7799 504.267 12.2928C504.296 11.8057 504.339 11.3114 504.396 10.8099L496.079 26.9067C495.821 27.4081 495.47 27.7878 495.026 28.0457C494.596 28.3036 494.102 28.4325 493.543 28.4325H492.555C491.996 28.4325 491.494 28.3036 491.05 28.0457C490.62 27.7878 490.277 27.4081 490.019 26.9067L481.702 10.767C481.745 11.2827 481.78 11.7914 481.809 12.2928C481.838 12.7799 481.852 13.2313 481.852 13.6467V31.6561H475.448V0.343856H480.992C481.308 0.343856 481.58 0.351019 481.809 0.365345C482.053 0.379673 482.268 0.422655 482.454 0.494292C482.64 0.565928 482.805 0.680546 482.948 0.838147C483.106 0.98142 483.256 1.18917 483.399 1.46138L491.459 17.3432C491.745 17.8876 492.017 18.4536 492.275 19.041C492.547 19.6284 492.805 20.2301 493.049 20.8462C493.292 20.2158 493.543 19.5997 493.801 18.998C494.073 18.3962 494.36 17.8231 494.661 17.2787L502.698 1.46138C502.842 1.18917 502.985 0.98142 503.128 0.838147C503.286 0.680546 503.458 0.565928 503.644 0.494292C503.83 0.422655 504.038 0.379673 504.267 0.365345C504.511 0.351019 504.79 0.343856 505.105 0.343856H510.65Z" fill="#555555"/>
  <path d="M524.016 5.9315V13.2384H533.858V18.6111H524.016V26.0685H536.867V31.6561H516.709V0.343856H536.867V5.9315H524.016Z" fill="#555555"/>
  <path d="M568.684 0.343856V31.6561H564.902C564.343 31.6561 563.87 31.5702 563.483 31.3983C563.111 31.212 562.738 30.8968 562.366 30.4527L547.602 11.777C547.659 12.3358 547.695 12.8802 547.709 13.4103C547.738 13.9261 547.752 14.4133 547.752 14.8717V31.6561H541.348V0.343856H545.173C545.488 0.343856 545.753 0.358183 545.968 0.386837C546.183 0.415491 546.377 0.4728 546.549 0.558765C546.72 0.630401 546.885 0.737856 547.043 0.881128C547.2 1.0244 547.38 1.21782 547.58 1.46138L562.473 20.266C562.402 19.6642 562.352 19.084 562.323 18.5252C562.294 17.9521 562.28 17.4148 562.28 16.9134V0.343856H568.684Z" fill="#555555"/>
  <path d="M597.26 6.10343H588.449V31.6561H581.185V6.10343H572.374V0.343856H597.26V6.10343Z" fill="#555555"/>
  <path d="M630.97 15.9893C630.97 18.253 630.576 20.3591 629.788 22.3076C629.014 24.2561 627.918 25.9539 626.5 27.4009C625.081 28.8337 623.369 29.9584 621.364 30.775C619.372 31.5917 617.158 32 614.723 32C612.287 32 610.066 31.5917 608.061 30.775C606.055 29.9584 604.336 28.8337 602.903 27.4009C601.484 25.9539 600.381 24.2561 599.593 22.3076C598.82 20.3591 598.433 18.253 598.433 15.9893C598.433 13.7255 598.82 11.6194 599.593 9.67092C600.381 7.72241 601.484 6.03179 602.903 4.59906C604.336 3.16633 606.055 2.04164 608.061 1.22498C610.066 0.408328 612.287 0 614.723 0C617.158 0 619.372 0.415491 621.364 1.24647C623.369 2.06313 625.081 3.18782 626.5 4.62055C627.918 6.05328 629.014 7.7439 629.788 9.69241C630.576 11.6409 630.97 13.7399 630.97 15.9893ZM623.534 15.9893C623.534 14.4419 623.334 13.0522 622.932 11.82C622.531 10.5735 621.951 9.52048 621.192 8.66085C620.447 7.80121 619.53 7.14215 618.441 6.68368C617.352 6.22521 616.113 5.99597 614.723 5.99597C613.319 5.99597 612.065 6.22521 610.962 6.68368C609.873 7.14215 608.949 7.80121 608.19 8.66085C607.445 9.52048 606.871 10.5735 606.47 11.82C606.069 13.0522 605.869 14.4419 605.869 15.9893C605.869 17.5509 606.069 18.955 606.47 20.2015C606.871 21.4336 607.445 22.4795 608.19 23.3392C608.949 24.1988 609.873 24.8578 610.962 25.3163C612.065 25.7605 613.319 25.9825 614.723 25.9825C616.113 25.9825 617.352 25.7605 618.441 25.3163C619.53 24.8578 620.447 24.1988 621.192 23.3392C621.951 22.4795 622.531 21.4336 622.932 20.2015C623.334 18.955 623.534 17.5509 623.534 15.9893Z" fill="#555555"/>
</svg>
