<svg width="75" height="27" viewBox="0 0 75 27" fill="none" xmlns="http://www.w3.org/2000/svg">
<path d="M40.9931 10.5181H37.5835V10.0408H38.5264V0.684277H37.5835V0.209281H41.32L44.525 7.5388L47.8547 0.209281H51.5912V0.684277H50.6482V10.0408H51.5912V10.5181H46.4791V10.0408H48.1439V1.11695L44.0524 10.0408H43.1682L41.755 6.76282L39.3259 1.13341V10.0408H40.9908V10.5181H40.9931ZM36.8263 6.61467H36.1679C35.58 8.04907 35.0462 9.10017 34.6888 9.47641C34.3337 9.85264 33.7929 10.0408 33.0663 10.0408H29.4309V4.93102H30.9923C31.4861 4.93102 31.8694 5.06976 32.1422 5.34959C32.4055 5.60354 32.6336 6.07619 32.8288 6.76282C32.8476 6.82631 32.8641 6.8898 32.8805 6.95799H33.539V2.42906H32.8805C32.676 3.22386 32.422 3.7694 32.121 4.06804C31.86 4.3267 31.4838 4.45603 30.9923 4.45603H29.4309V0.684277H33.5178C34.0375 0.684277 34.4208 0.81831 34.6677 1.08638C34.9828 1.43439 35.4201 2.27857 35.9821 3.61891H36.6405V0.206929H26.0049V0.681925H26.9454V10.0384H25.671V10.5158H36.8263V6.61232V6.61467ZM16.4532 1.05816C16.646 0.808904 16.9682 0.684277 17.4197 0.684277H18.673V10.0408H17.0905V10.5181H22.7598V10.0408H21.1773V0.684277H22.4306C22.8821 0.684277 23.2043 0.808904 23.3947 1.05816C23.6416 1.38736 23.9779 2.22919 24.4012 3.59069H25.0596V0.209281H14.7884V3.59069H15.4468C15.87 2.23154 16.2063 1.38736 16.4532 1.05816ZM62.5913 5.36369C62.5913 3.79291 63.2145 2.49491 64.4607 1.46731C65.6529 0.489105 67.0967 0 68.7968 0C70.4969 0 71.9384 0.489105 73.1306 1.46731C74.3769 2.49491 75 3.79291 75 5.36369C75 6.93447 74.3769 8.23248 73.1306 9.26007C71.9384 10.2383 70.4946 10.7274 68.7968 10.7274C67.0991 10.7274 65.6529 10.2383 64.4607 9.26007C63.2145 8.23248 62.5913 6.93447 62.5913 5.36369ZM65.4272 5.36605C65.4272 7.2143 65.707 8.5076 66.269 9.24596C66.7769 9.91848 67.6188 10.2547 68.7968 10.2547C69.9749 10.2547 70.8167 9.91848 71.3223 9.24596C71.8843 8.5076 72.1641 7.21195 72.1641 5.36605C72.1641 3.52014 71.882 2.22684 71.3223 1.48613C70.8144 0.813607 69.9726 0.477348 68.7968 0.477348C67.6211 0.477348 66.7769 0.813607 66.269 1.48613C65.707 2.22684 65.4272 3.52014 65.4272 5.36605ZM57.5686 10.5158H52.1861V10.0384H53.1314V0.684277H52.1861V0.209281H57.1006C58.7584 0.209281 60.0658 0.463239 61.0229 0.968804C61.9258 1.46496 62.3797 2.12102 62.3797 2.93463C62.3797 3.74824 61.9423 4.39959 61.0652 4.85813C60.1458 5.34488 58.8337 5.58708 57.1218 5.58708H55.6192V10.0408H57.5709V10.5181L57.5686 10.5158ZM55.6169 5.10503H56.5669C57.7167 5.10503 58.5397 4.95219 59.0312 4.64415C59.525 4.3361 59.7719 3.7647 59.7719 2.92993C59.7719 1.42969 58.7655 0.679574 56.7526 0.679574H55.6192V5.10503H55.6169ZM0 5.36369C0 3.79291 0.623139 2.49491 1.86942 1.46731C3.06161 0.489105 4.50541 0 6.20552 0C7.90563 0 9.34708 0.489105 10.5393 1.46731C11.7855 2.49491 12.4087 3.79291 12.4087 5.36369C12.4087 6.93447 11.7855 8.23248 10.5393 9.26007C9.34708 10.2383 7.90328 10.7274 6.20552 10.7274C4.50776 10.7274 3.06161 10.2383 1.86942 9.26007C0.623139 8.23248 0 6.93447 0 5.36369ZM2.83587 5.36605C2.83587 7.2143 3.11569 8.5076 3.67769 9.24596C4.18326 9.91848 5.02743 10.2547 6.20317 10.2547C7.3789 10.2547 8.22308 9.91848 8.73099 9.24596C9.29299 8.50525 9.57282 7.21195 9.57282 5.36605C9.57282 3.52014 9.29064 2.22684 8.73099 1.48613C8.22308 0.813607 7.38125 0.477348 6.20317 0.477348C5.02508 0.477348 4.18326 0.813607 3.67769 1.48613C3.11569 2.22684 2.83587 3.52014 2.83587 5.36605Z" fill="#00542B"/>
<path d="M8.70553 23.7033C8.77105 23.7033 8.83657 23.717 8.90208 23.7443C8.9676 23.7661 9.03039 23.8071 9.09044 23.8671L10.1878 25.0219C9.70739 25.6497 9.10409 26.1247 8.37795 26.4468C7.65727 26.7635 6.80282 26.9218 5.81461 26.9218C4.90829 26.9218 4.09479 26.769 3.37411 26.4632C2.65889 26.152 2.05013 25.7262 1.54783 25.1856C1.051 24.6397 0.668816 23.9954 0.40129 23.2529C0.133763 22.5049 0 21.6941 0 20.8206C0 19.9307 0.144683 19.1144 0.434048 18.3719C0.723414 17.6239 1.13016 16.9797 1.6543 16.4392C2.17843 15.8987 2.8063 15.4783 3.5379 15.178C4.26951 14.8777 5.07482 14.7275 5.95383 14.7275C6.40153 14.7275 6.82193 14.7685 7.21503 14.8504C7.61359 14.9268 7.98485 15.036 8.32881 15.178C8.67278 15.3145 8.98944 15.481 9.2788 15.6775C9.56817 15.8741 9.82478 16.087 10.0486 16.3163L9.11501 17.5693C9.05496 17.6458 8.98398 17.7167 8.90208 17.7823C8.82019 17.8423 8.70553 17.8723 8.55812 17.8723C8.45984 17.8723 8.36703 17.8505 8.27967 17.8068C8.19232 17.7631 8.0995 17.7113 8.00123 17.6512C7.90295 17.5857 7.79376 17.5175 7.67364 17.4465C7.55899 17.37 7.41977 17.3018 7.25598 17.2417C7.09764 17.1762 6.90928 17.1216 6.69089 17.078C6.47796 17.0343 6.22682 17.0124 5.93745 17.0124C5.47884 17.0124 5.05844 17.0971 4.67626 17.2663C4.29953 17.4356 3.97195 17.684 3.69351 18.0116C3.42052 18.3337 3.20759 18.7322 3.05472 19.2072C2.9073 19.6768 2.8336 20.2146 2.8336 20.8206C2.8336 21.4321 2.91549 21.9753 3.07929 22.4503C3.24854 22.9253 3.47512 23.3266 3.75902 23.6542C4.04839 23.9763 4.38416 24.222 4.76634 24.3913C5.14852 24.5605 5.558 24.6451 5.99478 24.6451C6.24593 24.6451 6.47523 24.6342 6.6827 24.6124C6.89017 24.5851 7.08399 24.5441 7.26416 24.4895C7.44434 24.4295 7.61359 24.353 7.77192 24.2602C7.93025 24.1619 8.09131 24.0391 8.25511 23.8917C8.32062 23.8371 8.3916 23.7934 8.46803 23.7607C8.54447 23.7224 8.62364 23.7033 8.70553 23.7033Z" fill="#555555"/>
<path d="M21.8134 14.8586V26.7908H19.0289V21.746H14.1807V26.7908H11.3962V14.8586H14.1807V19.846H19.0289V14.8586H21.8134Z" fill="#555555"/>
<path d="M30.4344 22.2292L29.3288 18.9616C29.2469 18.7541 29.1596 18.5111 29.0668 18.2327C28.974 17.9488 28.8811 17.643 28.7883 17.3154C28.7064 17.6485 28.6191 17.957 28.5263 18.2409C28.4334 18.5248 28.3461 18.7705 28.2642 18.9779L27.1668 22.2292H30.4344ZM34.8322 26.7908H32.6866C32.4463 26.7908 32.2525 26.7362 32.1051 26.627C31.9577 26.5124 31.8458 26.3677 31.7693 26.193L31.065 24.1128H26.528L25.8237 26.193C25.7636 26.3458 25.6544 26.4851 25.4961 26.6106C25.3432 26.7307 25.1521 26.7908 24.9228 26.7908H22.7608L27.3797 14.8586H30.2133L34.8322 26.7908Z" fill="#555555"/>
<path d="M39.6549 20.4684C40.0316 20.4684 40.351 20.422 40.6131 20.3292C40.8806 20.2309 41.099 20.0972 41.2682 19.9279C41.4375 19.7587 41.5603 19.5621 41.6368 19.3383C41.7132 19.109 41.7514 18.8633 41.7514 18.6012C41.7514 18.0771 41.5794 17.6676 41.2355 17.3728C40.897 17.078 40.3701 16.9305 39.6549 16.9305H38.5411V20.4684H39.6549ZM45.535 26.7908H43.029C42.5649 26.7908 42.2319 26.6161 42.0299 26.2667L40.048 22.8025C39.9552 22.6551 39.8514 22.5486 39.7368 22.4831C39.6221 22.4121 39.4583 22.3766 39.2454 22.3766H38.5411V26.7908H35.773V14.8586H39.6549C40.5175 14.8586 41.2519 14.9487 41.8579 15.1288C42.4694 15.3035 42.9662 15.5492 43.3484 15.8659C43.736 16.1826 44.0172 16.5565 44.1919 16.9879C44.3666 17.4192 44.454 17.8887 44.454 18.3965C44.454 18.7841 44.4021 19.1499 44.2984 19.4939C44.1946 19.8378 44.0418 20.1572 43.8398 20.4521C43.6378 20.7414 43.3866 21.0008 43.0863 21.2301C42.7915 21.4594 42.4503 21.6477 42.0626 21.7952C42.2428 21.888 42.412 22.0054 42.5704 22.1473C42.7287 22.2838 42.8707 22.4476 42.9962 22.6387L45.535 26.7908Z" fill="#555555"/>
<path d="M52.0626 20.6077H56.3048V25.6443C55.6933 26.092 55.0409 26.4168 54.3475 26.6188C53.6596 26.8208 52.9389 26.9218 52.1855 26.9218C51.2027 26.9218 50.3073 26.769 49.4993 26.4632C48.6967 26.152 48.0088 25.7262 47.4355 25.1856C46.8622 24.6397 46.42 23.9954 46.1088 23.2529C45.7976 22.5049 45.642 21.6941 45.642 20.8206C45.642 19.9307 45.7894 19.1144 46.0842 18.3719C46.3791 17.6239 46.7994 16.9797 47.3454 16.4392C47.8969 15.8987 48.5602 15.4783 49.3355 15.178C50.1162 14.8777 50.9871 14.7275 51.948 14.7275C52.4448 14.7275 52.9116 14.7685 53.3484 14.8504C53.7852 14.9323 54.1865 15.0442 54.5523 15.1862C54.9235 15.3281 55.262 15.4974 55.5678 15.6939C55.8735 15.8905 56.1465 16.1034 56.3867 16.3327L55.5841 17.5529C55.4586 17.744 55.2948 17.8614 55.0928 17.9051C54.8962 17.9488 54.6833 17.8996 54.454 17.7577C54.2356 17.6267 54.0281 17.5147 53.8316 17.4219C53.6405 17.3236 53.4439 17.2445 53.2419 17.1844C53.0399 17.1244 52.827 17.0807 52.6031 17.0534C52.3793 17.0261 52.1281 17.0124 51.8497 17.0124C51.331 17.0124 50.8642 17.1052 50.4493 17.2909C50.0343 17.4711 49.6795 17.7277 49.3846 18.0607C49.0953 18.3937 48.8714 18.795 48.7131 19.2646C48.5548 19.7286 48.4756 20.2473 48.4756 20.8206C48.4756 21.4539 48.5629 22.0163 48.7377 22.5076C48.9124 22.999 49.1581 23.414 49.4747 23.7525C49.7968 24.091 50.179 24.3503 50.6213 24.5305C51.069 24.7052 51.5631 24.7925 52.1036 24.7925C52.4366 24.7925 52.7369 24.7598 53.0044 24.6943C53.2774 24.6288 53.5422 24.5414 53.7988 24.4322V22.6223H52.6195C52.4448 22.6223 52.3083 22.5759 52.21 22.4831C52.1118 22.3903 52.0626 22.2729 52.0626 22.1309V20.6077Z" fill="#555555"/>
<path d="M60.9509 16.9879V19.7723H64.7017V21.8197H60.9509V24.6615H65.8483V26.7908H58.1664V14.8586H65.8483V16.9879H60.9509Z" fill="#555555"/>
<path d="M74.1483 17.2827C74.0664 17.4137 73.979 17.512 73.8862 17.5775C73.7989 17.643 73.6842 17.6758 73.5423 17.6758C73.4167 17.6758 73.2802 17.6376 73.1328 17.5611C72.9908 17.4792 72.827 17.3892 72.6414 17.2909C72.4612 17.1926 72.2538 17.1052 72.019 17.0288C71.7842 16.9469 71.5167 16.906 71.2164 16.906C70.6977 16.906 70.3101 17.0179 70.0535 17.2417C69.8023 17.4601 69.6768 17.7577 69.6768 18.1344C69.6768 18.3746 69.7532 18.5739 69.9061 18.7322C70.0589 18.8906 70.2582 19.0271 70.5039 19.1417C70.7551 19.2564 71.039 19.3628 71.3556 19.4611C71.6778 19.5539 72.0053 19.6604 72.3384 19.7805C72.6714 19.8952 72.9963 20.0317 73.3129 20.19C73.6351 20.3483 73.919 20.5503 74.1647 20.796C74.4158 21.0417 74.6178 21.342 74.7707 21.6969C74.9236 22.0463 75 22.4694 75 22.9663C75 23.5177 74.9045 24.0336 74.7134 24.5141C74.5223 24.9946 74.2438 25.415 73.878 25.7753C73.5177 26.1302 73.07 26.4114 72.5349 26.6188C72.0053 26.8208 71.402 26.9218 70.725 26.9218C70.3538 26.9218 69.9743 26.8836 69.5867 26.8072C69.2045 26.7307 68.8332 26.6243 68.4729 26.4878C68.1126 26.3458 67.7741 26.1793 67.4574 25.9882C67.1407 25.7971 66.865 25.5842 66.6302 25.3494L67.4492 24.0555C67.5147 23.9627 67.5993 23.8862 67.7031 23.8262C67.8123 23.7607 67.9296 23.7279 68.0552 23.7279C68.219 23.7279 68.3828 23.7798 68.5466 23.8835C68.7159 23.9872 68.9042 24.1019 69.1117 24.2275C69.3246 24.353 69.5676 24.4677 69.8406 24.5714C70.1135 24.6752 70.4357 24.727 70.8069 24.727C71.3092 24.727 71.6996 24.6178 71.978 24.3994C72.2565 24.1756 72.3957 23.8234 72.3957 23.343C72.3957 23.0645 72.3193 22.838 72.1664 22.6633C72.0135 22.4885 71.8115 22.3439 71.5604 22.2292C71.3147 22.1145 71.0335 22.0135 70.7168 21.9262C70.4002 21.8388 70.0753 21.7433 69.7423 21.6396C69.4092 21.5304 69.0844 21.3993 68.7677 21.2465C68.4511 21.0881 68.1672 20.8834 67.916 20.6322C67.6703 20.3756 67.471 20.059 67.3182 19.6822C67.1653 19.3001 67.0889 18.8305 67.0889 18.2736C67.0889 17.8259 67.1789 17.3892 67.3591 16.9633C67.5393 16.5374 67.8041 16.158 68.1535 15.8249C68.5029 15.4919 68.9315 15.2271 69.4393 15.0306C69.947 14.8285 70.5285 14.7275 71.1837 14.7275C71.5495 14.7275 71.9043 14.7576 72.2483 14.8176C72.5977 14.8722 72.928 14.9568 73.2392 15.0715C73.5504 15.1807 73.8398 15.3145 74.1073 15.4728C74.3803 15.6257 74.6233 15.8004 74.8362 15.9969L74.1483 17.2827Z" fill="#555555"/>
</svg>
