<svg width="377" height="32" viewBox="0 0 377 32" fill="none" xmlns="http://www.w3.org/2000/svg">
<path d="M122.283 31.3757H112.112V29.9518H114.925V2.04121H112.112V0.624288H123.258L132.819 22.4884L142.751 0.624288H153.897V2.04121H151.085V29.9518H153.897V31.3757H138.648V29.9518H143.614V3.33187L131.409 29.9518H128.772L124.556 20.1736L117.31 3.38097V29.9518H122.276V31.3757H122.283ZM109.854 19.7317H107.89C106.136 24.0105 104.544 27.146 103.477 28.2683C102.418 29.3906 100.805 29.9518 98.6375 29.9518H87.7931V14.7093H92.4507C93.9238 14.7093 95.0671 15.1232 95.8808 15.9579C96.6664 16.7155 97.3468 18.1254 97.929 20.1736C97.9851 20.363 98.0342 20.5524 98.0833 20.7558H100.047V7.24594H98.0833C97.4731 9.61684 96.7155 11.2442 95.8177 12.135C95.0391 12.9066 93.9168 13.2924 92.4507 13.2924H87.7931V2.04121H99.9843C101.534 2.04121 102.678 2.44104 103.414 3.24068C104.354 4.27883 105.659 6.79702 107.335 10.7953H109.299V0.617273H77.5731V2.0342H80.3788V29.9448H76.577V31.3687H109.854V19.7247V19.7317ZM49.0803 3.15651C49.6555 2.41298 50.6165 2.04121 51.9632 2.04121H55.7019V29.9518H50.9812V31.3757H67.8931V29.9518H63.1724V2.04121H66.9111C68.2578 2.04121 69.2188 2.41298 69.787 3.15651C70.5235 4.13854 71.5266 6.64972 72.7892 10.7111H74.7532V0.624288H44.114V10.7111H46.0781C47.3407 6.65673 48.3438 4.13854 49.0803 3.15651ZM186.711 16C186.711 11.3143 188.57 7.44235 192.288 4.37703C195.844 1.45901 200.151 0 205.222 0C210.294 0 214.594 1.45901 218.15 4.37703C221.868 7.44235 223.726 11.3143 223.726 16C223.726 20.6857 221.868 24.5576 218.15 27.623C214.594 30.541 210.287 32 205.222 32C200.158 32 195.844 30.541 192.288 27.623C188.57 24.5576 186.711 20.6857 186.711 16ZM195.171 16.007C195.171 21.5204 196.005 25.3783 197.682 27.5809C199.197 29.587 201.708 30.5901 205.222 30.5901C208.737 30.5901 211.248 29.587 212.756 27.5809C214.432 25.3783 215.267 21.5134 215.267 16.007C215.267 10.5007 214.425 6.6427 212.756 4.43314C211.241 2.42701 208.73 1.42394 205.222 1.42394C201.715 1.42394 199.197 2.42701 197.682 4.43314C196.005 6.6427 195.171 10.5007 195.171 16.007ZM171.728 31.3687H155.672V29.9448H158.492V2.04121H155.672V0.624288H170.332C175.278 0.624288 179.178 1.38185 182.032 2.88996C184.726 4.37001 186.08 6.32705 186.08 8.75406C186.08 11.1811 184.775 13.1241 182.159 14.4919C179.416 15.9439 175.502 16.6664 170.395 16.6664H165.913V29.9518H171.735V31.3757L171.728 31.3687ZM165.906 15.2284H168.74C172.17 15.2284 174.625 14.7725 176.091 13.8536C177.564 12.9347 178.301 11.2302 178.301 8.74003C178.301 4.2648 175.299 2.02718 169.294 2.02718H165.913V15.2284H165.906ZM6.10352e-05 16C6.10352e-05 11.3143 1.8589 7.44235 5.57656 4.37703C9.1329 1.45901 13.4398 0 18.5112 0C23.5827 0 27.8826 1.45901 31.4389 4.37703C35.1566 7.44235 37.0154 11.3143 37.0154 16C37.0154 20.6857 35.1566 24.5576 31.4389 27.623C27.8826 30.541 23.5757 32 18.5112 32C13.4468 32 9.1329 30.541 5.57656 27.623C1.8589 24.5576 6.10352e-05 20.6857 6.10352e-05 16ZM8.45951 16.007C8.45951 21.5204 9.29423 25.3783 10.9707 27.5809C12.4788 29.587 14.997 30.5901 18.5042 30.5901C22.0115 30.5901 24.5297 29.587 26.0448 27.5809C27.7212 25.3713 28.556 21.5134 28.556 16.007C28.556 10.5007 27.7142 6.6427 26.0448 4.43314C24.5297 2.42701 22.0185 1.42394 18.5042 1.42394C14.99 1.42394 12.4788 2.42701 10.9707 4.43314C9.29423 6.6427 8.45951 10.5007 8.45951 16.007Z" fill="#00542B"/>
<rect x="231.727" width="1" height="32" fill="#C4C4C4"/>
<path d="M253.105 26.176C254.065 26.176 254.846 26.0542 255.448 25.8106C256.064 25.567 256.544 25.2518 256.888 24.865C257.232 24.4782 257.468 24.0412 257.597 23.5541C257.726 23.0669 257.79 22.5726 257.79 22.0712C257.79 21.4981 257.712 20.9823 257.554 20.5238C257.411 20.0654 257.153 19.6785 256.78 19.3633C256.422 19.0481 255.942 18.8046 255.34 18.6326C254.739 18.4607 253.979 18.3747 253.062 18.3747H247.99V26.176H253.105ZM247.99 5.78106V13.5178H251.773C252.575 13.5178 253.299 13.4605 253.943 13.3459C254.588 13.2313 255.133 13.0307 255.577 12.7441C256.035 12.4576 256.379 12.0636 256.608 11.5621C256.852 11.0607 256.974 10.4303 256.974 9.67092C256.974 8.9259 256.881 8.30983 256.694 7.8227C256.508 7.32124 256.221 6.92008 255.835 6.61921C255.448 6.31833 254.953 6.10342 254.352 5.97448C253.764 5.84553 253.062 5.78106 252.246 5.78106H247.99ZM252.246 0.343856C254.409 0.343856 256.25 0.544438 257.769 0.945602C259.288 1.34677 260.527 1.91269 261.487 2.64339C262.447 3.37408 263.142 4.26237 263.571 5.30826C264.016 6.35415 264.238 7.52183 264.238 8.81128C264.238 9.51332 264.137 10.1939 263.937 10.8529C263.736 11.4976 263.421 12.1066 262.991 12.6796C262.561 13.2384 262.01 13.7542 261.336 14.227C260.663 14.6998 259.853 15.1081 258.908 15.452C260.971 15.9534 262.497 16.7629 263.485 17.8805C264.474 18.998 264.968 20.445 264.968 22.2216C264.968 23.5541 264.71 24.7934 264.195 25.9396C263.679 27.0857 262.919 28.0886 261.917 28.9483C260.928 29.7936 259.703 30.4598 258.242 30.9469C256.78 31.4197 255.111 31.6561 253.234 31.6561H240.727V0.343856H252.246Z" fill="#555555"/>
<path d="M288.175 25.8536V31.6561H269.306V0.343856H276.57V25.8536H288.175Z" fill="#555555"/>
<path d="M321.65 15.9893C321.65 18.253 321.256 20.3591 320.468 22.3076C319.694 24.2561 318.598 25.9539 317.18 27.4009C315.761 28.8337 314.049 29.9584 312.043 30.775C310.052 31.5917 307.838 32 305.403 32C302.967 32 300.746 31.5917 298.741 30.775C296.735 29.9584 295.015 28.8337 293.583 27.4009C292.164 25.9539 291.061 24.2561 290.273 22.3076C289.499 20.3591 289.113 18.253 289.113 15.9893C289.113 13.7255 289.499 11.6194 290.273 9.67092C291.061 7.72241 292.164 6.03179 293.583 4.59906C295.015 3.16633 296.735 2.04164 298.741 1.22498C300.746 0.408328 302.967 0 305.403 0C307.838 0 310.052 0.415492 312.043 1.24647C314.049 2.06313 315.761 3.18782 317.18 4.62055C318.598 6.05328 319.694 7.7439 320.468 9.69241C321.256 11.6409 321.65 13.7399 321.65 15.9893ZM314.214 15.9893C314.214 14.4419 314.013 13.0522 313.612 11.82C313.211 10.5735 312.631 9.52048 311.872 8.66085C311.127 7.80121 310.21 7.14215 309.121 6.68368C308.032 6.22521 306.793 5.99597 305.403 5.99597C303.999 5.99597 302.745 6.22521 301.642 6.68368C300.553 7.14215 299.629 7.80121 298.87 8.66085C298.125 9.52048 297.551 10.5735 297.15 11.82C296.749 13.0522 296.549 14.4419 296.549 15.9893C296.549 17.5509 296.749 18.955 297.15 20.2015C297.551 21.4336 298.125 22.4795 298.87 23.3391C299.629 24.1988 300.553 24.8578 301.642 25.3163C302.745 25.7605 303.999 25.9825 305.403 25.9825C306.793 25.9825 308.032 25.7605 309.121 25.3163C310.21 24.8578 311.127 24.1988 311.872 23.3391C312.631 22.4795 313.211 21.4336 313.612 20.2015C314.013 18.955 314.214 17.5509 314.214 15.9893Z" fill="#555555"/>
<path d="M340.753 15.4305H351.886V28.6474C350.281 29.8223 348.569 30.6747 346.749 31.2048C344.944 31.7349 343.053 32 341.076 32C338.497 32 336.147 31.5988 334.027 30.7965C331.921 29.9799 330.115 28.8623 328.611 27.4439C327.107 26.0112 325.946 24.3206 325.129 22.3721C324.313 20.4092 323.904 18.2816 323.904 15.9893C323.904 13.6539 324.291 11.512 325.065 9.56347C325.839 7.60063 326.942 5.91001 328.375 4.4916C329.822 3.0732 331.562 1.97 333.597 1.182C335.646 0.394 337.931 0 340.452 0C341.756 0 342.981 0.107455 344.127 0.322364C345.274 0.537273 346.327 0.830982 347.287 1.20349C348.261 1.576 349.149 2.02015 349.951 2.53593C350.754 3.05171 351.47 3.61048 352.101 4.21222L349.994 7.41437C349.665 7.91583 349.235 8.22386 348.705 8.33848C348.189 8.4531 347.63 8.32415 347.029 7.95164C346.456 7.60779 345.911 7.31408 345.395 7.07052C344.894 6.81263 344.378 6.60488 343.848 6.44728C343.318 6.28968 342.759 6.17506 342.172 6.10343C341.584 6.03179 340.925 5.99597 340.195 5.99597C338.833 5.99597 337.609 6.23953 336.52 6.72666C335.431 7.19946 334.499 7.87284 333.726 8.74681C332.966 9.62077 332.379 10.6738 331.964 11.906C331.548 13.1238 331.34 14.4849 331.34 15.9893C331.34 17.6512 331.57 19.1269 332.028 20.4164C332.487 21.7058 333.131 22.7947 333.962 23.683C334.808 24.5713 335.81 25.2518 336.971 25.7246C338.146 26.1831 339.442 26.4124 340.861 26.4124C341.735 26.4124 342.523 26.3264 343.225 26.1545C343.941 25.9825 344.636 25.7533 345.309 25.4668V20.7173H342.215C341.756 20.7173 341.398 20.5955 341.14 20.3519C340.882 20.1083 340.753 19.8003 340.753 19.4278V15.4305Z" fill="#555555"/>
<path d="M373.856 6.70517C373.641 7.04903 373.412 7.30692 373.168 7.47885C372.939 7.65077 372.638 7.73674 372.266 7.73674C371.936 7.73674 371.578 7.63644 371.191 7.43586C370.819 7.22095 370.389 6.98455 369.902 6.72666C369.429 6.46877 368.885 6.23953 368.268 6.03895C367.652 5.82404 366.95 5.71659 366.162 5.71659C364.801 5.71659 363.784 6.0103 363.111 6.59772C362.452 7.17081 362.122 7.95164 362.122 8.94023C362.122 9.57063 362.323 10.0936 362.724 10.5091C363.125 10.9246 363.648 11.2827 364.293 11.5836C364.952 11.8845 365.697 12.1639 366.528 12.4218C367.373 12.6653 368.233 12.9447 369.107 13.2599C369.981 13.5608 370.833 13.919 371.664 14.3345C372.509 14.7499 373.254 15.2801 373.899 15.9248C374.558 16.5695 375.088 17.3575 375.489 18.2888C375.891 19.2057 376.091 20.3161 376.091 21.6199C376.091 23.0669 375.84 24.4209 375.339 25.6817C374.838 26.9425 374.107 28.0457 373.147 28.9913C372.201 29.9225 371.026 30.6604 369.622 31.2048C368.233 31.7349 366.649 32 364.873 32C363.899 32 362.903 31.8997 361.886 31.6991C360.883 31.4985 359.908 31.2192 358.963 30.861C358.017 30.4885 357.129 30.0515 356.298 29.55C355.467 29.0486 354.743 28.4898 354.127 27.8737L356.277 24.4782C356.448 24.2346 356.671 24.034 356.943 23.8764C357.229 23.7045 357.537 23.6185 357.867 23.6185C358.297 23.6185 358.726 23.7546 359.156 24.0269C359.6 24.2991 360.095 24.6 360.639 24.9295C361.198 25.259 361.835 25.5599 362.552 25.8321C363.268 26.1043 364.114 26.2404 365.088 26.2404C366.406 26.2404 367.43 25.9539 368.161 25.3808C368.892 24.7934 369.257 23.8693 369.257 22.6085C369.257 21.8778 369.056 21.2832 368.655 20.8247C368.254 20.3662 367.724 19.9866 367.065 19.6857C366.42 19.3848 365.682 19.1198 364.851 18.8905C364.02 18.6613 363.168 18.4106 362.294 18.1383C361.42 17.8518 360.568 17.5079 359.737 17.1068C358.906 16.6913 358.161 16.154 357.501 15.495C356.857 14.8216 356.334 13.9906 355.933 13.002C355.531 11.9991 355.331 10.767 355.331 9.30557C355.331 8.13074 355.567 6.98455 356.04 5.86702C356.513 4.7495 357.208 3.75375 358.125 2.87978C359.042 2.00582 360.166 1.31095 361.499 0.795163C362.831 0.265054 364.357 0 366.076 0C367.036 0 367.968 0.0788008 368.87 0.236401C369.787 0.379674 370.654 0.601746 371.471 0.902618C372.287 1.18917 373.047 1.54018 373.749 1.95567C374.465 2.35684 375.103 2.81531 375.661 3.33109L373.856 6.70517Z" fill="#555555"/>
</svg>
