<svg width="418" height="32" viewBox="0 0 418 32" fill="none" xmlns="http://www.w3.org/2000/svg">
<path d="M122.283 31.3757H112.112V29.9518H114.925V2.04121H112.112V0.624288H123.258L132.819 22.4884L142.751 0.624288H153.897V2.04121H151.085V29.9518H153.897V31.3757H138.648V29.9518H143.614V3.33187L131.409 29.9518H128.772L124.556 20.1736L117.31 3.38097V29.9518H122.276V31.3757H122.283ZM109.854 19.7317H107.89C106.136 24.0105 104.544 27.146 103.477 28.2683C102.418 29.3906 100.805 29.9518 98.6374 29.9518H87.7931V14.7093H92.4507C93.9237 14.7093 95.0671 15.1232 95.8808 15.9579C96.6664 16.7155 97.3468 18.1254 97.929 20.1736C97.9851 20.363 98.0342 20.5524 98.0833 20.7558H100.047V7.24595H98.0833C97.473 9.61684 96.7155 11.2442 95.8176 12.135C95.039 12.9066 93.9167 13.2924 92.4507 13.2924H87.7931V2.04121H99.9842C101.534 2.04121 102.678 2.44104 103.414 3.24068C104.354 4.27883 105.659 6.79702 107.335 10.7953H109.299V0.617273H77.573V2.0342H80.3788V29.9448H76.5769V31.3687H109.854V19.7247V19.7317ZM49.0802 3.15651C49.6554 2.41298 50.6164 2.04121 51.9632 2.04121H55.7019V29.9518H50.9811V31.3757H67.893V29.9518H63.1723V2.04121H66.911C68.2578 2.04121 69.2188 2.41298 69.7869 3.15651C70.5235 4.13854 71.5265 6.64972 72.7891 10.7111H74.7532V0.624288H44.114V10.7111H46.078C47.3406 6.65673 48.3437 4.13854 49.0802 3.15651ZM186.711 16C186.711 11.3143 188.57 7.44235 192.288 4.37703C195.844 1.45901 200.151 0 205.222 0C210.294 0 214.594 1.45901 218.15 4.37703C221.868 7.44235 223.726 11.3143 223.726 16C223.726 20.6857 221.868 24.5576 218.15 27.623C214.594 30.541 210.287 32 205.222 32C200.158 32 195.844 30.541 192.288 27.623C188.57 24.5576 186.711 20.6857 186.711 16ZM195.171 16.007C195.171 21.5204 196.005 25.3783 197.682 27.5809C199.197 29.587 201.708 30.5901 205.222 30.5901C208.737 30.5901 211.248 29.587 212.756 27.5809C214.432 25.3783 215.267 21.5134 215.267 16.007C215.267 10.5007 214.425 6.6427 212.756 4.43314C211.241 2.42701 208.73 1.42394 205.222 1.42394C201.715 1.42394 199.197 2.42701 197.682 4.43314C196.005 6.6427 195.171 10.5007 195.171 16.007ZM171.728 31.3687H155.672V29.9448H158.492V2.04121H155.672V0.624288H170.332C175.277 0.624288 179.178 1.38185 182.032 2.88996C184.726 4.37001 186.08 6.32705 186.08 8.75406C186.08 11.1811 184.775 13.1241 182.159 14.4919C179.416 15.9439 175.502 16.6664 170.395 16.6664H165.913V29.9518H171.735V31.3757L171.728 31.3687ZM165.906 15.2284H168.74C172.17 15.2284 174.625 14.7725 176.091 13.8536C177.564 12.9347 178.301 11.2302 178.301 8.74003C178.301 4.2648 175.299 2.02718 169.294 2.02718H165.913V15.2284H165.906ZM0 16C0 11.3143 1.85883 7.44235 5.5765 4.37703C9.13284 1.45901 13.4397 0 18.5112 0C23.5826 0 27.8825 1.45901 31.4388 4.37703C35.1565 7.44235 37.0153 11.3143 37.0153 16C37.0153 20.6857 35.1565 24.5576 31.4388 27.623C27.8825 30.541 23.5756 32 18.5112 32C13.4467 32 9.13284 30.541 5.5765 27.623C1.85883 24.5576 0 20.6857 0 16ZM8.45945 16.007C8.45945 21.5204 9.29417 25.3783 10.9706 27.5809C12.4787 29.587 14.9969 30.5901 18.5042 30.5901C22.0114 30.5901 24.5296 29.587 26.0447 27.5809C27.7212 25.3713 28.5559 21.5134 28.5559 16.007C28.5559 10.5007 27.7142 6.6427 26.0447 4.43314C24.5296 2.42701 22.0184 1.42394 18.5042 1.42394C14.9899 1.42394 12.4787 2.42701 10.9706 4.43314C9.29417 6.6427 8.45945 10.5007 8.45945 16.007Z" fill="#00542B"/>
<rect x="231.727" width="1" height="32" fill="#C4C4C4"/>
<path d="M263.571 23.5541C263.743 23.5541 263.915 23.5899 264.087 23.6615C264.259 23.7188 264.424 23.8263 264.581 23.9839L267.461 27.0141C266.2 28.6617 264.617 29.9082 262.712 30.7535C260.821 31.5845 258.578 32 255.985 32C253.607 32 251.472 31.5988 249.581 30.7965C247.704 29.9799 246.106 28.8623 244.788 27.4439C243.485 26.0112 242.482 24.3206 241.78 22.3721C241.078 20.4092 240.727 18.2816 240.727 15.9893C240.727 13.6539 241.106 11.512 241.866 9.56347C242.625 7.60063 243.692 5.91001 245.068 4.4916C246.443 3.0732 248.091 1.97 250.011 1.182C251.931 0.394 254.044 0 256.35 0C257.525 0 258.629 0.107454 259.66 0.322364C260.706 0.522945 261.68 0.80949 262.583 1.182C263.485 1.54018 264.316 1.97717 265.076 2.49295C265.835 3.00873 266.509 3.56749 267.096 4.16924L264.646 7.45735C264.488 7.65794 264.302 7.84419 264.087 8.01612C263.872 8.17372 263.571 8.25252 263.185 8.25252C262.927 8.25252 262.683 8.19521 262.454 8.08059C262.225 7.96597 261.981 7.82986 261.723 7.67226C261.465 7.50034 261.179 7.32125 260.864 7.13499C260.563 6.93441 260.197 6.75532 259.768 6.59772C259.352 6.42579 258.858 6.28252 258.285 6.1679C257.726 6.05328 257.067 5.99597 256.307 5.99597C255.104 5.99597 254.001 6.21804 252.998 6.66219C252.009 7.10633 251.15 7.75823 250.419 8.61786C249.703 9.46317 249.144 10.5091 248.743 11.7555C248.356 12.9877 248.162 14.3989 248.162 15.9893C248.162 17.5939 248.377 19.0195 248.807 20.2659C249.251 21.5124 249.846 22.5655 250.591 23.4251C251.35 24.2704 252.231 24.9152 253.234 25.3593C254.237 25.8034 255.312 26.0255 256.458 26.0255C257.117 26.0255 257.719 25.9969 258.263 25.9396C258.808 25.8679 259.316 25.7605 259.789 25.6172C260.262 25.4596 260.706 25.259 261.121 25.0154C261.537 24.7576 261.96 24.4352 262.389 24.0484C262.561 23.9051 262.748 23.7905 262.948 23.7045C263.149 23.6042 263.357 23.5541 263.571 23.5541Z" fill="#555555"/>
<path d="M277.079 31.6561H269.773V0.343856H277.079V31.6561Z" fill="#555555"/>
<path d="M310.672 15.9893C310.672 18.253 310.278 20.3447 309.49 22.2646C308.716 24.1701 307.62 25.8249 306.202 27.229C304.783 28.6188 303.071 29.7076 301.065 30.4956C299.074 31.2693 296.86 31.6561 294.425 31.6561H282.261V0.343856H294.425C296.86 0.343856 299.074 0.737856 301.065 1.52586C303.071 2.31386 304.783 3.40273 306.202 4.79248C307.62 6.18223 308.716 7.83703 309.49 9.75688C310.278 11.6624 310.672 13.7399 310.672 15.9893ZM303.236 15.9893C303.236 14.4419 303.035 13.045 302.634 11.7985C302.233 10.552 301.653 9.49899 300.893 8.63935C300.148 7.76539 299.231 7.09917 298.143 6.6407C297.054 6.1679 295.814 5.9315 294.425 5.9315H289.568V26.0685H294.425C295.814 26.0685 297.054 25.8393 298.143 25.3808C299.231 24.908 300.148 24.2418 300.893 23.3821C301.653 22.5082 302.233 21.448 302.634 20.2015C303.035 18.955 303.236 17.5509 303.236 15.9893Z" fill="#555555"/>
<path d="M329.556 19.6857L326.655 11.1108C326.44 10.5664 326.211 9.92881 325.967 9.19812C325.723 8.4531 325.48 7.65077 325.236 6.79113C325.021 7.6651 324.792 8.47459 324.549 9.21961C324.305 9.96463 324.076 10.6094 323.861 11.1538L320.981 19.6857H329.556ZM341.097 31.6561H335.466C334.836 31.6561 334.327 31.5129 333.94 31.2263C333.553 30.9255 333.26 30.5458 333.059 30.0873L331.211 24.6286H319.305L317.457 30.0873C317.299 30.4885 317.012 30.8538 316.597 31.1833C316.196 31.4985 315.694 31.6561 315.093 31.6561H309.419L321.54 0.343856H328.976L341.097 31.6561Z" fill="#555555"/>
<path d="M371.117 15.9893C371.117 18.253 370.723 20.3447 369.935 22.2646C369.161 24.1701 368.065 25.8249 366.647 27.229C365.228 28.6188 363.516 29.7076 361.51 30.4956C359.519 31.2693 357.305 31.6561 354.87 31.6561H342.706V0.343856H354.87C357.305 0.343856 359.519 0.737856 361.51 1.52586C363.516 2.31386 365.228 3.40273 366.647 4.79248C368.065 6.18223 369.161 7.83703 369.935 9.75688C370.723 11.6624 371.117 13.7399 371.117 15.9893ZM363.681 15.9893C363.681 14.4419 363.48 13.045 363.079 11.7985C362.678 10.552 362.098 9.49899 361.338 8.63935C360.593 7.76539 359.676 7.09917 358.588 6.6407C357.499 6.1679 356.259 5.9315 354.87 5.9315H350.013V26.0685H354.87C356.259 26.0685 357.499 25.8393 358.588 25.3808C359.676 24.908 360.593 24.2418 361.338 23.3821C362.098 22.5082 362.678 21.448 363.079 20.2015C363.48 18.955 363.681 17.5509 363.681 15.9893Z" fill="#555555"/>
<path d="M381.851 5.9315V13.2384H391.694V18.6111H381.851V26.0685H394.703V31.6561H374.544V0.343856H394.703V5.9315H381.851Z" fill="#555555"/>
<path d="M415.624 6.70517C415.409 7.04903 415.18 7.30692 414.936 7.47885C414.707 7.65077 414.406 7.73674 414.033 7.73674C413.704 7.73674 413.346 7.63645 412.959 7.43586C412.586 7.22095 412.157 6.98455 411.669 6.72666C411.197 6.46877 410.652 6.23953 410.036 6.03895C409.42 5.82404 408.718 5.71659 407.93 5.71659C406.569 5.71659 405.552 6.0103 404.878 6.59772C404.219 7.17081 403.89 7.95165 403.89 8.94023C403.89 9.57063 404.09 10.0936 404.492 10.5091C404.893 10.9246 405.416 11.2827 406.06 11.5836C406.719 11.8845 407.464 12.1639 408.295 12.4218C409.141 12.6653 410 12.9447 410.874 13.2599C411.748 13.5608 412.601 13.919 413.432 14.3345C414.277 14.7499 415.022 15.2801 415.667 15.9248C416.326 16.5695 416.856 17.3575 417.257 18.2888C417.658 19.2057 417.859 20.3161 417.859 21.6199C417.859 23.0669 417.608 24.4209 417.107 25.6817C416.605 26.9425 415.875 28.0457 414.915 28.9913C413.969 29.9225 412.794 30.6604 411.39 31.2048C410 31.7349 408.417 32 406.641 32C405.666 32 404.671 31.8997 403.653 31.6991C402.65 31.4985 401.676 31.2192 400.731 30.861C399.785 30.4885 398.897 30.0515 398.066 29.55C397.235 29.0486 396.511 28.4898 395.895 27.8737L398.044 24.4782C398.216 24.2346 398.438 24.034 398.71 23.8764C398.997 23.7045 399.305 23.6185 399.635 23.6185C400.064 23.6185 400.494 23.7546 400.924 24.0269C401.368 24.2991 401.862 24.6 402.407 24.9295C402.966 25.259 403.603 25.5599 404.32 25.8321C405.036 26.1043 405.881 26.2404 406.856 26.2404C408.174 26.2404 409.198 25.9539 409.929 25.3808C410.659 24.7934 411.025 23.8693 411.025 22.6085C411.025 21.8778 410.824 21.2832 410.423 20.8247C410.022 20.3662 409.492 19.9866 408.833 19.6857C408.188 19.3848 407.45 19.1198 406.619 18.8905C405.788 18.6613 404.936 18.4106 404.062 18.1383C403.188 17.8518 402.335 17.5079 401.504 17.1068C400.673 16.6913 399.928 16.154 399.269 15.495C398.624 14.8216 398.102 13.9906 397.7 13.002C397.299 11.9991 397.099 10.767 397.099 9.30557C397.099 8.13074 397.335 6.98455 397.808 5.86702C398.281 4.7495 398.976 3.75375 399.892 2.87978C400.809 2.00582 401.934 1.31095 403.267 0.795163C404.599 0.265054 406.125 0 407.844 0C408.804 0 409.735 0.0788005 410.638 0.236401C411.555 0.379674 412.422 0.601746 413.238 0.902618C414.055 1.18916 414.814 1.54018 415.516 1.95567C416.233 2.35684 416.87 2.81531 417.429 3.33109L415.624 6.70517Z" fill="#555555"/>
</svg>
