<svg width="75" height="32" viewBox="0 0 75 32" fill="none" xmlns="http://www.w3.org/2000/svg">
<path d="M40.9931 10.5181H37.5835V10.0408H38.5264V0.684277H37.5835V0.209281H41.32L44.525 7.5388L47.8547 0.209281H51.5912V0.684277H50.6482V10.0408H51.5912V10.5181H46.4791V10.0408H48.1439V1.11695L44.0524 10.0408H43.1682L41.755 6.76282L39.3259 1.13341V10.0408H40.9908V10.5181H40.9931ZM36.8263 6.61467H36.1679C35.58 8.04907 35.0462 9.10017 34.6888 9.47641C34.3337 9.85264 33.7929 10.0408 33.0663 10.0408H29.4309V4.93102H30.9923C31.4861 4.93102 31.8694 5.06976 32.1422 5.34959C32.4055 5.60354 32.6336 6.07619 32.8288 6.76282C32.8476 6.82631 32.8641 6.8898 32.8805 6.95799H33.539V2.42906H32.8805C32.676 3.22386 32.422 3.7694 32.121 4.06804C31.86 4.3267 31.4838 4.45603 30.9923 4.45603H29.4309V0.684277H33.5178C34.0375 0.684277 34.4208 0.81831 34.6677 1.08638C34.9828 1.43439 35.4201 2.27857 35.9821 3.61891H36.6405V0.206929H26.0049V0.681925H26.9454V10.0384H25.671V10.5158H36.8263V6.61232V6.61467ZM16.4532 1.05816C16.646 0.808904 16.9682 0.684277 17.4197 0.684277H18.673V10.0408H17.0905V10.5181H22.7598V10.0408H21.1773V0.684277H22.4306C22.8821 0.684277 23.2043 0.808904 23.3947 1.05816C23.6416 1.38736 23.9779 2.22919 24.4012 3.59069H25.0596V0.209281H14.7884V3.59069H15.4468C15.87 2.23154 16.2063 1.38736 16.4532 1.05816ZM62.5913 5.36369C62.5913 3.79291 63.2145 2.49491 64.4607 1.46731C65.6529 0.489105 67.0967 0 68.7968 0C70.4969 0 71.9384 0.489105 73.1306 1.46731C74.3769 2.49491 75 3.79291 75 5.36369C75 6.93447 74.3769 8.23248 73.1306 9.26007C71.9384 10.2383 70.4946 10.7274 68.7968 10.7274C67.0991 10.7274 65.6529 10.2383 64.4607 9.26007C63.2145 8.23248 62.5913 6.93447 62.5913 5.36369ZM65.4272 5.36605C65.4272 7.2143 65.707 8.5076 66.269 9.24596C66.7769 9.91848 67.6188 10.2547 68.7968 10.2547C69.9749 10.2547 70.8167 9.91848 71.3223 9.24596C71.8843 8.5076 72.1641 7.21195 72.1641 5.36605C72.1641 3.52014 71.882 2.22684 71.3223 1.48613C70.8144 0.813607 69.9726 0.477348 68.7968 0.477348C67.6211 0.477348 66.7769 0.813607 66.269 1.48613C65.707 2.22684 65.4272 3.52014 65.4272 5.36605ZM57.5686 10.5158H52.1861V10.0384H53.1314V0.684277H52.1861V0.209281H57.1006C58.7584 0.209281 60.0658 0.463239 61.0229 0.968804C61.9258 1.46496 62.3797 2.12102 62.3797 2.93463C62.3797 3.74824 61.9423 4.39959 61.0652 4.85813C60.1458 5.34488 58.8337 5.58708 57.1218 5.58708H55.6192V10.0408H57.5709V10.5181L57.5686 10.5158ZM55.6169 5.10503H56.5669C57.7167 5.10503 58.5397 4.95219 59.0312 4.64415C59.525 4.3361 59.7719 3.7647 59.7719 2.92993C59.7719 1.42969 58.7655 0.679574 56.7526 0.679574H55.6192V5.10503H55.6169ZM0 5.36369C0 3.79291 0.623139 2.49491 1.86942 1.46731C3.06161 0.489105 4.50541 0 6.20552 0C7.90563 0 9.34708 0.489105 10.5393 1.46731C11.7855 2.49491 12.4087 3.79291 12.4087 5.36369C12.4087 6.93447 11.7855 8.23248 10.5393 9.26007C9.34708 10.2383 7.90328 10.7274 6.20552 10.7274C4.50776 10.7274 3.06161 10.2383 1.86942 9.26007C0.623139 8.23248 0 6.93447 0 5.36369ZM2.83587 5.36605C2.83587 7.2143 3.11569 8.5076 3.67769 9.24596C4.18326 9.91848 5.02743 10.2547 6.20317 10.2547C7.3789 10.2547 8.22308 9.91848 8.73099 9.24596C9.29299 8.50525 9.57282 7.21195 9.57282 5.36605C9.57282 3.52014 9.29064 2.22684 8.73099 1.48613C8.22308 0.813607 7.38125 0.477348 6.20317 0.477348C5.02508 0.477348 4.18326 0.813607 3.67769 1.48613C3.11569 2.22684 2.83587 3.52014 2.83587 5.36605Z" fill="#00542B"/>
<path d="M6.6639 28.8187C7.18066 28.8187 7.60101 28.7531 7.92495 28.622C8.25661 28.4909 8.51499 28.3212 8.7001 28.1129C8.88521 27.9047 9.01247 27.6695 9.08188 27.4072C9.1513 27.145 9.18601 26.8789 9.18601 26.6089C9.18601 26.3004 9.14359 26.0228 9.05874 25.776C8.98162 25.5291 8.84278 25.3209 8.64225 25.1512C8.44943 24.9815 8.19105 24.8504 7.86711 24.7579C7.54317 24.6653 7.13439 24.619 6.64077 24.619H3.91042V28.8187H6.6639ZM3.91042 17.8394V22.0044H5.94661C6.37853 22.0044 6.76803 21.9735 7.11511 21.9118C7.46218 21.8501 7.75527 21.7421 7.99437 21.5879C8.24118 21.4336 8.42629 21.2215 8.5497 20.9516C8.68081 20.6816 8.74637 20.3423 8.74637 19.9335C8.74637 19.5324 8.69624 19.2007 8.59597 18.9385C8.49571 18.6686 8.34145 18.4526 8.1332 18.2906C7.92495 18.1287 7.65886 18.013 7.33492 17.9436C7.01869 17.8741 6.64076 17.8394 6.20113 17.8394H3.91042ZM6.20113 14.9124C7.36577 14.9124 8.35687 15.0204 9.17444 15.2363C9.992 15.4523 10.6592 15.757 11.1759 16.1503C11.6927 16.5437 12.0668 17.0219 12.2981 17.5849C12.5372 18.1479 12.6568 18.7765 12.6568 19.4707C12.6568 19.8486 12.6028 20.215 12.4948 20.5698C12.3868 20.9169 12.2172 21.2447 11.9858 21.5532C11.7544 21.854 11.4574 22.1316 11.0949 22.3862C10.7324 22.6407 10.2967 22.8605 9.78761 23.0456C10.8983 23.3156 11.7197 23.7513 12.2519 24.3529C12.7841 24.9545 13.0501 25.7335 13.0501 26.6899C13.0501 27.4072 12.9113 28.0744 12.6337 28.6914C12.356 29.3084 11.9472 29.8483 11.4073 30.3111C10.8751 30.7662 10.2157 31.1248 9.42896 31.3871C8.64225 31.6416 7.7437 31.7688 6.73332 31.7688H0V14.9124H6.20113Z" fill="#555555"/>
<path d="M20.5221 22.8374C21.0543 22.8374 21.5055 22.7718 21.8757 22.6407C22.2536 22.5018 22.5621 22.3129 22.8012 22.0738C23.0403 21.8347 23.2139 21.557 23.3219 21.2408C23.4298 20.9169 23.4838 20.5698 23.4838 20.1996C23.4838 19.4591 23.2409 18.8807 22.755 18.4642C22.2768 18.0477 21.5325 17.8394 20.5221 17.8394H18.9487V22.8374H20.5221ZM28.8288 31.7688H25.2886C24.633 31.7688 24.1626 31.522 23.8772 31.0284L21.0774 26.1346C20.9463 25.9264 20.7998 25.776 20.6378 25.6834C20.4758 25.5831 20.2444 25.533 19.9436 25.533H18.9487V31.7688H15.0383V14.9124H20.5221C21.7407 14.9124 22.7781 15.0397 23.6342 15.2942C24.4981 15.541 25.1999 15.8881 25.7398 16.3354C26.2874 16.7828 26.6847 17.3111 26.9315 17.9204C27.1783 18.5297 27.3017 19.193 27.3017 19.9103C27.3017 20.4579 27.2284 20.9747 27.0819 21.4606C26.9353 21.9465 26.7194 22.3977 26.434 22.8142C26.1486 23.223 25.7938 23.5894 25.3696 23.9133C24.9531 24.2372 24.4711 24.5033 23.9235 24.7116C24.178 24.8427 24.4171 25.0085 24.6408 25.2091C24.8644 25.4019 25.065 25.6333 25.2424 25.9032L28.8288 31.7688Z" fill="#555555"/>
<path d="M38.6911 25.3248L37.1292 20.7086C37.0135 20.4155 36.8901 20.0723 36.759 19.6789C36.6279 19.2779 36.4968 18.846 36.3657 18.3832C36.25 18.8537 36.1266 19.2894 35.9955 19.6905C35.8643 20.0916 35.7409 20.4387 35.6252 20.7317L34.075 25.3248H38.6911ZM44.9038 31.7688H41.8726C41.5333 31.7688 41.2595 31.6917 41.0512 31.5375C40.843 31.3755 40.6849 31.1711 40.5769 30.9243L39.5819 27.9857H33.1725L32.1776 30.9243C32.0928 31.1402 31.9385 31.3369 31.7148 31.5143C31.4989 31.684 31.2289 31.7688 30.905 31.7688H27.8507L34.3758 14.9124H38.3787L44.9038 31.7688Z" fill="#555555"/>
<path d="M55.0833 18.3369C54.9676 18.522 54.8442 18.6608 54.7131 18.7534C54.5897 18.846 54.4277 18.8922 54.2272 18.8922C54.0498 18.8922 53.857 18.8382 53.6487 18.7303C53.4482 18.6146 53.2168 18.4873 52.9546 18.3485C52.7 18.2096 52.407 18.0862 52.0753 17.9783C51.7437 17.8626 51.3657 17.8047 50.9415 17.8047C50.2088 17.8047 49.6612 17.9628 49.2987 18.2791C48.9439 18.5876 48.7665 19.0079 48.7665 19.5401C48.7665 19.8795 48.8745 20.161 49.0904 20.3847C49.3064 20.6083 49.5879 20.8012 49.935 20.9631C50.2898 21.1251 50.6908 21.2755 51.1382 21.4143C51.5933 21.5455 52.056 21.6959 52.5265 21.8655C52.997 22.0275 53.4559 22.2203 53.9032 22.444C54.3583 22.6677 54.7594 22.9531 55.1065 23.3001C55.4612 23.6472 55.7466 24.0714 55.9626 24.5727C56.1785 25.0664 56.2865 25.6641 56.2865 26.366C56.2865 27.145 56.1515 27.8738 55.8816 28.5526C55.6116 29.2313 55.2183 29.8252 54.7015 30.3342C54.1925 30.8356 53.56 31.2328 52.8042 31.5259C52.056 31.8113 51.2038 31.9539 50.2474 31.9539C49.7229 31.9539 49.1868 31.9 48.6392 31.792C48.0993 31.684 47.5749 31.5336 47.0658 31.3408C46.5568 31.1402 46.0786 30.905 45.6312 30.635C45.1839 30.3651 44.7944 30.0643 44.4627 29.7326L45.6196 27.9047C45.7122 27.7736 45.8317 27.6656 45.9783 27.5808C46.1326 27.4882 46.2984 27.4419 46.4758 27.4419C46.7072 27.4419 46.9385 27.5152 47.1699 27.6617C47.409 27.8083 47.6751 27.9703 47.9682 28.1477C48.269 28.325 48.6122 28.487 48.9979 28.6336C49.3835 28.7801 49.8386 28.8534 50.3631 28.8534C51.0726 28.8534 51.6241 28.6991 52.0175 28.3906C52.4108 28.0744 52.6075 27.5769 52.6075 26.8982C52.6075 26.5048 52.4995 26.1847 52.2836 25.9379C52.0676 25.6911 51.7822 25.4867 51.4274 25.3248C51.0803 25.1628 50.6831 25.0201 50.2358 24.8967C49.7884 24.7733 49.3295 24.6383 48.859 24.4918C48.3886 24.3375 47.9296 24.1524 47.4823 23.9364C47.035 23.7128 46.6339 23.4235 46.2791 23.0687C45.932 22.7062 45.6505 22.2589 45.4345 21.7267C45.2186 21.1868 45.1106 20.5235 45.1106 19.7368C45.1106 19.1043 45.2379 18.4873 45.4924 17.8857C45.7469 17.2841 46.121 16.7481 46.6146 16.2776C47.1082 15.8071 47.7137 15.433 48.431 15.1554C49.1483 14.87 49.9697 14.7273 50.8952 14.7273C51.412 14.7273 51.9133 14.7697 52.3992 14.8546C52.8929 14.9317 53.3595 15.0512 53.7991 15.2132C54.2388 15.3675 54.6475 15.5564 55.0255 15.7801C55.4111 15.9961 55.7543 16.2429 56.0551 16.5205L55.0833 18.3369Z" fill="#555555"/>
<path d="M62.0529 31.7688H58.1193V14.9124H62.0529V31.7688Z" fill="#555555"/>
<path d="M75 28.6451V31.7688H64.8422V14.9124H68.7526V28.6451H75Z" fill="#555555"/>
</svg>
