<svg width="248" height="33" viewBox="0 0 248 33" fill="none" xmlns="http://www.w3.org/2000/svg">
<path d="M119.876 9.875V17.054H121.273C122.176 14.1662 122.884 12.3763 123.41 11.6779C123.816 11.1516 124.502 10.8885 125.46 10.8885H128.12V30.7492H124.762V31.7628H136.797V30.7492H133.438V10.8885H136.098C137.057 10.8885 137.742 11.1516 138.148 11.6779C138.671 12.373 139.383 14.1662 140.286 17.054H141.682V9.875H119.876Z" fill="white"/>
<path d="M206.543 30.7461H210.684V31.7596H199.26V30.7461H201.267V10.8854H199.26V9.87183H209.69C213.208 9.87183 215.983 10.4079 218.019 11.4864C219.939 12.5388 220.897 13.9323 220.897 15.6605C220.897 17.3886 219.965 18.7692 218.104 19.7405C216.158 20.7735 213.368 21.29 209.733 21.29H206.539V30.7461M206.539 20.2797H208.553C210.996 20.2797 212.741 19.9516 213.783 19.2987C214.833 18.6458 215.356 17.4309 215.356 15.6605C215.356 12.4771 213.218 10.8854 208.947 10.8854H206.539V20.2765V20.2797Z" fill="white"/>
<path d="M166.653 23.473H165.256C164.009 26.5168 162.875 28.7484 162.118 29.5443C161.361 30.3434 160.214 30.7461 158.671 30.7461H150.953V19.8998H154.267C155.313 19.8998 156.128 20.1954 156.709 20.7866C157.268 21.3258 157.755 22.3263 158.168 23.7881C158.204 23.9245 158.243 24.061 158.278 24.2039H159.675V14.5886H158.278C157.843 16.2745 157.304 17.4343 156.664 18.0677C156.112 18.6167 155.313 18.8895 154.267 18.8895H150.953V10.8887H159.63C160.734 10.8887 161.55 11.1745 162.073 11.743C162.742 12.4804 163.671 14.2735 164.863 17.1191H166.257V9.87842H143.677V10.892H145.671V30.7526H142.969V31.7662H166.65V23.4795" fill="white"/>
<path d="M190.678 11.8014V30.746H187.147V31.7595H198V30.746H195.999V10.8853H198V9.875H190.067L182.999 25.4316L176.193 9.875H168.261V10.8853H170.262V23.7847V30.746H168.261V31.7595H175.498V30.746H171.964V23.7847V11.8338L177.119 23.7847L180.121 30.746H181.995L190.678 11.8014Z" fill="white"/>
<path d="M234.518 32.2014C230.912 32.2014 227.846 31.162 225.315 29.0863C222.671 26.9066 221.346 24.1487 221.346 20.8158C221.346 17.483 222.668 14.7251 225.315 12.5454C227.846 10.4697 230.912 9.43018 234.518 9.43018C238.124 9.43018 241.19 10.4697 243.721 12.5454C246.365 14.7251 247.69 17.483 247.69 20.8158C247.69 24.1487 246.368 26.9066 243.721 29.0863C241.19 31.162 238.124 32.2014 234.518 32.2014ZM234.518 10.4469C232.02 10.4469 230.23 11.1616 229.155 12.5876C227.963 14.1598 227.365 16.9048 227.365 20.8223C227.365 24.7399 227.959 27.488 229.155 29.0602C230.23 30.4863 232.02 31.1977 234.518 31.1977C237.016 31.1977 238.806 30.4863 239.881 29.0602C241.073 27.488 241.668 24.7399 241.668 20.8223C241.668 16.9048 241.07 14.1598 239.881 12.5876C238.806 11.1616 237.016 10.4469 234.518 10.4469Z" fill="white"/>
<path d="M57.3634 20.8514C57.3634 22.7972 57.1068 24.4312 56.5968 25.7566C56.0835 27.0819 55.148 28.3293 53.7804 29.4955C52.663 30.444 51.4091 31.0741 50.0188 31.3925C48.9728 31.6361 47.5208 31.7563 45.6724 31.7563H37.8535V30.915H39.5362V10.7099H37.8535V9.87183H45.8186C47.2804 9.87183 48.6187 10.0051 49.8368 10.2715C51.055 10.5411 52.0653 10.9179 52.8676 11.4019C54.5243 12.4479 55.7067 13.7862 56.4116 15.4136C57.045 16.8462 57.3634 18.6588 57.3634 20.8482M51.2986 20.3382C51.2986 17.2977 51.1265 15.2187 50.7887 14.1013C50.1065 11.8404 48.6447 10.7099 46.4033 10.7099H45.0877V30.915H46.7314C48.8039 30.915 50.152 29.6514 50.7887 27.1241C51.1265 25.763 51.2986 23.4989 51.2986 20.3415" fill="white"/>
<path d="M78.7026 31.7595H69.2043V30.9182H71.6146L69.2043 23.2097H63.8736L61.6062 30.9182H64.4518V31.7595H59.3389V30.9182H60.6903L67.0863 9.875H70.6661L77.426 30.9182H78.7059V31.7595H78.7026ZM69.0581 22.4431L66.6445 14.2149L64.1043 22.4431H69.0549H69.0581Z" fill="white"/>
<path d="M96.8571 16.9242H95.6877L95.3206 14.9524C95.1744 14.2475 94.9568 13.4906 94.6644 12.6882C94.2974 11.7397 93.9888 11.1907 93.7322 11.0445C93.4756 10.8984 93.2287 10.8074 92.9818 10.7716C92.7382 10.7359 92.4101 10.7164 91.9975 10.7164H91.3381V30.9215H92.9818V31.7628H84.0682V30.9215H85.7476V10.7164H84.8738C84.3865 10.7164 83.9707 10.8139 83.6296 11.0088C83.2885 11.2037 82.9475 11.7137 82.6064 12.5421C82.3628 13.1268 82.1548 13.8316 81.9859 14.66L81.5117 16.9242H80.417V9.87183H96.8604V16.9242H96.8571Z" fill="white"/>
<path d="M118.197 31.7595H108.698V30.9182H111.109L108.698 23.2097H103.368L101.1 30.9182H103.946V31.7595H98.833V30.9182H100.184L106.58 9.875H110.16L116.92 30.9182H118.2V31.7595H118.197ZM108.552 22.4431L106.139 14.2149L103.598 22.4431H108.549H108.552Z" fill="white"/>
<path d="M9.78077 12.5193H0.0419922V31.7498H9.78077V12.5193Z" fill="white"/>
<path d="M20.2895 23.5281H10.5508V31.7498H20.2895V23.5281Z" fill="white"/>
<path d="M20.2895 6.36035H10.5508V22.7583H20.2895V6.36035Z" fill="white"/>
<path d="M30.7953 16.3816H21.0566V31.7498H30.7953V16.3816Z" fill="white"/>
<path d="M30.7953 0.201416H21.0566V15.6118H30.7953V0.201416Z" fill="white"/>
</svg>
