<svg width="75" height="28" viewBox="0 0 75 28" fill="none" xmlns="http://www.w3.org/2000/svg">
<path d="M40.9931 10.5181H37.5835V10.0408H38.5264V0.684277H37.5835V0.209281H41.32L44.525 7.5388L47.8547 0.209281H51.5912V0.684277H50.6482V10.0408H51.5912V10.5181H46.4791V10.0408H48.1439V1.11695L44.0524 10.0408H43.1682L41.755 6.76282L39.3259 1.13341V10.0408H40.9908V10.5181H40.9931ZM36.8263 6.61467H36.1679C35.58 8.04907 35.0462 9.10017 34.6888 9.47641C34.3337 9.85264 33.7929 10.0408 33.0663 10.0408H29.4309V4.93102H30.9923C31.4861 4.93102 31.8694 5.06976 32.1422 5.34959C32.4055 5.60354 32.6336 6.07619 32.8288 6.76282C32.8476 6.82631 32.8641 6.8898 32.8805 6.95799H33.539V2.42906H32.8805C32.676 3.22386 32.422 3.7694 32.121 4.06804C31.86 4.3267 31.4838 4.45603 30.9923 4.45603H29.4309V0.684277H33.5178C34.0375 0.684277 34.4208 0.81831 34.6677 1.08638C34.9828 1.43439 35.4201 2.27857 35.9821 3.61891H36.6405V0.206929H26.0049V0.681925H26.9454V10.0384H25.671V10.5158H36.8263V6.61232V6.61467ZM16.4532 1.05816C16.646 0.808904 16.9682 0.684277 17.4197 0.684277H18.673V10.0408H17.0905V10.5181H22.7598V10.0408H21.1773V0.684277H22.4306C22.8821 0.684277 23.2043 0.808904 23.3947 1.05816C23.6416 1.38736 23.9779 2.22919 24.4012 3.59069H25.0596V0.209281H14.7884V3.59069H15.4468C15.87 2.23154 16.2063 1.38736 16.4532 1.05816ZM62.5913 5.36369C62.5913 3.79291 63.2145 2.49491 64.4607 1.46731C65.6529 0.489105 67.0967 0 68.7968 0C70.4969 0 71.9384 0.489105 73.1306 1.46731C74.3769 2.49491 75 3.79291 75 5.36369C75 6.93447 74.3769 8.23248 73.1306 9.26007C71.9384 10.2383 70.4946 10.7274 68.7968 10.7274C67.0991 10.7274 65.6529 10.2383 64.4607 9.26007C63.2145 8.23248 62.5913 6.93447 62.5913 5.36369ZM65.4272 5.36605C65.4272 7.2143 65.707 8.5076 66.269 9.24596C66.7769 9.91848 67.6188 10.2547 68.7968 10.2547C69.9749 10.2547 70.8167 9.91848 71.3223 9.24596C71.8843 8.5076 72.1641 7.21195 72.1641 5.36605C72.1641 3.52014 71.882 2.22684 71.3223 1.48613C70.8144 0.813607 69.9726 0.477348 68.7968 0.477348C67.6211 0.477348 66.7769 0.813607 66.269 1.48613C65.707 2.22684 65.4272 3.52014 65.4272 5.36605ZM57.5686 10.5158H52.1861V10.0384H53.1314V0.684277H52.1861V0.209281H57.1006C58.7584 0.209281 60.0658 0.463239 61.0229 0.968804C61.9258 1.46496 62.3797 2.12102 62.3797 2.93463C62.3797 3.74824 61.9423 4.39959 61.0652 4.85813C60.1458 5.34488 58.8337 5.58708 57.1218 5.58708H55.6192V10.0408H57.5709V10.5181L57.5686 10.5158ZM55.6169 5.10503H56.5669C57.7167 5.10503 58.5397 4.95219 59.0312 4.64415C59.525 4.3361 59.7719 3.7647 59.7719 2.92993C59.7719 1.42969 58.7655 0.679574 56.7526 0.679574H55.6192V5.10503H55.6169ZM0 5.36369C0 3.79291 0.623139 2.49491 1.86942 1.46731C3.06161 0.489105 4.50541 0 6.20552 0C7.90563 0 9.34708 0.489105 10.5393 1.46731C11.7855 2.49491 12.4087 3.79291 12.4087 5.36369C12.4087 6.93447 11.7855 8.23248 10.5393 9.26007C9.34708 10.2383 7.90328 10.7274 6.20552 10.7274C4.50776 10.7274 3.06161 10.2383 1.86942 9.26007C0.623139 8.23248 0 6.93447 0 5.36369ZM2.83587 5.36605C2.83587 7.2143 3.11569 8.5076 3.67769 9.24596C4.18326 9.91848 5.02743 10.2547 6.20317 10.2547C7.3789 10.2547 8.22308 9.91848 8.73099 9.24596C9.29299 8.50525 9.57282 7.21195 9.57282 5.36605C9.57282 3.52014 9.29064 2.22684 8.73099 1.48613C8.22308 0.813607 7.38125 0.477348 6.20317 0.477348C5.02508 0.477348 4.18326 0.813607 3.67769 1.48613C3.11569 2.22684 2.83587 3.52014 2.83587 5.36605Z" fill="#00542B"/>
<path d="M9.67075 17.0993H6.24674V27.0289H3.42401V17.0993H0V14.8612H9.67075V17.0993Z" fill="#555555"/>
<path d="M15.8486 24.7992C16.2272 24.7992 16.564 24.7379 16.8591 24.6154C17.1597 24.4874 17.4131 24.3064 17.6191 24.0726C17.8251 23.8388 17.9809 23.5548 18.0867 23.2208C18.1981 22.8811 18.2538 22.497 18.2538 22.0683V14.8612H21.0765V22.0683C21.0765 22.8143 20.954 23.4991 20.709 24.1227C20.4696 24.7463 20.1244 25.2835 19.6735 25.7345C19.2225 26.1855 18.6741 26.5362 18.0283 26.7868C17.3824 27.0373 16.6559 27.1626 15.8486 27.1626C15.0357 27.1626 14.3064 27.0373 13.6606 26.7868C13.0147 26.5362 12.4663 26.1855 12.0154 25.7345C11.5644 25.2835 11.2192 24.7463 10.9798 24.1227C10.7404 23.4991 10.6207 22.8143 10.6207 22.0683V14.8612H13.4434V22.0599C13.4434 22.4886 13.4963 22.8728 13.6021 23.2124C13.7135 23.5465 13.8721 23.8332 14.0781 24.0726C14.2841 24.3064 14.5347 24.4874 14.8297 24.6154C15.1304 24.7379 15.47 24.7992 15.8486 24.7992Z" fill="#555555"/>
<path d="M26.906 20.5818C27.2902 20.5818 27.6159 20.5344 27.8831 20.4398C28.1559 20.3396 28.3786 20.2032 28.5512 20.0306C28.7238 19.858 28.8491 19.6576 28.927 19.4293C29.005 19.1955 29.044 18.9449 29.044 18.6777C29.044 18.1432 28.8686 17.7256 28.5178 17.425C28.1726 17.1243 27.6354 16.974 26.906 16.974H25.7703V20.5818H26.906ZM32.9022 27.0289H30.3468C29.8735 27.0289 29.5339 26.8508 29.3279 26.4945L27.3069 22.9619C27.2123 22.8116 27.1065 22.703 26.9896 22.6362C26.8726 22.5638 26.7056 22.5276 26.4885 22.5276H25.7703V27.0289H22.9475V14.8612H26.906C27.7857 14.8612 28.5345 14.953 29.1525 15.1368C29.7761 15.3149 30.2827 15.5654 30.6725 15.8884C31.0678 16.2113 31.3545 16.5927 31.5326 17.0325C31.7108 17.4723 31.7999 17.9511 31.7999 18.4689C31.7999 18.8642 31.747 19.2372 31.6412 19.588C31.5354 19.9387 31.3795 20.2644 31.1735 20.5651C30.9675 20.8601 30.7114 21.1246 30.4052 21.3584C30.1046 21.5923 29.7566 21.7843 29.3613 21.9347C29.545 22.0293 29.7176 22.149 29.8791 22.2938C30.0405 22.433 30.1853 22.6 30.3134 22.7949L32.9022 27.0289Z" fill="#555555"/>
<path d="M36.4303 27.0289H33.5908V14.8612H36.4303V27.0289Z" fill="#555555"/>
<path d="M45.1665 17.3331C45.0829 17.4668 44.9939 17.567 44.8992 17.6338C44.8101 17.7006 44.6932 17.734 44.5485 17.734C44.4204 17.734 44.2812 17.695 44.1309 17.6171C43.9861 17.5336 43.8191 17.4417 43.6298 17.3415C43.4461 17.2413 43.2345 17.1522 42.9951 17.0742C42.7557 16.9907 42.4829 16.949 42.1767 16.949C41.6478 16.949 41.2525 17.0631 40.9908 17.2914C40.7347 17.5141 40.6067 17.8175 40.6067 18.2017C40.6067 18.4466 40.6846 18.6498 40.8405 18.8113C40.9964 18.9728 41.1996 19.1119 41.4501 19.2289C41.7062 19.3458 41.9958 19.4543 42.3187 19.5546C42.6472 19.6492 42.9812 19.7578 43.3208 19.8803C43.6604 19.9972 43.9917 20.1364 44.3146 20.2978C44.6431 20.4593 44.9326 20.6653 45.1832 20.9158C45.4393 21.1664 45.6453 21.4726 45.8011 21.8345C45.957 22.1908 46.035 22.6223 46.035 23.1289C46.035 23.6912 45.9375 24.2173 45.7427 24.7073C45.5478 25.1972 45.2639 25.6259 44.8909 25.9934C44.5234 26.3553 44.0669 26.642 43.5213 26.8536C42.9812 27.0596 42.366 27.1626 41.6756 27.1626C41.297 27.1626 40.9101 27.1236 40.5148 27.0456C40.1251 26.9677 39.7465 26.8591 39.379 26.7199C39.0116 26.5752 38.6664 26.4054 38.3435 26.2105C38.0206 26.0157 37.7394 25.7985 37.5 25.5591L38.3351 24.2396C38.4019 24.145 38.4882 24.067 38.594 24.0058C38.7054 23.939 38.8251 23.9056 38.9531 23.9056C39.1201 23.9056 39.2872 23.9585 39.4542 24.0642C39.6268 24.17 39.8189 24.2869 40.0304 24.415C40.2476 24.543 40.4953 24.66 40.7737 24.7657C41.0521 24.8715 41.3805 24.9244 41.7591 24.9244C42.2713 24.9244 42.6694 24.8131 42.9534 24.5904C43.2373 24.3621 43.3793 24.003 43.3793 23.5131C43.3793 23.2291 43.3013 22.9981 43.1454 22.8199C42.9896 22.6417 42.7836 22.4942 42.5275 22.3773C42.2769 22.2604 41.9902 22.1574 41.6673 22.0683C41.3444 21.9792 41.0131 21.8818 40.6735 21.776C40.3339 21.6646 40.0026 21.531 39.6797 21.3751C39.3568 21.2137 39.0673 21.0049 38.8111 20.7488C38.5606 20.4871 38.3574 20.1642 38.2015 19.78C38.0456 19.3903 37.9677 18.9115 37.9677 18.3436C37.9677 17.8871 38.0595 17.4417 38.2433 17.0074C38.427 16.5732 38.697 16.1862 39.0533 15.8466C39.4097 15.507 39.8467 15.237 40.3645 15.0365C40.8823 14.8305 41.4752 14.7275 42.1433 14.7275C42.5163 14.7275 42.8782 14.7582 43.229 14.8194C43.5853 14.8751 43.9221 14.9614 44.2395 15.0783C44.5568 15.1896 44.8519 15.326 45.1247 15.4875C45.4031 15.6434 45.6508 15.8216 45.868 16.022L45.1665 17.3331Z" fill="#555555"/>
<path d="M61.0374 14.8612V27.0289H58.5487V20.0306C58.5487 19.8691 58.5515 19.6938 58.557 19.5045C58.5682 19.3152 58.5849 19.1231 58.6071 18.9282L55.3752 25.1833C55.275 25.3782 55.1386 25.5257 54.966 25.6259C54.799 25.7261 54.6069 25.7762 54.3898 25.7762H54.0056C53.7885 25.7762 53.5936 25.7261 53.421 25.6259C53.254 25.5257 53.1204 25.3782 53.0202 25.1833L49.7882 18.9115C49.8049 19.1119 49.8188 19.3096 49.83 19.5045C49.8411 19.6938 49.8467 19.8691 49.8467 20.0306V27.0289H47.358V14.8612H49.5126C49.6351 14.8612 49.7409 14.8639 49.83 14.8695C49.9246 14.8751 50.0081 14.8918 50.0805 14.9196C50.1529 14.9475 50.2169 14.992 50.2726 15.0532C50.3338 15.1089 50.3923 15.1896 50.448 15.2954L53.5797 21.467C53.691 21.6786 53.7968 21.8985 53.897 22.1268C54.0028 22.355 54.103 22.5889 54.1977 22.8283C54.2923 22.5833 54.3898 22.3439 54.49 22.11C54.5958 21.8762 54.7071 21.6535 54.824 21.4419L57.9474 15.2954C58.0031 15.1896 58.0587 15.1089 58.1144 15.0532C58.1757 14.992 58.2425 14.9475 58.3148 14.9196C58.3872 14.8918 58.468 14.8751 58.557 14.8695C58.6517 14.8639 58.7602 14.8612 58.8827 14.8612H61.0374Z" fill="#555555"/>
<path d="M75 20.9409C75 21.8205 74.8469 22.639 74.5407 23.3961C74.24 24.1533 73.8141 24.8131 73.2629 25.3754C72.7118 25.9321 72.0464 26.3692 71.267 26.6865C70.4931 27.0039 69.6329 27.1626 68.6865 27.1626C67.74 27.1626 66.877 27.0039 66.0976 26.6865C65.3181 26.3692 64.65 25.9321 64.0933 25.3754C63.5421 24.8131 63.1134 24.1533 62.8072 23.3961C62.5065 22.639 62.3562 21.8205 62.3562 20.9409C62.3562 20.0612 62.5065 19.2428 62.8072 18.4856C63.1134 17.7284 63.5421 17.0715 64.0933 16.5147C64.65 15.958 65.3181 15.5209 66.0976 15.2036C66.877 14.8862 67.74 14.7275 68.6865 14.7275C69.6329 14.7275 70.4931 14.889 71.267 15.2119C72.0464 15.5293 72.7118 15.9663 73.2629 16.5231C73.8141 17.0798 74.24 17.7368 74.5407 18.494C74.8469 19.2511 75 20.0668 75 20.9409ZM72.1105 20.9409C72.1105 20.3396 72.0325 19.7995 71.8766 19.3207C71.7207 18.8364 71.4953 18.4271 71.2002 18.0931C70.9107 17.759 70.5544 17.5029 70.1312 17.3248C69.7081 17.1466 69.2265 17.0575 68.6865 17.0575C68.1408 17.0575 67.6537 17.1466 67.225 17.3248C66.8019 17.5029 66.4428 17.759 66.1477 18.0931C65.8582 18.4271 65.6355 18.8364 65.4796 19.3207C65.3237 19.7995 65.2457 20.3396 65.2457 20.9409C65.2457 21.5477 65.3237 22.0933 65.4796 22.5777C65.6355 23.0565 65.8582 23.463 66.1477 23.797C66.4428 24.1311 66.8019 24.3872 67.225 24.5653C67.6537 24.7379 68.1408 24.8242 68.6865 24.8242C69.2265 24.8242 69.7081 24.7379 70.1312 24.5653C70.5544 24.3872 70.9107 24.1311 71.2002 23.797C71.4953 23.463 71.7207 23.0565 71.8766 22.5777C72.0325 22.0933 72.1105 21.5477 72.1105 20.9409Z" fill="#555555"/>
</svg>
