<svg width="75" height="24" viewBox="0 0 75 24" fill="none" xmlns="http://www.w3.org/2000/svg">
<path d="M40.9931 10.5181H37.5835V10.0408H38.5264V0.684277H37.5835V0.209281H41.32L44.525 7.5388L47.8547 0.209281H51.5912V0.684277H50.6482V10.0408H51.5912V10.5181H46.4791V10.0408H48.1439V1.11695L44.0524 10.0408H43.1682L41.755 6.76282L39.3259 1.13341V10.0408H40.9908V10.5181H40.9931ZM36.8263 6.61467H36.1679C35.58 8.04907 35.0462 9.10017 34.6888 9.47641C34.3337 9.85264 33.7929 10.0408 33.0663 10.0408H29.4309V4.93102H30.9923C31.4861 4.93102 31.8694 5.06976 32.1422 5.34959C32.4055 5.60354 32.6336 6.07619 32.8288 6.76282C32.8476 6.82631 32.8641 6.8898 32.8805 6.95799H33.539V2.42906H32.8805C32.676 3.22386 32.422 3.7694 32.121 4.06804C31.86 4.3267 31.4838 4.45603 30.9923 4.45603H29.4309V0.684277H33.5178C34.0375 0.684277 34.4208 0.81831 34.6677 1.08638C34.9828 1.43439 35.4201 2.27857 35.9821 3.61891H36.6405V0.206929H26.0049V0.681925H26.9454V10.0384H25.671V10.5158H36.8263V6.61232V6.61467ZM16.4532 1.05816C16.646 0.808904 16.9682 0.684277 17.4197 0.684277H18.673V10.0408H17.0905V10.5181H22.7598V10.0408H21.1773V0.684277H22.4306C22.8821 0.684277 23.2043 0.808904 23.3947 1.05816C23.6416 1.38736 23.9779 2.22919 24.4012 3.59069H25.0596V0.209281H14.7884V3.59069H15.4468C15.87 2.23154 16.2063 1.38736 16.4532 1.05816ZM62.5913 5.36369C62.5913 3.79291 63.2145 2.49491 64.4607 1.46731C65.6529 0.489105 67.0967 0 68.7968 0C70.4969 0 71.9384 0.489105 73.1306 1.46731C74.3769 2.49491 75 3.79291 75 5.36369C75 6.93447 74.3769 8.23248 73.1306 9.26007C71.9384 10.2383 70.4946 10.7274 68.7968 10.7274C67.0991 10.7274 65.6529 10.2383 64.4607 9.26007C63.2145 8.23248 62.5913 6.93447 62.5913 5.36369ZM65.4272 5.36605C65.4272 7.2143 65.707 8.5076 66.269 9.24596C66.7769 9.91848 67.6188 10.2547 68.7968 10.2547C69.9749 10.2547 70.8167 9.91848 71.3223 9.24596C71.8843 8.5076 72.1641 7.21195 72.1641 5.36605C72.1641 3.52014 71.882 2.22684 71.3223 1.48613C70.8144 0.813607 69.9726 0.477348 68.7968 0.477348C67.6211 0.477348 66.7769 0.813607 66.269 1.48613C65.707 2.22684 65.4272 3.52014 65.4272 5.36605ZM57.5686 10.5158H52.1861V10.0384H53.1314V0.684277H52.1861V0.209281H57.1006C58.7584 0.209281 60.0658 0.463239 61.0229 0.968804C61.9258 1.46496 62.3797 2.12102 62.3797 2.93463C62.3797 3.74824 61.9423 4.39959 61.0652 4.85813C60.1458 5.34488 58.8337 5.58708 57.1218 5.58708H55.6192V10.0408H57.5709V10.5181L57.5686 10.5158ZM55.6169 5.10503H56.5669C57.7167 5.10503 58.5397 4.95219 59.0312 4.64415C59.525 4.3361 59.7719 3.7647 59.7719 2.92993C59.7719 1.42969 58.7655 0.679574 56.7526 0.679574H55.6192V5.10503H55.6169ZM0 5.36369C0 3.79291 0.623139 2.49491 1.86942 1.46731C3.06161 0.489105 4.50541 0 6.20552 0C7.90563 0 9.34708 0.489105 10.5393 1.46731C11.7855 2.49491 12.4087 3.79291 12.4087 5.36369C12.4087 6.93447 11.7855 8.23248 10.5393 9.26007C9.34708 10.2383 7.90328 10.7274 6.20552 10.7274C4.50776 10.7274 3.06161 10.2383 1.86942 9.26007C0.623139 8.23248 0 6.93447 0 5.36369ZM2.83587 5.36605C2.83587 7.2143 3.11569 8.5076 3.67769 9.24596C4.18326 9.91848 5.02743 10.2547 6.20317 10.2547C7.3789 10.2547 8.22308 9.91848 8.73099 9.24596C9.29299 8.50525 9.57282 7.21195 9.57282 5.36605C9.57282 3.52014 9.29064 2.22684 8.73099 1.48613C8.22308 0.813607 7.38125 0.477348 6.20317 0.477348C5.02508 0.477348 4.18326 0.813607 3.67769 1.48613C3.11569 2.22684 2.83587 3.52014 2.83587 5.36605Z" fill="#00542B"/>
<path d="M5.62391 20.2254L4.81364 17.8306C4.75362 17.6785 4.68959 17.5005 4.62157 17.2964C4.55355 17.0883 4.48553 16.8643 4.4175 16.6242C4.35748 16.8683 4.29346 17.0943 4.22544 17.3024C4.15741 17.5105 4.09339 17.6905 4.03337 17.8426L3.2291 20.2254H5.62391ZM8.84701 23.5685H7.27447C7.09841 23.5685 6.95636 23.5285 6.84833 23.4485C6.74029 23.3645 6.65826 23.2584 6.60224 23.1304L6.08607 21.6059H2.76094L2.24476 23.1304C2.20075 23.2424 2.12072 23.3445 2.00468 23.4365C1.89264 23.5245 1.7526 23.5685 1.58454 23.5685H0L3.38515 14.8236H5.46186L8.84701 23.5685Z" fill="#555555"/>
<path d="M12.7229 21.966C12.995 21.966 13.2371 21.922 13.4492 21.834C13.6652 21.7419 13.8473 21.6119 13.9954 21.4438C14.1434 21.2758 14.2554 21.0717 14.3315 20.8316C14.4115 20.5875 14.4515 20.3114 14.4515 20.0033V14.8236H16.4802V20.0033C16.4802 20.5395 16.3922 21.0317 16.2161 21.4798C16.044 21.928 15.796 22.3141 15.4719 22.6382C15.1477 22.9623 14.7536 23.2144 14.2895 23.3945C13.8253 23.5745 13.3031 23.6646 12.7229 23.6646C12.1387 23.6646 11.6145 23.5745 11.1504 23.3945C10.6862 23.2144 10.2921 22.9623 9.96798 22.6382C9.64387 22.3141 9.39579 21.928 9.22373 21.4798C9.05167 21.0317 8.96564 20.5395 8.96564 20.0033V14.8236H10.9943V19.9973C10.9943 20.3054 11.0323 20.5815 11.1084 20.8256C11.1884 21.0657 11.3024 21.2718 11.4505 21.4438C11.5985 21.6119 11.7786 21.7419 11.9907 21.834C12.2067 21.922 12.4508 21.966 12.7229 21.966Z" fill="#555555"/>
<path d="M24.1091 16.4321H21.6482V23.5685H19.6195V16.4321H17.1587V14.8236H24.1091V16.4321Z" fill="#555555"/>
<path d="M33.2835 19.1931C33.2835 19.8253 33.1734 20.4135 32.9534 20.9577C32.7373 21.5018 32.4312 21.976 32.035 22.3801C31.6389 22.7803 31.1608 23.0944 30.6006 23.3225C30.0444 23.5505 29.4262 23.6646 28.7459 23.6646C28.0657 23.6646 27.4455 23.5505 26.8853 23.3225C26.3251 23.0944 25.8449 22.7803 25.4448 22.3801C25.0487 21.976 24.7406 21.5018 24.5205 20.9577C24.3044 20.4135 24.1964 19.8253 24.1964 19.1931C24.1964 18.5608 24.3044 17.9726 24.5205 17.4285C24.7406 16.8843 25.0487 16.4121 25.4448 16.012C25.8449 15.6118 26.3251 15.2977 26.8853 15.0697C27.4455 14.8416 28.0657 14.7275 28.7459 14.7275C29.4262 14.7275 30.0444 14.8436 30.6006 15.0757C31.1608 15.3037 31.6389 15.6178 32.035 16.018C32.4312 16.4181 32.7373 16.8903 32.9534 17.4345C33.1734 17.9786 33.2835 18.5648 33.2835 19.1931ZM31.2068 19.1931C31.2068 18.7609 31.1507 18.3728 31.0387 18.0287C30.9267 17.6805 30.7646 17.3864 30.5525 17.1464C30.3445 16.9063 30.0884 16.7222 29.7843 16.5942C29.4802 16.4661 29.1341 16.4021 28.7459 16.4021C28.3538 16.4021 28.0037 16.4661 27.6956 16.5942C27.3915 16.7222 27.1334 16.9063 26.9213 17.1464C26.7132 17.3864 26.5532 17.6805 26.4411 18.0287C26.3291 18.3728 26.2731 18.7609 26.2731 19.1931C26.2731 19.6292 26.3291 20.0213 26.4411 20.3695C26.5532 20.7136 26.7132 21.0057 26.9213 21.2458C27.1334 21.4858 27.3915 21.6699 27.6956 21.7979C28.0037 21.922 28.3538 21.984 28.7459 21.984C29.1341 21.984 29.4802 21.922 29.7843 21.7979C30.0884 21.6699 30.3445 21.4858 30.5525 21.2458C30.7646 21.0057 30.9267 20.7136 31.0387 20.3695C31.1507 20.0213 31.2068 19.6292 31.2068 19.1931Z" fill="#555555"/>
<path d="M40.3104 16.4321H37.8495V23.5685H35.8208V16.4321H33.36V14.8236H40.3104V16.4321Z" fill="#555555"/>
<path d="M43.1418 16.3841V18.4248H45.8908V19.9253H43.1418V22.008H46.731V23.5685H41.1011V14.8236H46.731V16.3841H43.1418Z" fill="#555555"/>
<path d="M57.5736 14.8236V23.5685H55.785V18.5388C55.785 18.4228 55.787 18.2968 55.791 18.1607C55.799 18.0247 55.811 17.8866 55.827 17.7466L53.5043 22.2421C53.4322 22.3821 53.3342 22.4882 53.2102 22.5602C53.0901 22.6322 52.9521 22.6682 52.796 22.6682H52.5199C52.3639 22.6682 52.2238 22.6322 52.0998 22.5602C51.9797 22.4882 51.8837 22.3821 51.8117 22.2421L49.4889 17.7346C49.5009 17.8786 49.5109 18.0207 49.5189 18.1607C49.5269 18.2968 49.5309 18.4228 49.5309 18.5388V23.5685H47.7423V14.8236H49.2908C49.3788 14.8236 49.4549 14.8256 49.5189 14.8296C49.5869 14.8336 49.6469 14.8456 49.699 14.8656C49.751 14.8856 49.797 14.9176 49.837 14.9616C49.881 15.0016 49.923 15.0597 49.963 15.1357L52.2138 19.5712C52.2938 19.7232 52.3699 19.8813 52.4419 20.0453C52.5179 20.2094 52.5899 20.3775 52.658 20.5495C52.726 20.3735 52.796 20.2014 52.868 20.0333C52.9441 19.8653 53.0241 19.7052 53.1081 19.5532L55.3529 15.1357C55.3929 15.0597 55.4329 15.0016 55.4729 14.9616C55.5169 14.9176 55.565 14.8856 55.617 14.8656C55.669 14.8456 55.727 14.8336 55.791 14.8296C55.8591 14.8256 55.9371 14.8236 56.0251 14.8236H57.5736Z" fill="#555555"/>
<path d="M62.1107 19.115C62.6389 19.115 63.019 18.989 63.2511 18.7369C63.4832 18.4848 63.5992 18.1327 63.5992 17.6805C63.5992 17.4805 63.5692 17.2984 63.5092 17.1344C63.4492 16.9703 63.3571 16.8303 63.2331 16.7142C63.1131 16.5942 62.959 16.5021 62.7709 16.4381C62.5869 16.3741 62.3668 16.3421 62.1107 16.3421H61.0544V19.115H62.1107ZM62.1107 14.8236C62.7269 14.8236 63.2551 14.8976 63.6953 15.0456C64.1394 15.1897 64.5035 15.3898 64.7876 15.6459C65.0757 15.9019 65.2878 16.204 65.4238 16.5522C65.5599 16.9003 65.6279 17.2764 65.6279 17.6805C65.6279 18.1167 65.5579 18.5168 65.4178 18.881C65.2778 19.2451 65.0637 19.5572 64.7756 19.8173C64.4875 20.0774 64.1214 20.2814 63.6772 20.4295C63.2371 20.5735 62.7149 20.6456 62.1107 20.6456H61.0544V23.5685H59.0257V14.8236H62.1107Z" fill="#555555"/>
<path d="M75 19.1931C75 19.8253 74.89 20.4135 74.6699 20.9577C74.4538 21.5018 74.1477 21.976 73.7516 22.3801C73.3554 22.7803 72.8773 23.0944 72.3171 23.3225C71.7609 23.5505 71.1427 23.6646 70.4625 23.6646C69.7822 23.6646 69.162 23.5505 68.6018 23.3225C68.0416 23.0944 67.5615 22.7803 67.1613 22.3801C66.7652 21.976 66.4571 21.5018 66.237 20.9577C66.0209 20.4135 65.9129 19.8253 65.9129 19.1931C65.9129 18.5608 66.0209 17.9726 66.237 17.4285C66.4571 16.8843 66.7652 16.4121 67.1613 16.012C67.5615 15.6118 68.0416 15.2977 68.6018 15.0697C69.162 14.8416 69.7822 14.7275 70.4625 14.7275C71.1427 14.7275 71.7609 14.8436 72.3171 15.0757C72.8773 15.3037 73.3554 15.6178 73.7516 16.018C74.1477 16.4181 74.4538 16.8903 74.6699 17.4345C74.89 17.9786 75 18.5648 75 19.1931ZM72.9233 19.1931C72.9233 18.7609 72.8673 18.3728 72.7552 18.0287C72.6432 17.6805 72.4811 17.3864 72.2691 17.1464C72.061 16.9063 71.8049 16.7222 71.5008 16.5942C71.1967 16.4661 70.8506 16.4021 70.4625 16.4021C70.0703 16.4021 69.7202 16.4661 69.4121 16.5942C69.108 16.7222 68.8499 16.9063 68.6378 17.1464C68.4298 17.3864 68.2697 17.6805 68.1577 18.0287C68.0456 18.3728 67.9896 18.7609 67.9896 19.1931C67.9896 19.6292 68.0456 20.0213 68.1577 20.3695C68.2697 20.7136 68.4298 21.0057 68.6378 21.2458C68.8499 21.4858 69.108 21.6699 69.4121 21.7979C69.7202 21.922 70.0703 21.984 70.4625 21.984C70.8506 21.984 71.1967 21.922 71.5008 21.7979C71.8049 21.6699 72.061 21.4858 72.2691 21.2458C72.4811 21.0057 72.6432 20.7136 72.7552 20.3695C72.8673 20.0213 72.9233 19.6292 72.9233 19.1931Z" fill="#555555"/>
</svg>
