<svg width="227" height="32" viewBox="0 0 227 32" fill="none" xmlns="http://www.w3.org/2000/svg">
<rect width="226.207" height="32" fill="#005328"/>
<path d="M0 0H79.1724L105.379 32H0V0Z" fill="#12C064"/>
<path d="M165.833 23.9471H160.573V23.2107H162.028V8.77566H160.573V8.04284H166.337L171.282 19.3507L176.419 8.04284H182.184V8.77566H180.729V23.2107H182.184V23.9471H174.297V23.2107H176.865V9.44317L170.553 23.2107H169.189L167.009 18.1535L163.261 9.46857V23.2107H165.83V23.9471H165.833ZM159.405 17.925H158.389C157.482 20.1379 156.658 21.7595 156.107 22.34C155.559 22.9204 154.725 23.2107 153.604 23.2107H147.995V15.3275H150.404C151.166 15.3275 151.757 15.5415 152.178 15.9732C152.584 16.365 152.936 17.0942 153.237 18.1535C153.267 18.2515 153.292 18.3494 153.317 18.4546H154.333V11.4675H153.317C153.002 12.6937 152.61 13.5353 152.146 13.9961C151.743 14.3951 151.162 14.5946 150.404 14.5946H147.995V8.77566H154.3C155.102 8.77566 155.694 8.98244 156.074 9.39601C156.561 9.93293 157.235 11.2353 158.102 13.3031H159.118V8.03922H142.71V8.77203H144.161V23.207H142.194V23.9435H159.405V17.9213V17.925ZM127.974 9.35248C128.271 8.96793 128.768 8.77566 129.465 8.77566H131.398V23.2107H128.957V23.9471H137.703V23.2107H135.262V8.77566H137.195C137.892 8.77566 138.389 8.96793 138.683 9.35248C139.064 9.86037 139.582 11.1591 140.235 13.2596H141.251V8.04284H125.405V13.2596H126.421C127.074 11.1627 127.593 9.86037 127.974 9.35248ZM199.154 15.995C199.154 13.5716 200.116 11.5691 202.039 9.98371C203.878 8.47455 206.105 7.71997 208.728 7.71997C211.351 7.71997 213.575 8.47455 215.414 9.98371C217.337 11.5691 218.298 13.5716 218.298 15.995C218.298 18.4183 217.337 20.4209 215.414 22.0062C213.575 23.5154 211.348 24.27 208.728 24.27C206.109 24.27 203.878 23.5154 202.039 22.0062C200.116 20.4209 199.154 18.4183 199.154 15.995ZM203.53 15.9986C203.53 18.85 203.961 20.8453 204.828 21.9845C205.612 23.022 206.911 23.5408 208.728 23.5408C210.546 23.5408 211.845 23.022 212.624 21.9845C213.492 20.8453 213.923 18.8464 213.923 15.9986C213.923 13.1508 213.488 11.1555 212.624 10.0127C211.841 8.97519 210.542 8.45641 208.728 8.45641C206.914 8.45641 205.612 8.97519 204.828 10.0127C203.961 11.1555 203.53 13.1508 203.53 15.9986ZM191.406 23.9435H183.101V23.207H184.56V8.77566H183.101V8.04284H190.684C193.241 8.04284 195.258 8.43465 196.735 9.21462C198.128 9.98009 198.828 10.9922 198.828 12.2475C198.828 13.5027 198.153 14.5076 196.8 15.215C195.382 15.9659 193.357 16.3396 190.716 16.3396H188.398V23.2107H191.409V23.9471L191.406 23.9435ZM188.394 15.5959H189.86C191.634 15.5959 192.904 15.3601 193.662 14.8849C194.424 14.4096 194.805 13.5281 194.805 12.2402C194.805 9.92567 193.252 8.7684 190.147 8.7684H188.398V15.5959H188.394ZM102.59 15.995C102.59 13.5716 103.551 11.5691 105.474 9.98371C107.313 8.47455 109.541 7.71997 112.164 7.71997C114.786 7.71997 117.01 8.47455 118.85 9.98371C120.772 11.5691 121.734 13.5716 121.734 15.995C121.734 18.4183 120.772 20.4209 118.85 22.0062C117.01 23.5154 114.783 24.27 112.164 24.27C109.544 24.27 107.313 23.5154 105.474 22.0062C103.551 20.4209 102.59 18.4183 102.59 15.995ZM106.965 15.9986C106.965 18.85 107.397 20.8453 108.264 21.9845C109.044 23.022 110.346 23.5408 112.16 23.5408C113.974 23.5408 115.276 23.022 116.06 21.9845C116.927 20.8417 117.359 18.8464 117.359 15.9986C117.359 13.1508 116.923 11.1555 116.06 10.0127C115.276 8.97519 113.977 8.45641 112.16 8.45641C110.342 8.45641 109.044 8.97519 108.264 10.0127C107.397 11.1555 106.965 13.1508 106.965 15.9986Z" fill="#FAFAFA"/>
<path d="M19.7856 20.2779C19.9499 20.2779 20.0955 20.3414 20.2224 20.4683L21.4095 21.7561C20.7525 22.5699 19.9424 23.1933 18.9793 23.6263C18.0237 24.0593 16.874 24.2758 15.5301 24.2758C14.3281 24.2758 13.2456 24.0705 12.2825 23.6599C11.3269 23.2493 10.5094 22.6782 9.82997 21.9465C9.15058 21.2149 8.62797 20.3414 8.26215 19.326C7.90379 18.3107 7.72461 17.202 7.72461 16C7.72461 14.7831 7.91872 13.6706 8.30694 12.6628C8.69517 11.6474 9.24017 10.7739 9.94196 10.0423C10.6512 9.31061 11.4948 8.74321 12.4729 8.34005C13.4509 7.92943 14.5334 7.72412 15.7205 7.72412C16.9001 7.72412 17.9453 7.91823 18.8561 8.30645C19.7744 8.69468 20.5546 9.20235 21.1967 9.82948L20.1888 11.2293C20.1291 11.3189 20.0507 11.3973 19.9536 11.4645C19.864 11.5317 19.7371 11.5653 19.5729 11.5653C19.4609 11.5653 19.3452 11.5354 19.2257 11.4757C19.1063 11.4085 18.9756 11.3301 18.8338 11.2405C18.6919 11.1435 18.5277 11.0389 18.341 10.927C18.1544 10.815 17.9379 10.7142 17.6915 10.6246C17.4451 10.5275 17.1577 10.4491 16.8292 10.3894C16.5081 10.3222 16.1349 10.2886 15.7093 10.2886C14.9851 10.2886 14.3207 10.4193 13.7159 10.6806C13.1187 10.9344 12.6035 11.3077 12.1705 11.8005C11.7375 12.2857 11.4015 12.883 11.1626 13.5923C10.9237 14.294 10.8043 15.0966 10.8043 16C10.8043 16.9108 10.9312 17.7209 11.185 18.4301C11.4463 19.1394 11.7972 19.7366 12.2377 20.2219C12.6782 20.7072 13.1971 21.0805 13.7943 21.3418C14.3916 21.5956 15.0336 21.7225 15.7205 21.7225C16.1311 21.7225 16.5007 21.7001 16.8292 21.6553C17.1651 21.6105 17.4712 21.5396 17.7475 21.4426C18.0312 21.3455 18.2962 21.2223 18.5426 21.073C18.7964 20.9162 19.0465 20.7258 19.2929 20.5019C19.3676 20.4347 19.4459 20.3824 19.5281 20.3451C19.6102 20.3003 19.6961 20.2779 19.7856 20.2779Z" fill="#FAFAFA"/>
<path d="M32.0288 17.9822L30.0579 12.5956C29.9608 12.3567 29.86 12.073 29.7555 11.7445C29.651 11.416 29.5464 11.0613 29.4419 10.6806C29.3449 11.0613 29.2441 11.4197 29.1396 11.7557C29.035 12.0842 28.9342 12.3716 28.8372 12.618L26.8774 17.9822H32.0288ZM37.3482 24.0967H35.0189C34.7576 24.0967 34.5448 24.0332 34.3806 23.9063C34.2163 23.7719 34.0931 23.6077 34.011 23.4135L32.8015 20.1099H26.0935L24.884 23.4135C24.8243 23.5853 24.7086 23.742 24.5369 23.8839C24.3652 24.0257 24.1524 24.0967 23.8986 24.0967H21.5468L27.9189 7.9033H30.9873L37.3482 24.0967Z" fill="#FAFAFA"/>
<path d="M52.6756 7.9033V24.0967H51.1302C50.8913 24.0967 50.6897 24.0593 50.5255 23.9847C50.3687 23.9026 50.2156 23.7682 50.0663 23.5815L41.6113 12.7859C41.6561 13.2787 41.6785 13.7341 41.6785 14.1522V24.0967H39.0244V7.9033H40.6034C40.7303 7.9033 40.8386 7.91077 40.9281 7.9257C41.0252 7.93316 41.1073 7.95556 41.1745 7.99289C41.2492 8.02275 41.3201 8.07128 41.3873 8.13847C41.4545 8.1982 41.5291 8.28032 41.6113 8.38485L50.0999 19.2252C50.0775 18.9639 50.0588 18.7063 50.0439 18.4525C50.029 18.1987 50.0215 17.9635 50.0215 17.747V7.9033H52.6756Z" fill="#FAFAFA"/>
<path d="M64.8376 17.9822L62.8666 12.5956C62.7696 12.3567 62.6688 12.073 62.5643 11.7445C62.4598 11.416 62.3552 11.0613 62.2507 10.6806C62.1537 11.0613 62.0529 11.4197 61.9483 11.7557C61.8438 12.0842 61.743 12.3716 61.646 12.618L59.6862 17.9822H64.8376ZM70.157 24.0967H67.8277C67.5664 24.0967 67.3536 24.0332 67.1894 23.9063C67.0251 23.7719 66.9019 23.6077 66.8198 23.4135L65.6103 20.1099H58.9023L57.6928 23.4135C57.6331 23.5853 57.5174 23.742 57.3457 23.8839C57.174 24.0257 56.9612 24.0967 56.7073 24.0967H54.3556L60.7277 7.9033H63.7961L70.157 24.0967Z" fill="#FAFAFA"/>
<path d="M81.3185 21.6105V24.0967H71.8331V7.9033H74.8456V21.6105H81.3185Z" fill="#FAFAFA"/>
</svg>
