<svg width="75" height="29" viewBox="0 0 75 29" fill="none" xmlns="http://www.w3.org/2000/svg">
<path d="M40.9931 10.5181H37.5835V10.0408H38.5264V0.684277H37.5835V0.209281H41.32L44.525 7.5388L47.8547 0.209281H51.5912V0.684277H50.6482V10.0408H51.5912V10.5181H46.4791V10.0408H48.1439V1.11695L44.0524 10.0408H43.1682L41.755 6.76282L39.3259 1.13341V10.0408H40.9908V10.5181H40.9931ZM36.8263 6.61467H36.1679C35.58 8.04907 35.0462 9.10017 34.6888 9.47641C34.3337 9.85264 33.7929 10.0408 33.0663 10.0408H29.4309V4.93102H30.9923C31.4861 4.93102 31.8694 5.06976 32.1422 5.34959C32.4055 5.60354 32.6336 6.07619 32.8288 6.76282C32.8476 6.82631 32.8641 6.8898 32.8805 6.95799H33.539V2.42906H32.8805C32.676 3.22386 32.422 3.7694 32.121 4.06804C31.86 4.3267 31.4838 4.45603 30.9923 4.45603H29.4309V0.684277H33.5178C34.0375 0.684277 34.4208 0.81831 34.6677 1.08638C34.9828 1.43439 35.4201 2.27857 35.9821 3.61891H36.6405V0.206929H26.0049V0.681925H26.9454V10.0384H25.671V10.5158H36.8263V6.61232V6.61467ZM16.4532 1.05816C16.646 0.808904 16.9682 0.684277 17.4197 0.684277H18.673V10.0408H17.0905V10.5181H22.7598V10.0408H21.1773V0.684277H22.4306C22.8821 0.684277 23.2043 0.808904 23.3947 1.05816C23.6416 1.38736 23.9779 2.22919 24.4012 3.59069H25.0596V0.209281H14.7884V3.59069H15.4468C15.87 2.23154 16.2063 1.38736 16.4532 1.05816ZM62.5913 5.36369C62.5913 3.79291 63.2145 2.49491 64.4607 1.46731C65.6529 0.489105 67.0967 0 68.7968 0C70.4969 0 71.9384 0.489105 73.1306 1.46731C74.3769 2.49491 75 3.79291 75 5.36369C75 6.93447 74.3769 8.23248 73.1306 9.26007C71.9384 10.2383 70.4946 10.7274 68.7968 10.7274C67.0991 10.7274 65.6529 10.2383 64.4607 9.26007C63.2145 8.23248 62.5913 6.93447 62.5913 5.36369ZM65.4272 5.36605C65.4272 7.2143 65.707 8.5076 66.269 9.24596C66.7769 9.91848 67.6187 10.2547 68.7968 10.2547C69.9749 10.2547 70.8167 9.91848 71.3223 9.24596C71.8843 8.5076 72.1641 7.21195 72.1641 5.36605C72.1641 3.52014 71.882 2.22684 71.3223 1.48613C70.8144 0.813607 69.9726 0.477348 68.7968 0.477348C67.6211 0.477348 66.7769 0.813607 66.269 1.48613C65.707 2.22684 65.4272 3.52014 65.4272 5.36605ZM57.5686 10.5158H52.1861V10.0384H53.1314V0.684277H52.1861V0.209281H57.1006C58.7584 0.209281 60.0658 0.463239 61.0229 0.968804C61.9258 1.46496 62.3797 2.12102 62.3797 2.93463C62.3797 3.74824 61.9423 4.39959 61.0652 4.85813C60.1458 5.34488 58.8337 5.58708 57.1218 5.58708H55.6192V10.0408H57.5709V10.5181L57.5686 10.5158ZM55.6169 5.10503H56.5669C57.7167 5.10503 58.5397 4.95219 59.0312 4.64415C59.525 4.3361 59.7719 3.7647 59.7719 2.92993C59.7719 1.42969 58.7655 0.679574 56.7526 0.679574H55.6192V5.10503H55.6169ZM0 5.36369C0 3.79291 0.623139 2.49491 1.86942 1.46731C3.06161 0.489105 4.50541 0 6.20552 0C7.90563 0 9.34708 0.489105 10.5393 1.46731C11.7855 2.49491 12.4087 3.79291 12.4087 5.36369C12.4087 6.93447 11.7855 8.23248 10.5393 9.26007C9.34708 10.2383 7.90328 10.7274 6.20552 10.7274C4.50776 10.7274 3.06161 10.2383 1.86942 9.26007C0.623139 8.23248 0 6.93447 0 5.36369ZM2.83587 5.36605C2.83587 7.2143 3.11569 8.5076 3.67769 9.24596C4.18326 9.91848 5.02743 10.2547 6.20317 10.2547C7.3789 10.2547 8.22308 9.91848 8.73099 9.24596C9.29299 8.50525 9.57282 7.21195 9.57282 5.36605C9.57282 3.52014 9.29064 2.22684 8.73099 1.48613C8.22308 0.813607 7.38125 0.477348 6.20317 0.477348C5.02508 0.477348 4.18326 0.813607 3.67769 1.48613C3.11569 2.22684 2.83587 3.52014 2.83587 5.36605Z" fill="#00542B"/>
<path d="M9.6728 24.7005C9.74559 24.7005 9.81839 24.7157 9.89119 24.746C9.96398 24.7703 10.0337 24.8158 10.1005 24.8825L11.3198 26.1655C10.786 26.8632 10.1156 27.3909 9.30882 27.7488C8.50806 28.1007 7.55867 28.2766 6.46066 28.2766C5.45365 28.2766 4.54976 28.1068 3.74901 27.767C2.95431 27.4213 2.27791 26.9481 1.71981 26.3475C1.16777 25.7409 0.743128 25.025 0.445877 24.2C0.148626 23.3689 0 22.4681 0 21.4975C0 20.5086 0.160758 19.6017 0.482275 18.7767C0.803791 17.9456 1.25573 17.2298 1.8381 16.6292C2.42047 16.0286 3.1181 15.5615 3.931 15.2279C4.74389 14.8942 5.63867 14.7274 6.61536 14.7274C7.1128 14.7274 7.57991 14.7729 8.01668 14.8639C8.45953 14.9488 8.87204 15.0702 9.25422 15.2279C9.6364 15.3795 9.98825 15.5646 10.3098 15.783C10.6313 16.0014 10.9164 16.2379 11.1651 16.4927L10.1278 17.885C10.061 17.9699 9.98218 18.0487 9.89119 18.1215C9.80019 18.1883 9.6728 18.2216 9.50901 18.2216C9.39981 18.2216 9.29668 18.1974 9.19962 18.1488C9.10256 18.1003 8.99943 18.0427 8.89024 17.9759C8.78104 17.9032 8.65972 17.8273 8.52626 17.7485C8.39886 17.6635 8.24417 17.5877 8.06218 17.521C7.88626 17.4482 7.67697 17.3875 7.43431 17.339C7.19773 17.2905 6.91867 17.2662 6.59716 17.2662C6.08758 17.2662 5.62047 17.3602 5.19583 17.5483C4.77725 17.7363 4.41327 18.0123 4.10389 18.3763C3.80057 18.7342 3.56398 19.1771 3.39412 19.7049C3.23033 20.2266 3.14844 20.8241 3.14844 21.4975C3.14844 22.1769 3.23943 22.7805 3.42142 23.3083C3.60948 23.836 3.86123 24.2819 4.17668 24.6459C4.4982 25.0038 4.87128 25.2768 5.29592 25.4649C5.72057 25.6529 6.17555 25.7469 6.66085 25.7469C6.93991 25.7469 7.19469 25.7348 7.42521 25.7105C7.65573 25.6802 7.87109 25.6347 8.07128 25.5741C8.27147 25.5073 8.45953 25.4224 8.63545 25.3193C8.81138 25.2101 8.99033 25.0736 9.17232 24.9098C9.24512 24.8491 9.32398 24.8006 9.40891 24.7642C9.49384 24.7217 9.5818 24.7005 9.6728 24.7005Z" fill="#555555"/>
<path d="M15.3923 28.131H12.2984V14.873H15.3923V28.131Z" fill="#555555"/>
<path d="M29.6157 21.4975C29.6157 22.4559 29.4489 23.3416 29.1152 24.1545C28.7876 24.9614 28.3236 25.662 27.723 26.2565C27.1224 26.845 26.3975 27.306 25.5482 27.6396C24.705 27.9672 23.7677 28.131 22.7364 28.131H17.5861V14.873H22.7364C23.7677 14.873 24.705 15.0398 25.5482 15.3735C26.3975 15.7071 27.1224 16.1682 27.723 16.7566C28.3236 17.345 28.7876 18.0457 29.1152 18.8586C29.4489 19.6654 29.6157 20.545 29.6157 21.4975ZM26.4673 21.4975C26.4673 20.8423 26.3823 20.2508 26.2125 19.7231C26.0426 19.1953 25.7969 18.7494 25.4754 18.3854C25.16 18.0154 24.7717 17.7333 24.3107 17.5392C23.8496 17.339 23.3249 17.2389 22.7364 17.2389H20.68V25.7651H22.7364C23.3249 25.7651 23.8496 25.6681 24.3107 25.474C24.7717 25.2738 25.16 24.9917 25.4754 24.6277C25.7969 24.2577 26.0426 23.8087 26.2125 23.281C26.3823 22.7532 26.4673 22.1587 26.4673 21.4975Z" fill="#555555"/>
<path d="M37.6115 23.0626L36.383 19.4319C36.292 19.2014 36.195 18.9314 36.0918 18.622C35.9887 18.3066 35.8856 17.9668 35.7825 17.6029C35.6915 17.9729 35.5944 18.3157 35.4913 18.6311C35.3882 18.9466 35.2911 19.2196 35.2001 19.4501L33.9808 23.0626H37.6115ZM42.4979 28.131H40.1138C39.8469 28.131 39.6316 28.0704 39.4678 27.949C39.304 27.8216 39.1796 27.6609 39.0947 27.4668L38.3121 25.1555H33.271L32.4884 27.4668C32.4217 27.6366 32.3004 27.7913 32.1245 27.9308C31.9546 28.0643 31.7423 28.131 31.4875 28.131H29.0852L34.2173 14.873H37.3658L42.4979 28.131Z" fill="#555555"/>
<path d="M55.2088 21.4975C55.2088 22.4559 55.042 23.3416 54.7083 24.1545C54.3808 24.9614 53.9167 25.662 53.3161 26.2565C52.7155 26.845 51.9906 27.306 51.1413 27.6396C50.2981 27.9672 49.3609 28.131 48.3296 28.131H43.1792V14.873H48.3296C49.3609 14.873 50.2981 15.0398 51.1413 15.3735C51.9906 15.7071 52.7155 16.1682 53.3161 16.7566C53.9167 17.345 54.3808 18.0457 54.7083 18.8586C55.042 19.6654 55.2088 20.545 55.2088 21.4975ZM52.0604 21.4975C52.0604 20.8423 51.9754 20.2508 51.8056 19.7231C51.6357 19.1953 51.39 18.7494 51.0685 18.3854C50.7531 18.0154 50.3648 17.7333 49.9038 17.5392C49.4428 17.339 48.918 17.2389 48.3296 17.2389H46.2731V25.7651H48.3296C48.918 25.7651 49.4428 25.6681 49.9038 25.474C50.3648 25.2738 50.7531 24.9917 51.0685 24.6277C51.39 24.2577 51.6357 23.8087 51.8056 23.281C51.9754 22.7532 52.0604 22.1587 52.0604 21.4975Z" fill="#555555"/>
<path d="M59.7539 17.2389V20.3327H63.9215V22.6076H59.7539V25.7651H65.1954V28.131H56.6601V14.873H65.1954V17.2389H59.7539Z" fill="#555555"/>
<path d="M74.0537 17.5665C73.9627 17.7121 73.8656 17.8213 73.7625 17.8941C73.6654 17.9668 73.538 18.0032 73.3803 18.0032C73.2408 18.0032 73.0891 17.9608 72.9253 17.8759C72.7676 17.7849 72.5856 17.6848 72.3793 17.5756C72.1791 17.4664 71.9486 17.3693 71.6878 17.2844C71.4269 17.1934 71.1297 17.1479 70.796 17.1479C70.2197 17.1479 69.789 17.2723 69.5039 17.521C69.2248 17.7636 69.0853 18.0942 69.0853 18.5128C69.0853 18.7797 69.1702 19.0012 69.3401 19.1771C69.51 19.353 69.7314 19.5047 70.0044 19.6321C70.2834 19.7595 70.5989 19.8777 70.9507 19.9869C71.3086 20.0901 71.6726 20.2084 72.0427 20.3418C72.4127 20.4692 72.7737 20.6209 73.1255 20.7968C73.4834 20.9727 73.7989 21.1972 74.0719 21.4702C74.3509 21.7432 74.5754 22.0768 74.7452 22.4711C74.9151 22.8594 75 23.3295 75 23.8815C75 24.4942 74.8938 25.0675 74.6815 25.6014C74.4692 26.1352 74.1598 26.6023 73.7534 27.0027C73.353 27.397 72.8555 27.7094 72.261 27.9399C71.6726 28.1644 71.0023 28.2766 70.25 28.2766C69.8375 28.2766 69.4159 28.2341 68.9852 28.1492C68.5606 28.0643 68.1481 27.946 67.7477 27.7943C67.3473 27.6366 66.9712 27.4516 66.6193 27.2393C66.2675 27.0269 65.9611 26.7904 65.7003 26.5295L66.6102 25.0918C66.683 24.9887 66.7771 24.9037 66.8923 24.837C67.0137 24.7642 67.1441 24.7278 67.2836 24.7278C67.4656 24.7278 67.6476 24.7854 67.8296 24.9007C68.0176 25.0159 68.2269 25.1433 68.4574 25.2829C68.694 25.4224 68.964 25.5498 69.2673 25.665C69.5706 25.7803 69.9285 25.8379 70.341 25.8379C70.8991 25.8379 71.3329 25.7166 71.6423 25.474C71.9517 25.2252 72.1064 24.834 72.1064 24.3001C72.1064 23.9907 72.0214 23.739 71.8516 23.5449C71.6817 23.3507 71.4573 23.19 71.1782 23.0626C70.9052 22.9352 70.5928 22.823 70.2409 22.7259C69.8891 22.6288 69.5282 22.5227 69.1581 22.4074C68.7881 22.2861 68.4271 22.1405 68.0753 21.9706C67.7234 21.7947 67.408 21.5672 67.1289 21.2882C66.8559 21.0031 66.6345 20.6512 66.4646 20.2326C66.2948 19.808 66.2099 19.2863 66.2099 18.6675C66.2099 18.1701 66.31 17.6848 66.5101 17.2116C66.7103 16.7384 67.0046 16.3168 67.3928 15.9468C67.781 15.5767 68.2573 15.2825 68.8214 15.0641C69.3856 14.8396 70.0317 14.7274 70.7596 14.7274C71.1661 14.7274 71.5604 14.7608 71.9426 14.8275C72.3308 14.8882 72.6978 14.9822 73.0436 15.1096C73.3894 15.2309 73.7109 15.3795 74.0082 15.5555C74.3115 15.7253 74.5814 15.9195 74.818 16.1378L74.0537 17.5665Z" fill="#555555"/>
</svg>
